<svg xmlns="http://www.w3.org/2000/svg" xmlns:xlink="http://www.w3.org/1999/xlink" width="745" height="191" overflow="hidden" xml:space="preserve"><defs><clipPath id="clip0"><rect width="745" height="191" x="1019" y="1090"/></clipPath><clipPath id="clip1"><rect width="94" height="186" x="1018" y="1090"/></clipPath></defs><g clip-path="url(#clip0)" transform="translate(-1019 -1090)"><g><g><g><path fill="#FFF" d="M0 15.5 62 15.5C72.3333 15.5 77.5 20.6667 77.5 31L77.5 155C77.5 165.333 72.3333 170.5 62 170.5L0 170.5 0 155 62 155 62 31 0 31 0 15.5" transform="matrix(1 0 0 1 1671 1090)"/><path fill="#989AAF" d="M0 15.5 0 0 62 0C82.6667 0 93 10.3333 93 31L93 155C93 175.667 82.6667 186 62 186L0 186 0 170.5 62 170.5C72.3333 170.5 77.5 165.333 77.5 155L77.5 31C77.5 20.6667 72.3333 15.5 62 15.5L0 15.5" transform="matrix(1 0 0 1 1671 1090)"/><path fill="#DADCE7" d="M0 155 0 31 62 31 62 155 0 155" transform="matrix(1 0 0 1 1671 1090)"/></g></g></g><g clip-path="url(#clip1)"><g><g><path fill="#989AAF" d="M93 170.5 93 186 31 186C10.3333 186 0 175.667 0 155L0 31C0 10.3333 10.3333 0 31 0L93 0 93 15.5 31 15.5C20.6667 15.5 15.5 20.6667 15.5 31L15.5 155C15.5 165.333 20.6667 170.5 31 170.5L93 170.5" transform="matrix(1 0 0 1 1019 1090)"/><path fill="#FFF" d="M93 170.5 31 170.5C20.6667 170.5 15.5 165.333 15.5 155L15.5 31C15.5 20.6667 20.6667 15.5 31 15.5L93 15.5 93 31 31 31 31 155 93 155 93 170.5" transform="matrix(1 0 0 1 1019 1090)"/><path fill="#DADCE7" d="M93 31 93 155 31 155 31 31 93 31" transform="matrix(1 0 0 1 1019 1090)"/></g></g></g><g><g><g><path fill="#989AAF" d="M186 15.5 0 15.5 0 0 186 0 186 15.5M186 170.5 186 186 0 186 0 170.5 186 170.5" transform="matrix(3.01075 0 0 1 1111 1090)"/><path fill="#FFF" d="M186 170.5 0 170.5 0 155 186 155 186 170.5M186 15.5 186 31 0 31 0 15.5 186 15.5" transform="matrix(3.01075 0 0 1 1111 1090)"/><path fill="#DADCE7" d="M0 31 186 31 186 155 0 155 0 31" transform="matrix(3.01075 0 0 1 1111 1090)"/></g></g></g><text font-family="Montserrat,Montserrat_MSFontService,sans-serif" font-size="83" font-weight="700" transform="matrix(1 0 0 1 1121.38 1212)">Accessibility</text></g></svg>