<svg width="543" height="191" xmlns="http://www.w3.org/2000/svg" xmlns:xlink="http://www.w3.org/1999/xlink" xml:space="preserve" overflow="hidden"><g transform="translate(-2566 -1090)"><g><g><g><path d="M0 15.5 61.9999 15.5C72.3332 15.5 77.4998 20.6666 77.4998 30.9999L77.4998 155C77.4998 165.333 72.3332 170.5 61.9999 170.5L0 170.5 0 155 61.9999 155 61.9999 30.9999 0 30.9999 0 15.5" fill="#FFFFFF" transform="matrix(1 0 0 1 3016 1090)"/><path d="M0 15.5 0 0 61.9999 0C82.6665 0 92.9998 10.3333 92.9998 30.9999L92.9998 155C92.9998 175.666 82.6665 186 61.9999 186L0 186 0 170.5 61.9999 170.5C72.3332 170.5 77.4998 165.333 77.4998 155L77.4998 30.9999C77.4998 20.6666 72.3332 15.5 61.9999 15.5L0 15.5" fill="#989AAF" transform="matrix(1 0 0 1 3016 1090)"/><path d="M0 155 0 30.9999 61.9999 30.9999 61.9999 155 0 155" fill="#DADCE7" transform="matrix(1 0 0 1 3016 1090)"/></g></g></g><g><g><g><path d="M92.9998 170.5 92.9998 186 30.9999 186C10.3333 186 0 175.666 0 155L0 30.9999C0 10.3333 10.3333 0 30.9999 0L92.9998 0 92.9998 15.5 30.9999 15.5C20.6666 15.5 15.5 20.6666 15.5 30.9999L15.5 155C15.5 165.333 20.6666 170.5 30.9999 170.5L92.9998 170.5" fill="#989AAF" transform="matrix(1 0 0 1 2566 1090)"/><path d="M92.9998 170.5 30.9999 170.5C20.6666 170.5 15.5 165.333 15.5 155L15.5 30.9999C15.5 20.6666 20.6666 15.5 30.9999 15.5L92.9998 15.5 92.9998 30.9999 30.9999 30.9999 30.9999 155 92.9998 155 92.9998 170.5" fill="#FFFFFF" transform="matrix(1 0 0 1 2566 1090)"/><path d="M92.9998 30.9999 92.9998 155 30.9999 155 30.9999 30.9999 92.9998 30.9999" fill="#DADCE7" transform="matrix(1 0 0 1 2566 1090)"/></g></g></g><g><g><g><path d="M186 15.5 0 15.5 0 0 186 0 186 15.5M186 170.5 186 186 0 186 0 170.5 186 170.5" fill="#989AAF" transform="matrix(1.93011 0 0 1 2658 1090)"/><path d="M186 170.5 0 170.5 0 155 186 155 186 170.5M186 15.5 186 31 0 31 0 15.5 186 15.5" fill="#FFFFFF" transform="matrix(1.93011 0 0 1 2658 1090)"/><path d="M0 31 186 31 186 155 0 155 0 31" fill="#DADCE7" transform="matrix(1.93011 0 0 1 2658 1090)"/></g></g></g><text font-family="Montserrat,Montserrat_MSFontService,sans-serif" font-weight="700" font-size="83" transform="matrix(1 0 0 1 2709.51 1212)">Audio</text></g></svg>