<svg xmlns="http://www.w3.org/2000/svg" xmlns:xlink="http://www.w3.org/1999/xlink" width="681" height="189" overflow="hidden" xml:space="preserve"><defs><clipPath id="clip0"><rect width="681" height="189" x="1026" y="939"/></clipPath><clipPath id="clip1"><rect width="94" height="185" x="1613" y="939"/></clipPath><clipPath id="clip2"><rect width="93" height="185" x="1026" y="939"/></clipPath><clipPath id="clip3"><rect width="497" height="185" x="1117" y="939"/></clipPath></defs><g clip-path="url(#clip0)" transform="translate(-1026 -939)"><g clip-path="url(#clip1)"><g><g><path fill="#FFF" d="M0 15.4167 61.6666 15.4167C71.9444 15.4167 77.0833 20.5555 77.0833 30.8333L77.0833 154.167C77.0833 164.444 71.9444 169.583 61.6666 169.583L0 169.583 0 154.167 61.6666 154.167 61.6666 30.8333 0 30.8333 0 15.4167" transform="matrix(1.00541 0 0 1 1614 939)"/><path fill="#989AAF" d="M0 15.4167 0 0 61.6666 0C82.2222 0 92.5 10.2778 92.5 30.8333L92.5 154.167C92.5 174.722 82.2222 185 61.6666 185L0 185 0 169.583 61.6666 169.583C71.9444 169.583 77.0833 164.444 77.0833 154.167L77.0833 30.8333C77.0833 20.5555 71.9444 15.4167 61.6666 15.4167L0 15.4167" transform="matrix(1.00541 0 0 1 1614 939)"/><path fill="#DADCE7" d="M0 154.167 0 30.8333 61.6666 30.8333 61.6666 154.167 0 154.167" transform="matrix(1.00541 0 0 1 1614 939)"/></g></g></g><g clip-path="url(#clip2)"><g><g><path fill="#989AAF" d="M92.5 169.583 92.5 185 30.8333 185C10.2778 185 0 174.722 0 154.167L0 30.8333C0 10.2778 10.2778 0 30.8333 0L92.5 0 92.5 15.4167 30.8333 15.4167C20.5555 15.4167 15.4167 20.5555 15.4167 30.8333L15.4167 154.167C15.4167 164.444 20.5555 169.583 30.8333 169.583L92.5 169.583" transform="matrix(1.0054 0 0 1 1026 939)"/><path fill="#FFF" d="M92.5 169.583 30.8333 169.583C20.5555 169.583 15.4167 164.444 15.4167 154.167L15.4167 30.8333C15.4167 20.5555 20.5555 15.4167 30.8333 15.4167L92.5 15.4167 92.5 30.8333 30.8333 30.8333 30.8333 154.167 92.5 154.167 92.5 169.583" transform="matrix(1.0054 0 0 1 1026 939)"/><path fill="#DADCE7" d="M92.5 30.8333 92.5 154.167 30.8333 154.167 30.8333 30.8333 92.5 30.8333" transform="matrix(1.0054 0 0 1 1026 939)"/></g></g></g><g clip-path="url(#clip3)"><g><g><path fill="#989AAF" d="M185 15.4167 0 15.4167 0 0 185 0 185 15.4167M185 169.583 185 185 0 185 0 169.583 185 169.583" transform="matrix(2.68108 0 0 1 1118 939)"/><path fill="#FFF" d="M185 169.583 0 169.583 0 154.167 185 154.167 185 169.583M185 15.4167 185 30.8333 0 30.8333 0 15.4167 185 15.4167" transform="matrix(2.68108 0 0 1 1118 939)"/><path fill="#DADCE7" d="M0 30.8333 185 30.8333 185 154.167 0 154.167 0 30.8333" transform="matrix(2.68108 0 0 1 1118 939)"/></g></g></g><text font-family="Montserrat,Montserrat_MSFontService,sans-serif" font-size="83" font-weight="700" transform="matrix(1 0 0 1 1191.08 1059)">General</text></g></svg>