<svg width="675" height="189" xmlns="http://www.w3.org/2000/svg" xmlns:xlink="http://www.w3.org/1999/xlink" xml:space="preserve" overflow="hidden"><defs><clipPath id="clip0"><rect x="295" y="851" width="675" height="189"/></clipPath></defs><g clip-path="url(#clip0)" transform="translate(-295 -851)"><g><g><g><path d="M93 170.5 93 186 31 186C10.3333 186 0 175.667 0 155L0 31C0 10.3333 10.3333 0 31 0L93 0 93 15.5 31 15.5C20.6667 15.5 15.5 20.6667 15.5 31L15.5 155C15.5 165.333 20.6667 170.5 31 170.5L93 170.5" fill="#167DA8" transform="matrix(1 0 0 1 295 851)"/><path d="M93 170.5 31 170.5C20.6667 170.5 15.5 165.333 15.5 155L15.5 31C15.5 20.6667 20.6667 15.5 31 15.5L93 15.5 93 31 31 31 31 155 93 155 93 170.5" fill="#36BDF7" transform="matrix(1 0 0 1 295 851)"/><path d="M93 31 93 155 31 155 31 31 93 31" fill="#1C9FD7" transform="matrix(1 0 0 1 295 851)"/></g></g></g><g><g><g><path d="M185 15.4167 0 15.4167 0 0 185 0 185 15.4167M185 169.583 185 185 0 185 0 169.583 185 169.583" fill="#167DA8" transform="matrix(2.64324 0 0 1 388 852)"/><path d="M185 169.583 0 169.583 0 154.167 185 154.167 185 169.583M185 15.4167 185 30.8333 0 30.8333 0 15.4167 185 15.4167" fill="#36BDF7" transform="matrix(2.64324 0 0 1 388 852)"/><path d="M0 30.8333 185 30.8333 185 154.167 0 154.167 0 30.8333" fill="#1C9FD7" transform="matrix(2.64324 0 0 1 388 852)"/></g></g></g><g><g><g><path d="M0 15.5 62 15.5C72.3333 15.5 77.5 20.6667 77.5 31L77.5 155C77.5 165.333 72.3333 170.5 62 170.5L0 170.5 0 155 62 155 62 31 0 31 0 15.5" fill="#36BDF7" transform="matrix(1 0 0 1 877 851)"/><path d="M0 15.5 0 0 62 0C82.6667 0 93 10.3333 93 31L93 155C93 175.667 82.6667 186 62 186L0 186 0 170.5 62 170.5C72.3333 170.5 77.5 165.333 77.5 155L77.5 31C77.5 20.6667 72.3333 15.5 62 15.5L0 15.5" fill="#167DA8" transform="matrix(1 0 0 1 877 851)"/><path d="M0 155 0 31 62 31 62 155 0 155" fill="#1C9FD7" transform="matrix(1 0 0 1 877 851)"/></g></g></g><text fill="#FFFFFF" font-family="Montserrat,Montserrat_MSFontService,sans-serif" font-weight="700" font-size="83" transform="matrix(1 0 0 1 454.265 971)">General</text></g></svg>