<svg xmlns="http://www.w3.org/2000/svg" xmlns:xlink="http://www.w3.org/1999/xlink" width="629" height="192" overflow="hidden" xml:space="preserve"><defs><clipPath id="clip0"><rect width="629" height="192" x="1852" y="857"/></clipPath><clipPath id="clip1"><rect width="447" height="187" x="1944" y="856"/></clipPath></defs><g clip-path="url(#clip0)" transform="translate(-1852 -857)"><g><g><g><path fill="#FF627B" d="M0 15.5 61.9999 15.5C72.3332 15.5 77.4998 20.6666 77.4998 30.9999L77.4998 155C77.4998 165.333 72.3332 170.5 61.9999 170.5L0 170.5 0 155 61.9999 155 61.9999 30.9999 0 30.9999 0 15.5" transform="matrix(1 0 0 1 2388 857)"/><path fill="#CD0B2A" d="M0 15.5 0 0 61.9999 0C82.6665 0 92.9998 10.3333 92.9998 30.9999L92.9998 155C92.9998 175.666 82.6665 186 61.9999 186L0 186 0 170.5 61.9999 170.5C72.3332 170.5 77.4998 165.333 77.4998 155L77.4998 30.9999C77.4998 20.6666 72.3332 15.5 61.9999 15.5L0 15.5" transform="matrix(1 0 0 1 2388 857)"/><path fill="#EE2747" d="M0 155 0 30.9999 61.9999 30.9999 61.9999 155 0 155" transform="matrix(1 0 0 1 2388 857)"/></g></g></g><g><g><g><path fill="#CD0B2A" d="M92.9998 170.5 92.9998 186 30.9999 186C10.3333 186 0 175.666 0 155L0 30.9999C0 10.3333 10.3333 0 30.9999 0L92.9998 0 92.9998 15.5 30.9999 15.5C20.6666 15.5 15.5 20.6666 15.5 30.9999L15.5 155C15.5 165.333 20.6666 170.5 30.9999 170.5L92.9998 170.5" transform="matrix(1 0 0 1 1852 857)"/><path fill="#FF627B" d="M92.9998 170.5 30.9999 170.5C20.6666 170.5 15.5 165.333 15.5 155L15.5 30.9999C15.5 20.6666 20.6666 15.5 30.9999 15.5L92.9998 15.5 92.9998 30.9999 30.9999 30.9999 30.9999 155 92.9998 155 92.9998 170.5" transform="matrix(1 0 0 1 1852 857)"/><path fill="#EE2747" d="M92.9998 30.9999 92.9998 155 30.9999 155 30.9999 30.9999 92.9998 30.9999" transform="matrix(1 0 0 1 1852 857)"/></g></g></g><g clip-path="url(#clip1)"><g><g><path fill="#CD0B2A" d="M186 15.5 0 15.5 0 0 186 0 186 15.5M186 170.5 186 186 0 186 0 170.5 186 170.5" transform="matrix(2.39785 0 0 1 1945 857)"/><path fill="#FF627B" d="M186 170.5 0 170.5 0 155 186 155 186 170.5M186 15.5 186 31 0 31 0 15.5 186 15.5" transform="matrix(2.39785 0 0 1 1945 857)"/><path fill="#EE2747" d="M0 31 186 31 186 155 0 155 0 31" transform="matrix(2.39785 0 0 1 1945 857)"/></g></g></g><text fill="#FFF" font-family="Montserrat,Montserrat_MSFontService,sans-serif" font-size="83" font-weight="700" transform="matrix(1 0 0 1 1977.49 980)">Graphics</text></g></svg>