<svg width="637" height="188" xmlns="http://www.w3.org/2000/svg" xmlns:xlink="http://www.w3.org/1999/xlink" xml:space="preserve" overflow="hidden"><defs><clipPath id="clip0"><rect x="1845" y="1090" width="637" height="188"/></clipPath><clipPath id="clip1"><rect x="1844" y="1090" width="94" height="186"/></clipPath><clipPath id="clip2"><rect x="1937" y="1090" width="454" height="186"/></clipPath></defs><g clip-path="url(#clip0)" transform="translate(-1845 -1090)"><g><g><g><path d="M0 15.5 61.9999 15.5C72.3332 15.5 77.4998 20.6666 77.4998 30.9999L77.4998 155C77.4998 165.333 72.3332 170.5 61.9999 170.5L0 170.5 0 155 61.9999 155 61.9999 30.9999 0 30.9999 0 15.5" fill="#FFFFFF" transform="matrix(1 0 0 1 2389 1090)"/><path d="M0 15.5 0 0 61.9999 0C82.6665 0 92.9998 10.3333 92.9998 30.9999L92.9998 155C92.9998 175.666 82.6665 186 61.9999 186L0 186 0 170.5 61.9999 170.5C72.3332 170.5 77.4998 165.333 77.4998 155L77.4998 30.9999C77.4998 20.6666 72.3332 15.5 61.9999 15.5L0 15.5" fill="#989AAF" transform="matrix(1 0 0 1 2389 1090)"/><path d="M0 155 0 30.9999 61.9999 30.9999 61.9999 155 0 155" fill="#DADCE7" transform="matrix(1 0 0 1 2389 1090)"/></g></g></g><g clip-path="url(#clip1)"><g><g><path d="M93 170.5 93 186 31 186C10.3333 186 0 175.667 0 155L0 31C0 10.3333 10.3333 0 31 0L93 0 93 15.5 31 15.5C20.6667 15.5 15.5 20.6667 15.5 31L15.5 155C15.5 165.333 20.6667 170.5 31 170.5L93 170.5" fill="#989AAF" transform="matrix(1 0 0 1 1845 1090)"/><path d="M93 170.5 31 170.5C20.6667 170.5 15.5 165.333 15.5 155L15.5 31C15.5 20.6667 20.6667 15.5 31 15.5L93 15.5 93 31 31 31 31 155 93 155 93 170.5" fill="#FFFFFF" transform="matrix(1 0 0 1 1845 1090)"/><path d="M93 31 93 155 31 155 31 31 93 31" fill="#DADCE7" transform="matrix(1 0 0 1 1845 1090)"/></g></g></g><g clip-path="url(#clip2)"><g><g><path d="M186 15.5 0 15.5 0 0 186 0 186 15.5M186 170.5 186 186 0 186 0 170.5 186 170.5" fill="#989AAF" transform="matrix(2.44086 0 0 1 1937 1090)"/><path d="M186 170.5 0 170.5 0 155 186 155 186 170.5M186 15.5 186 31 0 31 0 15.5 186 15.5" fill="#FFFFFF" transform="matrix(2.44086 0 0 1 1937 1090)"/><path d="M0 31 186 31 186 155 0 155 0 31" fill="#DADCE7" transform="matrix(2.44086 0 0 1 1937 1090)"/></g></g></g><text font-family="Montserrat,Montserrat_MSFontService,sans-serif" font-weight="700" font-size="83" transform="matrix(1 0 0 1 1973.24 1209)">Graphics</text></g></svg>