<svg xmlns="http://www.w3.org/2000/svg" xmlns:xlink="http://www.w3.org/1999/xlink" width="3308" height="1601" overflow="hidden" xml:space="preserve"><defs><clipPath id="clip0"><rect width="3308" height="1601" x="546" y="1325"/></clipPath><clipPath id="clip1"><rect width="3309" height="393" x="545" y="1325"/></clipPath><clipPath id="clip2"><rect width="3310" height="394" x="545" y="1325"/></clipPath><clipPath id="clip3"><rect width="3309" height="393" x="545" y="2533"/></clipPath><clipPath id="clip4"><rect width="3310" height="393" x="545" y="2533"/></clipPath><clipPath id="clip5"><rect width="3309" height="815" x="545" y="1718"/></clipPath><clipPath id="clip6"><rect width="3310" height="816" x="545" y="1718"/></clipPath></defs><g clip-path="url(#clip0)" transform="translate(-546 -1325)"><g clip-path="url(#clip1)"><g clip-path="url(#clip2)"><g><path fill="#989AAF" d="M2813.69 30.9279 90.5207 30.1736 89.012 30.1736 81.4686 30.9279C47.2719 33.4424 30.1736 53.0552 30.1736 89.7664L30.1736 814.686C30.1736 854.918 50.2893 875.034 90.5207 875.034L2806.14 875.034C2846.37 875.034 2866.49 854.918 2866.49 814.686L2866.49 89.7664C2866.49 52.5523 2848.89 32.9395 2813.69 30.9279M0 818.458 0 89.7664C0.502893 29.9221 30.6765 0 90.5207 0L2806.14 0C2866.49 0 2896.66 29.9221 2896.66 89.7664L2896.66 818.458C2895.15 876.291 2864.98 905.207 2806.14 905.207L90.5207 905.207C31.6822 905.207 1.50868 876.291 0 818.458" transform="matrix(1.142 0 0 1 546 1325)"/><path fill="#FFF" d="M2812.18 61.1015 92.0294 60.3471 84.486 61.1015 83.7317 61.1015C68.142 62.6102 60.3471 72.1651 60.3471 89.7664L60.3471 814.686C60.3471 834.802 70.405 844.86 90.5207 844.86L2806.14 844.86C2826.26 844.86 2836.32 834.802 2836.32 814.686L2836.32 89.7664C2836.32 72.1651 2828.27 62.6102 2812.18 61.1015M2813.69 30.9279C2848.89 32.9395 2866.49 52.5523 2866.49 89.7664L2866.49 814.686C2866.49 854.918 2846.37 875.034 2806.14 875.034L90.5207 875.034C50.2893 875.034 30.1736 854.918 30.1736 814.686L30.1736 89.7664C30.1736 53.0552 47.2719 33.4424 81.4686 30.9279L89.012 30.1736 90.5207 30.1736 2813.69 30.9279" transform="matrix(1.142 0 0 1 546 1325)"/><path fill="#DADCE7" d="M2812.18 61.1015C2828.27 62.6102 2836.32 72.1651 2836.32 89.7664L2836.32 814.686C2836.32 834.802 2826.26 844.86 2806.14 844.86L90.5207 844.86C70.405 844.86 60.3471 834.802 60.3471 814.686L60.3471 89.7664C60.3471 72.1651 68.142 62.6102 83.7317 61.1015L84.486 61.1015 92.0294 60.3471 2812.18 61.1015" transform="matrix(1.142 0 0 1 546 1325)"/><path fill="#666880" d="M2896.66 818.458 2896.66 875.034C2896.66 935.381 2866.49 965.554 2806.14 965.554L90.5207 965.554C30.1736 965.554 0 935.381 0 875.034L0 818.458C1.50868 876.291 31.6822 905.207 90.5207 905.207L2806.14 905.207C2864.98 905.207 2895.15 876.291 2896.66 818.458" transform="matrix(1.142 0 0 1 546 1325)"/></g></g></g><g clip-path="url(#clip3)"><g clip-path="url(#clip4)"><g><path fill="#989AAF" d="M2813.69 30.9279 90.5207 30.1736 89.012 30.1736 81.4686 30.9279C47.2719 33.4424 30.1736 53.0552 30.1736 89.7664L30.1736 814.686C30.1736 854.918 50.2893 875.034 90.5207 875.034L2806.14 875.034C2846.37 875.034 2866.49 854.918 2866.49 814.686L2866.49 89.7664C2866.49 52.5523 2848.89 32.9395 2813.69 30.9279M0 818.458 0 89.7664C0.502893 29.9221 30.6765 0 90.5207 0L2806.14 0C2866.49 0 2896.66 29.9221 2896.66 89.7664L2896.66 818.458C2895.15 876.291 2864.98 905.207 2806.14 905.207L90.5207 905.207C31.6822 905.207 1.50868 876.291 0 818.458" transform="matrix(1.142 0 0 1 546 1960.45)"/><path fill="#FFF" d="M2812.18 61.1015 92.0294 60.3471 84.486 61.1015 83.7317 61.1015C68.142 62.6102 60.3471 72.1651 60.3471 89.7664L60.3471 814.686C60.3471 834.802 70.405 844.86 90.5207 844.86L2806.14 844.86C2826.26 844.86 2836.32 834.802 2836.32 814.686L2836.32 89.7664C2836.32 72.1651 2828.27 62.6102 2812.18 61.1015M2813.69 30.9279C2848.89 32.9395 2866.49 52.5523 2866.49 89.7664L2866.49 814.686C2866.49 854.918 2846.37 875.034 2806.14 875.034L90.5207 875.034C50.2893 875.034 30.1736 854.918 30.1736 814.686L30.1736 89.7664C30.1736 53.0552 47.2719 33.4424 81.4686 30.9279L89.012 30.1736 90.5207 30.1736 2813.69 30.9279" transform="matrix(1.142 0 0 1 546 1960.45)"/><path fill="#DADCE7" d="M2812.18 61.1015C2828.27 62.6102 2836.32 72.1651 2836.32 89.7664L2836.32 814.686C2836.32 834.802 2826.26 844.86 2806.14 844.86L90.5207 844.86C70.405 844.86 60.3471 834.802 60.3471 814.686L60.3471 89.7664C60.3471 72.1651 68.142 62.6102 83.7317 61.1015L84.486 61.1015 92.0294 60.3471 2812.18 61.1015" transform="matrix(1.142 0 0 1 546 1960.45)"/><path fill="#666880" d="M2896.66 818.458 2896.66 875.034C2896.66 935.381 2866.49 965.554 2806.14 965.554L90.5207 965.554C30.1736 965.554 0 935.381 0 875.034L0 818.458C1.50868 876.291 31.6822 905.207 90.5207 905.207L2806.14 905.207C2864.98 905.207 2895.15 876.291 2896.66 818.458" transform="matrix(1.142 0 0 1 546 1960.45)"/></g></g></g><g clip-path="url(#clip5)"><g clip-path="url(#clip6)"><path fill="#989AAF" d="M3213.24 35.3198 103.375 34.4583 101.652 34.4583 93.0375 35.3198C53.9847 38.1913 34.4583 60.5892 34.4583 102.514L34.4583 930.375C34.4583 976.32 57.4306 999.292 103.375 999.292L3204.63 999.292C3250.57 999.292 3273.54 976.32 3273.54 930.375L3273.54 102.514C3273.54 60.0149 3253.44 37.617 3213.24 35.3198M0 934.682 0 102.514C0.574306 34.1712 35.0326 0 103.375 0L3204.63 0C3273.54 0 3308 34.1712 3308 102.514L3308 934.682C3306.28 1000.73 3271.82 1033.75 3204.63 1033.75L103.375 1033.75C36.1813 1033.75 1.72292 1000.73 0 934.682" transform="matrix(1 0 0 1.81592 546 1016.55)"/><path fill="#FFF" d="M3211.52 69.7781 105.098 68.9167 96.4833 69.7781 95.6219 69.7781C77.8184 71.501 68.9167 82.4128 68.9167 102.514L68.9167 930.375C68.9167 953.347 80.4028 964.833 103.375 964.833L3204.63 964.833C3227.6 964.833 3239.08 953.347 3239.08 930.375L3239.08 102.514C3239.08 82.4128 3229.89 71.501 3211.52 69.7781M3213.24 35.3198C3253.44 37.617 3273.54 60.0149 3273.54 102.514L3273.54 930.375C3273.54 976.32 3250.57 999.292 3204.63 999.292L103.375 999.292C57.4306 999.292 34.4583 976.32 34.4583 930.375L34.4583 102.514C34.4583 60.5892 53.9847 38.1913 93.0375 35.3198L101.652 34.4583 103.375 34.4583 3213.24 35.3198" transform="matrix(1 0 0 1.81592 546 1016.55)"/><path fill="#DADCE7" d="M3211.52 69.7781C3229.89 71.501 3239.08 82.4128 3239.08 102.514L3239.08 930.375C3239.08 953.347 3227.6 964.833 3204.63 964.833L103.375 964.833C80.4028 964.833 68.9167 953.347 68.9167 930.375L68.9167 102.514C68.9167 82.4128 77.8184 71.501 95.6219 69.7781L96.4833 69.7781 105.098 68.9167 3211.52 69.7781" transform="matrix(1 0 0 1.81592 546 1016.55)"/><path fill="#666880" d="M3308 934.682 3308 999.292C3308 1068.21 3273.54 1102.67 3204.63 1102.67L103.375 1102.67C34.4583 1102.67 0 1068.21 0 999.292L0 934.682C1.72292 1000.73 36.1813 1033.75 103.375 1033.75L3204.63 1033.75C3271.82 1033.75 3306.28 1000.73 3308 934.682" transform="matrix(1 0 0 1.81592 546 1016.55)"/></g></g></g></svg>