<svg width="1158" height="385" xmlns="http://www.w3.org/2000/svg" xmlns:xlink="http://www.w3.org/1999/xlink" xml:space="preserve" overflow="hidden"><defs><filter id="fx0" x="-10%" y="-10%" width="120%" height="120%" filterUnits="userSpaceOnUse" primitiveUnits="userSpaceOnUse"><feComponentTransfer color-interpolation-filters="sRGB"><feFuncR type="discrete" tableValues="0 0"/><feFuncG type="discrete" tableValues="0 0"/><feFuncB type="discrete" tableValues="0 0"/><feFuncA type="linear" slope="0.431373" intercept="0"/></feComponentTransfer><feGaussianBlur stdDeviation="2.80252 2.80252"/></filter><filter id="fx1" x="-10%" y="-10%" width="120%" height="120%" filterUnits="userSpaceOnUse" primitiveUnits="userSpaceOnUse"><feComponentTransfer color-interpolation-filters="sRGB"><feFuncR type="discrete" tableValues="0 0"/><feFuncG type="discrete" tableValues="0 0"/><feFuncB type="discrete" tableValues="0 0"/><feFuncA type="linear" slope="0.431373" intercept="0"/></feComponentTransfer><feGaussianBlur stdDeviation="2.80252 2.80252"/></filter><clipPath id="clip2"><rect x="842" y="1011" width="1158" height="385"/></clipPath><clipPath id="clip3"><rect x="841" y="1010" width="194" height="386"/></clipPath><clipPath id="clip4"><rect x="1035" y="1010" width="386" height="386"/></clipPath></defs><g clip-path="url(#clip2)" transform="translate(-842 -1011)"><g><g><g><path d="M0 32.0833C43.8472 32.0833 81.5451 47.5903 113.094 78.6042L113.896 79.4062C144.91 110.955 160.417 148.653 160.417 192.5 160.417 236.347 144.642 274.045 113.094 305.594 81.5451 337.142 43.8472 352.917 0 352.917L0 320.833C35.2917 320.833 65.5035 308.267 90.6354 283.135L90.6354 282.333C115.767 257.736 128.333 227.792 128.333 192.5 128.333 157.208 115.767 126.997 90.6354 101.865 65.5035 76.7326 35.2917 64.1667 0 64.1667L0 32.0833" fill="#FFFFFF" transform="matrix(1.0026 0 0 1 1807 1011)"/><path d="M0 32.0833 0 0C52.9375 0 98.3889 18.7153 136.354 56.1458 173.785 94.1111 192.5 139.562 192.5 192.5 192.5 245.438 173.785 290.622 136.354 328.052 98.3889 366.017 52.9375 385 0 385L0 352.917C43.8472 352.917 81.5451 337.142 113.094 305.594 144.642 274.045 160.417 236.347 160.417 192.5 160.417 148.653 144.91 110.955 113.896 79.4062L113.094 78.6042C81.5451 47.5903 43.8472 32.0833 0 32.0833" fill="#989AAF" transform="matrix(1.0026 0 0 1 1807 1011)"/><path d="M0 64.1667C35.2917 64.1667 65.5035 76.7326 90.6354 101.865 115.767 126.997 128.333 157.208 128.333 192.5L0 192.5 0 64.1667" fill="#EAEBF3" transform="matrix(1.0026 0 0 1 1807 1011)"/><path d="M128.333 192.5C128.333 227.792 115.767 257.736 90.6354 282.333L90.6354 283.135C65.5035 308.267 35.2917 320.833 0 320.833L0 192.5 128.333 192.5" fill="#DADCE7" transform="matrix(1.0026 0 0 1 1807 1011)"/></g></g></g><g clip-path="url(#clip3)"><g><g><path d="M192.5 352.917 192.5 385C139.562 385 94.1111 366.017 56.1458 328.052 18.7153 290.622 0 245.438 0 192.5 0 139.562 18.7153 94.1111 56.1458 56.1458 94.1111 18.7153 139.562 0 192.5 0L192.5 32.0833C148.653 32.0833 110.955 47.5903 79.4062 78.6042L78.6042 79.4062C47.5903 110.955 32.0833 148.653 32.0833 192.5 32.0833 236.347 47.8576 274.045 79.4062 305.594 110.955 337.142 148.653 352.917 192.5 352.917" fill="#989AAF" transform="matrix(1.0026 0 0 1 842 1011)"/><path d="M192.5 352.917C148.653 352.917 110.955 337.142 79.4062 305.594 47.8576 274.045 32.0833 236.347 32.0833 192.5 32.0833 148.653 47.5903 110.955 78.6042 79.4062L79.4062 78.6042C110.955 47.5903 148.653 32.0833 192.5 32.0833L192.5 64.1667C157.208 64.1667 126.997 76.7326 101.865 101.865 76.7326 126.997 64.1667 157.208 64.1667 192.5 64.1667 227.792 76.7326 257.736 101.865 282.333L101.865 283.135C126.997 308.267 157.208 320.833 192.5 320.833L192.5 352.917" fill="#FFFFFF" transform="matrix(1.0026 0 0 1 842 1011)"/><path d="M192.5 64.1667 192.5 192.5 64.1667 192.5C64.1667 157.208 76.7326 126.997 101.865 101.865 126.997 76.7326 157.208 64.1667 192.5 64.1667" fill="#EAEBF3" transform="matrix(1.0026 0 0 1 842 1011)"/><path d="M192.5 192.5 192.5 320.833C157.208 320.833 126.997 308.267 101.865 283.135L101.865 282.333C76.7326 257.736 64.1667 227.792 64.1667 192.5L192.5 192.5" fill="#DADCE7" transform="matrix(1.0026 0 0 1 842 1011)"/></g></g></g><g clip-path="url(#clip4)"><g><g><path d="M0 32.0833 0 0 385 0 385 32.0833 0 32.0833M385 352.917 385 385 0 385 0 352.917 385 352.917" fill="#989AAF" transform="matrix(1.0026 0 0 1 1035 1011)"/><path d="M385 352.917 0 352.917 0 320.833 385 320.833 385 352.917M385 32.0833 385 64.1667 0 64.1667 0 32.0833 385 32.0833" fill="#FFFFFF" transform="matrix(1.0026 0 0 1 1035 1011)"/><path d="M385 192.5 385 320.833 0 320.833 0 192.5 385 192.5" fill="#DADCE7" transform="matrix(1.0026 0 0 1 1035 1011)"/><path d="M385 192.5 0 192.5 0 64.1667 385 64.1667 385 192.5" fill="#EAEBF3" transform="matrix(1.0026 0 0 1 1035 1011)"/></g></g></g><g><g><g><path d="M0 32.0833 0 0 385 0 385 32.0833 0 32.0833M385 352.917 385 385 0 385 0 352.917 385 352.917" fill="#989AAF" transform="matrix(1.0026 0 0 1 1421 1011)"/><path d="M385 352.917 0 352.917 0 320.833 385 320.833 385 352.917M385 32.0833 385 64.1667 0 64.1667 0 32.0833 385 32.0833" fill="#FFFFFF" transform="matrix(1.0026 0 0 1 1421 1011)"/><path d="M385 192.5 385 320.833 0 320.833 0 192.5 385 192.5" fill="#DADCE7" transform="matrix(1.0026 0 0 1 1421 1011)"/><path d="M385 192.5 0 192.5 0 64.1667 385 64.1667 385 192.5" fill="#EAEBF3" transform="matrix(1.0026 0 0 1 1421 1011)"/></g></g></g><g filter="url(#fx0)" transform="translate(1312 1141)"><g><path d="M44.289 80.2903 44.289 103.741 71.6915 103.741C77.3179 103.748 81.5823 102.784 84.485 100.851 87.3876 98.9172 88.8458 95.9721 88.8596 92.0155 88.8458 88.0589 87.3876 85.1138 84.485 83.1803 81.5823 81.2467 77.3179 80.2834 71.6915 80.2903ZM44.289 35.4103 44.289 57.7059 66.741 57.7059C72.1957 57.7024 76.3092 56.7597 79.0812 54.8776 81.8533 52.9956 83.2427 50.1948 83.2496 46.4754 83.2427 42.8352 81.8533 40.0826 79.0812 38.2178 76.3092 36.353 72.1957 35.4171 66.741 35.4103ZM11.9696 11.8359 71.0333 11.8359C86.1967 11.9799 97.5237 14.7829 105.014 20.245 112.505 25.707 116.243 32.9641 116.229 42.0163 116.201 47.5832 114.855 52.5086 112.189 56.7924 109.524 61.0763 105.705 64.5129 100.732 67.1023 107.311 69.4338 112.457 73.0139 116.171 77.8424 119.884 82.671 121.774 88.6064 121.839 95.6487 121.798 105.701 117.757 113.474 109.717 118.968 101.677 124.461 89.8831 127.243 74.335 127.315L11.9696 127.315Z" stroke="#FFFFFF" stroke-width="3" stroke-linejoin="round" stroke-miterlimit="10" fill="#FFFFFF" fill-rule="evenodd"/></g></g><path d="M1350.34 1215.35 1350.34 1238.8 1377.75 1238.8C1383.37 1238.8 1387.64 1237.84 1390.54 1235.91 1393.44 1233.97 1394.9 1231.03 1394.91 1227.07 1394.9 1223.11 1393.44 1220.17 1390.54 1218.24 1387.64 1216.3 1383.37 1215.34 1377.75 1215.35ZM1350.34 1170.47 1350.34 1192.76 1372.8 1192.76C1378.25 1192.76 1382.36 1191.81 1385.14 1189.93 1387.91 1188.05 1389.3 1185.25 1389.3 1181.53 1389.3 1177.89 1387.91 1175.14 1385.14 1173.27 1382.36 1171.41 1378.25 1170.47 1372.8 1170.47ZM1318.02 1146.89 1377.09 1146.89C1392.25 1147.03 1403.58 1149.84 1411.07 1155.3 1418.56 1160.76 1422.3 1168.02 1422.28 1177.07 1422.26 1182.64 1420.91 1187.56 1418.24 1191.85 1415.58 1196.13 1411.76 1199.57 1406.79 1202.16 1413.37 1204.49 1418.51 1208.07 1422.23 1212.9 1425.94 1217.73 1427.83 1223.66 1427.89 1230.7 1427.85 1240.76 1423.81 1248.53 1415.77 1254.02 1407.73 1259.52 1395.94 1262.3 1380.39 1262.37L1318.02 1262.37Z" stroke="#FFFFFF" stroke-width="3" stroke-linejoin="round" stroke-miterlimit="10" fill="#FFFFFF" fill-rule="evenodd"/><text fill="#000000" fill-opacity="0" font-family="Arial,Arial_MSFontService,sans-serif" font-size="115.479" x="1318.02" y="1247.94">B</text><g filter="url(#fx1)" transform="translate(1432 1134)"><g><path d="M56.0282 97.8503C51.0507 97.8881 47.5076 98.7209 45.3989 100.349 43.2902 101.977 42.2651 104.172 42.3236 106.936 42.3477 109.627 43.3728 111.802 45.3989 113.46 47.425 115.119 50.3077 115.973 54.0468 116.021 57.5727 116.031 60.7168 115.185 63.4791 113.481 66.2413 111.778 68.2709 109.155 69.5677 105.614L69.5677 97.8503ZM166.784 43.4209C177.027 43.4758 185.786 45.6328 193.06 49.8917 200.334 54.1507 205.545 60.182 208.694 67.9855L184.439 80.366C182.273 76.1805 179.674 73.1197 176.642 71.1835 173.61 69.2472 170.269 68.2912 166.619 68.3153 161.043 68.3496 156.437 70.1793 152.8 73.8041 149.163 77.429 147.279 82.6427 147.149 89.4454 147.279 96.4063 149.163 101.716 152.8 105.376 156.437 109.035 161.043 110.878 166.619 110.906 170.269 110.93 173.61 109.974 176.642 108.038 179.674 106.101 182.273 103.04 184.439 98.855L208.694 111.236C205.545 119.039 200.334 125.07 193.06 129.329 185.786 133.588 177.027 135.745 166.784 135.8 151.511 135.571 139.209 131.249 129.878 122.834 120.546 114.42 115.75 103.29 115.489 89.4454 115.75 75.7588 120.546 64.7255 129.878 56.3455 139.209 47.9655 151.511 43.6573 166.784 43.4209ZM55.2026 43.4209C69.8129 43.3653 81.0592 46.6912 88.9417 53.3987 96.8241 60.1062 100.81 70.529 100.899 84.667L100.899 134.315 71.7142 134.315 71.7142 122.779C69.4783 127.071 66.1485 130.313 61.7247 132.504 57.301 134.695 51.8247 135.793 45.2957 135.8 34.5279 135.622 26.296 132.97 20.6001 127.845 14.9042 122.72 12.0322 116.191 11.9842 108.257 11.9084 99.9232 15.0693 93.4066 21.4669 88.7074 27.8645 84.0083 37.9539 81.6178 51.7352 81.5359L69.5677 81.5359C69.3338 76.9677 67.6551 73.4632 64.5317 71.0225 61.4082 68.5818 56.7575 67.3494 50.5794 67.3253 46.194 67.3494 41.8417 68.0447 37.5225 69.4114 33.2033 70.7781 29.4723 72.6715 26.3294 75.0916L15.7766 53.8068C21.0148 50.4169 27.1095 47.841 34.0607 46.0791 41.0119 44.3173 48.0592 43.4312 55.2026 43.4209ZM220.099 11.9059 251.429 11.9059 251.429 76.0836 283.439 44.9059 320.564 44.9059 283.439 83.177 323.699 134.315 285.749 134.315 260.669 102.972 251.429 112.375 251.429 134.315 220.099 134.315Z" stroke="#FFFFFF" stroke-width="3" stroke-linejoin="round" stroke-miterlimit="10" fill="#FFFFFF" fill-rule="evenodd"/></g></g><path d="M1482.08 1225.91C1477.11 1225.94 1473.56 1226.78 1471.45 1228.4 1469.35 1230.03 1468.32 1232.23 1468.38 1234.99 1468.4 1237.68 1469.43 1239.86 1471.45 1241.52 1473.48 1243.17 1476.36 1244.03 1480.1 1244.08 1483.63 1244.09 1486.77 1243.24 1489.53 1241.54 1492.3 1239.83 1494.33 1237.21 1495.62 1233.67L1495.62 1225.91ZM1592.84 1171.48C1603.08 1171.53 1611.84 1173.69 1619.11 1177.95 1626.39 1182.21 1631.6 1188.24 1634.75 1196.04L1610.49 1208.42C1608.33 1204.24 1605.73 1201.17 1602.7 1199.24 1599.67 1197.3 1596.32 1196.35 1592.67 1196.37 1587.1 1196.4 1582.49 1198.23 1578.85 1201.86 1575.22 1205.48 1573.33 1210.7 1573.2 1217.5 1573.33 1224.46 1575.22 1229.77 1578.85 1233.43 1582.49 1237.09 1587.1 1238.93 1592.67 1238.96 1596.32 1238.98 1599.67 1238.03 1602.7 1236.09 1605.73 1234.16 1608.33 1231.1 1610.49 1226.91L1634.75 1239.29C1631.6 1247.09 1626.39 1253.13 1619.11 1257.38 1611.84 1261.64 1603.08 1263.8 1592.84 1263.86 1577.57 1263.63 1565.26 1259.3 1555.93 1250.89 1546.6 1242.47 1541.8 1231.35 1541.54 1217.5 1541.8 1203.81 1546.6 1192.78 1555.93 1184.4 1565.26 1176.02 1577.57 1171.71 1592.84 1171.48ZM1481.26 1171.48C1495.87 1171.42 1507.11 1174.75 1515 1181.45 1522.88 1188.16 1526.86 1198.58 1526.95 1212.72L1526.95 1262.37 1497.77 1262.37 1497.77 1250.83C1495.53 1255.13 1492.2 1258.37 1487.78 1260.56 1483.36 1262.75 1477.88 1263.85 1471.35 1263.86 1460.58 1263.68 1452.35 1261.03 1446.66 1255.9 1440.96 1250.78 1438.09 1244.25 1438.04 1236.31 1437.96 1227.98 1441.12 1221.46 1447.52 1216.76 1453.92 1212.06 1464.01 1209.67 1477.79 1209.59L1495.62 1209.59C1495.39 1205.02 1493.71 1201.52 1490.59 1199.08 1487.46 1196.64 1482.81 1195.4 1476.63 1195.38 1472.25 1195.4 1467.9 1196.1 1463.58 1197.47 1459.26 1198.83 1455.53 1200.73 1452.38 1203.15L1441.83 1181.86C1447.07 1178.47 1453.16 1175.9 1460.12 1174.13 1467.07 1172.37 1474.11 1171.49 1481.26 1171.48ZM1646.15 1139.96 1677.48 1139.96 1677.48 1204.14 1709.49 1172.96 1746.62 1172.96 1709.49 1211.23 1749.75 1262.37 1711.8 1262.37 1686.72 1231.03 1677.48 1240.43 1677.48 1262.37 1646.15 1262.37Z" stroke="#FFFFFF" stroke-width="3" stroke-linejoin="round" stroke-miterlimit="10" fill="#FFFFFF" fill-rule="evenodd"/><text fill="#000000" fill-opacity="0" font-family="Arial,Arial_MSFontService,sans-serif" font-size="123.894" x="1438.04" y="1248.37">ack</text><g><g><g><path d="M1165.09 1144.57 1165.09 1144.91C1176.12 1156.17 1183.47 1169.04 1187.15 1183.51 1190.82 1184.2 1194.04 1186.04 1196.8 1189.02L1197.14 1189.02C1201.05 1192.93 1203 1197.76 1203 1203.5L1203 1203.84C1203 1209.36 1201.05 1214.07 1197.14 1217.97L1196.8 1218.32C1194.04 1221.08 1190.82 1222.91 1187.15 1223.83 1183.47 1238.08 1176.12 1250.83 1165.09 1262.09 1153.83 1273.12 1141.08 1280.47 1126.83 1284.15 1125.91 1287.82 1124.08 1291.04 1121.32 1293.8L1120.98 1294.14C1117.07 1298.05 1112.36 1300 1106.84 1300L1106.5 1300C1100.76 1300 1095.93 1298.05 1092.03 1294.14L1092.03 1293.8C1089.04 1291.04 1087.2 1287.82 1086.51 1284.15 1072.04 1280.47 1059.17 1273.12 1047.91 1262.09L1047.57 1262.09 1047.57 1261.74C1036.54 1250.49 1029.41 1237.85 1026.2 1223.83 1022.29 1222.91 1018.96 1221.08 1016.2 1218.32L1016.2 1217.97C1012.07 1214.07 1010 1209.36 1010 1203.84L1010 1203.5C1010 1197.76 1012.07 1192.93 1016.2 1189.02 1018.96 1186.04 1022.29 1184.2 1026.2 1183.51 1029.41 1169.27 1036.54 1156.51 1047.57 1145.26L1047.57 1144.91 1047.91 1144.57 1048.26 1144.57C1059.51 1133.54 1072.27 1126.41 1086.51 1123.2 1087.2 1119.29 1089.04 1115.96 1092.03 1113.2 1095.93 1109.07 1100.76 1107 1106.5 1107L1106.84 1107C1112.36 1107 1117.07 1109.07 1120.98 1113.2L1121.32 1113.2C1124.08 1115.96 1125.91 1119.29 1126.83 1123.2 1140.85 1126.41 1153.49 1133.54 1164.74 1144.57L1165.09 1144.57M1155.09 1154.56C1143.15 1142.84 1129.25 1136.29 1113.39 1134.92L1113.39 1127.68 1111.33 1122.85C1109.95 1121.47 1108.34 1120.79 1106.5 1120.79 1104.66 1120.79 1103.05 1121.47 1101.68 1122.85 1100.3 1124.23 1099.61 1125.84 1099.61 1127.68L1099.61 1134.92C1083.52 1136.29 1069.51 1142.84 1057.56 1154.56 1045.84 1166.51 1039.29 1180.52 1037.92 1196.61L1030.68 1196.61C1028.84 1196.61 1027.23 1197.3 1025.85 1198.67 1024.47 1200.05 1023.79 1201.66 1023.79 1203.5 1023.79 1205.34 1024.47 1206.95 1025.85 1208.32 1027.23 1209.7 1028.84 1210.39 1030.68 1210.39L1037.92 1210.39C1039.29 1226.25 1045.84 1240.15 1057.56 1252.09L1057.56 1252.44C1069.51 1264.16 1083.52 1270.71 1099.61 1272.08L1099.61 1279.32C1099.61 1281.16 1100.3 1282.77 1101.68 1284.15 1103.05 1285.53 1104.66 1286.21 1106.5 1286.21L1111.33 1284.15 1113.39 1279.32 1113.39 1272.08C1129.25 1270.71 1143.15 1264.04 1155.09 1252.09 1167.04 1240.15 1173.71 1226.25 1175.08 1210.39L1182.32 1210.39 1187.15 1208.32 1189.21 1203.5 1187.15 1198.67C1185.77 1197.3 1184.16 1196.61 1182.32 1196.61L1175.08 1196.61C1173.71 1180.52 1167.16 1166.51 1155.44 1154.56L1155.09 1154.56M1145.44 1164.56C1154.64 1173.75 1159.92 1184.43 1161.3 1196.61L1154.75 1196.61C1152.91 1196.61 1151.3 1197.3 1149.93 1198.67 1148.55 1200.05 1147.86 1201.66 1147.86 1203.5 1147.86 1205.34 1148.55 1206.95 1149.93 1208.32L1154.75 1210.39 1161.3 1210.39C1159.92 1222.57 1154.64 1233.25 1145.44 1242.44 1136.25 1251.64 1125.57 1256.92 1113.39 1258.3L1113.39 1251.75 1111.33 1246.93C1109.95 1245.55 1108.34 1244.86 1106.5 1244.86 1104.66 1244.86 1103.05 1245.55 1101.68 1246.93 1100.3 1248.3 1099.61 1249.91 1099.61 1251.75L1099.61 1258.3C1087.43 1256.92 1076.75 1251.64 1067.56 1242.44L1067.21 1242.44C1058.25 1233.25 1053.08 1222.57 1051.7 1210.39L1058.25 1210.39 1063.07 1208.32 1065.14 1203.5 1063.07 1198.67C1061.7 1197.3 1060.09 1196.61 1058.25 1196.61L1051.7 1196.61C1053.08 1184.43 1058.25 1173.75 1067.21 1164.56L1067.56 1164.21C1076.75 1155.25 1087.43 1150.08 1099.61 1148.7L1099.61 1155.25C1099.61 1157.09 1100.3 1158.7 1101.68 1160.07 1103.05 1161.45 1104.66 1162.14 1106.5 1162.14L1111.33 1160.07 1113.39 1155.25 1113.39 1148.7C1125.57 1150.08 1136.25 1155.25 1145.44 1164.21L1145.44 1164.56M1135.79 1174.21C1132.12 1170.76 1128.33 1168 1124.42 1165.93L1121.32 1169.72 1120.98 1170.07C1117.07 1173.98 1112.36 1175.93 1106.84 1175.93L1106.5 1175.93C1100.76 1175.93 1095.93 1173.98 1092.03 1170.07L1092.03 1169.72 1088.92 1165.93C1084.79 1167.77 1080.88 1170.41 1077.21 1173.86L1077.21 1174.21 1076.86 1174.21C1073.41 1177.88 1070.77 1181.79 1068.93 1185.92L1072.72 1189.02 1073.07 1189.02C1076.98 1192.93 1078.93 1197.76 1078.93 1203.5L1078.93 1203.84C1078.93 1209.36 1076.98 1214.07 1073.07 1217.97L1072.72 1218.32 1068.93 1221.42 1077.21 1232.79 1088.92 1241.07 1092.03 1237.28C1095.93 1233.14 1100.76 1231.07 1106.5 1231.07L1106.84 1231.07C1112.36 1231.07 1117.07 1233.14 1120.98 1237.28L1121.32 1237.28 1124.42 1241.07 1135.79 1232.79 1144.07 1221.42 1140.28 1218.32 1140.28 1217.97C1136.14 1214.07 1134.07 1209.36 1134.07 1203.84L1134.07 1203.5C1134.07 1197.76 1136.14 1192.93 1140.28 1189.02L1144.07 1185.92 1135.79 1174.21" fill="#FFFFFF"/><path d="M1145.44 1164.56 1145.44 1164.21C1136.25 1155.25 1125.57 1150.08 1113.39 1148.7L1113.39 1155.25 1111.33 1160.07 1106.5 1162.14C1104.66 1162.14 1103.05 1161.45 1101.68 1160.07 1100.3 1158.7 1099.61 1157.09 1099.61 1155.25L1099.61 1148.7C1087.43 1150.08 1076.75 1155.25 1067.56 1164.21L1067.21 1164.56C1058.25 1173.75 1053.08 1184.43 1051.7 1196.61L1058.25 1196.61C1060.09 1196.61 1061.7 1197.3 1063.07 1198.67L1065.14 1203.5 1063.07 1208.32 1058.25 1210.39 1051.7 1210.39C1053.08 1222.57 1058.25 1233.25 1067.21 1242.44L1067.56 1242.44C1076.75 1251.64 1087.43 1256.92 1099.61 1258.3L1099.61 1251.75C1099.61 1249.91 1100.3 1248.3 1101.68 1246.93 1103.05 1245.55 1104.66 1244.86 1106.5 1244.86 1108.34 1244.86 1109.95 1245.55 1111.33 1246.93L1113.39 1251.75 1113.39 1258.3C1125.57 1256.92 1136.25 1251.64 1145.44 1242.44 1154.64 1233.25 1159.92 1222.57 1161.3 1210.39L1154.75 1210.39 1149.93 1208.32C1148.55 1206.95 1147.86 1205.34 1147.86 1203.5 1147.86 1201.66 1148.55 1200.05 1149.93 1198.67 1151.3 1197.3 1152.91 1196.61 1154.75 1196.61L1161.3 1196.61C1159.92 1184.43 1154.64 1173.75 1145.44 1164.56M1155.09 1154.56 1155.44 1154.56C1167.16 1166.51 1173.71 1180.52 1175.08 1196.61L1182.32 1196.61C1184.16 1196.61 1185.77 1197.3 1187.15 1198.67L1189.21 1203.5 1187.15 1208.32 1182.32 1210.39 1175.08 1210.39C1173.71 1226.25 1167.04 1240.15 1155.09 1252.09 1143.15 1264.04 1129.25 1270.71 1113.39 1272.08L1113.39 1279.32 1111.33 1284.15 1106.5 1286.21C1104.66 1286.21 1103.05 1285.53 1101.68 1284.15 1100.3 1282.77 1099.61 1281.16 1099.61 1279.32L1099.61 1272.08C1083.52 1270.71 1069.51 1264.16 1057.56 1252.44L1057.56 1252.09C1045.84 1240.15 1039.29 1226.25 1037.92 1210.39L1030.68 1210.39C1028.84 1210.39 1027.23 1209.7 1025.85 1208.32 1024.47 1206.95 1023.79 1205.34 1023.79 1203.5 1023.79 1201.66 1024.47 1200.05 1025.85 1198.67 1027.23 1197.3 1028.84 1196.61 1030.68 1196.61L1037.92 1196.61C1039.29 1180.52 1045.84 1166.51 1057.56 1154.56 1069.51 1142.84 1083.52 1136.29 1099.61 1134.92L1099.61 1127.68C1099.61 1125.84 1100.3 1124.23 1101.68 1122.85 1103.05 1121.47 1104.66 1120.79 1106.5 1120.79 1108.34 1120.79 1109.95 1121.47 1111.33 1122.85L1113.39 1127.68 1113.39 1134.92C1129.25 1136.29 1143.15 1142.84 1155.09 1154.56" fill="#989AAF"/></g></g></g></g></svg>