<svg xmlns="http://www.w3.org/2000/svg" xmlns:xlink="http://www.w3.org/1999/xlink" width="1157" height="386" overflow="hidden" xml:space="preserve"><defs><filter id="fx0" width="120%" height="120%" x="-10%" y="-10%" filterUnits="userSpaceOnUse" primitiveUnits="userSpaceOnUse"><feComponentTransfer color-interpolation-filters="sRGB"><feFuncR tableValues="0 0" type="discrete"/><feFuncG tableValues="0 0" type="discrete"/><feFuncB tableValues="0 0" type="discrete"/><feFuncA intercept="0" slope=".431" type="linear"/></feComponentTransfer><feGaussianBlur stdDeviation="2.80252 2.80252"/></filter><filter id="fx1" width="120%" height="120%" x="-10%" y="-10%" filterUnits="userSpaceOnUse" primitiveUnits="userSpaceOnUse"><feComponentTransfer color-interpolation-filters="sRGB"><feFuncR tableValues="0 0" type="discrete"/><feFuncG tableValues="0 0" type="discrete"/><feFuncB tableValues="0 0" type="discrete"/><feFuncA intercept="0" slope=".431" type="linear"/></feComponentTransfer><feGaussianBlur stdDeviation="2.80252 2.80252"/></filter><clipPath id="clip2"><rect width="1157" height="386" x="901" y="1064"/></clipPath><clipPath id="clip3"><rect width="194" height="387" x="1864" y="1063"/></clipPath></defs><g clip-path="url(#clip2)" transform="translate(-901 -1064)"><g clip-path="url(#clip3)"><g><g><path fill="#FFF" d="M0 32.1667C43.9611 32.1667 81.757 47.7139 113.388 78.8083L114.192 79.6125C145.286 111.243 160.833 149.039 160.833 193 160.833 236.961 145.018 274.757 113.388 306.388 81.757 338.018 43.9611 353.833 0 353.833L0 321.667C35.3833 321.667 65.6736 309.068 90.8708 283.871L90.8708 283.067C116.068 258.406 128.667 228.383 128.667 193 128.667 157.617 116.068 127.326 90.8708 102.129 65.6736 76.9319 35.3833 64.3333 0 64.3333L0 32.1667" transform="matrix(1 0 0 1 1865 1064)"/><path fill="#989AAF" d="M0 32.1667 0 0C53.075 0 98.6444 18.7639 136.708 56.2917 174.236 94.3556 193 139.925 193 193 193 246.075 174.236 291.376 136.708 328.904 98.6444 366.968 53.075 386 0 386L0 353.833C43.9611 353.833 81.757 338.018 113.388 306.388 145.018 274.757 160.833 236.961 160.833 193 160.833 149.039 145.286 111.243 114.192 79.6125L113.388 78.8083C81.757 47.7139 43.9611 32.1667 0 32.1667" transform="matrix(1 0 0 1 1865 1064)"/><path fill="#EAEBF3" d="M0 64.3333C35.3833 64.3333 65.6736 76.9319 90.8708 102.129 116.068 127.326 128.667 157.617 128.667 193L0 193 0 64.3333" transform="matrix(1 0 0 1 1865 1064)"/><path fill="#DADCE7" d="M128.667 193C128.667 228.383 116.068 258.406 90.8708 283.067L90.8708 283.871C65.6736 309.068 35.3833 321.667 0 321.667L0 193 128.667 193" transform="matrix(1 0 0 1 1865 1064)"/></g></g></g><g><g><g><path fill="#989AAF" d="M193 353.833 193 386C139.925 386 94.3556 366.968 56.2917 328.904 18.7639 291.376 0 246.075 0 193 0 139.925 18.7639 94.3556 56.2917 56.2917 94.3556 18.7639 139.925 0 193 0L193 32.1667C149.039 32.1667 111.243 47.7139 79.6125 78.8083L78.8083 79.6125C47.7139 111.243 32.1667 149.039 32.1667 193 32.1667 236.961 47.9819 274.757 79.6125 306.388 111.243 338.018 149.039 353.833 193 353.833" transform="matrix(1 0 0 1 901 1064)"/><path fill="#FFF" d="M193 353.833C149.039 353.833 111.243 338.018 79.6125 306.388 47.9819 274.757 32.1667 236.961 32.1667 193 32.1667 149.039 47.7139 111.243 78.8083 79.6125L79.6125 78.8083C111.243 47.7139 149.039 32.1667 193 32.1667L193 64.3333C157.617 64.3333 127.326 76.9319 102.129 102.129 76.9319 127.326 64.3333 157.617 64.3333 193 64.3333 228.383 76.9319 258.406 102.129 283.067L102.129 283.871C127.326 309.068 157.617 321.667 193 321.667L193 353.833" transform="matrix(1 0 0 1 901 1064)"/><path fill="#EAEBF3" d="M193 64.3333 193 193 64.3333 193C64.3333 157.617 76.9319 127.326 102.129 102.129 127.326 76.9319 157.617 64.3333 193 64.3333" transform="matrix(1 0 0 1 901 1064)"/><path fill="#DADCE7" d="M193 193 193 321.667C157.617 321.667 127.326 309.068 102.129 283.871L102.129 283.067C76.9319 258.406 64.3333 228.383 64.3333 193L193 193" transform="matrix(1 0 0 1 901 1064)"/></g></g></g><g><g><g><path fill="#989AAF" d="M0 32.0833 0 0 385 0 385 32.0833 0 32.0833M385 352.917 385 385 0 385 0 352.917 385 352.917" transform="matrix(1 0 0 1.0026 1094 1064)"/><path fill="#FFF" d="M385 352.917 0 352.917 0 320.833 385 320.833 385 352.917M385 32.0833 385 64.1667 0 64.1667 0 32.0833 385 32.0833" transform="matrix(1 0 0 1.0026 1094 1064)"/><path fill="#DADCE7" d="M385 192.5 385 320.833 0 320.833 0 192.5 385 192.5" transform="matrix(1 0 0 1.0026 1094 1064)"/><path fill="#EAEBF3" d="M385 192.5 0 192.5 0 64.1667 385 64.1667 385 192.5" transform="matrix(1 0 0 1.0026 1094 1064)"/></g></g></g><g><g><g><path fill="#989AAF" d="M0 32.1666 0 0 386 0 386 32.1666 0 32.1666M386 353.833 386 386 0 386 0 353.833 386 353.833" transform="matrix(1 0 0 1 1479 1064)"/><path fill="#FFF" d="M386 353.833 0 353.833 0 321.666 386 321.666 386 353.833M386 32.1666 386 64.3333 0 64.3333 0 32.1666 386 32.1666" transform="matrix(1 0 0 1 1479 1064)"/><path fill="#DADCE7" d="M386 193 386 321.666 0 321.666 0 193 386 193" transform="matrix(1 0 0 1 1479 1064)"/><path fill="#EAEBF3" d="M386 193 0 193 0 64.3333 386 64.3333 386 193" transform="matrix(1 0 0 1 1479 1064)"/></g></g></g><g filter="url(#fx0)" transform="translate(1371 1195)"><g><path fill-rule="evenodd" stroke="#FFF" stroke-linejoin="round" stroke-miterlimit="10" stroke-width="3" d="M43.5245 79.9962 43.5245 103.447 70.927 103.447C76.5533 103.454 80.8178 102.49 83.7205 100.557 86.6231 98.6232 88.0813 95.6781 88.0951 91.7214 88.0813 87.7648 86.6231 84.8197 83.7205 82.8862 80.8178 80.9526 76.5533 79.9893 70.927 79.9962ZM43.5245 35.1162 43.5245 57.4118 65.9764 57.4118C71.4312 57.4084 75.5446 56.4656 78.3167 54.5836 81.0887 52.7015 82.4782 49.9008 82.4851 46.1814 82.4782 42.5411 81.0887 39.7886 78.3167 37.9237 75.5446 36.0589 71.4312 35.1231 65.9764 35.1162ZM11.2051 11.5418 70.2687 11.5418C85.4322 11.6858 96.7592 14.4888 104.25 19.9509 111.74 25.413 115.478 32.6701 115.464 41.7222 115.437 47.2891 114.09 52.2145 111.425 56.4984 108.759 60.7822 104.94 64.2188 99.9677 66.8083 106.546 69.1398 111.692 72.7198 115.406 77.5483 119.12 82.3769 121.009 88.3123 121.074 95.3547 121.034 105.407 116.993 113.18 108.953 118.674 100.913 124.167 89.1186 126.949 73.5705 127.021L11.2051 127.021Z"/></g></g><path fill-rule="evenodd" stroke="#FFF" stroke-linejoin="round" stroke-miterlimit="10" stroke-width="3" d="M1408.58 1269.05 1408.58 1292.5 1435.98 1292.5C1441.61 1292.51 1445.87 1291.55 1448.78 1289.61 1451.68 1287.68 1453.14 1284.73 1453.15 1280.78 1453.14 1276.82 1451.68 1273.87 1448.78 1271.94 1445.87 1270.01 1441.61 1269.04 1435.98 1269.05ZM1408.58 1224.17 1408.58 1246.47 1431.03 1246.47C1436.49 1246.46 1440.6 1245.52 1443.37 1243.64 1446.14 1241.76 1447.53 1238.96 1447.54 1235.24 1447.53 1231.6 1446.14 1228.84 1443.37 1226.98 1440.6 1225.11 1436.49 1224.18 1431.03 1224.17ZM1376.26 1200.6 1435.32 1200.6C1450.49 1200.74 1461.81 1203.54 1469.3 1209.01 1476.8 1214.47 1480.53 1221.72 1480.52 1230.78 1480.49 1236.34 1479.15 1241.27 1476.48 1245.55 1473.81 1249.84 1470 1253.27 1465.02 1255.86 1471.6 1258.19 1476.75 1261.77 1480.46 1266.6 1484.17 1271.43 1486.06 1277.37 1486.13 1284.41 1486.09 1294.46 1482.05 1302.24 1474.01 1307.73 1465.97 1313.22 1454.17 1316 1438.63 1316.08L1376.26 1316.08Z"/><text x="1376.26" y="1301.64" fill="#000" fill-opacity="0" font-family="Arial,Arial_MSFontService,sans-serif" font-size="115.479">B</text><g filter="url(#fx1)" transform="translate(1491 1188)"><g><path fill-rule="evenodd" stroke="#FFF" stroke-linejoin="round" stroke-miterlimit="10" stroke-width="3" d="M55.2636 97.5562C50.286 97.594 46.7429 98.4269 44.6343 100.055 42.5256 101.683 41.5005 103.878 41.559 106.642 41.583 109.333 42.6081 111.508 44.6343 113.166 46.6604 114.825 49.543 115.679 53.2822 115.727 56.8081 115.737 59.9522 114.891 62.7144 113.187 65.4767 111.484 67.5062 108.861 68.8031 105.32L68.8031 97.5562ZM166.019 43.1268C176.263 43.1818 185.021 45.3387 192.295 49.5977 199.569 53.8566 204.78 59.8879 207.929 67.6915L183.674 80.0719C181.508 75.8864 178.91 72.8256 175.878 70.8894 172.846 68.9532 169.505 67.9971 165.854 68.0212 160.278 68.0556 155.672 69.8852 152.035 73.51 148.398 77.1349 146.515 82.3486 146.384 89.1513 146.515 96.1122 148.398 101.422 152.035 105.082 155.672 108.741 160.278 110.584 165.854 110.612 169.505 110.636 172.846 109.68 175.878 107.744 178.91 105.807 181.508 102.746 183.674 98.5609L207.929 110.941C204.78 118.745 199.569 124.776 192.295 129.035 185.021 133.294 176.263 135.451 166.019 135.506 150.746 135.277 138.444 130.955 129.113 122.54 119.782 114.126 114.985 102.996 114.725 89.1513 114.985 75.4647 119.782 64.4314 129.113 56.0514 138.444 47.6714 150.746 43.3632 166.019 43.1268ZM54.438 43.1268C69.0482 43.0712 80.2946 46.3971 88.177 53.1046 96.0595 59.8121 100.045 70.2349 100.134 84.3729L100.134 134.021 70.9496 134.021 70.9496 122.485C68.7136 126.777 65.3838 130.019 60.9601 132.21 56.5363 134.4 51.06 135.499 44.531 135.506 33.7632 135.328 25.5314 132.676 19.8355 127.551 14.1396 122.426 11.2676 115.897 11.2196 107.963 11.1437 99.6291 14.3046 93.1125 20.7022 88.4134 27.0998 83.7142 37.1893 81.3237 50.9706 81.2418L68.8031 81.2418C68.5692 76.6736 66.8905 73.1692 63.767 70.7284 60.6436 68.2877 55.9928 67.0553 49.8148 67.0312 45.4294 67.0553 41.0771 67.7507 36.7579 69.1174 32.4387 70.484 28.7076 72.3774 25.5647 74.7975L15.012 53.5127C20.2502 50.1228 26.3449 47.547 33.2961 45.7851 40.2472 44.0232 47.2945 43.1371 54.438 43.1268ZM219.335 11.6118 250.664 11.6118 250.664 75.7895 282.674 44.6118 319.799 44.6118 282.674 82.8829 322.934 134.021 284.984 134.021 259.904 102.678 250.664 112.081 250.664 134.021 219.335 134.021Z"/></g></g><path fill-rule="evenodd" stroke="#FFF" stroke-linejoin="round" stroke-miterlimit="10" stroke-width="3" d="M1540.32 1279.61C1535.34 1279.65 1531.8 1280.48 1529.69 1282.11 1527.58 1283.74 1526.56 1285.93 1526.61 1288.7 1526.64 1291.39 1527.66 1293.56 1529.69 1295.22 1531.72 1296.88 1534.6 1297.73 1538.34 1297.78 1541.86 1297.79 1545.01 1296.95 1547.77 1295.24 1550.53 1293.54 1552.56 1290.92 1553.86 1287.38L1553.86 1279.61ZM1651.07 1225.18C1661.32 1225.24 1670.08 1227.39 1677.35 1231.65 1684.62 1235.91 1689.84 1241.94 1692.98 1249.75L1668.73 1262.13C1666.56 1257.94 1663.96 1254.88 1660.93 1252.94 1657.9 1251.01 1654.56 1250.05 1650.91 1250.08 1645.33 1250.11 1640.73 1251.94 1637.09 1255.56 1633.45 1259.19 1631.57 1264.4 1631.44 1271.21 1631.57 1278.17 1633.45 1283.48 1637.09 1287.14 1640.73 1290.8 1645.33 1292.64 1650.91 1292.67 1654.56 1292.69 1657.9 1291.73 1660.93 1289.8 1663.96 1287.86 1666.56 1284.8 1668.73 1280.62L1692.98 1293C1689.84 1300.8 1684.62 1306.83 1677.35 1311.09 1670.08 1315.35 1661.32 1317.51 1651.07 1317.56 1635.8 1317.33 1623.5 1313.01 1614.17 1304.6 1604.84 1296.18 1600.04 1285.05 1599.78 1271.21 1600.04 1257.52 1604.84 1246.49 1614.17 1238.11 1623.5 1229.73 1635.8 1225.42 1651.07 1225.18ZM1539.49 1225.18C1554.1 1225.13 1565.35 1228.45 1573.23 1235.16 1581.11 1241.87 1585.1 1252.29 1585.19 1266.43L1585.19 1316.08 1556 1316.08 1556 1304.54C1553.77 1308.83 1550.44 1312.07 1546.02 1314.26 1541.59 1316.46 1536.12 1317.55 1529.59 1317.56 1518.82 1317.38 1510.59 1314.73 1504.89 1309.61 1499.19 1304.48 1496.32 1297.95 1496.27 1290.02 1496.2 1281.68 1499.36 1275.17 1505.76 1270.47 1512.15 1265.77 1522.24 1263.38 1536.03 1263.3L1553.86 1263.3C1553.62 1258.73 1551.95 1255.22 1548.82 1252.78 1545.7 1250.34 1541.05 1249.11 1534.87 1249.09 1530.48 1249.11 1526.13 1249.81 1521.81 1251.17 1517.49 1252.54 1513.76 1254.43 1510.62 1256.85L1500.07 1235.57C1505.31 1232.18 1511.4 1229.6 1518.35 1227.84 1525.3 1226.08 1532.35 1225.19 1539.49 1225.18ZM1704.39 1193.67 1735.72 1193.67 1735.72 1257.84 1767.73 1226.67 1804.85 1226.67 1767.73 1264.94 1807.99 1316.08 1770.04 1316.08 1744.96 1284.73 1735.72 1294.14 1735.72 1316.08 1704.39 1316.08Z"/><text x="1496.27" y="1302.07" fill="#000" fill-opacity="0" font-family="Arial,Arial_MSFontService,sans-serif" font-size="123.894">ack</text><g><g><g><path fill="#FFF" d="M155.089 37.566 155.089 37.9107C166.118 49.169 173.47 62.0357 177.146 76.5107 180.822 77.1999 184.039 79.038 186.796 82.0249L187.141 82.0249C191.047 85.9309 193 90.7559 193 96.4999L193 96.8446C193 102.359 191.047 107.069 187.141 110.975L186.796 111.32C184.039 114.077 180.822 115.915 177.146 116.834 173.47 131.079 166.118 143.831 155.089 155.089 143.831 166.118 131.079 173.47 116.834 177.146 115.915 180.822 114.077 184.039 111.32 186.796L110.975 187.141C107.069 191.047 102.359 193 96.8446 193L96.4999 193C90.7559 193 85.9309 191.047 82.0249 187.141L82.0249 186.796C79.038 184.039 77.1999 180.822 76.5107 177.146 62.0357 173.47 49.169 166.118 37.9107 155.089L37.566 155.089 37.566 154.745C26.5375 143.486 19.4149 130.849 16.1982 116.834 12.2923 115.915 8.96071 114.077 6.20357 111.32L6.20357 110.975C2.06786 107.069 0 102.359 0 96.8446L0 96.4999C0 90.7559 2.06786 85.9309 6.20357 82.0249 8.96071 79.038 12.2923 77.1999 16.1982 76.5107 19.4149 62.2654 26.5375 49.5136 37.566 38.2553L37.566 37.9107 37.9107 37.566 38.2553 37.566C49.5136 26.5375 62.2654 19.4149 76.5107 16.1982 77.1999 12.2923 79.038 8.96071 82.0249 6.20357 85.9309 2.06786 90.7559 0 96.4999 0L96.8446 0C102.359 0 107.069 2.06786 110.975 6.20357L111.32 6.20357C114.077 8.96071 115.915 12.2923 116.834 16.1982 130.849 19.4149 143.486 26.5375 154.745 37.566L155.089 37.566M145.095 47.5607C133.147 35.8428 119.246 29.2946 103.393 27.916L103.393 20.6786 101.325 15.8536C99.9463 14.475 98.338 13.7857 96.4999 13.7857 94.6618 13.7857 93.0535 14.475 91.6749 15.8536 90.2964 17.2321 89.6071 18.8405 89.6071 20.6786L89.6071 27.916C73.5238 29.2946 59.5083 35.8428 47.5607 47.5607 35.8428 59.5083 29.2946 73.5238 27.916 89.6071L20.6786 89.6071C18.8405 89.6071 17.2321 90.2964 15.8536 91.6749 14.475 93.0535 13.7857 94.6618 13.7857 96.4999 13.7857 98.338 14.475 99.9463 15.8536 101.325 17.2321 102.703 18.8405 103.393 20.6786 103.393L27.916 103.393C29.2946 119.246 35.8428 133.147 47.5607 145.095L47.5607 145.439C59.5083 157.157 73.5238 163.705 89.6071 165.084L89.6071 172.321C89.6071 174.159 90.2964 175.768 91.6749 177.146 93.0535 178.525 94.6618 179.214 96.4999 179.214L101.325 177.146 103.393 172.321 103.393 165.084C119.246 163.705 133.147 157.042 145.095 145.095 157.042 133.147 163.705 119.246 165.084 103.393L172.321 103.393 177.146 101.325 179.214 96.4999 177.146 91.6749C175.768 90.2964 174.159 89.6071 172.321 89.6071L165.084 89.6071C163.705 73.5238 157.157 59.5083 145.439 47.5607L145.095 47.5607M135.445 57.5553C144.635 66.7458 149.92 77.4297 151.298 89.6071L144.75 89.6071C142.912 89.6071 141.303 90.2964 139.925 91.6749 138.546 93.0535 137.857 94.6618 137.857 96.4999 137.857 98.338 138.546 99.9463 139.925 101.325L144.75 103.393 151.298 103.393C149.92 115.57 144.635 126.254 135.445 135.445 126.254 144.635 115.57 149.92 103.393 151.298L103.393 144.75 101.325 139.925C99.9463 138.546 98.338 137.857 96.4999 137.857 94.6618 137.857 93.0535 138.546 91.6749 139.925 90.2964 141.303 89.6071 142.912 89.6071 144.75L89.6071 151.298C77.4297 149.92 66.7458 144.635 57.5553 135.445L57.2107 135.445C48.25 126.254 43.0803 115.57 41.7018 103.393L48.25 103.393 53.075 101.325 55.1428 96.4999 53.075 91.6749C51.6964 90.2964 50.0881 89.6071 48.25 89.6071L41.7018 89.6071C43.0803 77.4297 48.25 66.7458 57.2107 57.5553L57.5553 57.2107C66.7458 48.25 77.4297 43.0803 89.6071 41.7018L89.6071 48.25C89.6071 50.0881 90.2964 51.6964 91.6749 53.075 93.0535 54.4535 94.6618 55.1428 96.4999 55.1428L101.325 53.075 103.393 48.25 103.393 41.7018C115.57 43.0803 126.254 48.25 135.445 57.2107L135.445 57.5553M125.795 67.2053C122.118 63.7589 118.327 61.0017 114.421 58.9339L111.32 62.7249 110.975 63.0696C107.069 66.9755 102.359 68.9285 96.8446 68.9285L96.4999 68.9285C90.7559 68.9285 85.9309 66.9755 82.0249 63.0696L82.0249 62.7249 78.9231 58.9339C74.7874 60.772 70.8815 63.4142 67.2053 66.8607L67.2053 67.2053 66.8607 67.2053C63.4142 70.8815 60.772 74.7874 58.9339 78.9231L62.7249 82.0249 63.0696 82.0249C66.9755 85.9309 68.9285 90.7559 68.9285 96.4999L68.9285 96.8446C68.9285 102.359 66.9755 107.069 63.0696 110.975L62.7249 111.32 58.9339 114.421 67.2053 125.795 78.9231 134.066 82.0249 130.275C85.9309 126.139 90.7559 124.071 96.4999 124.071L96.8446 124.071C102.359 124.071 107.069 126.139 110.975 130.275L111.32 130.275 114.421 134.066 125.795 125.795 134.066 114.421 130.275 111.32 130.275 110.975C126.139 107.069 124.071 102.359 124.071 96.8446L124.071 96.4999C124.071 90.7559 126.139 85.9309 130.275 82.0249L134.066 78.9231 125.795 67.2053" transform="matrix(1 0 0 1 1068 1161)"/><path fill="#989AAF" d="M135.445 57.5553 135.445 57.2107C126.254 48.25 115.57 43.0803 103.393 41.7018L103.393 48.25 101.325 53.075 96.4999 55.1428C94.6618 55.1428 93.0535 54.4535 91.6749 53.075 90.2964 51.6964 89.6071 50.0881 89.6071 48.25L89.6071 41.7018C77.4297 43.0803 66.7458 48.25 57.5553 57.2107L57.2107 57.5553C48.25 66.7458 43.0803 77.4297 41.7018 89.6071L48.25 89.6071C50.0881 89.6071 51.6964 90.2964 53.075 91.6749L55.1428 96.4999 53.075 101.325 48.25 103.393 41.7018 103.393C43.0803 115.57 48.25 126.254 57.2107 135.445L57.5553 135.445C66.7458 144.635 77.4297 149.92 89.6071 151.298L89.6071 144.75C89.6071 142.912 90.2964 141.303 91.6749 139.925 93.0535 138.546 94.6618 137.857 96.4999 137.857 98.338 137.857 99.9463 138.546 101.325 139.925L103.393 144.75 103.393 151.298C115.57 149.92 126.254 144.635 135.445 135.445 144.635 126.254 149.92 115.57 151.298 103.393L144.75 103.393 139.925 101.325C138.546 99.9463 137.857 98.338 137.857 96.4999 137.857 94.6618 138.546 93.0535 139.925 91.6749 141.303 90.2964 142.912 89.6071 144.75 89.6071L151.298 89.6071C149.92 77.4297 144.635 66.7458 135.445 57.5553M145.095 47.5607 145.439 47.5607C157.157 59.5083 163.705 73.5238 165.084 89.6071L172.321 89.6071C174.159 89.6071 175.768 90.2964 177.146 91.6749L179.214 96.4999 177.146 101.325 172.321 103.393 165.084 103.393C163.705 119.246 157.042 133.147 145.095 145.095 133.147 157.042 119.246 163.705 103.393 165.084L103.393 172.321 101.325 177.146 96.4999 179.214C94.6618 179.214 93.0535 178.525 91.6749 177.146 90.2964 175.768 89.6071 174.159 89.6071 172.321L89.6071 165.084C73.5238 163.705 59.5083 157.157 47.5607 145.439L47.5607 145.095C35.8428 133.147 29.2946 119.246 27.916 103.393L20.6786 103.393C18.8405 103.393 17.2321 102.703 15.8536 101.325 14.475 99.9463 13.7857 98.338 13.7857 96.4999 13.7857 94.6618 14.475 93.0535 15.8536 91.6749 17.2321 90.2964 18.8405 89.6071 20.6786 89.6071L27.916 89.6071C29.2946 73.5238 35.8428 59.5083 47.5607 47.5607 59.5083 35.8428 73.5238 29.2946 89.6071 27.916L89.6071 20.6786C89.6071 18.8405 90.2964 17.2321 91.6749 15.8536 93.0535 14.475 94.6618 13.7857 96.4999 13.7857 98.338 13.7857 99.9463 14.475 101.325 15.8536L103.393 20.6786 103.393 27.916C119.246 29.2946 133.147 35.8428 145.095 47.5607" transform="matrix(1 0 0 1 1068 1161)"/></g></g></g></g></svg>