<svg xmlns="http://www.w3.org/2000/svg" xmlns:xlink="http://www.w3.org/1999/xlink" width="1158" height="386" overflow="hidden" xml:space="preserve"><defs><filter id="fx0" width="120%" height="120%" x="-10%" y="-10%" filterUnits="userSpaceOnUse" primitiveUnits="userSpaceOnUse"><feComponentTransfer color-interpolation-filters="sRGB"><feFuncR tableValues="0 0" type="discrete"/><feFuncG tableValues="0 0" type="discrete"/><feFuncB tableValues="0 0" type="discrete"/><feFuncA intercept="0" slope=".431" type="linear"/></feComponentTransfer><feGaussianBlur stdDeviation="2.80252 2.80252"/></filter><filter id="fx1" width="120%" height="120%" x="-10%" y="-10%" filterUnits="userSpaceOnUse" primitiveUnits="userSpaceOnUse"><feComponentTransfer color-interpolation-filters="sRGB"><feFuncR tableValues="0 0" type="discrete"/><feFuncG tableValues="0 0" type="discrete"/><feFuncB tableValues="0 0" type="discrete"/><feFuncA intercept="0" slope=".431" type="linear"/></feComponentTransfer><feGaussianBlur stdDeviation="2.80252 2.80252"/></filter><clipPath id="clip2"><rect width="1158" height="386" x="842" y="1493"/></clipPath></defs><g clip-path="url(#clip2)" transform="translate(-842 -1493)"><g><g><g><path fill="#FFF" d="M0 32.1666C43.9611 32.1666 81.7569 47.7138 113.387 78.8083L114.192 79.6124C145.286 111.243 160.833 149.039 160.833 193 160.833 236.961 145.018 274.757 113.387 306.387 81.7569 338.018 43.9611 353.833 0 353.833L0 321.666C35.3833 321.666 65.6736 309.068 90.8708 283.871L90.8708 283.066C116.068 258.405 128.667 228.383 128.667 193 128.667 157.617 116.068 127.326 90.8708 102.129 65.6736 76.9319 35.3833 64.3333 0 64.3333L0 32.1666" transform="matrix(1 0 0 1 1807 1493)"/><path fill="#989AAF" d="M0 32.1666 0 0C53.075 0 98.6444 18.7639 136.708 56.2916 174.236 94.3555 193 139.925 193 193 193 246.075 174.236 291.376 136.708 328.904 98.6444 366.968 53.075 386 0 386L0 353.833C43.9611 353.833 81.7569 338.018 113.387 306.387 145.018 274.757 160.833 236.961 160.833 193 160.833 149.039 145.286 111.243 114.192 79.6124L113.387 78.8083C81.7569 47.7138 43.9611 32.1666 0 32.1666" transform="matrix(1 0 0 1 1807 1493)"/><path fill="#EAEBF3" d="M0 64.3333C35.3833 64.3333 65.6736 76.9319 90.8708 102.129 116.068 127.326 128.667 157.617 128.667 193L0 193 0 64.3333" transform="matrix(1 0 0 1 1807 1493)"/><path fill="#DADCE7" d="M128.667 193C128.667 228.383 116.068 258.405 90.8708 283.066L90.8708 283.871C65.6736 309.068 35.3833 321.666 0 321.666L0 193 128.667 193" transform="matrix(1 0 0 1 1807 1493)"/></g></g></g><g><g><g><path fill="#989AAF" d="M193 353.833 193 386C139.925 386 94.3556 366.968 56.2917 328.904 18.7639 291.376 0 246.075 0 193 0 139.925 18.7639 94.3556 56.2917 56.2917 94.3556 18.7639 139.925 0 193 0L193 32.1667C149.039 32.1667 111.243 47.7139 79.6125 78.8083L78.8083 79.6125C47.7139 111.243 32.1667 149.039 32.1667 193 32.1667 236.961 47.9819 274.757 79.6125 306.388 111.243 338.018 149.039 353.833 193 353.833" transform="matrix(1 0 0 1 842 1493)"/><path fill="#FFF" d="M193 353.833C149.039 353.833 111.243 338.018 79.6125 306.388 47.9819 274.757 32.1667 236.961 32.1667 193 32.1667 149.039 47.7139 111.243 78.8083 79.6125L79.6125 78.8083C111.243 47.7139 149.039 32.1667 193 32.1667L193 64.3333C157.617 64.3333 127.326 76.9319 102.129 102.129 76.9319 127.326 64.3333 157.617 64.3333 193 64.3333 228.383 76.9319 258.406 102.129 283.067L102.129 283.871C127.326 309.068 157.617 321.667 193 321.667L193 353.833" transform="matrix(1 0 0 1 842 1493)"/><path fill="#EAEBF3" d="M193 64.3333 193 193 64.3333 193C64.3333 157.617 76.9319 127.326 102.129 102.129 127.326 76.9319 157.617 64.3333 193 64.3333" transform="matrix(1 0 0 1 842 1493)"/><path fill="#DADCE7" d="M193 193 193 321.667C157.617 321.667 127.326 309.068 102.129 283.871L102.129 283.067C76.9319 258.406 64.3333 228.383 64.3333 193L193 193" transform="matrix(1 0 0 1 842 1493)"/></g></g></g><g><g><g><path fill="#989AAF" d="M1035 1525.17 1035 1493 1421 1493 1421 1525.17 1035 1525.17M1421 1846.83 1421 1879 1035 1879 1035 1846.83 1421 1846.83"/><path fill="#FFF" d="M1421 1846.83 1035 1846.83 1035 1814.67 1421 1814.67 1421 1846.83M1421 1525.17 1421 1557.33 1035 1557.33 1035 1525.17 1421 1525.17"/><path fill="#DADCE7" d="M1421 1686 1421 1814.67 1035 1814.67 1035 1686 1421 1686"/><path fill="#EAEBF3" d="M1421 1686 1035 1686 1035 1557.33 1421 1557.33 1421 1686"/></g></g></g><g><g><g><path fill="#989AAF" d="M1421 1525.17 1421 1493 1807 1493 1807 1525.17 1421 1525.17M1807 1846.83 1807 1879 1421 1879 1421 1846.83 1807 1846.83"/><path fill="#FFF" d="M1807 1846.83 1421 1846.83 1421 1814.67 1807 1814.67 1807 1846.83M1807 1525.17 1807 1557.33 1421 1557.33 1421 1525.17 1807 1525.17"/><path fill="#DADCE7" d="M1807 1686 1807 1814.67 1421 1814.67 1421 1686 1807 1686"/><path fill="#EAEBF3" d="M1807 1686 1421 1686 1421 1557.33 1807 1557.33 1807 1686"/></g></g></g><g filter="url(#fx0)" transform="translate(1312 1624)"><g><path fill="#0B76A0" fill-rule="evenodd" stroke="#FFF" stroke-linejoin="round" stroke-miterlimit="10" stroke-width="3" d="M44.289 79.6587 44.289 103.109 71.6915 103.109C77.3179 103.116 81.5823 102.153 84.485 100.219 87.3876 98.2856 88.8458 95.3405 88.8596 91.3839 88.8458 87.4273 87.3876 84.4822 84.485 82.5487 81.5823 80.6151 77.3179 79.6518 71.6915 79.6587ZM44.289 34.7787 44.289 57.0743 66.741 57.0743C72.1957 57.0708 76.3092 56.1281 79.0812 54.246 81.8533 52.364 83.2427 49.5632 83.2496 45.8438 83.2427 42.2036 81.8533 39.451 79.0812 37.5862 76.3092 35.7214 72.1957 34.7855 66.741 34.7787ZM11.9696 11.2043 71.0333 11.2043C86.1967 11.3483 97.5237 14.1513 105.014 19.6134 112.505 25.0755 116.243 32.3326 116.229 41.3847 116.201 46.9516 114.855 51.877 112.189 56.1608 109.524 60.4447 105.705 63.8813 100.732 66.4707 107.311 68.8022 112.457 72.3823 116.171 77.2108 119.884 82.0394 121.774 87.9748 121.839 95.0171 121.798 105.07 117.757 112.843 109.717 118.336 101.677 123.829 89.8831 126.612 74.335 126.684L11.9696 126.684Z"/></g></g><path fill="#0B76A0" fill-rule="evenodd" stroke="#FFF" stroke-linejoin="round" stroke-miterlimit="10" stroke-width="3" d="M1350.34 1697.71 1350.34 1721.16 1377.75 1721.16C1383.37 1721.17 1387.64 1720.21 1390.54 1718.27 1393.44 1716.34 1394.9 1713.4 1394.91 1709.44 1394.9 1705.48 1393.44 1702.54 1390.54 1700.6 1387.64 1698.67 1383.37 1697.71 1377.75 1697.71ZM1350.34 1652.83 1350.34 1675.13 1372.8 1675.13C1378.25 1675.13 1382.36 1674.18 1385.14 1672.3 1387.91 1670.42 1389.3 1667.62 1389.3 1663.9 1389.3 1660.26 1387.91 1657.51 1385.14 1655.64 1382.36 1653.78 1378.25 1652.84 1372.8 1652.83ZM1318.02 1629.26 1377.09 1629.26C1392.25 1629.4 1403.58 1632.21 1411.07 1637.67 1418.56 1643.13 1422.3 1650.39 1422.28 1659.44 1422.26 1665.01 1420.91 1669.93 1418.24 1674.22 1415.58 1678.5 1411.76 1681.94 1406.79 1684.53 1413.37 1686.86 1418.51 1690.44 1422.23 1695.27 1425.94 1700.09 1427.83 1706.03 1427.89 1713.07 1427.85 1723.12 1423.81 1730.9 1415.77 1736.39 1407.73 1741.88 1395.94 1744.67 1380.39 1744.74L1318.02 1744.74Z"/><text x="1318.02" y="1730.3" fill="#000" fill-opacity="0" font-family="Arial,Arial_MSFontService,sans-serif" font-size="115.479">B</text><g filter="url(#fx1)" transform="translate(1432 1617)"><g><path fill="#0B76A0" fill-rule="evenodd" stroke="#FFF" stroke-linejoin="round" stroke-miterlimit="10" stroke-width="3" d="M56.0282 97.2187C51.0507 97.2565 47.5076 98.0894 45.3989 99.7172 43.2902 101.345 42.2651 103.541 42.3236 106.304 42.3477 108.995 43.3728 111.17 45.3989 112.829 47.425 114.488 50.3077 115.341 54.0468 115.389 57.5727 115.4 60.7168 114.553 63.4791 112.85 66.2413 111.146 68.2709 108.524 69.5677 104.983L69.5677 97.2187ZM166.784 42.7893C177.027 42.8442 185.786 45.0012 193.06 49.2602 200.334 53.5191 205.545 59.5504 208.694 67.3539L184.439 79.7344C182.273 75.5489 179.674 72.4881 176.642 70.5519 173.61 68.6156 170.269 67.6596 166.619 67.6837 161.043 67.718 156.437 69.5477 152.8 73.1725 149.163 76.7974 147.279 82.0111 147.149 88.8138 147.279 95.7747 149.163 101.085 152.8 104.744 156.437 108.403 161.043 110.247 166.619 110.274 170.269 110.298 173.61 109.342 176.642 107.406 179.674 105.47 182.273 102.409 184.439 98.2234L208.694 110.604C205.545 118.407 200.334 124.439 193.06 128.698 185.786 132.957 177.027 135.114 166.784 135.169 151.511 134.939 139.209 130.617 129.878 122.203 120.546 113.788 115.75 102.659 115.489 88.8138 115.75 75.1272 120.546 64.0939 129.878 55.7139 139.209 47.3339 151.511 43.0257 166.784 42.7893ZM55.2026 42.7893C69.8129 42.7337 81.0592 46.0596 88.9417 52.7671 96.8241 59.4746 100.81 69.8974 100.899 84.0354L100.899 133.684 71.7142 133.684 71.7142 122.147C69.4783 126.44 66.1485 129.681 61.7247 131.872 57.301 134.063 51.8247 135.162 45.2957 135.169 34.5279 134.99 26.296 132.339 20.6001 127.214 14.9042 122.088 12.0322 115.559 11.9842 107.626 11.9084 99.2916 15.0693 92.775 21.4669 88.0759 27.8645 83.3767 37.9539 80.9862 51.7352 80.9043L69.5677 80.9043C69.3338 76.3361 67.6551 72.8317 64.5317 70.3909 61.4082 67.9502 56.7575 66.7178 50.5794 66.6937 46.194 66.7178 41.8417 67.4132 37.5225 68.7798 33.2033 70.1465 29.4723 72.0399 26.3294 74.46L15.7766 53.1752C21.0148 49.7853 27.1095 47.2094 34.0607 45.4475 41.0119 43.6857 48.0592 42.7996 55.2026 42.7893ZM220.099 11.2743 251.429 11.2743 251.429 75.452 283.439 44.2743 320.564 44.2743 283.439 82.5454 323.699 133.684 285.749 133.684 260.669 102.341 251.429 111.744 251.429 133.684 220.099 133.684Z"/></g></g><path fill="#0B76A0" fill-rule="evenodd" stroke="#FFF" stroke-linejoin="round" stroke-miterlimit="10" stroke-width="3" d="M1482.08 1708.27C1477.11 1708.31 1473.56 1709.14 1471.45 1710.77 1469.35 1712.4 1468.32 1714.6 1468.38 1717.36 1468.4 1720.05 1469.43 1722.23 1471.45 1723.88 1473.48 1725.54 1476.36 1726.4 1480.1 1726.44 1483.63 1726.45 1486.77 1725.61 1489.53 1723.9 1492.3 1722.2 1494.33 1719.58 1495.62 1716.04L1495.62 1708.27ZM1592.84 1653.84C1603.08 1653.9 1611.84 1656.06 1619.11 1660.32 1626.39 1664.57 1631.6 1670.61 1634.75 1678.41L1610.49 1690.79C1608.33 1686.6 1605.73 1683.54 1602.7 1681.61 1599.67 1679.67 1596.32 1678.71 1592.67 1678.74 1587.1 1678.77 1582.49 1680.6 1578.85 1684.23 1575.22 1687.85 1573.33 1693.07 1573.2 1699.87 1573.33 1706.83 1575.22 1712.14 1578.85 1715.8 1582.49 1719.46 1587.1 1721.3 1592.67 1721.33 1596.32 1721.35 1599.67 1720.4 1602.7 1718.46 1605.73 1716.52 1608.33 1713.46 1610.49 1709.28L1634.75 1721.66C1631.6 1729.46 1626.39 1735.49 1619.11 1739.75 1611.84 1744.01 1603.08 1746.17 1592.84 1746.22 1577.57 1745.99 1565.26 1741.67 1555.93 1733.26 1546.6 1724.84 1541.8 1713.71 1541.54 1699.87 1541.8 1686.18 1546.6 1675.15 1555.93 1666.77 1565.26 1658.39 1577.57 1654.08 1592.84 1653.84ZM1481.26 1653.84C1495.87 1653.79 1507.11 1657.11 1515 1663.82 1522.88 1670.53 1526.86 1680.95 1526.95 1695.09L1526.95 1744.74 1497.77 1744.74 1497.77 1733.2C1495.53 1737.49 1492.2 1740.74 1487.78 1742.93 1483.36 1745.12 1477.88 1746.22 1471.35 1746.22 1460.58 1746.05 1452.35 1743.39 1446.66 1738.27 1440.96 1733.14 1438.09 1726.61 1438.04 1718.68 1437.96 1710.35 1441.12 1703.83 1447.52 1699.13 1453.92 1694.43 1464.01 1692.04 1477.79 1691.96L1495.62 1691.96C1495.39 1687.39 1493.71 1683.89 1490.59 1681.45 1487.46 1679.01 1482.81 1677.77 1476.63 1677.75 1472.25 1677.77 1467.9 1678.47 1463.58 1679.83 1459.26 1681.2 1455.53 1683.09 1452.38 1685.51L1441.83 1664.23C1447.07 1660.84 1453.16 1658.26 1460.12 1656.5 1467.07 1654.74 1474.11 1653.85 1481.26 1653.84ZM1646.15 1622.33 1677.48 1622.33 1677.48 1686.51 1709.49 1655.33 1746.62 1655.33 1709.49 1693.6 1749.75 1744.74 1711.8 1744.74 1686.72 1713.4 1677.48 1722.8 1677.48 1744.74 1646.15 1744.74Z"/><text x="1438.04" y="1730.74" fill="#000" fill-opacity="0" font-family="Arial,Arial_MSFontService,sans-serif" font-size="123.894">ack</text><g><g><g><path fill="#FFF" d="M155.089 37.566 155.089 37.9107C166.118 49.169 173.47 62.0357 177.146 76.5107 180.822 77.1999 184.039 79.038 186.796 82.0249L187.141 82.0249C191.047 85.9309 193 90.7559 193 96.4999L193 96.8446C193 102.359 191.047 107.069 187.141 110.975L186.796 111.32C184.039 114.077 180.822 115.915 177.146 116.834 173.47 131.079 166.118 143.831 155.089 155.089 143.831 166.118 131.079 173.47 116.834 177.146 115.915 180.822 114.077 184.039 111.32 186.796L110.975 187.141C107.069 191.047 102.359 193 96.8446 193L96.4999 193C90.7559 193 85.9309 191.047 82.0249 187.141L82.0249 186.796C79.038 184.039 77.1999 180.822 76.5107 177.146 62.0357 173.47 49.169 166.118 37.9107 155.089L37.566 155.089 37.566 154.745C26.5375 143.486 19.4149 130.849 16.1982 116.834 12.2923 115.915 8.96071 114.077 6.20357 111.32L6.20357 110.975C2.06786 107.069 0 102.359 0 96.8446L0 96.4999C0 90.7559 2.06786 85.9309 6.20357 82.0249 8.96071 79.038 12.2923 77.1999 16.1982 76.5107 19.4149 62.2654 26.5375 49.5136 37.566 38.2553L37.566 37.9107 37.9107 37.566 38.2553 37.566C49.5136 26.5375 62.2654 19.4149 76.5107 16.1982 77.1999 12.2923 79.038 8.96071 82.0249 6.20357 85.9309 2.06786 90.7559 0 96.4999 0L96.8446 0C102.359 0 107.069 2.06786 110.975 6.20357L111.32 6.20357C114.077 8.96071 115.915 12.2923 116.834 16.1982 130.849 19.4149 143.486 26.5375 154.745 37.566L155.089 37.566M145.095 47.5607C133.147 35.8428 119.246 29.2946 103.393 27.916L103.393 20.6786 101.325 15.8536C99.9463 14.475 98.338 13.7857 96.4999 13.7857 94.6618 13.7857 93.0535 14.475 91.6749 15.8536 90.2964 17.2321 89.6071 18.8405 89.6071 20.6786L89.6071 27.916C73.5238 29.2946 59.5083 35.8428 47.5607 47.5607 35.8428 59.5083 29.2946 73.5238 27.916 89.6071L20.6786 89.6071C18.8405 89.6071 17.2321 90.2964 15.8536 91.6749 14.475 93.0535 13.7857 94.6618 13.7857 96.4999 13.7857 98.338 14.475 99.9463 15.8536 101.325 17.2321 102.703 18.8405 103.393 20.6786 103.393L27.916 103.393C29.2946 119.246 35.8428 133.147 47.5607 145.095L47.5607 145.439C59.5083 157.157 73.5238 163.705 89.6071 165.084L89.6071 172.321C89.6071 174.159 90.2964 175.768 91.6749 177.146 93.0535 178.525 94.6618 179.214 96.4999 179.214L101.325 177.146 103.393 172.321 103.393 165.084C119.246 163.705 133.147 157.042 145.095 145.095 157.042 133.147 163.705 119.246 165.084 103.393L172.321 103.393 177.146 101.325 179.214 96.4999 177.146 91.6749C175.768 90.2964 174.159 89.6071 172.321 89.6071L165.084 89.6071C163.705 73.5238 157.157 59.5083 145.439 47.5607L145.095 47.5607M135.445 57.5553C144.635 66.7458 149.92 77.4297 151.298 89.6071L144.75 89.6071C142.912 89.6071 141.303 90.2964 139.925 91.6749 138.546 93.0535 137.857 94.6618 137.857 96.4999 137.857 98.338 138.546 99.9463 139.925 101.325L144.75 103.393 151.298 103.393C149.92 115.57 144.635 126.254 135.445 135.445 126.254 144.635 115.57 149.92 103.393 151.298L103.393 144.75 101.325 139.925C99.9463 138.546 98.338 137.857 96.4999 137.857 94.6618 137.857 93.0535 138.546 91.6749 139.925 90.2964 141.303 89.6071 142.912 89.6071 144.75L89.6071 151.298C77.4297 149.92 66.7458 144.635 57.5553 135.445L57.2107 135.445C48.25 126.254 43.0803 115.57 41.7018 103.393L48.25 103.393 53.075 101.325 55.1428 96.4999 53.075 91.6749C51.6964 90.2964 50.0881 89.6071 48.25 89.6071L41.7018 89.6071C43.0803 77.4297 48.25 66.7458 57.2107 57.5553L57.5553 57.2107C66.7458 48.25 77.4297 43.0803 89.6071 41.7018L89.6071 48.25C89.6071 50.0881 90.2964 51.6964 91.6749 53.075 93.0535 54.4535 94.6618 55.1428 96.4999 55.1428L101.325 53.075 103.393 48.25 103.393 41.7018C115.57 43.0803 126.254 48.25 135.445 57.2107L135.445 57.5553M125.795 67.2053C122.118 63.7589 118.327 61.0017 114.421 58.9339L111.32 62.7249 110.975 63.0696C107.069 66.9755 102.359 68.9285 96.8446 68.9285L96.4999 68.9285C90.7559 68.9285 85.9309 66.9755 82.0249 63.0696L82.0249 62.7249 78.9231 58.9339C74.7874 60.772 70.8815 63.4142 67.2053 66.8607L67.2053 67.2053 66.8607 67.2053C63.4142 70.8815 60.772 74.7874 58.9339 78.9231L62.7249 82.0249 63.0696 82.0249C66.9755 85.9309 68.9285 90.7559 68.9285 96.4999L68.9285 96.8446C68.9285 102.359 66.9755 107.069 63.0696 110.975L62.7249 111.32 58.9339 114.421 67.2053 125.795 78.9231 134.066 82.0249 130.275C85.9309 126.139 90.7559 124.071 96.4999 124.071L96.8446 124.071C102.359 124.071 107.069 126.139 110.975 130.275L111.32 130.275 114.421 134.066 125.795 125.795 134.066 114.421 130.275 111.32 130.275 110.975C126.139 107.069 124.071 102.359 124.071 96.8446L124.071 96.4999C124.071 90.7559 126.139 85.9309 130.275 82.0249L134.066 78.9231 125.795 67.2053" transform="matrix(1 0 0 1 1010 1589)"/><path fill="#989AAF" d="M135.445 57.5553 135.445 57.2107C126.254 48.25 115.57 43.0803 103.393 41.7018L103.393 48.25 101.325 53.075 96.4999 55.1428C94.6618 55.1428 93.0535 54.4535 91.6749 53.075 90.2964 51.6964 89.6071 50.0881 89.6071 48.25L89.6071 41.7018C77.4297 43.0803 66.7458 48.25 57.5553 57.2107L57.2107 57.5553C48.25 66.7458 43.0803 77.4297 41.7018 89.6071L48.25 89.6071C50.0881 89.6071 51.6964 90.2964 53.075 91.6749L55.1428 96.4999 53.075 101.325 48.25 103.393 41.7018 103.393C43.0803 115.57 48.25 126.254 57.2107 135.445L57.5553 135.445C66.7458 144.635 77.4297 149.92 89.6071 151.298L89.6071 144.75C89.6071 142.912 90.2964 141.303 91.6749 139.925 93.0535 138.546 94.6618 137.857 96.4999 137.857 98.338 137.857 99.9463 138.546 101.325 139.925L103.393 144.75 103.393 151.298C115.57 149.92 126.254 144.635 135.445 135.445 144.635 126.254 149.92 115.57 151.298 103.393L144.75 103.393 139.925 101.325C138.546 99.9463 137.857 98.338 137.857 96.4999 137.857 94.6618 138.546 93.0535 139.925 91.6749 141.303 90.2964 142.912 89.6071 144.75 89.6071L151.298 89.6071C149.92 77.4297 144.635 66.7458 135.445 57.5553M145.095 47.5607 145.439 47.5607C157.157 59.5083 163.705 73.5238 165.084 89.6071L172.321 89.6071C174.159 89.6071 175.768 90.2964 177.146 91.6749L179.214 96.4999 177.146 101.325 172.321 103.393 165.084 103.393C163.705 119.246 157.042 133.147 145.095 145.095 133.147 157.042 119.246 163.705 103.393 165.084L103.393 172.321 101.325 177.146 96.4999 179.214C94.6618 179.214 93.0535 178.525 91.6749 177.146 90.2964 175.768 89.6071 174.159 89.6071 172.321L89.6071 165.084C73.5238 163.705 59.5083 157.157 47.5607 145.439L47.5607 145.095C35.8428 133.147 29.2946 119.246 27.916 103.393L20.6786 103.393C18.8405 103.393 17.2321 102.703 15.8536 101.325 14.475 99.9463 13.7857 98.338 13.7857 96.4999 13.7857 94.6618 14.475 93.0535 15.8536 91.6749 17.2321 90.2964 18.8405 89.6071 20.6786 89.6071L27.916 89.6071C29.2946 73.5238 35.8428 59.5083 47.5607 47.5607 59.5083 35.8428 73.5238 29.2946 89.6071 27.916L89.6071 20.6786C89.6071 18.8405 90.2964 17.2321 91.6749 15.8536 93.0535 14.475 94.6618 13.7857 96.4999 13.7857 98.338 13.7857 99.9463 14.475 101.325 15.8536L103.393 20.6786 103.393 27.916C119.246 29.2946 133.147 35.8428 145.095 47.5607" transform="matrix(1 0 0 1 1010 1589)"/></g></g></g></g></svg>