<svg xmlns="http://www.w3.org/2000/svg" xmlns:xlink="http://www.w3.org/1999/xlink" width="1783" height="445" overflow="hidden" xml:space="preserve"><defs><filter id="fx0" width="120%" height="120%" x="-10%" y="-10%" filterUnits="userSpaceOnUse" primitiveUnits="userSpaceOnUse"><feComponentTransfer color-interpolation-filters="sRGB"><feFuncR tableValues="0 0" type="discrete"/><feFuncG tableValues="0 0" type="discrete"/><feFuncB tableValues="0 0" type="discrete"/><feFuncA intercept="0" slope=".431" type="linear"/></feComponentTransfer><feGaussianBlur stdDeviation="3.21244 3.21244"/></filter><clipPath id="clip1"><rect width="1783" height="445" x="-540" y="2201"/></clipPath></defs><g clip-path="url(#clip1)" transform="translate(540 -2201)"><path fill="#989AAF" d="M1780 370.833C1780 420.278 1755.28 445 1705.83 445L74.1666 445C24.7222 445 0 420.278 0 370.833L0 74.1666C0 24.7222 24.7222 0 74.1666 0L1705.83 0C1755.28 0 1780 24.7222 1780 74.1666L1780 370.833M1742.92 74.1666C1742.92 49.4444 1730.55 37.0833 1705.83 37.0833L74.1666 37.0833C49.4444 37.0833 37.0833 49.4444 37.0833 74.1666L37.0833 370.833C37.0833 395.555 49.4444 407.916 74.1666 407.916L1705.83 407.916C1730.55 407.916 1742.92 395.555 1742.92 370.833L1742.92 74.1666" transform="matrix(1.00169 0 0 1 -540 2201)"/><path fill="#FFF" d="M1742.92 74.1666 1742.92 370.833C1742.92 395.555 1730.55 407.916 1705.83 407.916L74.1666 407.916C49.4444 407.916 37.0833 395.555 37.0833 370.833L37.0833 74.1666C37.0833 49.4444 49.4444 37.0833 74.1666 37.0833L1705.83 37.0833C1730.55 37.0833 1742.92 49.4444 1742.92 74.1666M1705.83 222.5 1705.83 74.1666 74.1666 74.1666 74.1666 222.5 74.1666 370.833 1705.83 370.833 1705.83 222.5" transform="matrix(1.00169 0 0 1 -540 2201)"/><path fill="#DADCE7" d="M1705.83 222.5 1705.83 370.833 74.1666 370.833 74.1666 222.5 1705.83 222.5" transform="matrix(1.00169 0 0 1 -540 2201)"/><path fill="#EAEBF3" d="M1705.83 222.5 74.1666 222.5 74.1666 74.1666 1705.83 74.1666 1705.83 222.5" transform="matrix(1.00169 0 0 1 -540 2201)"/><g filter="url(#fx0)" transform="translate(-32 2320)"><g><path fill-rule="evenodd" stroke="#FFF" stroke-linejoin="round" stroke-miterlimit="10" stroke-width="3" d="M441.726 94.067C435.019 94.1091 429.536 96.349 425.279 100.787 421.022 105.224 418.824 111.607 418.685 119.935 418.824 128.369 421.022 134.844 425.279 139.362 429.536 143.88 435.019 146.162 441.726 146.208 448.337 146.162 453.76 143.88 457.996 139.362 462.232 134.844 464.421 128.369 464.564 119.935 464.421 111.607 462.232 105.224 457.996 100.787 453.76 96.349 448.337 94.1091 441.726 94.067ZM309.504 90.835C303.495 90.8982 298.547 92.5923 294.66 95.9171 290.772 99.2419 288.248 103.818 287.086 109.646L331.921 109.646C330.848 103.818 328.349 99.2419 324.423 95.9171 320.498 92.5923 315.524 90.8982 309.504 90.835ZM526.986 65.4083 565.341 65.4083 565.341 174.867 526.986 174.867ZM726.841 63.5903C734.68 63.5987 742.439 64.3891 750.12 65.9616 757.801 67.5341 764.446 69.8382 770.056 72.8737L758.55 98.889C753.075 95.9107 747.674 93.8133 742.348 92.5968 737.022 91.3803 731.92 90.7931 727.043 90.835 720.649 90.9021 716.1 91.674 713.396 93.1505 710.692 94.6271 709.377 96.4057 709.453 98.4863 709.789 102.03 713.145 104.321 719.522 105.358 725.898 106.395 733.282 107.604 741.672 108.985 750.062 110.367 757.446 113.346 763.823 117.923 770.199 122.501 773.556 130.101 773.891 140.725 773.858 151.069 769.281 159.59 760.161 166.287 751.041 172.984 737.575 176.45 719.764 176.685 710.282 176.63 701.219 175.579 692.575 173.532 683.931 171.484 676.839 168.768 671.3 165.383L682.808 139.104C687.98 142.275 693.936 144.75 700.675 146.527 707.414 148.305 714.181 149.209 720.977 149.238 727.354 149.217 731.836 148.55 734.422 147.237 737.008 145.923 738.255 144.091 738.162 141.739 737.826 138.284 734.459 136.082 728.062 135.134 721.666 134.186 714.259 133.05 705.842 131.726 697.426 130.401 690.019 127.447 683.622 122.863 677.226 118.279 673.859 110.623 673.522 99.8958 673.598 89.3863 678.191 80.7649 687.303 74.0315 696.414 67.2982 709.594 63.8177 726.841 63.5903ZM309.302 63.5903C320.197 63.6212 330.046 65.8466 338.847 70.2665 347.648 74.6864 354.655 81.1154 359.866 89.5535 365.077 97.9917 367.745 108.253 367.869 120.339 367.857 121.781 367.781 123.336 367.642 125.004 367.503 126.673 367.377 128.278 367.263 129.821L287.692 129.821C289.342 135.422 292.455 139.746 297.033 142.793 301.61 145.84 307.45 147.382 314.552 147.42 319.82 147.429 324.432 146.653 328.387 145.094 332.341 143.535 336.145 141.141 339.797 137.913L359.993 158.924C354.755 164.786 348.267 169.209 340.529 172.194 332.792 175.18 323.729 176.677 313.341 176.685 293.612 176.366 278.036 170.999 266.613 160.585 255.19 150.17 249.358 136.62 249.118 119.935 249.222 108.871 251.865 99.1229 257.047 90.6897 262.229 82.2566 269.33 75.6531 278.35 70.8794 287.369 66.1057 297.687 63.676 309.302 63.5903ZM240.287 63.5903 240.287 98.107C238.6 97.905 237.076 97.7535 235.717 97.6525 234.358 97.5515 232.986 97.501 231.601 97.501 223.702 97.4292 217.381 99.5423 212.638 103.84 207.896 108.138 205.463 115.052 205.341 124.581L205.341 174.867 166.986 174.867 166.986 65.4083 203.524 65.4083 203.524 78.5351C207.492 73.583 212.584 69.8552 218.8 67.3518 225.015 64.8483 232.178 63.5945 240.287 63.5903ZM594.43 40.9663 632.785 40.9663 632.785 69.4483 657.833 69.4483 657.833 98.107 632.785 98.107 632.785 134.486C632.836 138.545 633.896 141.644 635.967 143.783 638.037 145.922 640.815 146.999 644.299 147.016 646.441 147.012 648.52 146.717 650.536 146.132 652.552 145.547 654.378 144.696 656.015 143.58L665.509 170.428C662.113 172.543 658.098 174.116 653.465 175.146 648.832 176.176 643.958 176.689 638.845 176.685 624.717 176.698 613.806 173.241 606.114 166.314 598.422 159.387 594.527 148.912 594.43 134.89L594.43 98.107 578.472 98.107 578.472 69.4483 594.43 69.4483ZM90.2772 30.6643C103.353 30.7017 115.026 32.9986 125.299 37.5548 135.572 42.1111 144.165 48.7022 151.079 57.3283L125.627 80.3367C121.196 74.961 116.222 70.8607 110.704 68.0359 105.187 65.211 99.0516 63.7881 92.2972 63.767 80.4929 63.9354 71.0241 67.64 63.891 74.8807 56.7579 82.1214 53.0966 91.8878 52.9072 104.18 53.0966 116.472 56.7579 126.238 63.891 133.479 71.0241 140.719 80.4929 144.424 92.2972 144.592 99.0516 144.571 105.187 143.148 110.704 140.324 116.222 137.499 121.196 133.399 125.627 128.023L151.079 151.051C144.165 159.668 135.572 166.253 125.299 170.807 115.026 175.361 103.353 177.657 90.2772 177.695 75.2013 177.584 61.8398 174.419 50.1926 168.199 38.5454 161.979 29.3893 153.368 22.7242 142.367 16.0592 131.365 12.6619 118.636 12.5325 104.18 12.6619 89.7237 16.0592 76.9946 22.7242 65.9928 29.3893 54.991 38.5454 46.3801 50.1926 40.1601 61.8398 33.9402 75.2013 30.7749 90.2772 30.6643ZM463.958 25.0083 502.313 25.0083 502.313 174.867 465.775 174.867 465.775 163.969C462.138 168.296 457.642 171.5 452.286 173.582 446.931 175.663 440.716 176.698 433.642 176.685 423.565 176.632 414.476 174.316 406.377 169.739 398.277 165.162 391.838 158.643 387.06 150.182 382.282 141.722 379.836 131.639 379.724 119.935 379.836 108.3 382.282 98.2829 387.06 89.8834 391.838 81.4838 398.277 75.0148 406.377 70.4763 414.476 65.9377 423.565 63.6424 433.642 63.5903 440.021 63.5818 445.756 64.5069 450.847 66.3654 455.937 68.2239 460.308 71.0664 463.958 74.8928ZM546.164 12.4843C553.323 12.5894 558.992 14.4484 563.173 18.0612 567.354 21.674 569.491 26.4096 569.583 32.2682 569.491 38.4421 567.354 43.4553 563.173 47.3077 558.992 51.1602 553.323 53.1453 546.164 53.263 539.005 53.1326 533.335 51.1728 529.154 47.3834 524.974 43.5941 522.837 38.7576 522.744 32.8738 522.837 26.99 524.974 22.1534 529.154 18.364 533.335 14.5746 539.005 12.6147 546.164 12.4843Z"/></g></g><path fill-rule="evenodd" stroke="#FFF" stroke-linejoin="round" stroke-miterlimit="10" stroke-width="3" d="M402.912 2407.25C396.204 2407.29 390.722 2409.53 386.465 2413.97 382.208 2418.41 380.01 2424.79 379.871 2433.12 380.01 2441.55 382.208 2448.03 386.465 2452.55 390.722 2457.07 396.204 2459.35 402.912 2459.39 409.522 2459.35 414.946 2457.07 419.181 2452.55 423.417 2448.03 425.606 2441.55 425.749 2433.12 425.606 2424.79 423.417 2418.41 419.181 2413.97 414.946 2409.53 409.522 2407.29 402.912 2407.25ZM270.689 2404.02C264.681 2404.08 259.733 2405.78 255.845 2409.1 251.957 2412.43 249.433 2417 248.272 2422.83L293.106 2422.83C292.033 2417 289.534 2412.43 285.609 2409.1 281.683 2405.78 276.71 2404.08 270.689 2404.02ZM488.172 2378.59 526.527 2378.59 526.527 2488.05 488.172 2488.05ZM688.026 2376.78C695.865 2376.78 703.625 2377.57 711.306 2379.15 718.987 2380.72 725.632 2383.02 731.241 2386.06L719.735 2412.07C714.26 2409.1 708.86 2407 703.533 2405.78 698.207 2404.57 693.105 2403.98 688.228 2404.02 681.834 2404.09 677.285 2404.86 674.581 2406.34 671.877 2407.81 670.563 2409.59 670.639 2411.67 670.974 2415.22 674.33 2417.51 680.707 2418.54 687.084 2419.58 694.467 2420.79 702.858 2422.17 711.248 2423.55 718.631 2426.53 725.008 2431.11 731.385 2435.69 734.741 2443.29 735.077 2453.91 735.044 2464.25 730.467 2472.78 721.347 2479.47 712.226 2486.17 698.761 2489.64 680.95 2489.87 671.467 2489.82 662.404 2488.76 653.76 2486.72 645.116 2484.67 638.025 2481.95 632.486 2478.57L643.993 2452.29C649.165 2455.46 655.121 2457.94 661.86 2459.71 668.599 2461.49 675.367 2462.39 682.163 2462.42 688.54 2462.4 693.021 2461.74 695.608 2460.42 698.194 2459.11 699.44 2457.28 699.348 2454.92 699.011 2451.47 695.644 2449.27 689.248 2448.32 682.851 2447.37 675.444 2446.24 667.028 2444.91 658.611 2443.59 651.204 2440.63 644.808 2436.05 638.411 2431.46 635.044 2423.81 634.708 2413.08 634.783 2402.57 639.376 2393.95 648.488 2387.22 657.6 2380.48 670.779 2377 688.026 2376.78ZM270.487 2376.78C281.383 2376.81 291.231 2379.03 300.033 2383.45 308.834 2387.87 315.84 2394.3 321.051 2402.74 326.262 2411.18 328.93 2421.44 329.055 2433.52 329.042 2434.97 328.966 2436.52 328.827 2438.19 328.688 2439.86 328.562 2441.46 328.449 2443.01L248.878 2443.01C250.527 2448.61 253.64 2452.93 258.218 2455.98 262.796 2459.03 268.636 2460.57 275.738 2460.61 281.006 2460.61 285.617 2459.84 289.572 2458.28 293.527 2456.72 297.33 2454.33 300.982 2451.1L321.178 2472.11C315.94 2477.97 309.452 2482.39 301.715 2485.38 293.977 2488.37 284.914 2489.86 274.526 2489.87 254.797 2489.55 239.222 2484.19 227.798 2473.77 216.375 2463.36 210.544 2449.81 210.304 2433.12 210.407 2422.06 213.05 2412.31 218.233 2403.88 223.415 2395.44 230.516 2388.84 239.535 2384.06 248.555 2379.29 258.872 2376.86 270.487 2376.78ZM201.473 2376.78 201.473 2411.29C199.785 2411.09 198.262 2410.94 196.902 2410.84 195.543 2410.74 194.171 2410.69 192.787 2410.69 184.888 2410.61 178.567 2412.73 173.824 2417.03 169.081 2421.32 166.649 2428.24 166.527 2437.77L166.527 2488.05 128.172 2488.05 128.172 2378.59 164.71 2378.59 164.71 2391.72C168.678 2386.77 173.769 2383.04 179.985 2380.54 186.201 2378.03 193.363 2376.78 201.473 2376.78ZM555.616 2354.15 593.971 2354.15 593.971 2382.63 619.018 2382.63 619.018 2411.29 593.971 2411.29 593.971 2447.67C594.021 2451.73 595.082 2454.83 597.152 2456.97 599.223 2459.11 602 2460.19 605.484 2460.2 607.627 2460.2 609.706 2459.9 611.721 2459.32 613.737 2458.73 615.564 2457.88 617.201 2456.77L626.695 2483.61C623.298 2485.73 619.284 2487.3 614.65 2488.33 610.017 2489.36 605.144 2489.87 600.031 2489.87 585.902 2489.88 574.992 2486.43 567.299 2479.5 559.607 2472.57 555.712 2462.1 555.616 2448.08L555.616 2411.29 539.658 2411.29 539.658 2382.63 555.616 2382.63ZM51.4626 2343.85C64.5379 2343.89 76.2118 2346.18 86.4844 2350.74 96.7569 2355.3 105.35 2361.89 112.265 2370.51L86.8126 2393.52C82.3812 2388.15 77.407 2384.05 71.8899 2381.22 66.3727 2378.4 60.237 2376.97 53.4826 2376.95 41.6783 2377.12 32.2095 2380.83 25.0764 2388.07 17.9432 2395.31 14.282 2405.07 14.0926 2417.37 14.282 2429.66 17.9432 2439.42 25.0764 2446.66 32.2095 2453.91 41.6783 2457.61 53.4826 2457.78 60.237 2457.76 66.3727 2456.33 71.8899 2453.51 77.407 2450.68 82.3812 2446.58 86.8126 2441.21L112.265 2464.24C105.35 2472.85 96.7569 2479.44 86.4844 2483.99 76.2118 2488.55 64.5379 2490.84 51.4626 2490.88 36.3867 2490.77 23.0252 2487.6 11.378 2481.38-0.269211 2475.16-9.42533 2466.55-16.0904 2455.55-22.7554 2444.55-26.1527 2431.82-26.2821 2417.37-26.1527 2402.91-22.7554 2390.18-16.0904 2379.18-9.42533 2368.18-0.269211 2359.57 11.378 2353.35 23.0252 2347.13 36.3867 2343.96 51.4626 2343.85ZM425.144 2338.19 463.499 2338.19 463.499 2488.05 426.961 2488.05 426.961 2477.16C423.324 2481.48 418.828 2484.69 413.472 2486.77 408.116 2488.85 401.901 2489.88 394.827 2489.87 384.75 2489.82 375.662 2487.5 367.562 2482.92 359.462 2478.35 353.023 2471.83 348.245 2463.37 343.467 2454.91 341.022 2444.82 340.91 2433.12 341.022 2421.49 343.467 2411.47 348.245 2403.07 353.023 2394.67 359.462 2388.2 367.562 2383.66 375.662 2379.12 384.75 2376.83 394.827 2376.78 401.206 2376.77 406.941 2377.69 412.032 2379.55 417.123 2381.41 421.493 2384.25 425.144 2388.08ZM507.349 2325.67C514.508 2325.77 520.178 2327.63 524.359 2331.25 528.539 2334.86 530.676 2339.6 530.769 2345.45 530.676 2351.63 528.539 2356.64 524.359 2360.49 520.178 2364.35 514.508 2366.33 507.349 2366.45 500.191 2366.32 494.521 2364.36 490.34 2360.57 486.159 2356.78 484.022 2351.94 483.93 2346.06 484.022 2340.18 486.159 2335.34 490.34 2331.55 494.521 2327.76 500.191 2325.8 507.349 2325.67Z"/><text x="-26.282" y="2470.23" fill="#000" fill-opacity="0" font-family="Arial,Arial_MSFontService,sans-serif" font-size="165.211">Credits</text></g></svg>