<svg width="1783" height="445" xmlns="http://www.w3.org/2000/svg" xmlns:xlink="http://www.w3.org/1999/xlink" xml:space="preserve" overflow="hidden"><defs><filter id="fx0" x="-10%" y="-10%" width="120%" height="120%" filterUnits="userSpaceOnUse" primitiveUnits="userSpaceOnUse"><feComponentTransfer color-interpolation-filters="sRGB"><feFuncR type="discrete" tableValues="0 0"/><feFuncG type="discrete" tableValues="0 0"/><feFuncB type="discrete" tableValues="0 0"/><feFuncA type="linear" slope="0.431373" intercept="0"/></feComponentTransfer><feGaussianBlur stdDeviation="3.21244 3.21244"/></filter><clipPath id="clip1"><rect x="-540" y="2201" width="1783" height="445"/></clipPath></defs><g clip-path="url(#clip1)" transform="translate(540 -2201)"><path d="M1780 370.833C1780 420.278 1755.28 445 1705.83 445L74.1666 445C24.7222 445 0 420.278 0 370.833L0 74.1666C0 24.7222 24.7222 0 74.1666 0L1705.83 0C1755.28 0 1780 24.7222 1780 74.1666L1780 370.833M1742.92 74.1666C1742.92 49.4445 1730.55 37.0833 1705.83 37.0833L74.1666 37.0833C49.4445 37.0833 37.0833 49.4445 37.0833 74.1666L37.0833 370.833C37.0833 395.555 49.4445 407.916 74.1666 407.916L1705.83 407.916C1730.55 407.916 1742.92 395.555 1742.92 370.833L1742.92 74.1666" fill="#989AAF" transform="matrix(1.00169 0 0 1 -540 2201)"/><path d="M1742.92 74.1666 1742.92 370.833C1742.92 395.555 1730.55 407.916 1705.83 407.916L74.1666 407.916C49.4445 407.916 37.0833 395.555 37.0833 370.833L37.0833 74.1666C37.0833 49.4445 49.4445 37.0833 74.1666 37.0833L1705.83 37.0833C1730.55 37.0833 1742.92 49.4445 1742.92 74.1666M1705.83 222.5 1705.83 74.1666 74.1666 74.1666 74.1666 222.5 74.1666 370.833 1705.83 370.833 1705.83 222.5" fill="#FFFFFF" transform="matrix(1.00169 0 0 1 -540 2201)"/><path d="M1705.83 222.5 1705.83 370.833 74.1666 370.833 74.1666 222.5 1705.83 222.5" fill="#DADCE7" transform="matrix(1.00169 0 0 1 -540 2201)"/><path d="M1705.83 222.5 74.1666 222.5 74.1666 74.1666 1705.83 74.1666 1705.83 222.5" fill="#EAEBF3" transform="matrix(1.00169 0 0 1 -540 2201)"/><g filter="url(#fx0)" transform="translate(-69 2320)"><g><path d="M716.707 130.225C710.614 130.271 706.276 131.291 703.695 133.284 701.113 135.277 699.858 137.965 699.93 141.348 699.959 144.642 701.214 147.305 703.695 149.336 706.175 151.366 709.704 152.411 714.282 152.47 718.598 152.483 722.447 151.446 725.829 149.361 729.211 147.276 731.695 144.065 733.283 139.73L733.283 130.225ZM436.98 94.067C430.361 94.1091 424.904 96.349 420.609 100.787 416.315 105.224 414.091 111.607 413.94 119.935 414.091 128.369 416.315 134.844 420.609 139.362 424.904 143.88 430.361 146.162 436.98 146.208 443.688 146.162 449.17 143.88 453.427 139.362 457.684 134.844 459.882 128.369 460.021 119.935 459.882 111.607 457.684 105.224 453.427 100.787 449.17 96.349 443.688 94.1091 436.98 94.067ZM606.049 65.4083 644.404 65.4083 644.404 174.867 606.049 174.867ZM151.645 65.4083 190 65.4083 190 120.352C190.038 128.761 191.629 134.821 194.775 138.532 197.921 142.244 202.393 144.062 208.192 143.986 214.003 144.058 218.854 142.046 222.745 137.952 226.636 133.857 228.657 127.25 228.809 118.13L228.809 65.4083 267.164 65.4083 267.164 174.867 230.626 174.867 230.626 163.162C226.429 167.699 221.536 171.088 215.948 173.329 210.36 175.571 204.406 176.689 198.085 176.685 184.399 176.769 173.302 172.766 164.793 164.674 156.284 156.582 151.901 143.895 151.645 126.614ZM715.697 63.5903C733.583 63.5222 747.351 67.5939 757.001 75.8055 766.651 84.0171 771.531 96.7771 771.64 114.085L771.64 174.867 735.911 174.867 735.911 160.744C733.174 165.999 729.097 169.967 723.681 172.649 718.266 175.331 711.561 176.677 703.568 176.685 690.386 176.467 680.308 173.221 673.335 166.946 666.362 160.672 662.846 152.678 662.787 142.966 662.694 132.763 666.564 124.785 674.396 119.032 682.228 113.279 694.58 110.353 711.452 110.252L733.283 110.252C732.997 104.66 730.942 100.369 727.118 97.3814 723.294 94.3933 717.6 92.8845 710.037 92.855 704.668 92.8845 699.34 93.7358 694.052 95.409 688.764 97.0821 684.197 99.4001 680.349 102.363L667.43 76.3052C673.843 72.1551 681.304 69.0016 689.814 66.8446 698.324 64.6877 706.951 63.6029 715.697 63.5903ZM589.35 63.5903 589.35 98.107C587.662 97.905 586.139 97.7535 584.779 97.6525 583.42 97.5515 582.048 97.501 580.664 97.501 572.765 97.4292 566.444 99.5423 561.701 103.84 556.958 108.138 554.526 115.052 554.404 124.581L554.404 174.867 516.049 174.867 516.049 65.4083 552.587 65.4083 552.587 78.5351C556.555 73.583 561.646 69.8552 567.862 67.3518 574.078 64.8483 581.24 63.5945 589.35 63.5903ZM436.98 63.5903C455.376 63.8797 470.196 69.154 481.441 79.4131 492.685 89.6723 498.465 103.18 498.78 119.935 498.465 136.797 492.685 150.397 481.441 160.736 470.196 171.075 455.376 176.391 436.98 176.685 424.96 176.598 414.322 174.148 405.066 169.336 395.809 164.523 388.54 157.869 383.257 149.375 377.974 140.881 375.282 131.067 375.181 119.935 375.282 108.872 377.974 99.1239 383.257 90.6907 388.54 82.2575 395.809 75.6539 405.066 70.8799 414.322 66.1059 424.96 63.676 436.98 63.5903ZM296.493 40.9663 334.848 40.9663 334.848 69.4483 359.896 69.4483 359.896 98.107 334.848 98.107 334.848 134.486C334.898 138.545 335.959 141.644 338.029 143.783 340.1 145.922 342.877 146.999 346.362 147.016 348.504 147.012 350.583 146.717 352.598 146.132 354.614 145.547 356.441 144.696 358.078 143.58L367.572 170.428C364.176 172.543 360.161 174.116 355.527 175.146 350.894 176.176 346.021 176.689 340.908 176.685 326.779 176.698 315.869 173.241 308.177 166.314 300.484 159.387 296.59 148.912 296.493 134.89L296.493 98.107 280.535 98.107 280.535 69.4483 296.493 69.4483ZM12.535 33.4923 139.164 33.4923 139.164 65.181 95.9357 65.181 95.9357 174.867 55.965 174.867 55.965 65.181 12.535 65.181ZM795.049 25.0083 833.404 25.0083 833.404 174.867 795.049 174.867ZM625.226 12.4843C632.385 12.5894 638.055 14.4484 642.236 18.0612 646.417 21.674 648.553 26.4096 648.646 32.2682 648.553 38.4421 646.417 43.4553 642.236 47.3077 638.055 51.1602 632.385 53.1453 625.226 53.263 618.068 53.1326 612.398 51.1728 608.217 47.3834 604.036 43.5941 601.899 38.7576 601.807 32.8738 601.899 26.99 604.036 22.1534 608.217 18.364 612.398 14.5746 618.068 12.6147 625.226 12.4843Z" stroke="#FFFFFF" stroke-width="3" stroke-linejoin="round" stroke-miterlimit="10" fill-rule="evenodd"/></g></g><path d="M640.893 2443.41C634.799 2443.46 630.461 2444.48 627.88 2446.47 625.298 2448.46 624.043 2451.15 624.115 2454.53 624.145 2457.83 625.4 2460.49 627.88 2462.52 630.36 2464.55 633.89 2465.6 638.467 2465.66 642.784 2465.67 646.633 2464.63 650.015 2462.55 653.396 2460.46 655.881 2457.25 657.469 2452.92L657.469 2443.41ZM361.166 2407.25C354.547 2407.29 349.09 2409.53 344.795 2413.97 340.5 2418.41 338.277 2424.79 338.125 2433.12 338.277 2441.55 340.5 2448.03 344.795 2452.55 349.09 2457.07 354.547 2459.35 361.166 2459.39 367.873 2459.35 373.356 2457.07 377.613 2452.55 381.869 2448.03 384.067 2441.55 384.206 2433.12 384.067 2424.79 381.869 2418.41 377.613 2413.97 373.356 2409.53 367.873 2407.29 361.166 2407.25ZM530.234 2378.59 568.589 2378.59 568.589 2488.05 530.234 2488.05ZM75.8304 2378.59 114.185 2378.59 114.185 2433.54C114.223 2441.95 115.815 2448.01 118.96 2451.72 122.106 2455.43 126.578 2457.25 132.377 2457.17 138.188 2457.24 143.04 2455.23 146.93 2451.14 150.821 2447.04 152.843 2440.44 152.994 2431.32L152.994 2378.59 191.349 2378.59 191.349 2488.05 154.811 2488.05 154.811 2476.35C150.614 2480.88 145.721 2484.27 140.134 2486.51 134.546 2488.76 128.591 2489.87 122.27 2489.87 108.585 2489.95 97.4873 2485.95 88.9783 2477.86 80.4693 2469.77 76.0867 2457.08 75.8304 2439.8ZM639.882 2376.78C657.769 2376.71 671.537 2380.78 681.187 2388.99 690.837 2397.2 695.716 2409.96 695.825 2427.27L695.825 2488.05 660.096 2488.05 660.096 2473.93C657.359 2479.18 653.282 2483.15 647.867 2485.83 642.451 2488.52 635.747 2489.86 627.754 2489.87 614.571 2489.65 604.493 2486.41 597.52 2480.13 590.547 2473.86 587.031 2465.86 586.972 2456.15 586.88 2445.95 590.749 2437.97 598.581 2432.22 606.414 2426.46 618.766 2423.54 635.637 2423.44L657.469 2423.44C657.182 2417.85 655.127 2413.55 651.303 2410.57 647.479 2407.58 641.786 2406.07 634.222 2406.04 628.853 2406.07 623.525 2406.92 618.237 2408.59 612.95 2410.27 608.382 2412.59 604.534 2415.55L591.615 2389.49C598.028 2385.34 605.489 2382.19 613.999 2380.03 622.509 2377.87 631.137 2376.79 639.882 2376.78ZM513.535 2376.78 513.535 2411.29C511.848 2411.09 510.324 2410.94 508.965 2410.84 507.605 2410.74 506.234 2410.69 504.849 2410.69 496.95 2410.61 490.629 2412.73 485.886 2417.03 481.144 2421.32 478.711 2428.24 478.589 2437.77L478.589 2488.05 440.234 2488.05 440.234 2378.59 476.772 2378.59 476.772 2391.72C480.74 2386.77 485.832 2383.04 492.047 2380.54 498.263 2378.03 505.426 2376.78 513.535 2376.78ZM361.166 2376.78C379.562 2377.07 394.382 2382.34 405.626 2392.6 416.871 2402.86 422.65 2416.37 422.965 2433.12 422.65 2449.98 416.871 2463.58 405.626 2473.92 394.382 2484.26 379.562 2489.58 361.166 2489.87 349.145 2489.78 338.507 2487.33 329.251 2482.52 319.995 2477.71 312.725 2471.05 307.442 2462.56 302.159 2454.07 299.467 2444.25 299.366 2433.12 299.467 2422.06 302.159 2412.31 307.442 2403.88 312.725 2395.44 319.995 2388.84 329.251 2384.07 338.507 2379.29 349.145 2376.86 361.166 2376.78ZM220.678 2354.15 259.033 2354.15 259.033 2382.63 284.081 2382.63 284.081 2411.29 259.033 2411.29 259.033 2447.67C259.084 2451.73 260.144 2454.83 262.215 2456.97 264.285 2459.11 267.063 2460.19 270.547 2460.2 272.689 2460.2 274.768 2459.9 276.784 2459.32 278.8 2458.73 280.626 2457.88 282.263 2456.77L291.757 2483.61C288.361 2485.73 284.346 2487.3 279.713 2488.33 275.079 2489.36 270.206 2489.87 265.093 2489.87 250.965 2489.88 240.054 2486.43 232.362 2479.5 224.67 2472.57 220.775 2462.1 220.678 2448.08L220.678 2411.29 204.72 2411.29 204.72 2382.63 220.678 2382.63ZM-63.2796 2346.68 63.3491 2346.68 63.3491 2378.37 20.1211 2378.37 20.1211 2488.05-19.8496 2488.05-19.8496 2378.37-63.2796 2378.37ZM719.234 2338.19 757.589 2338.19 757.589 2488.05 719.234 2488.05ZM549.412 2325.67C556.571 2325.77 562.24 2327.63 566.421 2331.25 570.602 2334.86 572.739 2339.6 572.831 2345.45 572.739 2351.63 570.602 2356.64 566.421 2360.49 562.24 2364.35 556.571 2366.33 549.412 2366.45 542.253 2366.32 536.583 2364.36 532.402 2360.57 528.222 2356.78 526.085 2351.94 525.992 2346.06 526.085 2340.18 528.222 2335.34 532.402 2331.55 536.583 2327.76 542.253 2325.8 549.412 2325.67Z" stroke="#FFFFFF" stroke-width="3" stroke-linejoin="round" stroke-miterlimit="10" fill-rule="evenodd"/><text fill="#000000" fill-opacity="0" font-family="Arial,Arial_MSFontService,sans-serif" font-size="164.202" x="-63.2796" y="2469.35">Tutorial</text></g></svg>