<svg width="1782" height="446" xmlns="http://www.w3.org/2000/svg" xmlns:xlink="http://www.w3.org/1999/xlink" xml:space="preserve" overflow="hidden"><defs><filter id="fx0" x="-10%" y="-10%" width="120%" height="120%" filterUnits="userSpaceOnUse" primitiveUnits="userSpaceOnUse"><feComponentTransfer color-interpolation-filters="sRGB"><feFuncR type="discrete" tableValues="0 0"/><feFuncG type="discrete" tableValues="0 0"/><feFuncB type="discrete" tableValues="0 0"/><feFuncA type="linear" slope="0.431373" intercept="0"/></feComponentTransfer><feGaussianBlur stdDeviation="3.21244 3.21244"/></filter><clipPath id="clip1"><rect x="1347" y="2205" width="1782" height="446"/></clipPath></defs><g clip-path="url(#clip1)" transform="translate(-1347 -2205)"><path d="M1782 371.25C1782 420.751 1757.25 445.5 1707.75 445.5L74.25 445.5C24.7499 445.5 0 420.751 0 371.25L0 74.25C0 24.7499 24.7499 0 74.25 0L1707.75 0C1757.25 0 1782 24.7499 1782 74.25L1782 371.25M1744.88 74.25C1744.88 49.5001 1732.5 37.125 1707.75 37.125L74.25 37.125C49.5001 37.125 37.125 49.5001 37.125 74.25L37.125 371.25C37.125 395.999 49.5001 408.375 74.25 408.375L1707.75 408.375C1732.5 408.375 1744.88 395.999 1744.88 371.25L1744.88 74.25" fill="#989AAF" transform="matrix(1 0 0 1.00112 1347 2205)"/><path d="M1744.88 74.25 1744.88 371.25C1744.88 395.999 1732.5 408.375 1707.75 408.375L74.25 408.375C49.5001 408.375 37.125 395.999 37.125 371.25L37.125 74.25C37.125 49.5001 49.5001 37.125 74.25 37.125L1707.75 37.125C1732.5 37.125 1744.88 49.5001 1744.88 74.25M1707.75 222.75 1707.75 74.25 74.25 74.25 74.25 222.75 74.25 371.25 1707.75 371.25 1707.75 222.75" fill="#FFFFFF" transform="matrix(1 0 0 1.00112 1347 2205)"/><path d="M1707.75 222.75 1707.75 371.25 74.25 371.25 74.25 222.75 1707.75 222.75" fill="#DADCE7" transform="matrix(1 0 0 1.00112 1347 2205)"/><path d="M1707.75 222.75 74.25 222.75 74.25 74.25 1707.75 74.25 1707.75 222.75" fill="#EAEBF3" transform="matrix(1 0 0 1.00112 1347 2205)"/><g filter="url(#fx0)" transform="translate(1855 2324)"><g><path d="M441.217 94.3715C434.51 94.4136 429.027 96.6535 424.77 101.091 420.513 105.529 418.315 111.912 418.176 120.24 418.315 128.673 420.513 135.149 424.77 139.667 429.027 144.184 434.51 146.466 441.217 146.513 447.828 146.466 453.251 144.184 457.487 139.667 461.723 135.149 463.912 128.673 464.055 120.24 463.912 111.912 461.723 105.529 457.487 101.091 453.251 96.6535 447.828 94.4136 441.217 94.3715ZM308.995 91.1395C302.987 91.2027 298.039 92.8967 294.151 96.2215 290.263 99.5464 287.739 104.123 286.578 109.951L331.412 109.951C330.339 104.123 327.84 99.5464 323.914 96.2215 319.989 92.8967 315.016 91.2027 308.995 91.1395ZM526.478 65.7127 564.832 65.7127 564.832 175.171 526.478 175.171ZM726.332 63.8947C734.171 63.9031 741.931 64.6936 749.612 66.2661 757.292 67.8386 763.938 70.1426 769.547 73.1782L758.041 99.1935C752.566 96.2151 747.165 94.1177 741.839 92.9013 736.513 91.6848 731.411 91.0975 726.534 91.1395 720.14 91.2066 715.591 91.9784 712.887 93.455 710.183 94.9315 708.869 96.7101 708.944 98.7908 709.28 102.335 712.636 104.625 719.013 105.662 725.389 106.699 732.773 107.908 741.163 109.29 749.554 110.671 756.937 113.651 763.314 118.228 769.691 122.805 773.047 130.406 773.382 141.03 773.349 151.374 768.773 159.894 759.652 166.591 750.532 173.289 737.067 176.755 719.255 176.989 709.773 176.935 700.71 175.884 692.066 173.836 683.422 171.789 676.331 169.072 670.792 165.688L682.299 139.408C687.471 142.58 693.427 145.054 700.166 146.832 706.905 148.609 713.672 149.513 720.469 149.543 726.846 149.522 731.327 148.854 733.913 147.541 736.5 146.228 737.746 144.395 737.654 142.043 737.317 138.588 733.95 136.387 727.554 135.439 721.157 134.491 713.75 133.354 705.334 132.03 696.917 130.706 689.51 127.751 683.114 123.167 676.717 118.583 673.35 110.927 673.014 100.2 673.089 89.6907 677.682 81.0693 686.794 74.336 695.906 67.6026 709.085 64.1222 726.332 63.8947ZM308.793 63.8947C319.689 63.9256 329.537 66.151 338.338 70.5709 347.14 74.9909 354.146 81.4199 359.357 89.858 364.568 98.2961 367.236 108.558 367.36 120.643 367.348 122.085 367.272 123.64 367.133 125.309 366.994 126.977 366.868 128.583 366.754 130.125L287.183 130.125C288.833 135.726 291.946 140.05 296.524 143.097 301.102 146.144 306.942 147.687 314.044 147.725 319.311 147.733 323.923 146.958 327.878 145.398 331.833 143.839 335.636 141.445 339.288 138.217L359.484 159.229C354.246 165.09 347.758 169.513 340.02 172.499 332.283 175.484 323.22 176.981 312.832 176.989 293.103 176.671 277.527 171.304 266.104 160.889 254.681 150.475 248.85 136.925 248.61 120.24 248.713 109.176 251.356 99.4273 256.538 90.9942 261.721 82.561 268.822 75.9576 277.841 71.1839 286.861 66.4101 297.178 63.9804 308.793 63.8947ZM239.778 63.8947 239.778 98.4115C238.091 98.2095 236.567 98.058 235.208 97.957 233.849 97.856 232.477 97.8055 231.092 97.8055 223.193 97.7337 216.872 99.8467 212.13 104.145 207.387 108.443 204.954 115.356 204.832 124.885L204.832 175.171 166.478 175.171 166.478 65.7127 203.016 65.7127 203.016 78.8395C206.984 73.8874 212.075 70.1597 218.291 67.6562 224.506 65.1528 231.669 63.8989 239.778 63.8947ZM593.922 41.2707 632.276 41.2707 632.276 69.7527 657.324 69.7527 657.324 98.4115 632.276 98.4115 632.276 134.79C632.327 138.849 633.387 141.948 635.458 144.087 637.528 146.226 640.306 147.304 643.79 147.321 645.932 147.316 648.011 147.022 650.027 146.436 652.043 145.851 653.869 145.001 655.506 143.885L665 170.733C661.604 172.848 657.589 174.42 652.956 175.451 648.323 176.481 643.449 176.994 638.336 176.989 624.208 177.002 613.298 173.545 605.605 166.618 597.913 159.692 594.018 149.217 593.922 135.194L593.922 98.4115 577.964 98.4115 577.964 69.7527 593.922 69.7527ZM89.7684 30.9687C102.844 31.0061 114.518 33.303 124.79 37.8593 135.063 42.4155 143.656 49.0067 150.57 57.6327L125.118 80.6411C120.687 75.2654 115.713 71.1651 110.196 68.3403 104.679 65.5155 98.5428 64.0925 91.7884 64.0715 79.9841 64.2399 70.5153 67.9444 63.3822 75.1852 56.2491 82.4259 52.5878 92.1923 52.3985 104.484 52.5878 116.776 56.2491 126.543 63.3822 133.783 70.5153 141.024 79.9841 144.728 91.7884 144.897 98.5428 144.876 104.679 143.453 110.196 140.628 115.713 137.803 120.687 133.703 125.118 128.328L150.57 151.356C143.656 159.972 135.063 166.557 124.79 171.111 114.518 175.666 102.844 177.962 89.7684 177.999 74.6926 177.889 61.331 174.724 49.6838 168.504 38.0366 162.284 28.8805 153.673 22.2155 142.671 15.5504 131.669 12.1532 118.94 12.0237 104.484 12.1532 90.0281 15.5504 77.2991 22.2154 66.2972 28.8805 55.2954 38.0366 46.6845 49.6838 40.4646 61.331 34.2446 74.6926 31.0793 89.7684 30.9687ZM463.45 25.3127 501.804 25.3127 501.804 175.171 465.266 175.171 465.266 164.274C461.63 168.601 457.133 171.805 451.778 173.886 446.422 175.968 440.207 177.002 433.133 176.989 423.056 176.936 413.968 174.621 405.868 170.044 397.768 165.466 391.329 158.947 386.551 150.487 381.773 142.026 379.328 131.944 379.216 120.24 379.328 108.605 381.773 98.5874 386.551 90.1878 391.329 81.7883 397.768 75.3192 405.868 70.7807 413.968 66.2422 423.056 63.9468 433.133 63.8947 439.512 63.8863 445.247 64.8113 450.338 66.6699 455.428 68.5284 459.799 71.3709 463.45 75.1973ZM545.655 12.7887C552.814 12.8939 558.484 14.7529 562.664 18.3656 566.845 21.9784 568.982 26.7141 569.074 32.5726 568.982 38.7466 566.845 43.7598 562.664 47.6122 558.484 51.4646 552.814 53.4497 545.655 53.5675 538.496 53.4371 532.827 51.4772 528.646 47.6879 524.465 43.8986 522.328 39.062 522.236 33.1782 522.328 27.2944 524.465 22.4578 528.646 18.6684 532.827 14.879 538.496 12.9191 545.655 12.7887Z" stroke="#FFFFFF" stroke-width="3" stroke-linejoin="round" stroke-miterlimit="10" fill="#215F9A" fill-rule="evenodd"/></g></g><path d="M2289.4 2411.56C2282.7 2411.6 2277.21 2413.84 2272.96 2418.28 2268.7 2422.71 2266.5 2429.1 2266.36 2437.43 2266.5 2445.86 2268.7 2452.33 2272.96 2456.85 2277.21 2461.37 2282.7 2463.65 2289.4 2463.7 2296.01 2463.65 2301.44 2461.37 2305.67 2456.85 2309.91 2452.33 2312.1 2445.86 2312.24 2437.43 2312.1 2429.1 2309.91 2422.71 2305.67 2418.28 2301.44 2413.84 2296.01 2411.6 2289.4 2411.56ZM2157.18 2408.32C2151.17 2408.39 2146.22 2410.08 2142.34 2413.41 2138.45 2416.73 2135.92 2421.31 2134.76 2427.14L2179.6 2427.14C2178.52 2421.31 2176.03 2416.73 2172.1 2413.41 2168.17 2410.08 2163.2 2408.39 2157.18 2408.32ZM2374.66 2382.9 2413.02 2382.9 2413.02 2492.36 2374.66 2492.36ZM2574.52 2381.08C2582.36 2381.09 2590.12 2381.88 2597.8 2383.45 2605.48 2385.02 2612.12 2387.33 2617.73 2390.36L2606.23 2416.38C2600.75 2413.4 2595.35 2411.3 2590.02 2410.09 2584.7 2408.87 2579.6 2408.28 2574.72 2408.32 2568.33 2408.39 2563.78 2409.16 2561.07 2410.64 2558.37 2412.12 2557.05 2413.9 2557.13 2415.98 2557.47 2419.52 2560.82 2421.81 2567.2 2422.85 2573.57 2423.88 2580.96 2425.09 2589.35 2426.48 2597.74 2427.86 2605.12 2430.84 2611.5 2435.41 2617.88 2439.99 2621.23 2447.59 2621.57 2458.22 2621.53 2468.56 2616.96 2477.08 2607.84 2483.78 2598.72 2490.47 2585.25 2493.94 2567.44 2494.17 2557.96 2494.12 2548.9 2493.07 2540.25 2491.02 2531.61 2488.97 2524.52 2486.26 2518.98 2482.87L2530.48 2456.59C2535.66 2459.76 2541.61 2462.24 2548.35 2464.02 2555.09 2465.79 2561.86 2466.7 2568.65 2466.73 2575.03 2466.71 2579.51 2466.04 2582.1 2464.73 2584.69 2463.41 2585.93 2461.58 2585.84 2459.23 2585.5 2455.77 2582.14 2453.57 2575.74 2452.62 2569.34 2451.68 2561.94 2450.54 2553.52 2449.22 2545.1 2447.89 2537.7 2444.94 2531.3 2440.35 2524.9 2435.77 2521.54 2428.11 2521.2 2417.39 2521.27 2406.88 2525.87 2398.25 2534.98 2391.52 2544.09 2384.79 2557.27 2381.31 2574.52 2381.08ZM2156.98 2381.08C2167.87 2381.11 2177.72 2383.34 2186.52 2387.76 2195.33 2392.18 2202.33 2398.61 2207.54 2407.04 2212.75 2415.48 2215.42 2425.74 2215.55 2437.83 2215.53 2439.27 2215.46 2440.83 2215.32 2442.49 2215.18 2444.16 2215.05 2445.77 2214.94 2447.31L2135.37 2447.31C2137.02 2452.91 2140.13 2457.24 2144.71 2460.28 2149.29 2463.33 2155.13 2464.87 2162.23 2464.91 2167.5 2464.92 2172.11 2464.14 2176.06 2462.58 2180.02 2461.02 2183.82 2458.63 2187.47 2455.4L2207.67 2476.41C2202.43 2482.28 2195.94 2486.7 2188.21 2489.68 2180.47 2492.67 2171.41 2494.17 2161.02 2494.17 2141.29 2493.86 2125.71 2488.49 2114.29 2478.07 2102.87 2467.66 2097.03 2454.11 2096.8 2437.43 2096.9 2426.36 2099.54 2416.61 2104.72 2408.18 2109.91 2399.75 2117.01 2393.14 2126.03 2388.37 2135.05 2383.6 2145.36 2381.17 2156.98 2381.08ZM2087.96 2381.08 2087.96 2415.6C2086.28 2415.39 2084.75 2415.24 2083.39 2415.14 2082.03 2415.04 2080.66 2414.99 2079.28 2414.99 2071.38 2414.92 2065.06 2417.03 2060.32 2421.33 2055.57 2425.63 2053.14 2432.54 2053.02 2442.07L2053.02 2492.36 2014.66 2492.36 2014.66 2382.9 2051.2 2382.9 2051.2 2396.02C2055.17 2391.07 2060.26 2387.34 2066.48 2384.84 2072.69 2382.34 2079.85 2381.08 2087.96 2381.08ZM2442.11 2358.46 2480.46 2358.46 2480.46 2386.94 2505.51 2386.94 2505.51 2415.6 2480.46 2415.6 2480.46 2451.98C2480.51 2456.03 2481.57 2459.13 2483.64 2461.27 2485.71 2463.41 2488.49 2464.49 2491.98 2464.51 2494.12 2464.5 2496.2 2464.21 2498.21 2463.62 2500.23 2463.04 2502.05 2462.19 2503.69 2461.07L2513.19 2487.92C2509.79 2490.03 2505.77 2491.61 2501.14 2492.64 2496.51 2493.67 2491.63 2494.18 2486.52 2494.17 2472.39 2494.19 2461.48 2490.73 2453.79 2483.8 2446.1 2476.88 2442.2 2466.4 2442.11 2452.38L2442.11 2415.6 2426.15 2415.6 2426.15 2386.94 2442.11 2386.94ZM1937.95 2348.15C1951.03 2348.19 1962.7 2350.49 1972.98 2355.04 1983.25 2359.6 1991.84 2366.19 1998.76 2374.82L1973.3 2397.83C1968.87 2392.45 1963.9 2388.35 1958.38 2385.53 1952.86 2382.7 1946.73 2381.28 1939.97 2381.26 1928.17 2381.43 1918.7 2385.13 1911.57 2392.37 1904.43 2399.61 1900.77 2409.38 1900.58 2421.67 1900.77 2433.96 1904.43 2443.73 1911.57 2450.97 1918.7 2458.21 1928.17 2461.91 1939.97 2462.08 1946.73 2462.06 1952.86 2460.64 1958.38 2457.81 1963.9 2454.99 1968.87 2450.89 1973.3 2445.51L1998.76 2468.54C1991.84 2477.16 1983.25 2483.74 1972.98 2488.3 1962.7 2492.85 1951.03 2495.15 1937.95 2495.18 1922.88 2495.07 1909.52 2491.91 1897.87 2485.69 1886.22 2479.47 1877.07 2470.86 1870.4 2459.86 1863.74 2448.85 1860.34 2436.13 1860.21 2421.67 1860.34 2407.21 1863.74 2394.48 1870.4 2383.48 1877.07 2372.48 1886.22 2363.87 1897.87 2357.65 1909.52 2351.43 1922.88 2348.26 1937.95 2348.15ZM2311.64 2342.5 2349.99 2342.5 2349.99 2492.36 2313.45 2492.36 2313.45 2481.46C2309.81 2485.79 2305.32 2488.99 2299.96 2491.07 2294.61 2493.15 2288.39 2494.19 2281.32 2494.17 2271.24 2494.12 2262.15 2491.81 2254.05 2487.23 2245.95 2482.65 2239.51 2476.13 2234.74 2467.67 2229.96 2459.21 2227.51 2449.13 2227.4 2437.43 2227.51 2425.79 2229.96 2415.77 2234.74 2407.37 2239.51 2398.97 2245.95 2392.5 2254.05 2387.97 2262.15 2383.43 2271.24 2381.13 2281.32 2381.08 2287.7 2381.07 2293.43 2382 2298.52 2383.86 2303.61 2385.71 2307.98 2388.56 2311.64 2392.38ZM2393.84 2329.97C2401 2330.08 2406.67 2331.94 2410.85 2335.55 2415.03 2339.16 2417.17 2343.9 2417.26 2349.76 2417.17 2355.93 2415.03 2360.95 2410.85 2364.8 2406.67 2368.65 2401 2370.64 2393.84 2370.75 2386.68 2370.62 2381.01 2368.66 2376.83 2364.87 2372.65 2361.08 2370.51 2356.25 2370.42 2350.36 2370.51 2344.48 2372.65 2339.64 2376.83 2335.85 2381.01 2332.06 2386.68 2330.1 2393.84 2329.97Z" stroke="#FFFFFF" stroke-width="3" stroke-linejoin="round" stroke-miterlimit="10" fill="#215F9A" fill-rule="evenodd"/><text fill="#000000" fill-opacity="0" font-family="Arial,Arial_MSFontService,sans-serif" font-size="165.211" x="1860.21" y="2474.53">Credits</text></g></svg>