<svg width="1782" height="446" xmlns="http://www.w3.org/2000/svg" xmlns:xlink="http://www.w3.org/1999/xlink" xml:space="preserve" overflow="hidden"><defs><filter id="fx0" x="-10%" y="-10%" width="120%" height="120%" filterUnits="userSpaceOnUse" primitiveUnits="userSpaceOnUse"><feComponentTransfer color-interpolation-filters="sRGB"><feFuncR type="discrete" tableValues="0 0"/><feFuncG type="discrete" tableValues="0 0"/><feFuncB type="discrete" tableValues="0 0"/><feFuncA type="linear" slope="0.431373" intercept="0"/></feComponentTransfer><feGaussianBlur stdDeviation="3.21244 3.21244"/></filter><clipPath id="clip1"><rect x="1347" y="2205" width="1782" height="446"/></clipPath></defs><g clip-path="url(#clip1)" transform="translate(-1347 -2205)"><path d="M1782 371.25C1782 420.751 1757.25 445.5 1707.75 445.5L74.25 445.5C24.7499 445.5 0 420.751 0 371.25L0 74.25C0 24.7499 24.7499 0 74.25 0L1707.75 0C1757.25 0 1782 24.7499 1782 74.25L1782 371.25M1744.88 74.25C1744.88 49.5001 1732.5 37.125 1707.75 37.125L74.25 37.125C49.5001 37.125 37.125 49.5001 37.125 74.25L37.125 371.25C37.125 395.999 49.5001 408.375 74.25 408.375L1707.75 408.375C1732.5 408.375 1744.88 395.999 1744.88 371.25L1744.88 74.25" fill="#989AAF" transform="matrix(1 0 0 1.00112 1347 2205)"/><path d="M1744.88 74.25 1744.88 371.25C1744.88 395.999 1732.5 408.375 1707.75 408.375L74.25 408.375C49.5001 408.375 37.125 395.999 37.125 371.25L37.125 74.25C37.125 49.5001 49.5001 37.125 74.25 37.125L1707.75 37.125C1732.5 37.125 1744.88 49.5001 1744.88 74.25M1707.75 222.75 1707.75 74.25 74.25 74.25 74.25 222.75 74.25 371.25 1707.75 371.25 1707.75 222.75" fill="#FFFFFF" transform="matrix(1 0 0 1.00112 1347 2205)"/><path d="M1707.75 222.75 1707.75 371.25 74.25 371.25 74.25 222.75 1707.75 222.75" fill="#DADCE7" transform="matrix(1 0 0 1.00112 1347 2205)"/><path d="M1707.75 222.75 74.25 222.75 74.25 74.25 1707.75 74.25 1707.75 222.75" fill="#EAEBF3" transform="matrix(1 0 0 1.00112 1347 2205)"/><g filter="url(#fx0)" transform="translate(1818 2324)"><g><path d="M716.199 130.529C710.105 130.576 705.767 131.595 703.186 133.588 700.604 135.581 699.349 138.269 699.421 141.652 699.45 144.947 700.705 147.609 703.186 149.64 705.666 151.671 709.195 152.716 713.773 152.775 718.09 152.787 721.939 151.751 725.32 149.665 728.702 147.58 731.187 144.37 732.774 140.034L732.774 130.529ZM436.472 94.3715C429.852 94.4136 424.395 96.6535 420.101 101.091 415.806 105.529 413.582 111.912 413.431 120.24 413.582 128.673 415.806 135.149 420.101 139.667 424.395 144.184 429.852 146.466 436.472 146.513 443.179 146.466 448.661 144.184 452.918 139.667 457.175 135.149 459.373 128.673 459.512 120.24 459.373 111.912 457.175 105.529 452.918 101.091 448.661 96.6535 443.179 94.4136 436.472 94.3715ZM605.54 65.7127 643.895 65.7127 643.895 175.171 605.54 175.171ZM151.136 65.7127 189.491 65.7127 189.491 120.657C189.529 129.065 191.121 135.125 194.266 138.837 197.412 142.548 201.884 144.366 207.683 144.291 213.494 144.362 218.345 142.351 222.236 138.256 226.127 134.161 228.149 127.554 228.3 118.435L228.3 65.7127 266.655 65.7127 266.655 175.171 230.117 175.171 230.117 163.466C225.92 168.003 221.027 171.393 215.439 173.634 209.852 175.875 203.897 176.994 197.576 176.989 183.89 177.074 172.793 173.07 164.284 164.978 155.775 156.886 151.393 144.2 151.136 126.919ZM715.188 63.8947C733.074 63.8266 746.843 67.8984 756.493 76.11 766.143 84.3216 771.022 97.0816 771.131 114.39L771.131 175.171 735.402 175.171 735.402 161.048C732.665 166.303 728.588 170.272 723.173 172.954 717.757 175.636 711.052 176.981 703.059 176.989 689.877 176.771 679.799 173.525 672.826 167.251 665.853 160.976 662.337 152.983 662.278 143.27 662.185 133.067 666.055 125.089 673.887 119.336 681.719 113.584 694.071 110.657 710.943 110.557L732.774 110.557C732.488 104.964 730.433 100.674 726.609 97.6858 722.785 94.6977 717.091 93.189 709.528 93.1595 704.159 93.189 698.831 94.0403 693.543 95.7134 688.255 97.3866 683.688 99.7045 679.84 102.667L666.921 76.6096C673.334 72.4595 680.795 69.306 689.305 67.1491 697.815 64.9921 706.443 63.9073 715.188 63.8947ZM588.841 63.8947 588.841 98.4115C587.153 98.2095 585.63 98.058 584.271 97.957 582.911 97.856 581.539 97.8055 580.155 97.8055 572.256 97.7337 565.935 99.8467 561.192 104.145 556.449 108.443 554.017 115.356 553.895 124.885L553.895 175.171 515.54 175.171 515.54 65.7127 552.078 65.7127 552.078 78.8395C556.046 73.8874 561.138 70.1597 567.353 67.6562 573.569 65.1528 580.731 63.8989 588.841 63.8947ZM436.472 63.8947C454.867 64.1841 469.688 69.4584 480.932 79.7176 492.176 89.9767 497.956 103.484 498.271 120.24 497.956 137.101 492.176 150.701 480.932 161.04 469.688 171.379 454.867 176.696 436.472 176.989 424.451 176.902 413.813 174.453 404.557 169.64 395.301 164.827 388.031 158.174 382.748 149.679 377.465 141.185 374.773 131.372 374.672 120.24 374.773 109.177 377.465 99.4284 382.748 90.9952 388.031 82.562 395.301 75.9584 404.557 71.1844 413.813 66.4104 424.451 63.9805 436.472 63.8947ZM295.984 41.2707 334.339 41.2707 334.339 69.7527 359.387 69.7527 359.387 98.4115 334.339 98.4115 334.339 134.79C334.389 138.849 335.45 141.948 337.52 144.087 339.591 146.226 342.368 147.304 345.853 147.321 347.995 147.316 350.074 147.022 352.09 146.436 354.105 145.851 355.932 145.001 357.569 143.885L367.063 170.733C363.667 172.848 359.652 174.42 355.019 175.451 350.385 176.481 345.512 176.994 340.399 176.989 326.271 177.002 315.36 173.545 307.668 166.618 299.975 159.692 296.081 149.217 295.984 135.194L295.984 98.4115 280.026 98.4115 280.026 69.7527 295.984 69.7527ZM12.0262 33.7967 138.655 33.7967 138.655 65.4855 95.4269 65.4855 95.4269 175.171 55.4562 175.171 55.4562 65.4855 12.0262 65.4855ZM794.54 25.3127 832.895 25.3127 832.895 175.171 794.54 175.171ZM624.718 12.7887C631.876 12.8939 637.546 14.7529 641.727 18.3656 645.908 21.9784 648.044 26.7141 648.137 32.5726 648.044 38.7466 645.908 43.7598 641.727 47.6122 637.546 51.4646 631.876 53.4497 624.718 53.5675 617.559 53.4371 611.889 51.4772 607.708 47.6879 603.527 43.8986 601.391 39.062 601.298 33.1782 601.391 27.2944 603.527 22.4578 607.708 18.6684 611.889 14.879 617.559 12.9191 624.718 12.7887Z" stroke="#FFFFFF" stroke-width="3" stroke-linejoin="round" stroke-miterlimit="10" fill="#215F9A" fill-rule="evenodd"/></g></g><path d="M2527.38 2447.71C2521.29 2447.76 2516.95 2448.78 2514.37 2450.77 2511.79 2452.77 2510.53 2455.45 2510.61 2458.84 2510.64 2462.13 2511.89 2464.79 2514.37 2466.83 2516.85 2468.86 2520.38 2469.9 2524.96 2469.96 2529.27 2469.97 2533.12 2468.94 2536.51 2466.85 2539.89 2464.77 2542.37 2461.55 2543.96 2457.22L2543.96 2447.71ZM2247.66 2411.56C2241.04 2411.6 2235.58 2413.84 2231.29 2418.28 2226.99 2422.71 2224.77 2429.1 2224.62 2437.43 2224.77 2445.86 2226.99 2452.33 2231.29 2456.85 2235.58 2461.37 2241.04 2463.65 2247.66 2463.7 2254.36 2463.65 2259.85 2461.37 2264.1 2456.85 2268.36 2452.33 2270.56 2445.86 2270.7 2437.43 2270.56 2429.1 2268.36 2422.71 2264.1 2418.28 2259.85 2413.84 2254.36 2411.6 2247.66 2411.56ZM2416.73 2382.9 2455.08 2382.9 2455.08 2492.36 2416.73 2492.36ZM1962.32 2382.9 2000.68 2382.9 2000.68 2437.84C2000.71 2446.25 2002.31 2452.31 2005.45 2456.02 2008.6 2459.73 2013.07 2461.55 2018.87 2461.48 2024.68 2461.55 2029.53 2459.54 2033.42 2455.44 2037.31 2451.35 2039.33 2444.74 2039.49 2435.62L2039.49 2382.9 2077.84 2382.9 2077.84 2492.36 2041.3 2492.36 2041.3 2480.65C2037.11 2485.19 2032.21 2488.58 2026.62 2490.82 2021.04 2493.06 2015.08 2494.18 2008.76 2494.17 1995.08 2494.26 1983.98 2490.26 1975.47 2482.16 1966.96 2474.07 1962.58 2461.39 1962.32 2444.1ZM2526.37 2381.08C2544.26 2381.01 2558.03 2385.08 2567.68 2393.3 2577.33 2401.51 2582.21 2414.27 2582.32 2431.58L2582.32 2492.36 2546.59 2492.36 2546.59 2478.23C2543.85 2483.49 2539.77 2487.46 2534.36 2490.14 2528.94 2492.82 2522.24 2494.17 2514.24 2494.17 2501.06 2493.96 2490.98 2490.71 2484.01 2484.44 2477.04 2478.16 2473.52 2470.17 2473.46 2460.46 2473.37 2450.25 2477.24 2442.27 2485.07 2436.52 2492.9 2430.77 2505.26 2427.84 2522.13 2427.74L2543.96 2427.74C2543.67 2422.15 2541.62 2417.86 2537.79 2414.87 2533.97 2411.88 2528.28 2410.37 2520.71 2410.34 2515.34 2410.37 2510.02 2411.23 2504.73 2412.9 2499.44 2414.57 2494.87 2416.89 2491.03 2419.85L2478.11 2393.79C2484.52 2389.64 2491.98 2386.49 2500.49 2384.33 2509 2382.18 2517.63 2381.09 2526.37 2381.08ZM2400.03 2381.08 2400.03 2415.6C2398.34 2415.39 2396.82 2415.24 2395.46 2415.14 2394.1 2415.04 2392.72 2414.99 2391.34 2414.99 2383.44 2414.92 2377.12 2417.03 2372.38 2421.33 2367.63 2425.63 2365.2 2432.54 2365.08 2442.07L2365.08 2492.36 2326.73 2492.36 2326.73 2382.9 2363.26 2382.9 2363.26 2396.02C2367.23 2391.07 2372.32 2387.34 2378.54 2384.84 2384.75 2382.34 2391.92 2381.08 2400.03 2381.08ZM2247.66 2381.08C2266.05 2381.37 2280.87 2386.64 2292.12 2396.9 2303.36 2407.16 2309.14 2420.67 2309.46 2437.43 2309.14 2454.29 2303.36 2467.89 2292.12 2478.23 2280.87 2488.56 2266.05 2493.88 2247.66 2494.17 2235.64 2494.09 2225 2491.64 2215.74 2486.83 2206.49 2482.01 2199.22 2475.36 2193.93 2466.86 2188.65 2458.37 2185.96 2448.56 2185.86 2437.43 2185.96 2426.36 2188.65 2416.61 2193.93 2408.18 2199.22 2399.75 2206.49 2393.14 2215.74 2388.37 2225 2383.6 2235.64 2381.17 2247.66 2381.08ZM2107.17 2358.46 2145.52 2358.46 2145.52 2386.94 2170.57 2386.94 2170.57 2415.6 2145.52 2415.6 2145.52 2451.98C2145.57 2456.03 2146.64 2459.13 2148.71 2461.27 2150.78 2463.41 2153.55 2464.49 2157.04 2464.51 2159.18 2464.5 2161.26 2464.21 2163.28 2463.62 2165.29 2463.04 2167.12 2462.19 2168.75 2461.07L2178.25 2487.92C2174.85 2490.03 2170.84 2491.61 2166.2 2492.64 2161.57 2493.67 2156.7 2494.18 2151.58 2494.17 2137.46 2494.19 2126.55 2490.73 2118.85 2483.8 2111.16 2476.88 2107.27 2466.4 2107.17 2452.38L2107.17 2415.6 2091.21 2415.6 2091.21 2386.94 2107.17 2386.94ZM1823.21 2350.98 1949.84 2350.98 1949.84 2382.67 1906.61 2382.67 1906.61 2492.36 1866.64 2492.36 1866.64 2382.67 1823.21 2382.67ZM2605.73 2342.5 2644.08 2342.5 2644.08 2492.36 2605.73 2492.36ZM2435.9 2329.97C2443.06 2330.08 2448.73 2331.94 2452.91 2335.55 2457.09 2339.16 2459.23 2343.9 2459.32 2349.76 2459.23 2355.93 2457.09 2360.95 2452.91 2364.8 2448.73 2368.65 2443.06 2370.64 2435.9 2370.75 2428.74 2370.62 2423.07 2368.66 2418.89 2364.87 2414.71 2361.08 2412.58 2356.25 2412.48 2350.36 2412.58 2344.48 2414.71 2339.64 2418.89 2335.85 2423.07 2332.06 2428.74 2330.1 2435.9 2329.97Z" stroke="#FFFFFF" stroke-width="3" stroke-linejoin="round" stroke-miterlimit="10" fill="#215F9A" fill-rule="evenodd"/><text fill="#000000" fill-opacity="0" font-family="Arial,Arial_MSFontService,sans-serif" font-size="164.202" x="1823.21" y="2473.65">Tutorial</text></g></svg>