<svg xmlns="http://www.w3.org/2000/svg" xmlns:xlink="http://www.w3.org/1999/xlink" width="1782" height="446" overflow="hidden" xml:space="preserve"><defs><filter id="fx0" width="120%" height="120%" x="-10%" y="-10%" filterUnits="userSpaceOnUse" primitiveUnits="userSpaceOnUse"><feComponentTransfer color-interpolation-filters="sRGB"><feFuncR tableValues="0 0" type="discrete"/><feFuncG tableValues="0 0" type="discrete"/><feFuncB tableValues="0 0" type="discrete"/><feFuncA intercept="0" slope=".431" type="linear"/></feComponentTransfer><feGaussianBlur stdDeviation="3.21244 3.21244"/></filter><clipPath id="clip1"><rect width="1782" height="446" x="1347" y="1673"/></clipPath></defs><g clip-path="url(#clip1)" transform="translate(-1347 -1673)"><path fill="#DEA312" d="M1782 371.25C1782 420.751 1757.25 445.5 1707.75 445.5L74.25 445.5C24.7499 445.5 0 420.751 0 371.25L0 74.25C0 24.7499 24.7499 0 74.25 0L1707.75 0C1757.25 0 1782 24.7499 1782 74.25L1782 371.25M1744.88 74.25C1744.88 49.5001 1732.5 37.125 1707.75 37.125L74.25 37.125C49.5001 37.125 37.125 49.5001 37.125 74.25L37.125 371.25C37.125 395.999 49.5001 408.375 74.25 408.375L1707.75 408.375C1732.5 408.375 1744.88 395.999 1744.88 371.25L1744.88 74.25" transform="matrix(1 0 0 1.00112 1347 1673)"/><path fill="#FFEA9C" d="M1744.88 74.25 1744.88 371.25C1744.88 395.999 1732.5 408.375 1707.75 408.375L74.25 408.375C49.5001 408.375 37.125 395.999 37.125 371.25L37.125 74.25C37.125 49.5001 49.5001 37.125 74.25 37.125L1707.75 37.125C1732.5 37.125 1744.88 49.5001 1744.88 74.25M1707.75 222.75 1707.75 74.25 74.25 74.25 74.25 222.75 74.25 371.25 1707.75 371.25 1707.75 222.75" transform="matrix(1 0 0 1.00112 1347 1673)"/><path fill="#FC0" d="M1707.75 222.75 1707.75 371.25 74.25 371.25 74.25 222.75 1707.75 222.75" transform="matrix(1 0 0 1.00112 1347 1673)"/><path fill="#FFDC58" d="M1707.75 222.75 74.25 222.75 74.25 74.25 1707.75 74.25 1707.75 222.75" transform="matrix(1 0 0 1.00112 1347 1673)"/><g filter="url(#fx0)" transform="translate(1572 1793)"><g><path fill="#215F9A" fill-rule="evenodd" stroke="#000" stroke-linejoin="round" stroke-miterlimit="10" stroke-width="3" d="M584.398 129.748C578.304 129.794 573.966 130.814 571.385 132.807 568.803 134.8 567.548 137.488 567.62 140.871 567.649 144.165 568.904 146.828 571.385 148.859 573.865 150.889 577.394 151.934 581.972 151.993 586.289 152.006 590.138 150.969 593.519 148.884 596.901 146.798 599.386 143.588 600.973 139.253L600.973 129.748ZM1281.48 93.59C1274.77 93.6321 1269.29 95.872 1265.03 100.31 1260.77 104.747 1258.58 111.13 1258.44 119.458 1258.58 127.892 1260.77 134.367 1265.03 138.885 1269.29 143.403 1274.77 145.685 1281.48 145.731 1288.09 145.685 1293.51 143.403 1297.75 138.885 1301.98 134.367 1304.17 127.892 1304.32 119.458 1304.17 111.13 1301.98 104.747 1297.75 100.31 1293.51 95.872 1288.09 93.6321 1281.48 93.59ZM195.671 93.59C189.051 93.6321 183.594 95.872 179.3 100.31 175.005 104.747 172.782 111.13 172.63 119.458 172.782 127.892 175.005 134.367 179.3 138.885 183.594 143.403 189.051 145.685 195.671 145.731 202.378 145.685 207.86 143.403 212.117 138.885 216.374 134.367 218.572 127.892 218.711 119.458 218.572 111.13 216.374 104.747 212.117 100.31 207.86 95.872 202.378 93.6321 195.671 93.59ZM1010.26 90.358C1004.25 90.4212 999.3 92.1152 995.412 95.44 991.525 98.7649 989 103.341 987.839 109.169L1032.67 109.169C1031.6 103.341 1029.1 98.7649 1025.18 95.44 1021.25 92.1152 1016.28 90.4212 1010.26 90.358ZM893.739 64.9312 932.094 64.9312 932.094 174.39 893.739 174.39ZM274.739 64.9312 313.094 64.9312 313.094 174.39 274.739 174.39ZM1157.04 63.1132C1170.15 63.0204 1180.89 66.8896 1189.27 74.7208 1197.65 82.5519 1201.99 94.9017 1202.27 111.77L1202.27 174.39 1163.91 174.39 1163.91 118.032C1163.86 110.204 1162.25 104.498 1159.09 100.912 1155.92 97.327 1151.54 95.5595 1145.92 95.61 1139.62 95.551 1134.44 97.5879 1130.39 101.72 1126.33 105.853 1124.23 112.435 1124.09 121.466L1124.09 174.39 1085.74 174.39 1085.74 64.9312 1122.28 64.9312 1122.28 76.8386C1126.67 72.2929 1131.83 68.87 1137.76 66.5698 1143.7 64.2696 1150.12 63.1174 1157.04 63.1132ZM1010.05 63.1132C1020.95 63.1441 1030.8 65.3695 1039.6 69.7895 1048.4 74.2094 1055.41 80.6384 1060.62 89.0765 1065.83 97.5146 1068.5 107.776 1068.62 119.862 1068.61 121.303 1068.53 122.859 1068.39 124.527 1068.26 126.196 1068.13 127.801 1068.02 129.344L988.445 129.344C990.094 134.945 993.208 139.269 997.785 142.316 1002.36 145.363 1008.2 146.905 1015.31 146.943 1020.57 146.952 1025.18 146.176 1029.14 144.617 1033.09 143.058 1036.9 140.664 1040.55 137.436L1060.75 158.447C1055.51 164.309 1049.02 168.732 1041.28 171.717 1033.54 174.703 1024.48 176.2 1014.09 176.208 994.365 175.889 978.789 170.522 967.366 160.108 955.943 149.693 950.111 136.143 949.871 119.458 949.975 108.394 952.617 98.6458 957.8 90.2127 962.982 81.7795 970.083 75.1761 979.102 70.4024 988.122 65.6287 998.439 63.1989 1010.05 63.1132ZM877.04 63.1132 877.04 97.63C875.352 97.428 873.829 97.2765 872.47 97.1755 871.11 97.0745 869.738 97.024 868.354 97.024 860.455 96.9522 854.134 99.0653 849.391 103.363 844.648 107.661 842.216 114.575 842.094 124.103L842.094 174.39 803.739 174.39 803.739 64.9312 840.277 64.9312 840.277 78.058C844.245 73.1059 849.337 69.3782 855.552 66.8747 861.768 64.3713 868.93 63.1174 877.04 63.1132ZM583.387 63.1132C601.273 63.0451 615.042 67.1169 624.692 75.3285 634.342 83.5401 639.221 96.3001 639.33 113.608L639.33 174.39 603.601 174.39 603.601 160.267C600.864 165.521 596.787 169.49 591.372 172.172 585.956 174.854 579.251 176.2 571.258 176.208 558.076 175.99 547.998 172.743 541.025 166.469 534.052 160.195 530.536 152.201 530.477 142.488 530.384 132.286 534.254 124.308 542.086 118.555 549.918 112.802 562.27 109.875 579.142 109.775L600.973 109.775C600.687 104.183 598.632 99.8924 594.808 96.9043 590.984 93.9163 585.29 92.4075 577.727 92.378 572.358 92.4075 567.03 93.2588 561.742 94.932 556.454 96.6051 551.887 98.923 548.039 101.886L535.12 75.8281C541.533 71.6781 548.994 68.5245 557.504 66.3676 566.014 64.2106 574.642 63.1258 583.387 63.1132ZM409.041 63.1132C422.146 63.0204 432.889 66.8896 441.272 74.7208 449.654 82.5519 453.986 94.9017 454.268 111.77L454.268 174.39 415.913 174.39 415.913 118.032C415.858 110.204 414.25 104.498 411.087 100.912 407.925 97.327 403.537 95.5595 397.924 95.61 391.62 95.551 386.44 97.5879 382.385 101.72 378.33 105.853 376.233 112.435 376.094 121.466L376.094 174.39 337.739 174.39 337.739 64.9312 374.277 64.9312 374.277 76.8386C378.668 72.2929 383.83 68.87 389.763 66.5698 395.696 64.2696 402.122 63.1174 409.041 63.1132ZM195.671 63.1132C214.066 63.4026 228.887 68.6769 240.131 78.9361 251.375 89.1952 257.155 102.703 257.47 119.458 257.155 136.32 251.375 149.92 240.131 160.259 228.887 170.598 214.066 175.914 195.671 176.208 183.65 176.121 173.012 173.671 163.756 168.858 154.5 164.046 147.23 157.392 141.947 148.898 136.664 140.404 133.972 130.59 133.871 119.458 133.972 108.395 136.664 98.6469 141.947 90.2137 147.23 81.7805 154.5 75.1769 163.756 70.4029 173.012 65.6289 183.65 63.199 195.671 63.1132ZM27.5272 33.0152 115.978 33.0152 115.978 122.292C115.928 140.663 111.284 154.413 102.048 163.54 92.811 172.668 79.2829 177.227 61.4632 177.218 51.0854 177.197 41.6924 175.422 33.2842 171.894 24.8759 168.366 17.9069 163.211 12.3772 156.428L34.1932 130.577C37.9133 135.435 41.785 139.105 45.8082 141.589 49.8313 144.073 54.107 145.319 58.6352 145.327 64.4132 145.315 68.8151 143.572 71.8409 140.099 74.8667 136.626 76.3902 131.499 76.4112 124.717L76.4112 63.896 27.5272 63.896ZM1303.71 24.5312 1342.07 24.5312 1342.07 174.39 1305.53 174.39 1305.53 163.492C1301.89 167.819 1297.39 171.023 1292.04 173.105 1286.68 175.186 1280.47 176.221 1273.39 176.208 1263.32 176.155 1254.23 173.839 1246.13 169.262 1238.03 164.685 1231.59 158.166 1226.81 149.705 1222.03 141.245 1219.59 131.162 1219.48 119.458 1219.59 107.823 1222.03 97.8059 1226.81 89.4063 1231.59 81.0068 1238.03 74.5378 1246.13 69.9992 1254.23 65.4607 1263.32 63.1653 1273.39 63.1132 1279.77 63.1048 1285.51 64.0299 1290.6 65.8884 1295.69 67.7469 1300.06 70.5894 1303.71 74.4158ZM771.81 22.7132C776.544 22.709 781.165 23.1715 785.672 24.1008 790.179 25.03 794.042 26.4512 797.262 28.3643L787.768 55.4168C786.127 54.4853 784.309 53.7183 782.314 53.1156 780.319 52.5129 778.299 52.201 776.254 52.18 772.189 52.1715 769.058 53.3516 766.861 55.7203 764.665 58.0889 763.554 61.6967 763.529 66.5436L763.529 68.9712 789.586 68.9712 789.586 97.63 764.538 97.63 764.538 174.39 726.183 174.39 726.183 97.63 710.225 97.63 710.225 68.9712 726.183 68.9712 726.183 66.139C726.255 52.8362 730.2 42.3148 738.018 34.5747 745.837 26.8345 757.101 22.8807 771.81 22.7132ZM912.917 12.0072C920.075 12.1124 925.745 13.9714 929.926 17.5841 934.107 21.1969 936.243 25.9326 936.336 31.7911 936.243 37.9651 934.107 42.9783 929.926 46.8307 925.745 50.6831 920.075 52.6682 912.917 52.786 905.758 52.6556 900.088 50.6957 895.907 46.9064 891.726 43.1171 889.59 38.2805 889.497 32.3967 889.59 26.513 891.726 21.6763 895.907 17.8869 900.088 14.0975 905.758 12.1376 912.917 12.0072ZM293.917 12.0072C301.075 12.1124 306.745 13.9714 310.926 17.5841 315.107 21.1969 317.243 25.9326 317.336 31.7911 317.243 37.9651 315.107 42.9783 310.926 46.8307 306.745 50.6831 301.075 52.6682 293.917 52.786 286.758 52.6556 281.088 50.6957 276.907 46.9064 272.726 43.1171 270.59 38.2805 270.497 32.3967 270.59 26.513 272.726 21.6763 276.907 17.8869 281.088 14.0975 286.758 12.1376 293.917 12.0072Z"/></g></g><path fill="#215F9A" fill-rule="evenodd" stroke="#000" stroke-linejoin="round" stroke-miterlimit="10" stroke-width="3" d="M2149.58 1915.93C2143.49 1915.98 2139.15 1917 2136.57 1918.99 2133.99 1920.98 2132.73 1923.67 2132.81 1927.06 2132.83 1930.35 2134.09 1933.01 2136.57 1935.04 2139.05 1937.07 2142.58 1938.12 2147.16 1938.18 2151.47 1938.19 2155.32 1937.15 2158.7 1935.07 2162.09 1932.98 2164.57 1929.77 2166.16 1925.44L2166.16 1915.93ZM2846.66 1879.78C2839.96 1879.82 2834.47 1882.06 2830.22 1886.5 2825.96 1890.93 2823.76 1897.32 2823.62 1905.64 2823.76 1914.08 2825.96 1920.55 2830.22 1925.07 2834.47 1929.59 2839.96 1931.87 2846.66 1931.92 2853.27 1931.87 2858.7 1929.59 2862.93 1925.07 2867.17 1920.55 2869.36 1914.08 2869.5 1905.64 2869.36 1897.32 2867.17 1890.93 2862.93 1886.5 2858.7 1882.06 2853.27 1879.82 2846.66 1879.78ZM1760.86 1879.78C1754.24 1879.82 1748.78 1882.06 1744.48 1886.5 1740.19 1890.93 1737.97 1897.32 1737.82 1905.64 1737.97 1914.08 1740.19 1920.55 1744.48 1925.07 1748.78 1929.59 1754.24 1931.87 1760.86 1931.92 1767.56 1931.87 1773.05 1929.59 1777.3 1925.07 1781.56 1920.55 1783.76 1914.08 1783.9 1905.64 1783.76 1897.32 1781.56 1890.93 1777.3 1886.5 1773.05 1882.06 1767.56 1879.82 1760.86 1879.78ZM2575.44 1876.54C2569.43 1876.61 2564.49 1878.3 2560.6 1881.63 2556.71 1884.95 2554.19 1889.53 2553.02 1895.35L2597.86 1895.35C2596.79 1889.53 2594.29 1884.95 2590.36 1881.63 2586.44 1878.3 2581.46 1876.61 2575.44 1876.54ZM2458.92 1851.12 2497.28 1851.12 2497.28 1960.58 2458.92 1960.58ZM1839.92 1851.12 1878.28 1851.12 1878.28 1960.58 1839.92 1960.58ZM2722.23 1849.3C2735.33 1849.21 2746.07 1853.08 2754.46 1860.91 2762.84 1868.74 2767.17 1881.09 2767.45 1897.96L2767.45 1960.58 2729.1 1960.58 2729.1 1904.22C2729.04 1896.39 2727.44 1890.68 2724.27 1887.1 2721.11 1883.51 2716.72 1881.74 2711.11 1881.8 2704.81 1881.74 2699.63 1883.77 2695.57 1887.91 2691.52 1892.04 2689.42 1898.62 2689.28 1907.65L2689.28 1960.58 2650.92 1960.58 2650.92 1851.12 2687.46 1851.12 2687.46 1863.02C2691.85 1858.48 2697.02 1855.06 2702.95 1852.76 2708.88 1850.46 2715.31 1849.3 2722.23 1849.3ZM2575.24 1849.3C2586.14 1849.33 2595.98 1851.55 2604.79 1855.97 2613.59 1860.39 2620.59 1866.82 2625.8 1875.26 2631.01 1883.7 2633.68 1893.96 2633.81 1906.05 2633.79 1907.49 2633.72 1909.04 2633.58 1910.71 2633.44 1912.38 2633.31 1913.99 2633.2 1915.53L2553.63 1915.53C2555.28 1921.13 2558.39 1925.45 2562.97 1928.5 2567.55 1931.55 2573.39 1933.09 2580.49 1933.13 2585.76 1933.14 2590.37 1932.36 2594.32 1930.8 2598.28 1929.24 2602.08 1926.85 2605.73 1923.62L2625.93 1944.63C2620.69 1950.49 2614.2 1954.92 2606.47 1957.9 2598.73 1960.89 2589.67 1962.39 2579.28 1962.39 2559.55 1962.07 2543.97 1956.71 2532.55 1946.29 2521.13 1935.88 2515.3 1922.33 2515.06 1905.64 2515.16 1894.58 2517.8 1884.83 2522.99 1876.4 2528.17 1867.96 2535.27 1861.36 2544.29 1856.59 2553.31 1851.81 2563.62 1849.38 2575.24 1849.3ZM2442.23 1849.3 2442.23 1883.82C2440.54 1883.61 2439.01 1883.46 2437.65 1883.36 2436.3 1883.26 2434.92 1883.21 2433.54 1883.21 2425.64 1883.14 2419.32 1885.25 2414.58 1889.55 2409.83 1893.85 2407.4 1900.76 2407.28 1910.29L2407.28 1960.58 2368.92 1960.58 2368.92 1851.12 2405.46 1851.12 2405.46 1864.24C2409.43 1859.29 2414.52 1855.56 2420.74 1853.06 2426.95 1850.56 2434.12 1849.3 2442.23 1849.3ZM2148.57 1849.3C2166.46 1849.23 2180.23 1853.3 2189.88 1861.51 2199.53 1869.73 2204.41 1882.49 2204.52 1899.79L2204.52 1960.58 2168.79 1960.58 2168.79 1946.45C2166.05 1951.71 2161.97 1955.68 2156.56 1958.36 2151.14 1961.04 2144.44 1962.39 2136.44 1962.39 2123.26 1962.18 2113.18 1958.93 2106.21 1952.65 2099.24 1946.38 2095.72 1938.39 2095.66 1928.67 2095.57 1918.47 2099.44 1910.49 2107.27 1904.74 2115.1 1898.99 2127.46 1896.06 2144.33 1895.96L2166.16 1895.96C2165.87 1890.37 2163.82 1886.08 2159.99 1883.09 2156.17 1880.1 2150.48 1878.59 2142.91 1878.56 2137.54 1878.59 2132.22 1879.44 2126.93 1881.12 2121.64 1882.79 2117.07 1885.11 2113.22 1888.07L2100.31 1862.01C2106.72 1857.86 2114.18 1854.71 2122.69 1852.55 2131.2 1850.4 2139.83 1849.31 2148.57 1849.3ZM1974.23 1849.3C1987.33 1849.21 1998.07 1853.08 2006.46 1860.91 2014.84 1868.74 2019.17 1881.09 2019.45 1897.96L2019.45 1960.58 1981.1 1960.58 1981.1 1904.22C1981.04 1896.39 1979.44 1890.68 1976.27 1887.1 1973.11 1883.51 1968.72 1881.74 1963.11 1881.8 1956.81 1881.74 1951.63 1883.77 1947.57 1887.91 1943.52 1892.04 1941.42 1898.62 1941.28 1907.65L1941.28 1960.58 1902.92 1960.58 1902.92 1851.12 1939.46 1851.12 1939.46 1863.02C1943.85 1858.48 1949.02 1855.06 1954.95 1852.76 1960.88 1850.46 1967.31 1849.3 1974.23 1849.3ZM1760.86 1849.3C1779.25 1849.59 1794.07 1854.86 1805.32 1865.12 1816.56 1875.38 1822.34 1888.89 1822.66 1905.64 1822.34 1922.51 1816.56 1936.11 1805.32 1946.44 1794.07 1956.78 1779.25 1962.1 1760.86 1962.39 1748.84 1962.31 1738.2 1959.86 1728.94 1955.04 1719.68 1950.23 1712.42 1943.58 1707.13 1935.08 1701.85 1926.59 1699.16 1916.78 1699.06 1905.64 1699.16 1894.58 1701.85 1884.83 1707.13 1876.4 1712.42 1867.97 1719.68 1861.36 1728.94 1856.59 1738.2 1851.81 1748.84 1849.38 1760.86 1849.3ZM1592.71 1819.2 1681.16 1819.2 1681.16 1908.48C1681.11 1926.85 1676.47 1940.6 1667.23 1949.73 1658 1958.85 1644.47 1963.41 1626.65 1963.4 1616.27 1963.38 1606.88 1961.61 1598.47 1958.08 1590.06 1954.55 1583.09 1949.4 1577.56 1942.61L1599.38 1916.76C1603.1 1921.62 1606.97 1925.29 1610.99 1927.77 1615.02 1930.26 1619.29 1931.5 1623.82 1931.51 1629.6 1931.5 1634 1929.76 1637.03 1926.28 1640.05 1922.81 1641.58 1917.68 1641.6 1910.9L1641.6 1850.08 1592.71 1850.08ZM2868.9 1810.72 2907.25 1810.72 2907.25 1960.58 2870.71 1960.58 2870.71 1949.68C2867.08 1954 2862.58 1957.21 2857.22 1959.29 2851.87 1961.37 2845.65 1962.41 2838.58 1962.39 2828.5 1962.34 2819.41 1960.02 2811.31 1955.45 2803.21 1950.87 2796.78 1944.35 2792 1935.89 2787.22 1927.43 2784.77 1917.35 2784.66 1905.64 2784.77 1894.01 2787.22 1883.99 2792 1875.59 2796.78 1867.19 2803.21 1860.72 2811.31 1856.18 2819.41 1851.65 2828.5 1849.35 2838.58 1849.3 2844.96 1849.29 2850.69 1850.22 2855.78 1852.07 2860.88 1853.93 2865.25 1856.77 2868.9 1860.6ZM2337 1808.9C2341.73 1808.89 2346.35 1809.36 2350.86 1810.29 2355.36 1811.22 2359.23 1812.64 2362.45 1814.55L2352.95 1841.6C2351.31 1840.67 2349.49 1839.9 2347.5 1839.3 2345.5 1838.7 2343.48 1838.39 2341.44 1838.37 2337.37 1838.36 2334.24 1839.54 2332.05 1841.91 2329.85 1844.27 2328.74 1847.88 2328.71 1852.73L2328.71 1855.16 2354.77 1855.16 2354.77 1883.82 2329.72 1883.82 2329.72 1960.58 2291.37 1960.58 2291.37 1883.82 2275.41 1883.82 2275.41 1855.16 2291.37 1855.16 2291.37 1852.32C2291.44 1839.02 2295.38 1828.5 2303.2 1820.76 2311.02 1813.02 2322.29 1809.07 2337 1808.9ZM2478.1 1798.19C2485.26 1798.3 2490.93 1800.16 2495.11 1803.77 2499.29 1807.38 2501.43 1812.12 2501.52 1817.98 2501.43 1824.15 2499.29 1829.16 2495.11 1833.02 2490.93 1836.87 2485.26 1838.85 2478.1 1838.97 2470.94 1838.84 2465.27 1836.88 2461.09 1833.09 2456.91 1829.3 2454.77 1824.47 2454.68 1818.58 2454.77 1812.7 2456.91 1807.86 2461.09 1804.07 2465.27 1800.28 2470.94 1798.32 2478.1 1798.19ZM1859.1 1798.19C1866.26 1798.3 1871.93 1800.16 1876.11 1803.77 1880.29 1807.38 1882.43 1812.12 1882.52 1817.98 1882.43 1824.15 1880.29 1829.16 1876.11 1833.02 1871.93 1836.87 1866.26 1838.85 1859.1 1838.97 1851.94 1838.84 1846.27 1836.88 1842.09 1833.09 1837.91 1829.3 1835.78 1824.47 1835.68 1818.58 1835.78 1812.7 1837.91 1807.86 1842.09 1804.07 1846.27 1800.28 1851.94 1798.32 1859.1 1798.19Z"/><text x="1577.56" y="1942.75" fill="#000" fill-opacity="0" font-family="Arial,Arial_MSFontService,sans-serif" font-size="165.211">Join a friend</text></g></svg>