<svg xmlns="http://www.w3.org/2000/svg" xmlns:xlink="http://www.w3.org/1999/xlink" width="1783" height="446" overflow="hidden" xml:space="preserve"><defs><filter id="fx0" width="120%" height="120%" x="-10%" y="-10%" filterUnits="userSpaceOnUse" primitiveUnits="userSpaceOnUse"><feComponentTransfer color-interpolation-filters="sRGB"><feFuncR tableValues="0 0" type="discrete"/><feFuncG tableValues="0 0" type="discrete"/><feFuncB tableValues="0 0" type="discrete"/><feFuncA intercept="0" slope=".431" type="linear"/></feComponentTransfer><feGaussianBlur stdDeviation="3.21244 3.21244"/></filter><clipPath id="clip1"><rect width="1783" height="446" x="-540" y="1679"/></clipPath></defs><g clip-path="url(#clip1)" transform="translate(540 -1679)"><path fill="#DEA312" d="M1783 371.458C1783 420.987 1758.24 445.75 1708.71 445.75L74.2917 445.75C24.7638 445.75 0 420.987 0 371.458L0 74.2917C0 24.7638 24.7638 0 74.2917 0L1708.71 0C1758.24 0 1783 24.7638 1783 74.2917L1783 371.458M1745.85 74.2917C1745.85 49.5278 1733.47 37.1458 1708.71 37.1458L74.2917 37.1458C49.5278 37.1458 37.1458 49.5278 37.1458 74.2917L37.1458 371.458C37.1458 396.222 49.5278 408.604 74.2917 408.604L1708.71 408.604C1733.47 408.604 1745.85 396.222 1745.85 371.458L1745.85 74.2917" transform="matrix(1 0 0 1.00056 -540 1679)"/><path fill="#FFEA9C" d="M1745.85 74.2917 1745.85 371.458C1745.85 396.222 1733.47 408.604 1708.71 408.604L74.2917 408.604C49.5278 408.604 37.1458 396.222 37.1458 371.458L37.1458 74.2917C37.1458 49.5278 49.5278 37.1458 74.2917 37.1458L1708.71 37.1458C1733.47 37.1458 1745.85 49.5278 1745.85 74.2917M1708.71 222.875 1708.71 74.2917 74.2917 74.2917 74.2917 222.875 74.2917 371.458 1708.71 371.458 1708.71 222.875" transform="matrix(1 0 0 1.00056 -540 1679)"/><path fill="#FC0" d="M1708.71 222.875 1708.71 371.458 74.2917 371.458 74.2917 222.875 1708.71 222.875" transform="matrix(1 0 0 1.00056 -540 1679)"/><path fill="#FFDC58" d="M1708.71 222.875 74.2917 222.875 74.2917 74.2917 1708.71 74.2917 1708.71 222.875" transform="matrix(1 0 0 1.00056 -540 1679)"/><g filter="url(#fx0)" transform="translate(-315 1798)"><g><path fill="#FFF" fill-rule="evenodd" stroke="#000" stroke-linejoin="round" stroke-miterlimit="10" stroke-width="3" d="M584.906 130.718C578.813 130.764 574.475 131.784 571.893 133.777 569.312 135.77 568.057 138.458 568.129 141.841 568.158 145.135 569.413 147.798 571.893 149.829 574.374 151.859 577.903 152.904 582.481 152.963 586.797 152.976 590.646 151.939 594.028 149.854 597.41 147.768 599.894 144.558 601.482 140.223L601.482 130.718ZM1281.99 94.5599C1275.28 94.602 1269.8 96.8419 1265.54 101.28 1261.28 105.717 1259.09 112.1 1258.95 120.428 1259.09 128.862 1261.28 135.337 1265.54 139.855 1269.8 144.373 1275.28 146.655 1281.99 146.701 1288.6 146.655 1294.02 144.373 1298.26 139.855 1302.49 135.337 1304.68 128.862 1304.83 120.428 1304.68 112.1 1302.49 105.717 1298.26 101.28 1294.02 96.8419 1288.6 94.602 1281.99 94.5599ZM196.179 94.5599C189.56 94.602 184.103 96.8419 179.808 101.28 175.513 105.717 173.29 112.1 173.139 120.428 173.29 128.862 175.513 135.337 179.808 139.855 184.103 144.373 189.56 146.655 196.179 146.701 202.887 146.655 208.369 144.373 212.626 139.855 216.883 135.337 219.081 128.862 219.22 120.428 219.081 112.1 216.883 105.717 212.626 101.28 208.369 96.8419 202.887 94.602 196.179 94.5599ZM1010.76 91.3279C1004.76 91.3912 999.809 93.0852 995.921 96.41 992.033 99.7349 989.509 104.311 988.348 110.139L1033.18 110.139C1032.11 104.311 1029.61 99.7349 1025.68 96.41 1021.76 93.0852 1016.79 91.3912 1010.76 91.3279ZM894.248 65.9012 932.603 65.9012 932.603 175.36 894.248 175.36ZM275.248 65.9012 313.603 65.9012 313.603 175.36 275.248 175.36ZM1157.55 64.0832C1170.65 63.9904 1181.4 67.8596 1189.78 75.6908 1198.16 83.5219 1202.49 95.8716 1202.78 112.74L1202.78 175.36 1164.42 175.36 1164.42 119.002C1164.37 111.174 1162.76 105.468 1159.6 101.882 1156.43 98.2969 1152.05 96.5294 1146.43 96.5799 1140.13 96.521 1134.95 98.5579 1130.89 102.69 1126.84 106.823 1124.74 113.405 1124.6 122.436L1124.6 175.36 1086.25 175.36 1086.25 65.9012 1122.79 65.9012 1122.79 77.8086C1127.18 73.2629 1132.34 69.84 1138.27 67.5398 1144.2 65.2396 1150.63 64.0874 1157.55 64.0832ZM1010.56 64.0832C1021.46 64.1141 1031.31 66.3395 1040.11 70.7594 1048.91 75.1793 1055.92 81.6084 1061.13 90.0465 1066.34 98.4846 1069.01 108.746 1069.13 120.832 1069.12 122.273 1069.04 123.829 1068.9 125.497 1068.76 127.166 1068.64 128.771 1068.52 130.314L988.953 130.314C990.603 135.915 993.716 140.239 998.294 143.286 1002.87 146.333 1008.71 147.875 1015.81 147.913 1021.08 147.922 1025.69 147.146 1029.65 145.587 1033.6 144.028 1037.41 141.634 1041.06 138.406L1061.25 159.417C1056.02 165.279 1049.53 169.702 1041.79 172.687 1034.05 175.673 1024.99 177.17 1014.6 177.178 994.873 176.859 979.297 171.492 967.874 161.078 956.451 150.663 950.62 137.113 950.38 120.428 950.483 109.364 953.126 99.6158 958.308 91.1826 963.491 82.7495 970.592 76.1461 979.611 71.3723 988.631 66.5986 998.948 64.1689 1010.56 64.0832ZM877.549 64.0832 877.549 98.5999C875.861 98.3979 874.338 98.2464 872.978 98.1454 871.619 98.0444 870.247 97.9939 868.863 97.9939 860.964 97.9222 854.643 100.035 849.9 104.333 845.157 108.631 842.725 115.544 842.603 125.073L842.603 175.36 804.248 175.36 804.248 65.9012 840.786 65.9012 840.786 79.028C844.754 74.0759 849.845 70.3482 856.061 67.8447 862.277 65.3412 869.439 64.0874 877.549 64.0832ZM583.896 64.0832C601.782 64.0151 615.55 68.0869 625.2 76.2985 634.85 84.5101 639.73 97.27 639.839 114.578L639.839 175.36 604.11 175.36 604.11 161.236C601.372 166.491 597.296 170.46 591.88 173.142 586.464 175.824 579.76 177.17 571.767 177.178 558.585 176.96 548.507 173.713 541.534 167.439 534.561 161.165 531.045 153.171 530.986 143.458 530.893 133.256 534.763 125.278 542.595 119.525 550.427 113.772 562.779 110.845 579.651 110.745L601.482 110.745C601.196 105.153 599.141 100.862 595.317 97.8743 591.493 94.8862 585.799 93.3774 578.236 93.3479 572.867 93.3774 567.539 94.2288 562.251 95.9019 556.963 97.5751 552.395 99.893 548.548 102.856L535.629 76.7981C542.042 72.648 549.503 69.4945 558.013 67.3375 566.523 65.1806 575.15 64.0958 583.896 64.0832ZM409.55 64.0832C422.654 63.9904 433.398 67.8596 441.78 75.6908 450.163 83.5219 454.495 95.8716 454.777 112.74L454.777 175.36 416.422 175.36 416.422 119.002C416.367 111.174 414.759 105.468 411.596 101.882 408.434 98.2969 404.046 96.5294 398.433 96.5799 392.129 96.521 386.949 98.5579 382.894 102.69 378.839 106.823 376.742 113.405 376.603 122.436L376.603 175.36 338.248 175.36 338.248 65.9012 374.786 65.9012 374.786 77.8086C379.177 73.2629 384.339 69.84 390.272 67.5398 396.205 65.2396 402.631 64.0874 409.55 64.0832ZM196.179 64.0832C214.575 64.3726 229.395 69.6469 240.64 79.9061 251.884 90.1652 257.664 103.673 257.979 120.428 257.664 137.29 251.884 150.89 240.64 161.229 229.395 171.568 214.575 176.884 196.179 177.178 184.159 177.091 173.521 174.641 164.265 169.828 155.008 165.016 147.739 158.362 142.456 149.868 137.173 141.374 134.481 131.56 134.38 120.428 134.481 109.365 137.173 99.6168 142.456 91.1836 147.739 82.7505 155.008 76.1469 164.265 71.3728 173.521 66.5988 184.159 64.169 196.179 64.0832ZM28.0359 33.9852 116.487 33.9852 116.487 123.262C116.436 141.633 111.793 155.383 102.556 164.51 93.3197 173.638 79.7916 178.197 61.9719 178.188 51.5941 178.167 42.2011 176.392 33.7929 172.864 25.3846 169.336 18.4156 164.181 12.8859 157.398L34.7019 131.547C38.422 136.405 42.2937 140.075 46.3169 142.559 50.34 145.043 54.6157 146.289 59.1439 146.297 64.9219 146.285 69.3238 144.542 72.3496 141.069 75.3754 137.596 76.8988 132.469 76.9199 125.687L76.9199 64.8659 28.0359 64.8659ZM1304.22 25.5012 1342.57 25.5012 1342.57 175.36 1306.04 175.36 1306.04 164.462C1302.4 168.789 1297.9 171.993 1292.55 174.075 1287.19 176.156 1280.98 177.191 1273.9 177.178 1263.83 177.125 1254.74 174.809 1246.64 170.232 1238.54 165.655 1232.1 159.136 1227.32 150.675 1222.54 142.215 1220.1 132.132 1219.99 120.428 1220.1 108.793 1222.54 98.7759 1227.32 90.3763 1232.1 81.9768 1238.54 75.5077 1246.64 70.9692 1254.74 66.4306 1263.83 64.1353 1273.9 64.0832 1280.28 64.0748 1286.02 64.9998 1291.11 66.8583 1296.2 68.7169 1300.57 71.5593 1304.22 75.3857ZM772.319 23.6832C777.053 23.679 781.674 24.1415 786.181 25.0707 790.688 26 794.551 27.4212 797.771 29.3343L788.277 56.3867C786.635 55.4553 784.817 54.6882 782.823 54.0856 780.828 53.4829 778.808 53.171 776.763 53.1499 772.697 53.1415 769.566 54.3216 767.37 56.6902 765.173 59.0589 764.062 62.6666 764.037 67.5135L764.037 69.9412 790.095 69.9412 790.095 98.5999 765.047 98.5999 765.047 175.36 726.692 175.36 726.692 98.5999 710.734 98.5999 710.734 69.9412 726.692 69.9412 726.692 67.1089C726.763 53.8062 730.708 43.2848 738.527 35.5446 746.346 27.8045 757.609 23.8507 772.319 23.6832ZM913.425 12.9772C920.584 13.0824 926.254 14.9413 930.435 18.5541 934.615 22.1669 936.752 26.9025 936.845 32.7611 936.752 38.9351 934.615 43.9482 930.435 47.8007 926.254 51.6531 920.584 53.6382 913.425 53.7559 906.266 53.6256 900.597 51.6657 896.416 47.8764 892.235 44.087 890.098 39.2505 890.006 33.3667 890.098 27.4829 892.235 22.6463 896.416 18.8569 900.597 15.0675 906.266 13.1076 913.425 12.9772ZM294.425 12.9772C301.584 13.0824 307.254 14.9413 311.435 18.5541 315.615 22.1669 317.752 26.9025 317.845 32.7611 317.752 38.9351 315.615 43.9482 311.435 47.8007 307.254 51.6531 301.584 53.6382 294.425 53.7559 287.267 53.6256 281.597 51.6657 277.416 47.8764 273.235 44.087 271.098 39.2505 271.006 33.3667 271.098 27.4829 273.235 22.6463 277.416 18.8569 281.597 15.0675 287.267 13.1076 294.425 12.9772Z"/></g></g><path fill="#FFF" fill-rule="evenodd" stroke="#000" stroke-linejoin="round" stroke-miterlimit="10" stroke-width="3" d="M263.092 1921.9C256.998 1921.95 252.66 1922.97 250.079 1924.96 247.497 1926.95 246.242 1929.64 246.314 1933.03 246.343 1936.32 247.598 1938.98 250.079 1941.01 252.559 1943.04 256.088 1944.09 260.666 1944.15 264.983 1944.16 268.832 1943.12 272.213 1941.04 275.595 1938.95 278.08 1935.74 279.667 1931.41L279.667 1921.9ZM960.173 1885.75C953.465 1885.79 947.983 1888.03 943.726 1892.46 939.469 1896.9 937.271 1903.29 937.132 1911.61 937.271 1920.05 939.469 1926.52 943.726 1931.04 947.983 1935.56 953.465 1937.84 960.173 1937.89 966.784 1937.84 972.207 1935.56 976.443 1931.04 980.678 1926.52 982.868 1920.05 983.011 1911.61 982.868 1903.29 980.678 1896.9 976.443 1892.46 972.207 1888.03 966.784 1885.79 960.173 1885.75ZM-125.635 1885.75C-132.254 1885.79-137.711 1888.03-142.006 1892.46-146.301 1896.9-148.524 1903.29-148.676 1911.61-148.524 1920.05-146.301 1926.52-142.006 1931.04-137.711 1935.56-132.254 1937.84-125.635 1937.89-118.928 1937.84-113.446 1935.56-109.189 1931.04-104.932 1926.52-102.734 1920.05-102.595 1911.61-102.734 1903.29-104.932 1896.9-109.189 1892.46-113.446 1888.03-118.928 1885.79-125.635 1885.75ZM688.95 1882.51C682.942 1882.58 677.994 1884.27 674.106 1887.6 670.219 1890.92 667.694 1895.5 666.533 1901.32L711.367 1901.32C710.295 1895.5 707.795 1890.92 703.87 1887.6 699.944 1884.27 694.971 1882.58 688.95 1882.51ZM572.433 1857.09 610.788 1857.09 610.788 1966.55 572.433 1966.55ZM-46.5667 1857.09-8.21204 1857.09-8.21204 1966.55-46.5667 1966.55ZM835.735 1855.27C848.839 1855.18 859.583 1859.04 867.966 1866.88 876.348 1874.71 880.68 1887.06 880.962 1903.93L880.962 1966.55 842.607 1966.55 842.607 1910.19C842.552 1902.36 840.944 1896.65 837.781 1893.07 834.619 1889.48 830.231 1887.71 824.618 1887.77 818.314 1887.71 813.134 1889.74 809.079 1893.88 805.024 1898.01 802.927 1904.59 802.788 1913.62L802.788 1966.55 764.433 1966.55 764.433 1857.09 800.971 1857.09 800.971 1868.99C805.362 1864.45 810.524 1861.03 816.457 1858.73 822.39 1856.42 828.816 1855.27 835.735 1855.27ZM688.748 1855.27C699.644 1855.3 709.493 1857.52 718.294 1861.94 727.095 1866.36 734.101 1872.79 739.312 1881.23 744.523 1889.67 747.191 1899.93 747.316 1912.02 747.303 1913.46 747.228 1915.01 747.089 1916.68 746.95 1918.35 746.823 1919.96 746.71 1921.5L667.139 1921.5C668.788 1927.1 671.902 1931.42 676.479 1934.47 681.057 1937.52 686.897 1939.06 693.999 1939.1 699.267 1939.11 703.878 1938.33 707.833 1936.77 711.788 1935.21 715.592 1932.82 719.244 1929.59L739.439 1950.6C734.201 1956.46 727.713 1960.89 719.976 1963.87 712.238 1966.86 703.176 1968.35 692.788 1968.36 673.059 1968.04 657.483 1962.68 646.06 1952.26 634.637 1941.85 628.805 1928.3 628.565 1911.61 628.669 1900.55 631.312 1890.8 636.494 1882.37 641.676 1873.93 648.777 1867.33 657.797 1862.56 666.816 1857.78 677.133 1855.35 688.748 1855.27ZM555.734 1855.27 555.734 1889.79C554.046 1889.58 552.523 1889.43 551.164 1889.33 549.804 1889.23 548.432 1889.18 547.048 1889.18 539.149 1889.11 532.828 1891.22 528.085 1895.52 523.342 1899.82 520.91 1906.73 520.788 1916.26L520.788 1966.55 482.433 1966.55 482.433 1857.09 518.971 1857.09 518.971 1870.21C522.939 1865.26 528.031 1861.53 534.246 1859.03 540.462 1856.53 547.624 1855.27 555.734 1855.27ZM262.081 1855.27C279.967 1855.2 293.736 1859.27 303.386 1867.48 313.036 1875.7 317.915 1888.46 318.024 1905.76L318.024 1966.55 282.295 1966.55 282.295 1952.42C279.558 1957.68 275.481 1961.65 270.066 1964.33 264.65 1967.01 257.946 1968.35 249.952 1968.36 236.77 1968.15 226.692 1964.9 219.719 1958.62 212.746 1952.35 209.23 1944.36 209.171 1934.64 209.078 1924.44 212.948 1916.46 220.78 1910.71 228.612 1904.96 240.964 1902.03 257.836 1901.93L279.667 1901.93C279.381 1896.34 277.326 1892.05 273.502 1889.06 269.678 1886.07 263.984 1884.56 256.421 1884.53 251.052 1884.56 245.724 1885.41 240.436 1887.09 235.149 1888.76 230.581 1891.08 226.733 1894.04L213.814 1867.98C220.227 1863.83 227.688 1860.68 236.198 1858.52 244.708 1856.37 253.336 1855.28 262.081 1855.27ZM87.7351 1855.27C100.84 1855.18 111.583 1859.04 119.966 1866.88 128.348 1874.71 132.68 1887.06 132.962 1903.93L132.962 1966.55 94.6072 1966.55 94.6072 1910.19C94.5525 1902.36 92.9439 1896.65 89.7815 1893.07 86.6191 1889.48 82.2313 1887.71 76.618 1887.77 70.3141 1887.71 65.1345 1889.74 61.0793 1893.88 57.0241 1898.01 54.927 1904.59 54.788 1913.62L54.788 1966.55 16.4333 1966.55 16.4333 1857.09 52.9713 1857.09 52.9713 1868.99C57.3622 1864.45 62.5242 1861.03 68.4573 1858.73 74.3904 1856.42 80.8163 1855.27 87.7351 1855.27ZM-125.635 1855.27C-107.24 1855.56-92.4193 1860.83-81.1749 1871.09-69.9305 1881.35-64.1508 1894.86-63.836 1911.61-64.1508 1928.47-69.9305 1942.07-81.1749 1952.41-92.4193 1962.75-107.24 1968.07-125.635 1968.36-137.656 1968.28-148.294 1965.83-157.55 1961.01-166.806 1956.2-174.076 1949.55-179.359 1941.05-184.642 1932.56-187.334 1922.75-187.435 1911.61-187.334 1900.55-184.642 1890.8-179.359 1882.37-174.076 1873.94-166.806 1867.33-157.55 1862.56-148.294 1857.78-137.656 1855.35-125.635 1855.27ZM-293.779 1825.17-205.328 1825.17-205.328 1914.45C-205.378 1932.82-210.022 1946.57-219.258 1955.7-228.495 1964.82-242.023 1969.38-259.843 1969.37-270.22 1969.35-279.613 1967.58-288.022 1964.05-296.43 1960.52-303.399 1955.37-308.929 1948.58L-287.113 1922.73C-283.393 1927.59-279.521 1931.26-275.498 1933.74-271.475 1936.23-267.199 1937.47-262.671 1937.48-256.893 1937.47-252.491 1935.73-249.465 1932.25-246.439 1928.78-244.916 1923.65-244.895 1916.87L-244.895 1856.05-293.779 1856.05ZM982.405 1816.69 1020.76 1816.69 1020.76 1966.55 984.222 1966.55 984.222 1955.65C980.585 1959.97 976.089 1963.18 970.733 1965.26 965.377 1967.34 959.162 1968.38 952.088 1968.36 942.011 1968.31 932.923 1965.99 924.823 1961.42 916.724 1956.84 910.285 1950.32 905.506 1941.86 900.728 1933.4 898.283 1923.32 898.171 1911.61 898.283 1899.98 900.728 1889.96 905.506 1881.56 910.285 1873.16 916.724 1866.69 924.823 1862.15 932.923 1857.62 942.011 1855.32 952.088 1855.27 958.468 1855.26 964.203 1856.19 969.293 1858.04 974.384 1859.9 978.755 1862.74 982.405 1866.57ZM450.504 1814.87C455.238 1814.86 459.859 1815.33 464.366 1816.26 468.873 1817.19 472.737 1818.61 475.956 1820.52L466.462 1847.57C464.821 1846.64 463.003 1845.87 461.008 1845.27 459.013 1844.67 456.993 1844.36 454.948 1844.34 450.883 1844.33 447.752 1845.51 445.555 1847.88 443.359 1850.24 442.248 1853.85 442.223 1858.7L442.223 1861.13 468.28 1861.13 468.28 1889.79 443.232 1889.79 443.232 1966.55 404.877 1966.55 404.877 1889.79 388.919 1889.79 388.919 1861.13 404.877 1861.13 404.877 1858.29C404.949 1844.99 408.894 1834.47 416.712 1826.73 424.531 1818.99 435.795 1815.04 450.504 1814.87ZM591.611 1804.16C598.769 1804.27 604.439 1806.13 608.62 1809.74 612.801 1813.35 614.937 1818.09 615.03 1823.95 614.937 1830.12 612.801 1835.13 608.62 1838.99 604.439 1842.84 598.769 1844.82 591.611 1844.94 584.452 1844.81 578.782 1842.85 574.601 1839.06 570.42 1835.27 568.284 1830.44 568.191 1824.55 568.284 1818.67 570.42 1813.83 574.601 1810.04 578.782 1806.25 584.452 1804.29 591.611 1804.16ZM-27.3893 1804.16C-20.2305 1804.27-14.5607 1806.13-10.38 1809.74-6.19916 1813.35-4.06253 1818.09-3.97 1823.95-4.06253 1830.12-6.19916 1835.13-10.38 1838.99-14.5607 1842.84-20.2305 1844.82-27.3893 1844.94-34.548 1844.81-40.2178 1842.85-44.3987 1839.06-48.5795 1835.27-50.7162 1830.44-50.8087 1824.55-50.7162 1818.67-48.5795 1813.83-44.3987 1810.04-40.2178 1806.25-34.548 1804.29-27.3893 1804.16Z"/><text x="-308.929" y="1948.72" fill="#000" fill-opacity="0" font-family="Arial,Arial_MSFontService,sans-serif" font-size="165.211">Join a friend</text></g></svg>