<svg xmlns="http://www.w3.org/2000/svg" xmlns:xlink="http://www.w3.org/1999/xlink" width="1783" height="446" overflow="hidden" xml:space="preserve"><defs><filter id="fx0" width="120%" height="120%" x="-10%" y="-10%" filterUnits="userSpaceOnUse" primitiveUnits="userSpaceOnUse"><feComponentTransfer color-interpolation-filters="sRGB"><feFuncR tableValues="0 0" type="discrete"/><feFuncG tableValues="0 0" type="discrete"/><feFuncB tableValues="0 0" type="discrete"/><feFuncA intercept="0" slope=".431" type="linear"/></feComponentTransfer><feGaussianBlur stdDeviation="3.21244 3.21244"/></filter><clipPath id="clip1"><rect width="1783" height="446" x="3187" y="1673"/></clipPath></defs><g clip-path="url(#clip1)" transform="translate(-3187 -1673)"><path fill="#DEA312" d="M1783 371.458C1783 420.987 1758.24 445.75 1708.71 445.75L74.2917 445.75C24.7638 445.75 0 420.987 0 371.458L0 74.2917C0 24.7638 24.7638 0 74.2917 0L1708.71 0C1758.24 0 1783 24.7638 1783 74.2917L1783 371.458M1745.85 74.2917C1745.85 49.5278 1733.47 37.1458 1708.71 37.1458L74.2917 37.1458C49.5278 37.1458 37.1458 49.5278 37.1458 74.2917L37.1458 371.458C37.1458 396.222 49.5278 408.604 74.2917 408.604L1708.71 408.604C1733.47 408.604 1745.85 396.222 1745.85 371.458L1745.85 74.2917" transform="matrix(1 0 0 1.00056 3187 1673)"/><path fill="#FFEA9C" d="M1745.85 74.2917 1745.85 371.458C1745.85 396.222 1733.47 408.604 1708.71 408.604L74.2917 408.604C49.5278 408.604 37.1458 396.222 37.1458 371.458L37.1458 74.2917C37.1458 49.5278 49.5278 37.1458 74.2917 37.1458L1708.71 37.1458C1733.47 37.1458 1745.85 49.5278 1745.85 74.2917M1708.71 222.875 1708.71 74.2917 74.2917 74.2917 74.2917 222.875 74.2917 371.458 1708.71 371.458 1708.71 222.875" transform="matrix(1 0 0 1.00056 3187 1673)"/><path fill="#FC0" d="M1708.71 222.875 1708.71 371.458 74.2917 371.458 74.2917 222.875 1708.71 222.875" transform="matrix(1 0 0 1.00056 3187 1673)"/><path fill="#FFDC58" d="M1708.71 222.875 74.2917 222.875 74.2917 74.2917 1708.71 74.2917 1708.71 222.875" transform="matrix(1 0 0 1.00056 3187 1673)"/><g filter="url(#fx0)" transform="translate(3412 1793)"><g><path fill-rule="evenodd" stroke="#000" stroke-linejoin="round" stroke-miterlimit="10" stroke-width="3" d="M584.853 129.748C578.76 129.794 574.422 130.814 571.841 132.807 569.259 134.8 568.004 137.488 568.076 140.871 568.105 144.165 569.36 146.828 571.841 148.859 574.321 150.889 577.85 151.934 582.428 151.993 586.744 152.006 590.593 150.969 593.975 148.884 597.357 146.798 599.841 143.588 601.429 139.253L601.429 129.748ZM1281.93 93.59C1275.23 93.6321 1269.74 95.872 1265.49 100.31 1261.23 104.747 1259.03 111.13 1258.89 119.458 1259.03 127.892 1261.23 134.367 1265.49 138.885 1269.74 143.403 1275.23 145.685 1281.93 145.731 1288.55 145.685 1293.97 143.403 1298.2 138.885 1302.44 134.367 1304.63 127.892 1304.77 119.458 1304.63 111.13 1302.44 104.747 1298.2 100.31 1293.97 95.872 1288.55 93.6321 1281.93 93.59ZM196.126 93.59C189.507 93.6321 184.05 95.872 179.755 100.31 175.461 104.747 173.237 111.13 173.086 119.458 173.237 127.892 175.461 134.367 179.755 138.885 184.05 143.403 189.507 145.685 196.126 145.731 202.834 145.685 208.316 143.403 212.573 138.885 216.83 134.367 219.028 127.892 219.167 119.458 219.028 111.13 216.83 104.747 212.573 100.31 208.316 95.872 202.834 93.6321 196.126 93.59ZM1010.71 90.358C1004.7 90.4212 999.756 92.1152 995.868 95.44 991.98 98.7649 989.456 103.341 988.295 109.169L1033.13 109.169C1032.06 103.341 1029.56 98.7649 1025.63 95.44 1021.71 92.1152 1016.73 90.4212 1010.71 90.358ZM894.195 64.9312 932.55 64.9312 932.55 174.39 894.195 174.39ZM275.195 64.9312 313.55 64.9312 313.55 174.39 275.195 174.39ZM1157.5 63.1132C1170.6 63.0204 1181.34 66.8896 1189.73 74.7208 1198.11 82.5519 1202.44 94.9017 1202.72 111.77L1202.72 174.39 1164.37 174.39 1164.37 118.032C1164.31 110.204 1162.71 104.498 1159.54 100.912 1156.38 97.327 1151.99 95.5595 1146.38 95.61 1140.08 95.551 1134.9 97.5879 1130.84 101.72 1126.79 105.853 1124.69 112.435 1124.55 121.466L1124.55 174.39 1086.19 174.39 1086.19 64.9312 1122.73 64.9312 1122.73 76.8386C1127.12 72.2929 1132.29 68.87 1138.22 66.5698 1144.15 64.2696 1150.58 63.1174 1157.5 63.1132ZM1010.51 63.1132C1021.41 63.1441 1031.25 65.3695 1040.06 69.7895 1048.86 74.2094 1055.86 80.6384 1061.07 89.0765 1066.29 97.5146 1068.95 107.776 1069.08 119.862 1069.07 121.303 1068.99 122.859 1068.85 124.527 1068.71 126.196 1068.59 127.801 1068.47 129.344L988.901 129.344C990.55 134.945 993.663 139.269 998.241 142.316 1002.82 145.363 1008.66 146.905 1015.76 146.943 1021.03 146.952 1025.64 146.176 1029.59 144.617 1033.55 143.058 1037.35 140.664 1041.01 137.436L1061.2 158.447C1055.96 164.309 1049.48 168.732 1041.74 171.717 1034 174.703 1024.94 176.2 1014.55 176.208 994.82 175.889 979.245 170.522 967.821 160.108 956.398 149.693 950.567 136.143 950.327 119.458 950.43 108.394 953.073 98.6458 958.256 90.2127 963.438 81.7795 970.539 75.1761 979.558 70.4024 988.578 65.6287 998.895 63.1989 1010.51 63.1132ZM877.496 63.1132 877.496 97.63C875.808 97.428 874.285 97.2765 872.925 97.1755 871.566 97.0745 870.194 97.024 868.81 97.024 860.911 96.9522 854.59 99.0653 849.847 103.363 845.104 107.661 842.672 114.575 842.55 124.103L842.55 174.39 804.195 174.39 804.195 64.9312 840.733 64.9312 840.733 78.058C844.701 73.1059 849.792 69.3782 856.008 66.8747 862.224 64.3713 869.386 63.1174 877.496 63.1132ZM583.843 63.1132C601.729 63.0451 615.497 67.1169 625.147 75.3285 634.798 83.5401 639.677 96.3001 639.786 113.608L639.786 174.39 604.057 174.39 604.057 160.267C601.32 165.521 597.243 169.49 591.827 172.172 586.412 174.854 579.707 176.2 571.714 176.208 558.532 175.99 548.454 172.743 541.481 166.469 534.508 160.195 530.992 152.201 530.933 142.488 530.84 132.286 534.71 124.308 542.542 118.555 550.374 112.802 562.726 109.875 579.598 109.775L601.429 109.775C601.143 104.183 599.088 99.8924 595.264 96.9043 591.44 93.9163 585.746 92.4075 578.183 92.378 572.814 92.4075 567.486 93.2588 562.198 94.932 556.91 96.6051 552.343 98.923 548.495 101.886L535.576 75.8281C541.989 71.6781 549.45 68.5245 557.96 66.3676 566.47 64.2106 575.097 63.1258 583.843 63.1132ZM409.497 63.1132C422.601 63.0204 433.345 66.8896 441.727 74.7208 450.11 82.5519 454.442 94.9017 454.724 111.77L454.724 174.39 416.369 174.39 416.369 118.032C416.314 110.204 414.706 104.498 411.543 100.912 408.381 97.327 403.993 95.5595 398.38 95.61 392.076 95.551 386.896 97.5879 382.841 101.72 378.786 105.853 376.689 112.435 376.55 121.466L376.55 174.39 338.195 174.39 338.195 64.9312 374.733 64.9312 374.733 76.8386C379.124 72.2929 384.286 68.87 390.219 66.5698 396.152 64.2696 402.578 63.1174 409.497 63.1132ZM196.126 63.1132C214.522 63.4026 229.342 68.6769 240.587 78.9361 251.831 89.1952 257.611 102.703 257.926 119.458 257.611 136.32 251.831 149.92 240.587 160.259 229.342 170.598 214.522 175.914 196.126 176.208 184.106 176.121 173.468 173.671 164.212 168.858 154.955 164.046 147.686 157.392 142.403 148.898 137.12 140.404 134.428 130.59 134.327 119.458 134.428 108.395 137.12 98.6469 142.403 90.2137 147.686 81.7805 154.955 75.1769 164.212 70.4029 173.468 65.6289 184.106 63.199 196.126 63.1132ZM27.983 33.0152 116.434 33.0152 116.434 122.292C116.383 140.663 111.74 154.413 102.503 163.54 93.2668 172.668 79.7387 177.227 61.919 177.218 51.5412 177.197 42.1482 175.422 33.74 171.894 25.3317 168.366 18.3627 163.211 12.833 156.428L34.649 130.577C38.3692 135.435 42.2408 139.105 46.264 141.589 50.2872 144.073 54.5628 145.319 59.091 145.327 64.869 145.315 69.2709 143.572 72.2967 140.099 75.3225 136.626 76.846 131.499 76.867 124.717L76.867 63.896 27.983 63.896ZM1304.17 24.5312 1342.52 24.5312 1342.52 174.39 1305.98 174.39 1305.98 163.492C1302.35 167.819 1297.85 171.023 1292.49 173.105 1287.14 175.186 1280.92 176.221 1273.85 176.208 1263.77 176.155 1254.68 173.839 1246.59 169.262 1238.49 164.685 1232.05 158.166 1227.27 149.705 1222.49 141.245 1220.04 131.162 1219.93 119.458 1220.04 107.823 1222.49 97.8059 1227.27 89.4063 1232.05 81.0068 1238.49 74.5378 1246.59 69.9992 1254.68 65.4607 1263.77 63.1653 1273.85 63.1132 1280.23 63.1048 1285.96 64.0299 1291.05 65.8884 1296.15 67.7469 1300.52 70.5894 1304.17 74.4158ZM772.266 22.7132C777 22.709 781.621 23.1715 786.128 24.1008 790.635 25.03 794.498 26.4512 797.718 28.3643L788.224 55.4168C786.582 54.4853 784.764 53.7183 782.77 53.1156 780.775 52.5129 778.755 52.201 776.71 52.18 772.644 52.1715 769.514 53.3516 767.317 55.7203 765.121 58.0889 764.01 61.6967 763.984 66.5436L763.984 68.9712 790.042 68.9712 790.042 97.63 764.994 97.63 764.994 174.39 726.639 174.39 726.639 97.63 710.681 97.63 710.681 68.9712 726.639 68.9712 726.639 66.139C726.71 52.8362 730.655 42.3148 738.474 34.5747 746.293 26.8345 757.557 22.8807 772.266 22.7132ZM913.372 12.0072C920.531 12.1124 926.201 13.9714 930.382 17.5841 934.562 21.1969 936.699 25.9326 936.792 31.7911 936.699 37.9651 934.562 42.9783 930.382 46.8307 926.201 50.6831 920.531 52.6682 913.372 52.786 906.214 52.6556 900.544 50.6957 896.363 46.9064 892.182 43.1171 890.045 38.2805 889.953 32.3967 890.045 26.513 892.182 21.6763 896.363 17.8869 900.544 14.0975 906.214 12.1376 913.372 12.0072ZM294.372 12.0072C301.531 12.1124 307.201 13.9714 311.382 17.5841 315.563 21.1969 317.699 25.9326 317.792 31.7911 317.699 37.9651 315.563 42.9783 311.382 46.8307 307.201 50.6831 301.531 52.6682 294.372 52.786 287.214 52.6556 281.544 50.6957 277.363 46.9064 273.182 43.1171 271.046 38.2805 270.953 32.3967 271.046 26.513 273.182 21.6763 277.363 17.8869 281.544 14.0975 287.214 12.1376 294.372 12.0072Z"/></g></g><path fill-rule="evenodd" stroke="#000" stroke-linejoin="round" stroke-miterlimit="10" stroke-width="3" d="M3990.04 1915.93C3983.95 1915.98 3979.61 1917 3977.03 1918.99 3974.44 1920.98 3973.19 1923.67 3973.26 1927.06 3973.29 1930.35 3974.55 1933.01 3977.03 1935.04 3979.51 1937.07 3983.04 1938.12 3987.61 1938.18 3991.93 1938.19 3995.78 1937.15 3999.16 1935.07 4002.54 1932.98 4005.03 1929.77 4006.61 1925.44L4006.61 1915.93ZM4687.12 1879.78C4680.41 1879.82 4674.93 1882.06 4670.67 1886.5 4666.42 1890.93 4664.22 1897.32 4664.08 1905.64 4664.22 1914.08 4666.42 1920.55 4670.67 1925.07 4674.93 1929.59 4680.41 1931.87 4687.12 1931.92 4693.73 1931.87 4699.15 1929.59 4703.39 1925.07 4707.62 1920.55 4709.81 1914.08 4709.96 1905.64 4709.81 1897.32 4707.62 1890.93 4703.39 1886.5 4699.15 1882.06 4693.73 1879.82 4687.12 1879.78ZM3601.31 1879.78C3594.69 1879.82 3589.24 1882.06 3584.94 1886.5 3580.65 1890.93 3578.42 1897.32 3578.27 1905.64 3578.42 1914.08 3580.65 1920.55 3584.94 1925.07 3589.24 1929.59 3594.69 1931.87 3601.31 1931.92 3608.02 1931.87 3613.5 1929.59 3617.76 1925.07 3622.02 1920.55 3624.21 1914.08 3624.35 1905.64 3624.21 1897.32 3622.02 1890.93 3617.76 1886.5 3613.5 1882.06 3608.02 1879.82 3601.31 1879.78ZM4415.9 1876.54C4409.89 1876.61 4404.94 1878.3 4401.05 1881.63 4397.17 1884.95 4394.64 1889.53 4393.48 1895.35L4438.31 1895.35C4437.24 1889.53 4434.74 1884.95 4430.82 1881.63 4426.89 1878.3 4421.92 1876.61 4415.9 1876.54ZM4299.38 1851.12 4337.73 1851.12 4337.73 1960.58 4299.38 1960.58ZM3680.38 1851.12 3718.73 1851.12 3718.73 1960.58 3680.38 1960.58ZM4562.68 1849.3C4575.79 1849.21 4586.53 1853.08 4594.91 1860.91 4603.3 1868.74 4607.63 1881.09 4607.91 1897.96L4607.91 1960.58 4569.55 1960.58 4569.55 1904.22C4569.5 1896.39 4567.89 1890.68 4564.73 1887.1 4561.57 1883.51 4557.18 1881.74 4551.56 1881.8 4545.26 1881.74 4540.08 1883.77 4536.03 1887.91 4531.97 1892.04 4529.87 1898.62 4529.73 1907.65L4529.73 1960.58 4491.38 1960.58 4491.38 1851.12 4527.92 1851.12 4527.92 1863.02C4532.31 1858.48 4537.47 1855.06 4543.4 1852.76 4549.34 1850.46 4555.76 1849.3 4562.68 1849.3ZM4415.7 1849.3C4426.59 1849.33 4436.44 1851.55 4445.24 1855.97 4454.04 1860.39 4461.05 1866.82 4466.26 1875.26 4471.47 1883.7 4474.14 1893.96 4474.26 1906.05 4474.25 1907.49 4474.17 1909.04 4474.04 1910.71 4473.9 1912.38 4473.77 1913.99 4473.66 1915.53L4394.09 1915.53C4395.74 1921.13 4398.85 1925.45 4403.43 1928.5 4408 1931.55 4413.84 1933.09 4420.95 1933.13 4426.21 1933.14 4430.83 1932.36 4434.78 1930.8 4438.74 1929.24 4442.54 1926.85 4446.19 1923.62L4466.39 1944.63C4461.15 1950.49 4454.66 1954.92 4446.92 1957.9 4439.19 1960.89 4430.12 1962.39 4419.73 1962.39 4400.01 1962.07 4384.43 1956.71 4373.01 1946.29 4361.58 1935.88 4355.75 1922.33 4355.51 1905.64 4355.62 1894.58 4358.26 1884.83 4363.44 1876.4 4368.62 1867.96 4375.72 1861.36 4384.74 1856.59 4393.76 1851.81 4404.08 1849.38 4415.7 1849.3ZM4282.68 1849.3 4282.68 1883.82C4280.99 1883.61 4279.47 1883.46 4278.11 1883.36 4276.75 1883.26 4275.38 1883.21 4274 1883.21 4266.1 1883.14 4259.77 1885.25 4255.03 1889.55 4250.29 1893.85 4247.86 1900.76 4247.73 1910.29L4247.73 1960.58 4209.38 1960.58 4209.38 1851.12 4245.92 1851.12 4245.92 1864.24C4249.89 1859.29 4254.98 1855.56 4261.19 1853.06 4267.41 1850.56 4274.57 1849.3 4282.68 1849.3ZM3989.03 1849.3C4006.91 1849.23 4020.68 1853.3 4030.33 1861.51 4039.98 1869.73 4044.86 1882.49 4044.97 1899.79L4044.97 1960.58 4009.24 1960.58 4009.24 1946.45C4006.5 1951.71 4002.43 1955.68 3997.01 1958.36 3991.6 1961.04 3984.89 1962.39 3976.9 1962.39 3963.72 1962.18 3953.64 1958.93 3946.67 1952.65 3939.69 1946.38 3936.18 1938.39 3936.12 1928.67 3936.03 1918.47 3939.9 1910.49 3947.73 1904.74 3955.56 1898.99 3967.91 1896.06 3984.78 1895.96L4006.61 1895.96C4006.33 1890.37 4004.27 1886.08 4000.45 1883.09 3996.63 1880.1 3990.93 1878.59 3983.37 1878.56 3978 1878.59 3972.67 1879.44 3967.38 1881.12 3962.1 1882.79 3957.53 1885.11 3953.68 1888.07L3940.76 1862.01C3947.17 1857.86 3954.64 1854.71 3963.15 1852.55 3971.66 1850.4 3980.28 1849.31 3989.03 1849.3ZM3814.68 1849.3C3827.79 1849.21 3838.53 1853.08 3846.91 1860.91 3855.3 1868.74 3859.63 1881.09 3859.91 1897.96L3859.91 1960.58 3821.55 1960.58 3821.55 1904.22C3821.5 1896.39 3819.89 1890.68 3816.73 1887.1 3813.57 1883.51 3809.18 1881.74 3803.56 1881.8 3797.26 1881.74 3792.08 1883.77 3788.03 1887.91 3783.97 1892.04 3781.87 1898.62 3781.74 1907.65L3781.74 1960.58 3743.38 1960.58 3743.38 1851.12 3779.92 1851.12 3779.92 1863.02C3784.31 1858.48 3789.47 1855.06 3795.4 1852.76 3801.34 1850.46 3807.76 1849.3 3814.68 1849.3ZM3601.31 1849.3C3619.71 1849.59 3634.53 1854.86 3645.77 1865.12 3657.02 1875.38 3662.8 1888.89 3663.11 1905.64 3662.8 1922.51 3657.02 1936.11 3645.77 1946.44 3634.53 1956.78 3619.71 1962.1 3601.31 1962.39 3589.29 1962.31 3578.65 1959.86 3569.4 1955.04 3560.14 1950.23 3552.87 1943.58 3547.59 1935.08 3542.3 1926.59 3539.61 1916.78 3539.51 1905.64 3539.61 1894.58 3542.3 1884.83 3547.59 1876.4 3552.87 1867.97 3560.14 1861.36 3569.4 1856.59 3578.65 1851.81 3589.29 1849.38 3601.31 1849.3ZM3433.17 1819.2 3521.62 1819.2 3521.62 1908.48C3521.57 1926.85 3516.93 1940.6 3507.69 1949.73 3498.45 1958.85 3484.92 1963.41 3467.1 1963.4 3456.73 1963.38 3447.33 1961.61 3438.93 1958.08 3430.52 1954.55 3423.55 1949.4 3418.02 1942.61L3439.83 1916.76C3443.55 1921.62 3447.43 1925.29 3451.45 1927.77 3455.47 1930.26 3459.75 1931.5 3464.28 1931.51 3470.05 1931.5 3474.46 1929.76 3477.48 1926.28 3480.51 1922.81 3482.03 1917.68 3482.05 1910.9L3482.05 1850.08 3433.17 1850.08ZM4709.35 1810.72 4747.71 1810.72 4747.71 1960.58 4711.17 1960.58 4711.17 1949.68C4707.53 1954 4703.04 1957.21 4697.68 1959.29 4692.32 1961.37 4686.11 1962.41 4679.04 1962.39 4668.96 1962.34 4659.87 1960.02 4651.77 1955.45 4643.67 1950.87 4637.23 1944.35 4632.45 1935.89 4627.68 1927.43 4625.23 1917.35 4625.12 1905.64 4625.23 1894.01 4627.68 1883.99 4632.45 1875.59 4637.23 1867.19 4643.67 1860.72 4651.77 1856.18 4659.87 1851.65 4668.96 1849.35 4679.04 1849.3 4685.41 1849.29 4691.15 1850.22 4696.24 1852.07 4701.33 1853.93 4705.7 1856.77 4709.35 1860.6ZM4177.45 1808.9C4182.19 1808.89 4186.81 1809.36 4191.31 1810.29 4195.82 1811.22 4199.68 1812.64 4202.9 1814.55L4193.41 1841.6C4191.77 1840.67 4189.95 1839.9 4187.96 1839.3 4185.96 1838.7 4183.94 1838.39 4181.9 1838.37 4177.83 1838.36 4174.7 1839.54 4172.5 1841.91 4170.31 1844.27 4169.19 1847.88 4169.17 1852.73L4169.17 1855.16 4195.23 1855.16 4195.23 1883.82 4170.18 1883.82 4170.18 1960.58 4131.82 1960.58 4131.82 1883.82 4115.87 1883.82 4115.87 1855.16 4131.82 1855.16 4131.82 1852.32C4131.9 1839.02 4135.84 1828.5 4143.66 1820.76 4151.48 1813.02 4162.74 1809.07 4177.45 1808.9ZM4318.56 1798.19C4325.72 1798.3 4331.39 1800.16 4335.57 1803.77 4339.75 1807.38 4341.88 1812.12 4341.98 1817.98 4341.88 1824.15 4339.75 1829.16 4335.57 1833.02 4331.39 1836.87 4325.72 1838.85 4318.56 1838.97 4311.4 1838.84 4305.73 1836.88 4301.55 1833.09 4297.37 1829.3 4295.23 1824.47 4295.14 1818.58 4295.23 1812.7 4297.37 1807.86 4301.55 1804.07 4305.73 1800.28 4311.4 1798.32 4318.56 1798.19ZM3699.56 1798.19C3706.72 1798.3 3712.39 1800.16 3716.57 1803.77 3720.75 1807.38 3722.88 1812.12 3722.98 1817.98 3722.88 1824.15 3720.75 1829.16 3716.57 1833.02 3712.39 1836.87 3706.72 1838.85 3699.56 1838.97 3692.4 1838.84 3686.73 1836.88 3682.55 1833.09 3678.37 1829.3 3676.23 1824.47 3676.14 1818.58 3676.23 1812.7 3678.37 1807.86 3682.55 1804.07 3686.73 1800.28 3692.4 1798.32 3699.56 1798.19Z"/><text x="3418.02" y="1942.75" fill="#000" fill-opacity="0" font-family="Arial,Arial_MSFontService,sans-serif" font-size="165.211">Join a friend</text></g></svg>