<svg xmlns="http://www.w3.org/2000/svg" xmlns:xlink="http://www.w3.org/1999/xlink" width="1783" height="474" overflow="hidden" xml:space="preserve"><defs><filter id="fx0" width="120%" height="120%" x="-10%" y="-10%" filterUnits="userSpaceOnUse" primitiveUnits="userSpaceOnUse"><feComponentTransfer color-interpolation-filters="sRGB"><feFuncR tableValues="0 0" type="discrete"/><feFuncG tableValues="0 0" type="discrete"/><feFuncB tableValues="0 0" type="discrete"/><feFuncA intercept="0" slope=".431" type="linear"/></feComponentTransfer><feGaussianBlur stdDeviation="3.21244 3.21244"/></filter><filter id="fx1" width="120%" height="120%" x="-10%" y="-10%" filterUnits="userSpaceOnUse" primitiveUnits="userSpaceOnUse"><feComponentTransfer color-interpolation-filters="sRGB"><feFuncR tableValues="0 0" type="discrete"/><feFuncG tableValues="0 0" type="discrete"/><feFuncB tableValues="0 0" type="discrete"/><feFuncA intercept="0" slope=".431" type="linear"/></feComponentTransfer><feGaussianBlur stdDeviation="3.21244 3.21244"/></filter><clipPath id="clip2"><rect width="1783" height="474" x="5727" y="657"/></clipPath><clipPath id="clip3"><rect width="1783" height="447" x="5727" y="656"/></clipPath><clipPath id="clip4"><rect width="1784" height="448" x="5726" y="656"/></clipPath><clipPath id="clip5"><rect width="1784" height="448" x="5726" y="656"/></clipPath><clipPath id="clip6"><rect width="388" height="227" x="124" y="89"/></clipPath><clipPath id="clip7"><rect width="116" height="166" x="119" y="117"/></clipPath></defs><g clip-path="url(#clip2)" transform="translate(-5727 -657)"><g clip-path="url(#clip3)"><g clip-path="url(#clip4)"><g clip-path="url(#clip5)"><path fill="#CD0B2A" d="M1745.85 74.2917C1745.85 49.5278 1733.47 37.1458 1708.71 37.1458L74.2917 37.1458C49.5278 37.1458 37.1458 49.5278 37.1458 74.2917L37.1458 371.458C37.1458 396.222 49.5278 408.604 74.2917 408.604L1708.71 408.604C1733.47 408.604 1745.85 396.222 1745.85 371.458L1745.85 74.2917M1783 371.458C1783 420.986 1758.24 445.75 1708.71 445.75L74.2917 445.75C24.7639 445.75 0 420.986 0 371.458L0 74.2917C0 24.7639 24.7639 0 74.2917 0L1708.71 0C1758.24 0 1783 24.7639 1783 74.2917L1783 371.458" transform="matrix(1 0 0 1.00056 5727 657)"/><path fill="#FF627B" d="M1745.85 74.2917 1745.85 371.458C1745.85 396.222 1733.47 408.604 1708.71 408.604L74.2917 408.604C49.5278 408.604 37.1458 396.222 37.1458 371.458L37.1458 74.2917C37.1458 49.5278 49.5278 37.1458 74.2917 37.1458L1708.71 37.1458C1733.47 37.1458 1745.85 49.5278 1745.85 74.2917M74.2917 222.875 74.2917 371.458 1708.71 371.458 1708.71 222.875 1708.71 74.2917 74.2917 74.2917 74.2917 222.875" transform="matrix(1 0 0 1.00056 5727 657)"/><path fill="#EE2747" d="M74.2917 222.875 1708.71 222.875 1708.71 371.458 74.2917 371.458 74.2917 222.875" transform="matrix(1 0 0 1.00056 5727 657)"/><path fill="#F73F5D" d="M74.2917 222.875 74.2917 74.2917 1708.71 74.2917 1708.71 222.875 74.2917 222.875" transform="matrix(1 0 0 1.00056 5727 657)"/></g></g></g><g clip-path="url(#clip6)" filter="url(#fx0)" transform="translate(6266 687)"><g><path d="M153.924-4.242C147.662 2.222 140.188 5.656 132.512 5.656 126.452 5.656 121.604 3.636 115.948-2.424 144.834-12.928 164.024-38.582 164.024-70.7 164.024-113.12 130.694-144.228 85.446-144.228 40.198-144.228 6.868-113.12 6.868-70.7 6.868-33.33 32.724-4.646 69.892 1.616 93.526 26.26 108.676 34.138 131.704 34.138 147.864 34.138 161.802 27.876 171.296 16.362ZM47.268-70.7C47.268-95.142 64.034-111.1 85.446-111.1 106.858-111.1 123.624-95.142 123.624-70.7 123.624-46.258 106.858-30.3 85.446-30.3 64.034-30.3 47.268-46.258 47.268-70.7ZM259.811-109.484 259.811-56.762C259.811-38.38 250.519-30.906 239.207-30.906 227.693-30.906 221.027-37.572 221.027-54.54L221.027-109.484 182.647-109.484 182.647-48.278C182.647-13.534 202.241 1.818 229.107 1.818 241.631 1.818 253.347-2.626 261.629-11.716L261.629 0 298.191 0 298.191-109.484ZM342.033-121.604C356.173-121.604 365.465-130.492 365.465-142.612 365.465-154.126 356.173-162.408 342.033-162.408 327.893-162.408 318.601-153.52 318.601-142.006 318.601-130.492 327.893-121.604 342.033-121.604ZM322.843 0 361.223 0 361.223-109.484 322.843-109.484Z" transform="matrix(1 0 0 1 131.921 266)"/></g></g><text font-family="Montserrat ExtraBold,Montserrat ExtraBold_MSFontService,sans-serif" font-size="202" font-weight="800" transform="matrix(1 0 0 1 6391.11 946)">Qui</text><g clip-path="url(#clip7)" filter="url(#fx1)" transform="translate(6639 687)"><g><path d="M78.376-31.31C75.144-29.088 70.902-27.876 66.66-27.876 59.792-27.876 55.146-32.32 55.146-40.4L55.146-76.76 80.194-76.76 80.194-105.444 55.146-105.444 55.146-133.926 16.766-133.926 16.766-105.444 0.808-105.444 0.808-76.76 16.766-76.76 16.766-39.996C16.766-11.918 33.128 1.818 61.206 1.818 71.306 1.818 81.204-0.202 87.87-4.444Z" transform="matrix(1 0 0 1 132.462 266)"/></g></g><text font-family="Montserrat ExtraBold,Montserrat ExtraBold_MSFontService,sans-serif" font-size="202" font-weight="800" transform="matrix(1 0 0 1 6764.65 946)">t</text></g></svg>