<svg xmlns="http://www.w3.org/2000/svg" xmlns:xlink="http://www.w3.org/1999/xlink" width="1783" height="445" overflow="hidden" xml:space="preserve"><defs><filter id="fx0" width="120%" height="120%" x="-10%" y="-10%" filterUnits="userSpaceOnUse" primitiveUnits="userSpaceOnUse"><feComponentTransfer color-interpolation-filters="sRGB"><feFuncR tableValues="0 0" type="discrete"/><feFuncG tableValues="0 0" type="discrete"/><feFuncB tableValues="0 0" type="discrete"/><feFuncA intercept="0" slope=".431" type="linear"/></feComponentTransfer><feGaussianBlur stdDeviation="3.21244 3.21244"/></filter><clipPath id="clip1"><rect width="1783" height="445" x="1299" y="1150"/></clipPath></defs><g clip-path="url(#clip1)" transform="translate(-1299 -1150)"><path fill="#CD0B2A" d="M1742.92 74.1667C1742.92 49.4445 1730.56 37.0833 1705.83 37.0833L74.1667 37.0833C49.4445 37.0833 37.0833 49.4445 37.0833 74.1667L37.0833 370.833C37.0833 395.555 49.4445 407.917 74.1667 407.917L1705.83 407.917C1730.56 407.917 1742.92 395.555 1742.92 370.833L1742.92 74.1667M1780 370.833C1780 420.279 1755.28 445 1705.83 445L74.1667 445C24.7222 445 0 420.279 0 370.833L0 74.1667C0 24.7222 24.7222 0 74.1667 0L1705.83 0C1755.28 0 1780 24.7222 1780 74.1667L1780 370.833" transform="matrix(1.00169 0 0 1 1299 1150)"/><path fill="#FF627B" d="M1742.92 74.1667 1742.92 370.833C1742.92 395.555 1730.56 407.917 1705.83 407.917L74.1667 407.917C49.4445 407.917 37.0833 395.555 37.0833 370.833L37.0833 74.1667C37.0833 49.4445 49.4445 37.0833 74.1667 37.0833L1705.83 37.0833C1730.56 37.0833 1742.92 49.4445 1742.92 74.1667M74.1667 222.5 74.1667 370.833 1705.83 370.833 1705.83 222.5 1705.83 74.1667 74.1667 74.1667 74.1667 222.5" transform="matrix(1.00169 0 0 1 1299 1150)"/><path fill="#EE2747" d="M74.1667 222.5 1705.83 222.5 1705.83 370.833 74.1667 370.833 74.1667 222.5" transform="matrix(1.00169 0 0 1 1299 1150)"/><path fill="#F73F5D" d="M74.1667 222.5 74.1667 74.1667 1705.83 74.1667 1705.83 222.5 74.1667 222.5" transform="matrix(1.00169 0 0 1 1299 1150)"/><g filter="url(#fx0)" transform="translate(1964 1271)"><g><path fill="#215F9A" fill-rule="evenodd" stroke="#000" stroke-linejoin="round" stroke-miterlimit="10" stroke-width="3" d="M329.117 65.3768 367.471 65.3768 367.471 174.836 329.117 174.836ZM188.713 65.3768 227.067 65.3768 227.067 120.321C227.105 128.729 228.697 134.789 231.843 138.501 234.988 142.213 239.461 144.031 245.259 143.955 251.071 144.026 255.922 142.015 259.813 137.92 263.704 133.825 265.725 127.218 265.877 118.099L265.877 65.3768 304.231 65.3768 304.231 174.836 267.693 174.836 267.693 163.13C263.496 167.667 258.604 171.057 253.016 173.298 247.428 175.539 241.474 176.658 235.153 176.654 221.467 176.738 210.37 172.734 201.861 164.642 193.352 156.55 188.969 143.864 188.713 126.583ZM91.2282 63.7355C80.266 63.8913 71.2235 67.5702 64.1006 74.7723 56.9777 81.9744 53.2899 91.7651 53.0374 104.144 53.2899 116.524 56.9777 126.314 64.1006 133.516 71.2235 140.718 80.266 144.397 91.2282 144.553 102.19 144.397 111.233 140.718 118.356 133.516 125.478 126.314 129.166 116.524 129.419 104.144 129.166 91.7651 125.478 81.9744 118.356 74.7723 111.233 67.5702 102.19 63.8913 91.2282 63.7355ZM396.561 40.9348 434.915 40.9348 434.915 69.4168 459.963 69.4168 459.963 98.0755 434.915 98.0755 434.915 134.454C434.966 138.513 436.026 141.612 438.097 143.751 440.167 145.89 442.945 146.968 446.429 146.985 448.571 146.981 450.65 146.686 452.666 146.101 454.682 145.515 456.508 144.665 458.145 143.549L467.639 170.397C464.243 172.512 460.228 174.084 455.595 175.115 450.962 176.145 446.088 176.658 440.975 176.654 426.847 176.666 415.937 173.209 408.244 166.283 400.552 159.356 396.657 148.881 396.561 134.858L396.561 98.0755 380.603 98.0755 380.603 69.4168 396.561 69.4168ZM91.2282 30.6328C106.445 30.7546 119.94 33.9647 131.711 40.2631 143.482 46.5614 152.739 55.2168 159.481 66.2293 166.224 77.2417 169.661 89.8801 169.793 104.144 169.596 120.388 165.196 134.472 156.595 146.397 147.994 158.321 136.375 167.001 121.74 172.435 124.527 175.424 127.238 177.528 129.871 178.749 132.505 179.97 135.315 180.559 138.301 180.517 142.158 180.508 145.901 179.667 149.53 177.991 153.16 176.316 156.55 173.858 159.7 170.617L177.065 191.213C172.273 196.986 166.51 201.384 159.776 204.407 153.042 207.43 145.615 208.952 137.494 208.974 129.919 209.028 122.916 208.044 116.484 206.021 110.053 203.997 103.587 200.606 97.0878 195.846 90.5882 191.087 83.4486 184.63 75.669 176.476 56.7833 173.058 41.6365 164.892 30.2283 151.978 18.8202 139.064 12.965 123.12 12.6626 104.144 12.7945 89.8801 16.2318 77.2417 22.9745 66.2293 29.7172 55.2168 38.9742 46.5614 50.7454 40.2631 62.5166 33.9647 76.0108 30.7546 91.2282 30.6328ZM348.294 12.4528C355.453 12.5579 361.123 14.4169 365.303 18.0297 369.484 21.6425 371.621 26.3781 371.713 32.2367 371.621 38.4106 369.484 43.4238 365.303 47.2763 361.123 51.1287 355.453 53.1138 348.294 53.2315 341.135 53.1012 335.466 51.1413 331.285 47.352 327.104 43.5626 324.967 38.7261 324.875 32.8423 324.967 26.9585 327.104 22.1219 331.285 18.3325 335.466 14.5431 341.135 12.5832 348.294 12.4528Z"/></g></g><path fill="#215F9A" fill-rule="evenodd" stroke="#000" stroke-linejoin="round" stroke-miterlimit="10" stroke-width="3" d="M2286.3 1329.56 2324.66 1329.56 2324.66 1439.02 2286.3 1439.02ZM2145.9 1329.56 2184.25 1329.56 2184.25 1384.51C2184.29 1392.91 2185.88 1398.97 2189.03 1402.69 2192.17 1406.4 2196.65 1408.22 2202.44 1408.14 2208.26 1408.21 2213.11 1406.2 2217 1402.11 2220.89 1398.01 2222.91 1391.4 2223.06 1382.28L2223.06 1329.56 2261.42 1329.56 2261.42 1439.02 2224.88 1439.02 2224.88 1427.32C2220.68 1431.85 2215.79 1435.24 2210.2 1437.48 2204.61 1439.72 2198.66 1440.84 2192.34 1440.84 2178.65 1440.92 2167.55 1436.92 2159.05 1428.83 2150.54 1420.74 2146.15 1408.05 2145.9 1390.77ZM2048.41 1327.92C2037.45 1328.08 2028.41 1331.76 2021.29 1338.96 2014.16 1346.16 2010.48 1355.95 2010.22 1368.33 2010.48 1380.71 2014.16 1390.5 2021.29 1397.7 2028.41 1404.9 2037.45 1408.58 2048.41 1408.74 2059.38 1408.58 2068.42 1404.9 2075.54 1397.7 2082.66 1390.5 2086.35 1380.71 2086.6 1368.33 2086.35 1355.95 2082.66 1346.16 2075.54 1338.96 2068.42 1331.76 2059.38 1328.08 2048.41 1327.92ZM2353.75 1305.12 2392.1 1305.12 2392.1 1333.6 2417.15 1333.6 2417.15 1362.26 2392.1 1362.26 2392.1 1398.64C2392.15 1402.7 2393.21 1405.8 2395.28 1407.94 2397.35 1410.08 2400.13 1411.15 2403.61 1411.17 2405.76 1411.17 2407.84 1410.87 2409.85 1410.29 2411.87 1409.7 2413.69 1408.85 2415.33 1407.73L2424.82 1434.58C2421.43 1436.7 2417.41 1438.27 2412.78 1439.3 2408.15 1440.33 2403.27 1440.84 2398.16 1440.84 2384.03 1440.85 2373.12 1437.39 2365.43 1430.47 2357.74 1423.54 2353.84 1413.07 2353.75 1399.04L2353.75 1362.26 2337.79 1362.26 2337.79 1333.6 2353.75 1333.6ZM2048.41 1294.82C2063.63 1294.94 2077.12 1298.15 2088.9 1304.45 2100.67 1310.75 2109.92 1319.4 2116.67 1330.41 2123.41 1341.43 2126.85 1354.07 2126.98 1368.33 2126.78 1384.57 2122.38 1398.66 2113.78 1410.58 2105.18 1422.51 2093.56 1431.19 2078.93 1436.62 2081.71 1439.61 2084.42 1441.71 2087.06 1442.93 2089.69 1444.16 2092.5 1444.74 2095.49 1444.7 2099.34 1444.69 2103.09 1443.85 2106.72 1442.18 2110.35 1440.5 2113.74 1438.04 2116.89 1434.8L2134.25 1455.4C2129.46 1461.17 2123.7 1465.57 2116.96 1468.59 2110.23 1471.62 2102.8 1473.14 2094.68 1473.16 2087.1 1473.21 2080.1 1472.23 2073.67 1470.21 2067.24 1468.18 2060.77 1464.79 2054.27 1460.03 2047.77 1455.27 2040.63 1448.82 2032.85 1440.66 2013.97 1437.24 1998.82 1429.08 1987.41 1416.16 1976.01 1403.25 1970.15 1387.31 1969.85 1368.33 1969.98 1354.07 1973.42 1341.43 1980.16 1330.41 1986.9 1319.4 1996.16 1310.75 2007.93 1304.45 2019.7 1298.15 2033.2 1294.94 2048.41 1294.82ZM2305.48 1276.64C2312.64 1276.74 2318.31 1278.6 2322.49 1282.22 2326.67 1285.83 2328.81 1290.56 2328.9 1296.42 2328.81 1302.6 2326.67 1307.61 2322.49 1311.46 2318.31 1315.31 2312.64 1317.3 2305.48 1317.42 2298.32 1317.29 2292.65 1315.33 2288.47 1311.54 2284.29 1307.75 2282.15 1302.91 2282.06 1297.03 2282.15 1291.14 2284.29 1286.31 2288.47 1282.52 2292.65 1278.73 2298.32 1276.77 2305.48 1276.64Z"/><text x="1969.85" y="1448.6" fill="#000" fill-opacity="0" font-family="Arial,Arial_MSFontService,sans-serif" font-size="196.523">Quit</text></g></svg>