<svg width="1782" height="446" xmlns="http://www.w3.org/2000/svg" xmlns:xlink="http://www.w3.org/1999/xlink" xml:space="preserve" overflow="hidden"><defs><filter id="fx0" x="-10%" y="-10%" width="120%" height="120%" filterUnits="userSpaceOnUse" primitiveUnits="userSpaceOnUse"><feComponentTransfer color-interpolation-filters="sRGB"><feFuncR type="discrete" tableValues="0 0"/><feFuncG type="discrete" tableValues="0 0"/><feFuncB type="discrete" tableValues="0 0"/><feFuncA type="linear" slope="0.431373" intercept="0"/></feComponentTransfer><feGaussianBlur stdDeviation="3.21244 3.21244"/></filter><filter id="fx1" x="-10%" y="-10%" width="120%" height="120%" filterUnits="userSpaceOnUse" primitiveUnits="userSpaceOnUse"><feComponentTransfer color-interpolation-filters="sRGB"><feFuncR type="discrete" tableValues="0 0"/><feFuncG type="discrete" tableValues="0 0"/><feFuncB type="discrete" tableValues="0 0"/><feFuncA type="linear" slope="0.431373" intercept="0"/></feComponentTransfer><feGaussianBlur stdDeviation="3.21244 3.21244"/></filter><clipPath id="clip2"><rect x="-531" y="1156" width="1782" height="446"/></clipPath></defs><g clip-path="url(#clip2)" transform="translate(531 -1156)"><path d="M1744.88 74.25C1744.88 49.5 1732.5 37.125 1707.75 37.125L74.25 37.125C49.5 37.125 37.125 49.5 37.125 74.25L37.125 371.25C37.125 396 49.5 408.375 74.25 408.375L1707.75 408.375C1732.5 408.375 1744.88 396 1744.88 371.25L1744.88 74.25M1782 371.25C1782 420.75 1757.25 445.5 1707.75 445.5L74.25 445.5C24.75 445.5 0 420.75 0 371.25L0 74.25C0 24.75 24.75 0 74.25 0L1707.75 0C1757.25 0 1782 24.75 1782 74.25L1782 371.25" fill="#CD0B2A" transform="matrix(1 0 0 1.00112 -531 1156)"/><path d="M1744.88 74.25 1744.88 371.25C1744.88 396 1732.5 408.375 1707.75 408.375L74.25 408.375C49.5 408.375 37.125 396 37.125 371.25L37.125 74.25C37.125 49.5 49.5 37.125 74.25 37.125L1707.75 37.125C1732.5 37.125 1744.88 49.5 1744.88 74.25M74.25 222.75 74.25 371.25 1707.75 371.25 1707.75 222.75 1707.75 74.25 74.25 74.25 74.25 222.75" fill="#FF627B" transform="matrix(1 0 0 1.00112 -531 1156)"/><path d="M74.25 222.75 1707.75 222.75 1707.75 371.25 74.25 371.25 74.25 222.75" fill="#EE2747" transform="matrix(1 0 0 1.00112 -531 1156)"/><path d="M74.25 222.75 74.25 74.25 1707.75 74.25 1707.75 222.75 74.25 222.75" fill="#F73F5D" transform="matrix(1 0 0 1.00112 -531 1156)"/><g filter="url(#fx0)" transform="translate(134 1277)"><g><path d="M328.67 65.9105 367.025 65.9105 367.025 175.369 328.67 175.369ZM188.266 65.9105 226.621 65.9105 226.621 120.854C226.658 129.263 228.25 135.323 231.396 139.034 234.542 142.746 239.014 144.564 244.812 144.488 250.624 144.56 255.475 142.548 259.366 138.454 263.257 134.359 265.278 127.752 265.43 118.632L265.43 65.9105 303.785 65.9105 303.785 175.369 267.247 175.369 267.247 163.664C263.049 168.201 258.157 171.59 252.569 173.832 246.981 176.073 241.027 177.191 234.706 177.187 221.02 177.272 209.923 173.268 201.414 165.176 192.905 157.084 188.522 144.397 188.266 127.116ZM90.7814 64.2692C79.8192 64.425 70.7767 68.1039 63.6538 75.306 56.5309 82.5081 52.8432 92.2988 52.5906 104.678 52.8432 117.058 56.5309 126.848 63.6538 134.05 70.7767 141.252 79.8192 144.931 90.7814 145.087 101.744 144.931 110.786 141.252 117.909 134.05 125.032 126.848 128.719 117.058 128.972 104.678 128.719 92.2988 125.032 82.5081 117.909 75.306 110.786 68.1039 101.744 64.425 90.7814 64.2692ZM90.7814 31.1665C105.999 31.2883 119.493 34.4984 131.264 40.7968 143.035 47.0951 152.292 55.7505 159.035 66.763 165.777 77.7754 169.215 90.4138 169.347 104.678 169.149 120.922 164.75 135.006 156.148 146.93 147.547 158.855 135.929 167.535 121.294 172.969 124.08 175.957 126.791 178.062 129.425 179.283 132.058 180.503 134.868 181.093 137.854 181.05 141.711 181.042 145.454 180.2 149.083 178.525 152.713 176.85 156.103 174.391 159.253 171.15L176.619 191.747C171.826 197.52 166.063 201.918 159.329 204.941 152.595 207.964 145.168 209.486 137.047 209.507 129.472 209.562 122.469 208.578 116.037 206.554 109.606 204.531 103.141 201.14 96.6411 196.38 90.1415 191.62 83.0018 185.164 75.2222 177.01 56.3366 173.592 41.1897 165.426 29.7816 152.512 18.3734 139.598 12.5182 123.653 12.2158 104.678 12.3477 90.4138 15.785 77.7754 22.5277 66.763 29.2704 55.7505 38.5274 47.0951 50.2986 40.7968 62.0698 34.4984 75.5641 31.2883 90.7814 31.1665ZM347.847 12.9865C355.006 13.0916 360.676 14.9506 364.857 18.5634 369.037 22.1761 371.174 26.9118 371.267 32.7704 371.174 38.9443 369.037 43.9575 364.857 47.8099 360.676 51.6624 355.006 53.6475 347.847 53.7652 340.689 53.6348 335.019 51.675 330.838 47.8856 326.657 44.0963 324.52 39.2598 324.428 33.376 324.52 27.4922 326.657 22.6556 330.838 18.8662 335.019 15.0768 340.689 13.1169 347.847 12.9865Z" stroke="#000000" stroke-width="3" stroke-linejoin="round" stroke-miterlimit="10" fill="#FFFFFF" fill-rule="evenodd"/></g></g><path d="M455.855 1336.1 494.21 1336.1 494.21 1445.55 455.855 1445.55ZM315.451 1336.1 353.806 1336.1 353.806 1391.04C353.844 1399.45 355.436 1405.51 358.581 1409.22 361.727 1412.93 366.199 1414.75 371.998 1414.67 377.809 1414.75 382.66 1412.73 386.551 1408.64 390.442 1404.54 392.464 1397.94 392.615 1388.82L392.615 1336.1 430.97 1336.1 430.97 1445.55 394.432 1445.55 394.432 1433.85C390.235 1438.39 385.342 1441.78 379.754 1444.02 374.167 1446.26 368.212 1447.38 361.891 1447.37 348.205 1447.46 337.108 1443.45 328.599 1435.36 320.09 1427.27 315.708 1414.58 315.451 1397.3ZM217.967 1334.45C207.005 1334.61 197.962 1338.29 190.839 1345.49 183.716 1352.69 180.029 1362.48 179.776 1374.86 180.029 1387.24 183.716 1397.03 190.839 1404.24 197.962 1411.44 207.005 1415.12 217.967 1415.27 228.929 1415.12 237.971 1411.44 245.094 1404.24 252.217 1397.03 255.905 1387.24 256.157 1374.86 255.905 1362.48 252.217 1352.69 245.094 1345.49 237.971 1338.29 228.929 1334.61 217.967 1334.45ZM217.967 1301.35C233.184 1301.47 246.678 1304.68 258.449 1310.98 270.22 1317.28 279.477 1325.94 286.22 1336.95 292.963 1347.96 296.4 1360.6 296.532 1374.86 296.334 1391.11 291.935 1405.19 283.334 1417.12 274.732 1429.04 263.114 1437.72 248.479 1443.15 251.266 1446.14 253.976 1448.25 256.61 1449.47 259.244 1450.69 262.054 1451.28 265.04 1451.24 268.896 1451.23 272.639 1450.39 276.269 1448.71 279.898 1447.03 283.288 1444.58 286.438 1441.34L303.804 1461.93C299.011 1467.71 293.248 1472.1 286.515 1475.13 279.781 1478.15 272.353 1479.67 264.232 1479.69 256.657 1479.75 249.654 1478.76 243.223 1476.74 236.792 1474.72 230.326 1471.32 223.826 1466.57 217.327 1461.81 210.187 1455.35 202.408 1447.19 183.522 1443.78 168.375 1435.61 156.967 1422.7 145.559 1409.78 139.704 1393.84 139.401 1374.86 139.533 1360.6 142.97 1347.96 149.713 1336.95 156.456 1325.94 165.713 1317.28 177.484 1310.98 189.255 1304.68 202.749 1301.47 217.967 1301.35ZM475.033 1283.17C482.191 1283.28 487.861 1285.14 492.042 1288.75 496.223 1292.36 498.359 1297.1 498.452 1302.96 498.359 1309.13 496.223 1314.14 492.042 1318 487.861 1321.85 482.191 1323.83 475.033 1323.95 467.874 1323.82 462.204 1321.86 458.023 1318.07 453.842 1314.28 451.706 1309.45 451.613 1303.56 451.706 1297.68 453.842 1292.84 458.023 1289.05 462.204 1285.26 467.874 1283.3 475.033 1283.17Z" stroke="#000000" stroke-width="3" stroke-linejoin="round" stroke-miterlimit="10" fill="#FFFFFF" fill-rule="evenodd"/><text fill="#000000" fill-opacity="0" font-family="Arial,Arial_MSFontService,sans-serif" font-size="196.523" x="139.401" y="1455.13">Qui</text><g filter="url(#fx1)" transform="translate(501 1306)"><g><path d="M28.6555 12.4685 67.0102 12.4685 67.0102 40.9505 92.0582 40.9505 92.0582 69.6092 67.0102 69.6092 67.0102 105.988C67.0607 110.047 68.1212 113.146 70.1917 115.285 72.2622 117.424 75.0397 118.502 78.5242 118.518 80.6662 118.514 82.7452 118.22 84.7609 117.634 86.7767 117.049 88.6032 116.198 90.2402 115.083L99.7342 141.931C96.3381 144.046 92.3233 145.618 87.6899 146.648 83.0566 147.678 78.1833 148.191 73.0702 148.187 58.9418 148.2 48.0314 144.743 40.339 137.816 32.6466 130.889 28.7521 120.415 28.6555 106.392L28.6555 69.6092 12.6975 69.6092 12.6975 40.9505 28.6555 40.9505Z" stroke="#000000" stroke-width="3" stroke-linejoin="round" stroke-miterlimit="10" fill="#FFFFFF" fill-rule="evenodd"/></g></g><path d="M522.841 1311.65 561.196 1311.65 561.196 1340.14 586.244 1340.14 586.244 1368.79 561.196 1368.79 561.196 1405.17C561.246 1409.23 562.307 1412.33 564.377 1414.47 566.448 1416.61 569.225 1417.69 572.71 1417.7 574.852 1417.7 576.931 1417.4 578.946 1416.82 580.962 1416.23 582.789 1415.38 584.426 1414.27L593.92 1441.12C590.523 1443.23 586.509 1444.8 581.875 1445.83 577.242 1446.86 572.369 1447.38 567.256 1447.37 553.127 1447.39 542.217 1443.93 534.524 1437 526.832 1430.07 522.938 1419.6 522.841 1405.58L522.841 1368.79 506.883 1368.79 506.883 1340.14 522.841 1340.14Z" stroke="#000000" stroke-width="3" stroke-linejoin="round" stroke-miterlimit="10" fill="#FFFFFF" fill-rule="evenodd"/><text fill="#000000" fill-opacity="0" font-family="Arial,Arial_MSFontService,sans-serif" font-size="135.719" x="506.883" y="1430.41">t</text></g></svg>