<svg xmlns="http://www.w3.org/2000/svg" xmlns:xlink="http://www.w3.org/1999/xlink" width="1783" height="478" overflow="hidden" xml:space="preserve"><defs><filter id="fx0" width="120%" height="120%" x="-10%" y="-10%" filterUnits="userSpaceOnUse" primitiveUnits="userSpaceOnUse"><feComponentTransfer color-interpolation-filters="sRGB"><feFuncR tableValues="0 0" type="discrete"/><feFuncG tableValues="0 0" type="discrete"/><feFuncB tableValues="0 0" type="discrete"/><feFuncA intercept="0" slope=".431" type="linear"/></feComponentTransfer><feGaussianBlur stdDeviation="3.21244 3.21244"/></filter><clipPath id="clip1"><rect width="1783" height="478" x="5727" y="139"/></clipPath><clipPath id="clip2"><rect width="1783" height="446" x="5727" y="138"/></clipPath><clipPath id="clip3"><rect width="1784" height="447" x="5726" y="138"/></clipPath><clipPath id="clip4"><rect width="1784" height="447" x="5726" y="138"/></clipPath><clipPath id="clip5"><rect width="917" height="234" x="122" y="89"/></clipPath></defs><g clip-path="url(#clip1)" transform="translate(-5727 -139)"><g clip-path="url(#clip2)"><g clip-path="url(#clip3)"><g clip-path="url(#clip4)"><path fill="#167DA8" d="M1780 370.833C1780 420.278 1755.28 445 1705.83 445L74.1667 445C24.7222 445 0 420.278 0 370.833L0 74.1667C0 24.7222 24.7222 0 74.1667 0L1705.83 0C1755.28 0 1780 24.7222 1780 74.1667L1780 370.833M1742.92 74.1667C1742.92 49.4445 1730.56 37.0833 1705.83 37.0833L74.1667 37.0833C49.4445 37.0833 37.0833 49.4445 37.0833 74.1667L37.0833 370.833C37.0833 395.556 49.4445 407.917 74.1667 407.917L1705.83 407.917C1730.56 407.917 1742.92 395.556 1742.92 370.833L1742.92 74.1667" transform="matrix(1.00169 0 0 1 5727 139)"/><path fill="#36BDF7" d="M1742.92 74.1667 1742.92 370.833C1742.92 395.556 1730.56 407.917 1705.83 407.917L74.1667 407.917C49.4445 407.917 37.0833 395.556 37.0833 370.833L37.0833 74.1667C37.0833 49.4445 49.4445 37.0833 74.1667 37.0833L1705.83 37.0833C1730.56 37.0833 1742.92 49.4445 1742.92 74.1667M1705.83 222.5 1705.83 74.1667 74.1667 74.1667 74.1667 222.5 74.1667 370.833 1705.83 370.833 1705.83 222.5" transform="matrix(1.00169 0 0 1 5727 139)"/><path fill="#1C9FD7" d="M1705.83 222.5 1705.83 370.833 74.1667 370.833 74.1667 222.5 1705.83 222.5" transform="matrix(1.00169 0 0 1 5727 139)"/><path fill="#2AADE5" d="M1705.83 222.5 74.1667 222.5 74.1667 74.1667 1705.83 74.1667 1705.83 222.5" transform="matrix(1.00169 0 0 1 5727 139)"/></g></g></g><g clip-path="url(#clip5)" filter="url(#fx0)" transform="translate(6045 172)"><g><path d="M63.832 2.828C105.848 2.828 126.452-18.18 126.452-42.824 126.452-94.94 46.258-78.78 46.258-100.394 46.258-107.464 52.318-113.12 69.084-113.12 81.406-113.12 94.738-109.484 108.272-102.212L120.594-131.906C106.656-139.986 87.668-144.228 69.286-144.228 27.27-144.228 6.666-123.624 6.666-98.374 6.666-45.854 87.062-62.216 87.062-39.794 87.062-32.926 80.598-28.28 64.034-28.28 47.672-28.28 29.896-33.936 17.372-42.218L4.242-12.726C17.574-3.434 40.602 2.828 63.832 2.828ZM254.855-54.54C254.855-90.698 228.595-111.302 196.275-111.302 161.733-111.302 136.079-87.87 136.079-54.944 136.079-22.22 161.329 1.818 200.315 1.818 221.121 1.818 236.473-4.242 246.977-15.958L226.777-36.966C219.303-30.502 212.233-27.472 201.527-27.472 187.387-27.472 177.893-33.936 174.661-45.046L254.249-45.046C254.451-48.076 254.855-51.712 254.855-54.54ZM196.477-84.032C208.395-84.032 216.879-76.76 218.899-65.246L174.055-65.246C176.277-76.76 184.559-84.032 196.477-84.032ZM338.48-31.31C335.248-29.088 331.006-27.876 326.764-27.876 319.896-27.876 315.25-32.32 315.25-40.4L315.25-76.76 340.298-76.76 340.298-105.444 315.25-105.444 315.25-133.926 276.87-133.926 276.87-105.444 260.912-105.444 260.912-76.76 276.87-76.76 276.87-39.996C276.87-11.918 293.232 1.818 321.31 1.818 331.41 1.818 341.308-0.202 347.974-4.444ZM428.428-31.31C425.196-29.088 420.954-27.876 416.712-27.876 409.844-27.876 405.198-32.32 405.198-40.4L405.198-76.76 430.246-76.76 430.246-105.444 405.198-105.444 405.198-133.926 366.818-133.926 366.818-105.444 350.86-105.444 350.86-76.76 366.818-76.76 366.818-39.996C366.818-11.918 383.18 1.818 411.258 1.818 421.358 1.818 431.256-0.202 437.922-4.444ZM471.512-121.604C485.652-121.604 494.944-130.492 494.944-142.612 494.944-154.126 485.652-162.408 471.512-162.408 457.372-162.408 448.08-153.52 448.08-142.006 448.08-130.492 457.372-121.604 471.512-121.604ZM452.322 0 490.702 0 490.702-109.484 452.322-109.484ZM586.649-111.302C572.913-111.302 560.591-106.656 551.905-97.566L551.905-109.484 515.343-109.484 515.343 0 553.723 0 553.723-52.924C553.723-71.104 563.217-78.78 575.539-78.78 586.649-78.78 593.517-72.114 593.517-56.358L593.517 0 631.897 0 631.897-62.62C631.897-96.556 612.303-111.302 586.649-111.302ZM736.911-109.484 736.911-96.152C729.437-106.454 717.721-111.302 702.571-111.302 673.483-111.302 648.839-90.698 648.839-58.58 648.839-26.26 673.483-5.656 702.571-5.656 716.509-5.656 727.619-9.898 735.093-18.584L735.093-14.948C735.093 2.222 726.407 11.514 705.803 11.514 692.875 11.514 677.927 7.07 668.837-0.202L654.899 26.664C668.231 36.158 688.229 41.006 709.237 41.006 750.041 41.006 773.473 21.412 773.473-19.998L773.473-109.484ZM711.661-36.158C697.925-36.158 687.623-45.248 687.623-58.58 687.623-71.912 697.925-80.8 711.661-80.8 725.397-80.8 735.497-71.912 735.497-58.58 735.497-45.248 725.397-36.158 711.661-36.158ZM837.585 1.818C873.137 1.818 891.721-13.938 891.721-34.138 891.721-77.568 827.283-61.206 827.283-76.356 827.283-80.396 831.929-84.032 844.857-84.032 854.553-84.032 865.461-82.012 876.369-75.952L887.883-102.01C876.975-108.07 860.007-111.302 844.655-111.302 810.315-111.302 791.327-95.546 791.327-74.942 791.327-31.108 855.967-47.874 855.967-33.128 855.967-28.482 851.725-25.654 838.797-25.654 825.465-25.654 810.719-29.492 800.619-35.754L789.105-9.494C799.811-2.828 819.001 1.818 837.585 1.818Z" transform="matrix(1 0 0 1 132.348 267)"/></g></g><text font-family="Montserrat ExtraBold,Montserrat ExtraBold_MSFontService,sans-serif" font-size="202" font-weight="800" transform="matrix(1 0 0 1 6170.53 432)">Settings</text></g></svg>