<svg width="1782" height="446" xmlns="http://www.w3.org/2000/svg" xmlns:xlink="http://www.w3.org/1999/xlink" xml:space="preserve" overflow="hidden"><defs><filter id="fx0" x="-10%" y="-10%" width="120%" height="120%" filterUnits="userSpaceOnUse" primitiveUnits="userSpaceOnUse"><feComponentTransfer color-interpolation-filters="sRGB"><feFuncR type="discrete" tableValues="0 0"/><feFuncG type="discrete" tableValues="0 0"/><feFuncB type="discrete" tableValues="0 0"/><feFuncA type="linear" slope="0.431373" intercept="0"/></feComponentTransfer><feGaussianBlur stdDeviation="3.21244 3.21244"/></filter><clipPath id="clip1"><rect x="-531" y="638" width="1782" height="446"/></clipPath></defs><g clip-path="url(#clip1)" transform="translate(531 -638)"><path d="M1782 371.25C1782 420.75 1757.25 445.5 1707.75 445.5L74.25 445.5C24.75 445.5 0 420.75 0 371.25L0 74.25C0 24.75 24.75 0 74.25 0L1707.75 0C1757.25 0 1782 24.75 1782 74.25L1782 371.25M1744.88 74.25C1744.88 49.5 1732.5 37.125 1707.75 37.125L74.25 37.125C49.5 37.125 37.125 49.5 37.125 74.25L37.125 371.25C37.125 396 49.5 408.375 74.25 408.375L1707.75 408.375C1732.5 408.375 1744.88 396 1744.88 371.25L1744.88 74.25" fill="#167DA8" transform="matrix(1 0 0 1.00112 -531 638)"/><path d="M1744.88 74.25 1744.88 371.25C1744.88 396 1732.5 408.375 1707.75 408.375L74.25 408.375C49.5 408.375 37.125 396 37.125 371.25L37.125 74.25C37.125 49.5 49.5 37.125 74.25 37.125L1707.75 37.125C1732.5 37.125 1744.88 49.5 1744.88 74.25M1707.75 222.75 1707.75 74.25 74.25 74.25 74.25 222.75 74.25 371.25 1707.75 371.25 1707.75 222.75" fill="#36BDF7" transform="matrix(1 0 0 1.00112 -531 638)"/><path d="M1707.75 222.75 1707.75 371.25 74.25 371.25 74.25 222.75 1707.75 222.75" fill="#1C9FD7" transform="matrix(1 0 0 1.00112 -531 638)"/><path d="M1707.75 222.75 74.25 222.75 74.25 74.25 1707.75 74.25 1707.75 222.75" fill="#2AADE5" transform="matrix(1 0 0 1.00112 -531 638)"/><g filter="url(#fx0)" transform="translate(-89 763)"><g><path d="M719.038 94.2622C712.023 94.3549 706.297 96.3928 701.859 100.376 697.421 104.36 695.131 109.732 694.987 116.495 695.131 123.266 697.421 128.672 701.859 132.714 706.297 136.757 712.023 138.828 719.038 138.929 726.044 138.828 731.737 136.757 736.116 132.714 740.495 128.672 742.752 123.266 742.886 116.495 742.752 109.732 740.495 104.36 736.116 100.376 731.737 96.3928 726.044 94.3549 719.038 94.2622ZM204.614 91.0302C198.606 91.0934 193.658 92.7875 189.77 96.1123 185.882 99.4371 183.358 104.014 182.197 109.841L227.031 109.841C225.958 104.014 223.459 99.4371 219.533 96.1123 215.608 92.7875 210.635 91.0934 204.614 91.0302ZM460.097 65.6035 498.451 65.6035 498.451 175.062 460.097 175.062ZM851.951 63.7855C859.79 63.7939 867.55 64.5843 875.231 66.1568 882.911 67.7293 889.557 70.0333 895.166 73.0689L883.66 99.0842C878.185 96.1059 872.784 94.0085 867.458 92.792 862.132 91.5755 857.03 90.9883 852.153 91.0302 845.759 91.0973 841.21 91.8692 838.506 93.3457 835.802 94.8223 834.488 96.6009 834.563 98.6815 834.899 102.225 838.255 104.516 844.632 105.553 851.009 106.59 858.392 107.799 866.782 109.18 875.173 110.562 882.556 113.541 888.933 118.118 895.31 122.696 898.666 130.296 899.001 140.921 898.968 151.264 894.392 159.785 885.272 166.482 876.151 173.18 862.686 176.646 844.875 176.88 835.392 176.826 826.329 175.774 817.685 173.727 809.041 171.679 801.95 168.963 796.411 165.579L807.918 139.299C813.09 142.47 819.046 144.945 825.785 146.723 832.524 148.5 839.291 149.404 846.088 149.433 852.465 149.412 856.946 148.745 859.532 147.432 862.119 146.119 863.365 144.286 863.273 141.934 862.936 138.479 859.569 136.277 853.173 135.329 846.776 134.381 839.369 133.245 830.953 131.921 822.536 130.596 815.129 127.642 808.733 123.058 802.336 118.474 798.969 110.818 798.633 100.091 798.708 89.5815 803.301 80.9601 812.413 74.2267 821.525 67.4934 834.704 64.0129 851.951 63.7855ZM709.943 63.7855C717.539 63.7728 724.225 65.009 730.002 67.4941 735.779 69.9791 740.545 73.7887 744.301 78.9229L744.301 65.6035 780.837 65.6035 780.837 155.076C780.712 175.736 775.109 191.079 764.028 201.103 752.948 211.127 737.143 216.115 716.613 216.068 705.986 216.064 695.969 214.861 686.563 212.461 677.156 210.06 669.064 206.486 662.285 201.738L676.214 174.868C680.92 178.543 686.599 181.409 693.251 183.466 699.904 185.523 706.546 186.568 713.177 186.601 723.417 186.572 730.878 184.305 735.56 179.802 740.242 175.299 742.549 168.739 742.482 160.122L742.482 156.489C738.726 160.824 734.112 164.062 728.638 166.202 723.164 168.342 716.933 169.41 709.943 169.406 700.123 169.352 691.172 167.173 683.09 162.872 675.008 158.57 668.541 152.472 663.691 144.579 658.841 136.686 656.353 127.324 656.229 116.495 656.353 105.731 658.841 96.4174 663.691 88.5528 668.541 80.6881 675.008 74.608 683.09 70.3125 691.172 66.017 700.123 63.8413 709.943 63.7855ZM594.398 63.7855C607.503 63.6927 618.247 67.5619 626.629 75.393 635.012 83.2242 639.344 95.5739 639.625 112.442L639.625 175.062 601.271 175.062 601.271 118.704C601.216 110.877 599.607 105.17 596.445 101.585 593.283 97.9992 588.895 96.2317 583.281 96.2822 576.977 96.2233 571.798 98.2601 567.743 102.393 563.688 106.525 561.59 113.107 561.451 122.138L561.451 175.062 523.097 175.062 523.097 65.6035 559.635 65.6035 559.635 77.5108C564.026 72.9652 569.188 69.5422 575.121 67.2421 581.054 64.9419 587.48 63.7897 594.398 63.7855ZM204.412 63.7855C215.308 63.8164 225.156 66.0418 233.957 70.4617 242.759 74.8816 249.765 81.3106 254.976 89.7487 260.187 98.1868 262.855 108.449 262.979 120.534 262.967 121.976 262.891 123.531 262.752 125.199 262.613 126.868 262.487 128.474 262.374 130.016L182.802 130.016C184.452 135.617 187.565 139.941 192.143 142.988 196.721 146.035 202.561 147.578 209.663 147.615 214.93 147.624 219.542 146.848 223.497 145.289 227.452 143.73 231.255 141.336 234.907 138.108L255.103 159.119C249.865 164.981 243.377 169.404 235.639 172.39 227.902 175.375 218.839 176.872 208.451 176.88 188.722 176.561 173.146 171.195 161.723 160.78 150.3 150.365 144.469 136.815 144.229 120.131 144.332 109.067 146.975 99.318 152.157 90.8849 157.34 82.4518 164.441 75.8483 173.46 71.0746 182.48 66.3009 192.797 63.8712 204.412 63.7855ZM374.541 41.1615 412.895 41.1615 412.895 69.6435 437.943 69.6435 437.943 98.3022 412.895 98.3022 412.895 134.681C412.946 138.74 414.006 141.839 416.077 143.978 418.147 146.117 420.925 147.195 424.409 147.211 426.552 147.207 428.63 146.913 430.646 146.327 432.662 145.742 434.488 144.891 436.126 143.776L445.62 170.624C442.223 172.739 438.209 174.311 433.575 175.341 428.942 176.371 424.069 176.884 418.955 176.88 404.827 176.893 393.917 173.436 386.224 166.509 378.532 159.582 374.637 149.108 374.541 135.085L374.541 98.3022 358.583 98.3022 358.583 69.6435 374.541 69.6435ZM284.541 41.1615 322.895 41.1615 322.895 69.6435 347.943 69.6435 347.943 98.3022 322.895 98.3022 322.895 134.681C322.946 138.74 324.006 141.839 326.077 143.978 328.147 146.117 330.925 147.195 334.409 147.211 336.552 147.207 338.63 146.913 340.646 146.327 342.662 145.742 344.488 144.891 346.125 143.776L355.619 170.624C352.223 172.739 348.209 174.311 343.575 175.341 338.942 176.371 334.069 176.884 328.955 176.88 314.827 176.893 303.917 173.436 296.224 166.509 288.532 159.582 284.637 149.108 284.541 135.085L284.541 98.3022 268.583 98.3022 268.583 69.6435 284.541 69.6435ZM77.0499 30.8595C86.3634 30.8679 95.4709 31.9107 104.372 33.9879 113.274 36.0651 121.265 39.1263 128.347 43.1714L116.033 72.8915C109.254 69.2418 102.573 66.5044 95.9921 64.6795 89.4108 62.8547 83.0294 61.9422 76.8478 61.9422 68.5564 62.0309 62.6526 63.2729 59.1365 65.668 55.6203 68.0632 53.9106 71.0793 54.0075 74.7164 54.2213 78.9089 57.0014 82.0115 62.3477 84.0241 67.6939 86.0367 74.3233 87.8088 82.2358 89.3404 90.1482 90.872 98.0607 93.0125 105.973 95.7619 113.886 98.5113 120.515 102.719 125.861 108.385 131.208 114.051 133.988 122.025 134.201 132.306 134.207 140.611 131.908 148.194 127.307 155.055 122.705 161.915 115.769 167.409 106.499 171.537 97.229 175.665 85.5934 177.783 71.5925 177.89 59.7766 177.823 48.6082 176.393 38.0874 173.601 27.5667 170.809 18.8764 167.058 12.0167 162.349L25.1399 132.911C31.5363 137.102 38.8301 140.451 47.0211 142.956 55.2122 145.461 63.4701 146.745 71.7946 146.807 80.006 146.757 85.9181 145.7 89.5311 143.635 93.144 141.571 94.9125 138.802 94.8367 135.327 94.6224 130.995 91.8353 127.782 86.4755 125.686 81.1158 123.59 74.4698 121.752 66.5373 120.171 58.6049 118.59 50.6725 116.406 42.7401 113.619 34.8077 110.831 28.1617 106.58 22.8019 100.864 17.4422 95.1489 14.6551 87.1088 14.4407 76.744 14.4233 63.7646 19.6059 52.955 29.9884 44.3152 40.371 35.6755 56.0582 31.1902 77.0499 30.8595ZM479.274 12.6795C486.433 12.7846 492.103 14.6436 496.284 18.2564 500.464 21.8691 502.601 26.6048 502.693 32.4634 502.601 38.6373 500.464 43.6505 496.284 47.5029 492.103 51.3554 486.433 53.3405 479.274 53.4582 472.115 53.3278 466.446 51.368 462.265 47.5786 458.084 43.7893 455.947 38.9528 455.855 33.069 455.947 27.1852 458.084 22.3486 462.265 18.5592 466.446 14.7698 472.115 12.8099 479.274 12.6795Z" stroke="#000000" stroke-width="3" stroke-linejoin="round" stroke-miterlimit="10" fill="#FFFFFF" fill-rule="evenodd"/></g></g><path d="M623.223 850.448C616.209 850.54 610.482 852.578 606.044 856.562 601.607 860.545 599.316 865.918 599.173 872.68 599.316 879.451 601.607 884.858 606.044 888.9 610.482 892.942 616.209 895.014 623.223 895.115 630.23 895.014 635.922 892.942 640.301 888.9 644.68 884.858 646.937 879.451 647.072 872.68 646.937 865.918 644.68 860.545 640.301 856.562 635.922 852.578 630.23 850.54 623.223 850.448ZM108.799 847.216C102.791 847.279 97.8431 848.973 93.9554 852.298 90.0677 855.622 87.5433 860.199 86.382 866.027L131.216 866.027C130.144 860.199 127.644 855.622 123.719 852.298 119.793 848.973 114.82 847.279 108.799 847.216ZM364.282 821.789 402.637 821.789 402.637 931.248 364.282 931.248ZM756.136 819.971C763.975 819.979 771.735 820.77 779.416 822.342 787.097 823.915 793.742 826.219 799.352 829.254L787.846 855.27C782.371 852.291 776.97 850.194 771.644 848.977 766.317 847.761 761.216 847.174 756.338 847.216 749.944 847.283 745.395 848.055 742.691 849.531 739.987 851.008 738.673 852.786 738.749 854.867 739.084 858.411 742.441 860.701 748.817 861.738 755.194 862.775 762.577 863.984 770.968 865.366 779.358 866.747 786.742 869.727 793.118 874.304 799.495 878.881 802.851 886.482 803.187 897.106 803.154 907.45 798.577 915.97 789.457 922.668 780.337 929.365 766.871 932.831 749.06 933.066 739.577 933.011 730.514 931.96 721.87 929.912 713.226 927.865 706.135 925.149 700.596 921.764L712.104 895.484C717.276 898.656 723.231 901.13 729.97 902.908 736.709 904.686 743.477 905.589 750.273 905.619 756.65 905.598 761.132 904.931 763.718 903.617 766.304 902.304 767.551 900.471 767.458 898.119 767.121 894.664 763.755 892.463 757.358 891.515 750.961 890.567 743.555 889.431 735.138 888.106 726.721 886.782 719.315 883.827 712.918 879.243 706.521 874.659 703.155 867.004 702.818 856.276 702.893 845.767 707.487 837.145 716.598 830.412 725.71 823.679 738.889 820.198 756.136 819.971ZM614.129 819.971C621.724 819.958 628.411 821.194 634.187 823.679 639.964 826.164 644.73 829.974 648.486 835.108L648.486 821.789 685.023 821.789 685.023 911.261C684.897 931.922 679.294 947.264 668.214 957.288 657.133 967.312 641.328 972.301 620.798 972.254 610.171 972.249 600.155 971.047 590.748 968.646 581.342 966.245 573.249 962.671 566.47 957.924L580.399 931.054C585.105 934.729 590.784 937.595 597.437 939.651 604.089 941.708 610.731 942.753 617.362 942.787 627.602 942.757 635.063 940.49 639.745 935.987 644.427 931.484 646.735 924.924 646.667 916.307L646.667 912.674C642.912 917.009 638.297 920.247 632.823 922.387 627.35 924.528 621.118 925.596 614.129 925.592 604.309 925.537 595.357 923.359 587.275 919.057 579.193 914.755 572.727 908.658 567.876 900.764 563.026 892.871 560.539 883.51 560.414 872.68 560.539 861.917 563.026 852.603 567.876 844.738 572.727 836.873 579.193 830.793 587.275 826.498 595.357 822.202 604.309 820.027 614.129 819.971ZM498.584 819.971C511.688 819.878 522.432 823.747 530.815 831.578 539.197 839.41 543.529 851.759 543.811 868.628L543.811 931.248 505.456 931.248 505.456 874.89C505.401 867.062 503.793 861.356 500.63 857.77 497.468 854.185 493.08 852.417 487.467 852.468 481.163 852.409 475.983 854.445 471.928 858.578 467.873 862.711 465.776 869.292 465.637 878.324L465.637 931.248 427.282 931.248 427.282 821.789 463.82 821.789 463.82 833.696C468.211 829.151 473.373 825.728 479.306 823.427 485.239 821.127 491.665 819.975 498.584 819.971ZM108.597 819.971C119.493 820.002 129.341 822.227 138.143 826.647 146.944 831.067 153.95 837.496 159.161 845.934 164.372 854.372 167.04 864.634 167.165 876.719 167.152 878.161 167.076 879.716 166.938 881.385 166.799 883.053 166.672 884.659 166.559 886.202L86.9879 886.202C88.6372 891.802 91.7507 896.126 96.3284 899.173 100.906 902.22 106.746 903.763 113.848 903.801 119.116 903.809 123.727 903.034 127.682 901.474 131.637 899.915 135.441 897.521 139.093 894.293L159.288 915.305C154.05 921.166 147.562 925.59 139.825 928.575 132.087 931.56 123.025 933.057 112.636 933.066 92.9077 932.747 77.3318 927.38 65.9086 916.965 54.4854 906.551 48.654 893.001 48.4141 876.316 48.5176 865.252 51.1605 855.503 56.3428 847.07 61.5251 838.637 68.626 832.034 77.6455 827.26 86.665 822.486 96.9822 820.057 108.597 819.971ZM278.726 797.347 317.081 797.347 317.081 825.829 342.129 825.829 342.129 854.488 317.081 854.488 317.081 890.866C317.131 894.925 318.192 898.024 320.262 900.163 322.333 902.302 325.11 903.38 328.595 903.397 330.737 903.393 332.816 903.098 334.832 902.513 336.847 901.927 338.674 901.077 340.311 899.961L349.805 926.809C346.409 928.924 342.394 930.496 337.761 931.527 333.127 932.557 328.254 933.07 323.141 933.066 309.012 933.079 298.102 929.622 290.41 922.695 282.717 915.768 278.823 905.293 278.726 891.271L278.726 854.488 262.768 854.488 262.768 825.829 278.726 825.829ZM188.726 797.347 227.081 797.347 227.081 825.829 252.129 825.829 252.129 854.488 227.081 854.488 227.081 890.866C227.131 894.925 228.192 898.024 230.262 900.163 232.333 902.302 235.11 903.38 238.595 903.397 240.737 903.393 242.816 903.098 244.832 902.513 246.847 901.927 248.674 901.077 250.311 899.961L259.805 926.809C256.409 928.924 252.394 930.496 247.761 931.527 243.127 932.557 238.254 933.07 233.141 933.066 219.012 933.079 208.102 929.622 200.41 922.695 192.717 915.768 188.823 905.293 188.726 891.271L188.726 854.488 172.768 854.488 172.768 825.829 188.726 825.829ZM-18.7647 787.045C-9.45119 787.053-0.343719 788.096 8.55774 790.173 17.4592 792.25 25.4508 795.312 32.5326 799.357L20.2186 829.077C13.4391 825.427 6.75874 822.69 0.177498 820.865-6.40376 819.04-12.7852 818.128-18.9668 818.128-27.2582 818.216-33.162 819.458-36.6782 821.853-40.1943 824.249-41.904 827.265-41.8071 830.902-41.5933 835.094-38.8132 838.197-33.4669 840.209-28.1207 842.222-21.4913 843.994-13.5788 845.526-5.66637 847.057 2.24612 849.198 10.1586 851.947 18.0711 854.697 24.7004 858.904 30.0467 864.57 35.393 870.236 38.173 878.21 38.3869 888.492 38.3921 896.797 36.0938 904.379 31.4923 911.24 26.8907 918.1 19.9549 923.595 10.6846 927.723 1.41435 931.851-10.2212 933.968-24.2221 934.076-36.038 934.008-47.2064 932.579-57.7272 929.787-68.248 926.994-76.9382 923.244-83.7979 918.534L-70.6747 889.096C-64.2783 893.288-56.9846 896.636-48.7935 899.141-40.6024 901.646-32.3445 902.93-24.02 902.993-15.8086 902.942-9.89647 901.885-6.28355 899.821-2.67062 897.756-0.902061 894.987-0.977875 891.513-1.19225 887.181-3.97932 883.967-9.33906 881.871-14.6988 879.776-21.3448 877.937-29.2773 876.357-37.2097 874.776-45.1421 872.591-53.0745 869.804-61.0069 867.017-67.6529 862.765-73.0127 857.05-78.3724 851.334-81.1595 843.294-81.3739 832.929-81.3913 819.95-76.2087 809.14-65.8262 800.501-55.4436 791.861-39.7565 787.376-18.7647 787.045ZM383.46 768.865C390.618 768.97 396.288 770.829 400.469 774.442 404.65 778.055 406.786 782.79 406.879 788.649 406.786 794.823 404.65 799.836 400.469 803.688 396.288 807.541 390.618 809.526 383.46 809.644 376.301 809.513 370.631 807.553 366.45 803.764 362.269 799.975 360.133 795.138 360.04 789.254 360.133 783.371 362.269 778.534 366.45 774.745 370.631 770.955 376.301 768.995 383.46 768.865Z" stroke="#000000" stroke-width="3" stroke-linejoin="round" stroke-miterlimit="10" fill="#FFFFFF" fill-rule="evenodd"/><text fill="#000000" fill-opacity="0" font-family="Arial,Arial_MSFontService,sans-serif" font-size="203.389" x="-83.7979" y="946.83">Settings</text></g></svg>