<svg xmlns="http://www.w3.org/2000/svg" xmlns:xlink="http://www.w3.org/1999/xlink" width="1783" height="446" overflow="hidden" xml:space="preserve"><defs><filter id="fx0" width="120%" height="120%" x="-10%" y="-10%" filterUnits="userSpaceOnUse" primitiveUnits="userSpaceOnUse"><feComponentTransfer color-interpolation-filters="sRGB"><feFuncR tableValues="0 0" type="discrete"/><feFuncG tableValues="0 0" type="discrete"/><feFuncB tableValues="0 0" type="discrete"/><feFuncA intercept="0" slope=".431" type="linear"/></feComponentTransfer><feGaussianBlur stdDeviation="3.21244 3.21244"/></filter><clipPath id="clip1"><rect width="1783" height="446" x="1299" y="638"/></clipPath></defs><g clip-path="url(#clip1)" transform="translate(-1299 -638)"><path fill="#167DA8" d="M1783 371.458C1783 420.987 1758.24 445.75 1708.71 445.75L74.2917 445.75C24.7638 445.75 0 420.987 0 371.458L0 74.2917C0 24.7638 24.7638 0 74.2917 0L1708.71 0C1758.24 0 1783 24.7638 1783 74.2917L1783 371.458M1745.85 74.2917C1745.85 49.5278 1733.47 37.1458 1708.71 37.1458L74.2917 37.1458C49.5278 37.1458 37.1458 49.5278 37.1458 74.2917L37.1458 371.458C37.1458 396.222 49.5278 408.604 74.2917 408.604L1708.71 408.604C1733.47 408.604 1745.85 396.222 1745.85 371.458L1745.85 74.2917" transform="matrix(1 0 0 1.00056 1299 638)"/><path fill="#36BDF7" d="M1745.85 74.2917 1745.85 371.458C1745.85 396.222 1733.47 408.604 1708.71 408.604L74.2917 408.604C49.5278 408.604 37.1458 396.222 37.1458 371.458L37.1458 74.2917C37.1458 49.5278 49.5278 37.1458 74.2917 37.1458L1708.71 37.1458C1733.47 37.1458 1745.85 49.5278 1745.85 74.2917M1708.71 222.875 1708.71 74.2917 74.2917 74.2917 74.2917 222.875 74.2917 371.458 1708.71 371.458 1708.71 222.875" transform="matrix(1 0 0 1.00056 1299 638)"/><path fill="#1C9FD7" d="M1708.71 222.875 1708.71 371.458 74.2917 371.458 74.2917 222.875 1708.71 222.875" transform="matrix(1 0 0 1.00056 1299 638)"/><path fill="#2AADE5" d="M1708.71 222.875 74.2917 222.875 74.2917 74.2917 1708.71 74.2917 1708.71 222.875" transform="matrix(1 0 0 1.00056 1299 638)"/><g filter="url(#fx0)" transform="translate(1741 763)"><g><path fill="#215F9A" fill-rule="evenodd" stroke="#000" stroke-linejoin="round" stroke-miterlimit="10" stroke-width="3" d="M719.485 94.2622C712.47 94.3549 706.744 96.3928 702.306 100.376 697.868 104.36 695.577 109.732 695.434 116.495 695.577 123.266 697.868 128.672 702.306 132.714 706.744 136.757 712.47 138.828 719.485 138.929 726.491 138.828 732.184 136.757 736.563 132.714 740.942 128.672 743.198 123.266 743.333 116.495 743.198 109.732 740.942 104.36 736.563 100.376 732.184 96.3928 726.491 94.3549 719.485 94.2622ZM205.061 91.0302C199.052 91.0934 194.105 92.7875 190.217 96.1123 186.329 99.4371 183.805 104.014 182.643 109.841L227.478 109.841C226.405 104.014 223.906 99.4371 219.98 96.1123 216.055 92.7875 211.082 91.0934 205.061 91.0302ZM460.544 65.6035 498.898 65.6035 498.898 175.062 460.544 175.062ZM852.398 63.7855C860.237 63.7939 867.997 64.5843 875.677 66.1568 883.358 67.7293 890.004 70.0333 895.613 73.0689L884.107 99.0842C878.632 96.1059 873.231 94.0085 867.905 92.792 862.579 91.5755 857.477 90.9883 852.6 91.0302 846.206 91.0973 841.657 91.8692 838.953 93.3457 836.249 94.8223 834.934 96.6009 835.01 98.6815 835.346 102.225 838.702 104.516 845.079 105.553 851.455 106.59 858.839 107.799 867.229 109.18 875.62 110.562 883.003 113.541 889.38 118.118 895.757 122.696 899.113 130.296 899.448 140.921 899.415 151.264 894.839 159.785 885.718 166.482 876.598 173.18 863.133 176.646 845.321 176.88 835.839 176.826 826.776 175.774 818.132 173.727 809.488 171.679 802.396 168.963 796.858 165.579L808.365 139.299C813.537 142.47 819.493 144.945 826.232 146.723 832.971 148.5 839.738 149.404 846.534 149.433 852.912 149.412 857.393 148.745 859.979 147.432 862.565 146.119 863.812 144.286 863.72 141.934 863.383 138.479 860.016 136.277 853.62 135.329 847.223 134.381 839.816 133.245 831.4 131.921 822.983 130.596 815.576 127.642 809.18 123.058 802.783 118.474 799.416 110.818 799.08 100.091 799.155 89.5815 803.748 80.9601 812.86 74.2267 821.972 67.4934 835.151 64.0129 852.398 63.7855ZM710.39 63.7855C717.986 63.7728 724.672 65.009 730.449 67.4941 736.226 69.9791 740.992 73.7887 744.747 78.9229L744.747 65.6035 781.284 65.6035 781.284 155.076C781.159 175.736 775.556 191.079 764.475 201.103 753.395 211.127 737.589 216.115 717.06 216.068 706.433 216.064 696.416 214.861 687.01 212.461 677.603 210.06 669.51 206.486 662.732 201.738L676.66 174.868C681.366 178.543 687.046 181.409 693.698 183.466 700.351 185.523 706.992 186.568 713.624 186.601 723.864 186.572 731.325 184.305 736.007 179.802 740.689 175.299 742.996 168.739 742.929 160.122L742.929 156.489C739.173 160.824 734.558 164.062 729.085 166.202 723.611 168.342 717.38 169.41 710.39 169.406 700.57 169.352 691.619 167.173 683.537 162.872 675.454 158.57 668.988 152.472 664.138 144.579 659.287 136.686 656.8 127.324 656.676 116.495 656.8 105.731 659.287 96.4174 664.138 88.5528 668.988 80.6881 675.454 74.608 683.537 70.3125 691.619 66.017 700.57 63.8413 710.39 63.7855ZM594.845 63.7855C607.95 63.6927 618.693 67.5619 627.076 75.393 635.459 83.2242 639.791 95.5739 640.072 112.442L640.072 175.062 601.718 175.062 601.718 118.704C601.663 110.877 600.054 105.17 596.892 101.585 593.729 97.9992 589.342 96.2317 583.728 96.2822 577.424 96.2233 572.245 98.2601 568.19 102.393 564.134 106.525 562.037 113.107 561.898 122.138L561.898 175.062 523.544 175.062 523.544 65.6035 560.082 65.6035 560.082 77.5108C564.472 72.9652 569.635 69.5422 575.568 67.2421 581.501 64.9419 587.927 63.7897 594.845 63.7855ZM204.859 63.7855C215.754 63.8164 225.603 66.0418 234.404 70.4617 243.206 74.8816 250.212 81.3106 255.423 89.7487 260.634 98.1868 263.302 108.449 263.426 120.534 263.414 121.976 263.338 123.531 263.199 125.199 263.06 126.868 262.934 128.474 262.82 130.016L183.249 130.016C184.899 135.617 188.012 139.941 192.59 142.988 197.168 146.035 203.007 147.578 210.11 147.615 215.377 147.624 219.989 146.848 223.944 145.289 227.899 143.73 231.702 141.336 235.354 138.108L255.55 159.119C250.312 164.981 243.824 169.404 236.086 172.39 228.349 175.375 219.286 176.872 208.898 176.88 189.169 176.561 173.593 171.195 162.17 160.78 150.747 150.365 144.915 136.815 144.676 120.131 144.779 109.067 147.422 99.318 152.604 90.8849 157.787 82.4518 164.887 75.8483 173.907 71.0746 182.926 66.3009 193.244 63.8712 204.859 63.7855ZM374.988 41.1615 413.342 41.1615 413.342 69.6435 438.39 69.6435 438.39 98.3022 413.342 98.3022 413.342 134.681C413.393 138.74 414.453 141.839 416.524 143.978 418.594 146.117 421.372 147.195 424.856 147.211 426.998 147.207 429.077 146.913 431.093 146.327 433.109 145.742 434.935 144.891 436.572 143.776L446.066 170.624C442.67 172.739 438.655 174.311 434.022 175.341 429.389 176.371 424.515 176.884 419.402 176.88 405.274 176.893 394.364 173.436 386.671 166.509 378.979 159.582 375.084 149.108 374.988 135.085L374.988 98.3022 359.03 98.3022 359.03 69.6435 374.988 69.6435ZM284.988 41.1615 323.342 41.1615 323.342 69.6435 348.39 69.6435 348.39 98.3022 323.342 98.3022 323.342 134.681C323.393 138.74 324.453 141.839 326.524 143.978 328.594 146.117 331.372 147.195 334.856 147.211 336.998 147.207 339.077 146.913 341.093 146.327 343.109 145.742 344.935 144.891 346.572 143.776L356.066 170.624C352.67 172.739 348.655 174.311 344.022 175.341 339.389 176.371 334.515 176.884 329.402 176.88 315.274 176.893 304.364 173.436 296.671 166.509 288.979 159.582 285.084 149.108 284.988 135.085L284.988 98.3022 269.03 98.3022 269.03 69.6435 284.988 69.6435ZM77.4968 30.8595C86.8103 30.8679 95.9178 31.9107 104.819 33.9879 113.721 36.0651 121.712 39.1263 128.794 43.1714L116.48 72.8915C109.701 69.2418 103.02 66.5044 96.439 64.6795 89.8577 62.8547 83.4763 61.9422 77.2946 61.9422 69.0033 62.0309 63.0995 63.2729 59.5833 65.668 56.0672 68.0632 54.3575 71.0793 54.4544 74.7164 54.6682 78.9089 57.4483 82.0115 62.7945 84.0241 68.1408 86.0367 74.7702 87.8088 82.6827 89.3404 90.5951 90.872 98.5076 93.0125 106.42 95.7619 114.333 98.5113 120.962 102.719 126.308 108.385 131.654 114.051 134.435 122.025 134.648 132.306 134.654 140.611 132.355 148.194 127.754 155.055 123.152 161.915 116.216 167.409 106.946 171.537 97.6758 175.665 86.0403 177.783 72.0394 177.89 60.2234 177.823 49.0551 176.393 38.5343 173.601 28.0135 170.809 19.3233 167.058 12.4636 162.349L25.5868 132.911C31.9832 137.102 39.2769 140.451 47.468 142.956 55.6591 145.461 63.9169 146.745 72.2415 146.807 80.4529 146.757 86.365 145.7 89.9779 143.635 93.5909 141.571 95.3594 138.802 95.2836 135.327 95.0692 130.995 92.2822 127.782 86.9224 125.686 81.5627 123.59 74.9166 121.752 66.9842 120.171 59.0518 118.59 51.1194 116.406 43.187 113.619 35.2546 110.831 28.6085 106.58 23.2488 100.864 17.8891 95.1489 15.102 87.1088 14.8876 76.744 14.8702 63.7646 20.0527 52.955 30.4353 44.3152 40.8179 35.6755 56.505 31.1902 77.4968 30.8595ZM479.721 12.6795C486.88 12.7846 492.55 14.6436 496.73 18.2564 500.911 21.8691 503.048 26.6048 503.14 32.4634 503.048 38.6373 500.911 43.6505 496.73 47.5029 492.55 51.3554 486.88 53.3405 479.721 53.4582 472.562 53.3278 466.893 51.368 462.712 47.5786 458.531 43.7893 456.394 38.9528 456.302 33.069 456.394 27.1852 458.531 22.3486 462.712 18.5592 466.893 14.7698 472.562 12.8099 479.721 12.6795Z"/></g></g><path fill="#215F9A" fill-rule="evenodd" stroke="#000" stroke-linejoin="round" stroke-miterlimit="10" stroke-width="3" d="M2453.67 850.448C2446.66 850.54 2440.93 852.578 2436.49 856.562 2432.05 860.545 2429.76 865.918 2429.62 872.68 2429.76 879.451 2432.05 884.858 2436.49 888.9 2440.93 892.942 2446.66 895.014 2453.67 895.115 2460.68 895.014 2466.37 892.942 2470.75 888.9 2475.13 884.858 2477.38 879.451 2477.52 872.68 2477.38 865.918 2475.13 860.545 2470.75 856.562 2466.37 852.578 2460.68 850.54 2453.67 850.448ZM1939.25 847.216C1933.24 847.279 1928.29 848.973 1924.4 852.298 1920.51 855.622 1917.99 860.199 1916.83 866.027L1961.66 866.027C1960.59 860.199 1958.09 855.622 1954.17 852.298 1950.24 848.973 1945.27 847.279 1939.25 847.216ZM2194.73 821.789 2233.08 821.789 2233.08 931.248 2194.73 931.248ZM2586.58 819.971C2594.42 819.979 2602.18 820.77 2609.86 822.342 2617.54 823.915 2624.19 826.219 2629.8 829.254L2618.29 855.27C2612.82 852.291 2607.42 850.194 2602.09 848.977 2596.76 847.761 2591.66 847.174 2586.79 847.216 2580.39 847.283 2575.84 848.055 2573.14 849.531 2570.43 851.008 2569.12 852.786 2569.2 854.867 2569.53 858.411 2572.89 860.701 2579.26 861.738 2585.64 862.775 2593.02 863.984 2601.41 865.366 2609.8 866.747 2617.19 869.727 2623.57 874.304 2629.94 878.881 2633.3 886.482 2633.63 897.106 2633.6 907.45 2629.02 915.97 2619.9 922.668 2610.78 929.365 2597.32 932.831 2579.51 933.066 2570.02 933.011 2560.96 931.96 2552.32 929.912 2543.67 927.865 2536.58 925.149 2531.04 921.764L2542.55 895.484C2547.72 898.656 2553.68 901.13 2560.42 902.908 2567.16 904.686 2573.92 905.589 2580.72 905.619 2587.1 905.598 2591.58 904.931 2594.16 903.617 2596.75 902.304 2598 900.471 2597.9 898.119 2597.57 894.664 2594.2 892.463 2587.8 891.515 2581.41 890.567 2574 889.431 2565.58 888.106 2557.17 886.782 2549.76 883.827 2543.36 879.243 2536.97 874.659 2533.6 867.004 2533.26 856.276 2533.34 845.767 2537.93 837.145 2547.05 830.412 2556.16 823.679 2569.34 820.198 2586.58 819.971ZM2444.58 819.971C2452.17 819.958 2458.86 821.194 2464.63 823.679 2470.41 826.164 2475.18 829.974 2478.93 835.108L2478.93 821.789 2515.47 821.789 2515.47 911.261C2515.34 931.922 2509.74 947.264 2498.66 957.288 2487.58 967.312 2471.77 972.301 2451.24 972.254 2440.62 972.249 2430.6 971.047 2421.19 968.646 2411.79 966.245 2403.7 962.671 2396.92 957.924L2410.85 931.054C2415.55 934.729 2421.23 937.595 2427.88 939.651 2434.54 941.708 2441.18 942.753 2447.81 942.787 2458.05 942.757 2465.51 940.49 2470.19 935.987 2474.87 931.484 2477.18 924.924 2477.11 916.307L2477.11 912.674C2473.36 917.009 2468.74 920.247 2463.27 922.387 2457.8 924.528 2451.56 925.596 2444.58 925.592 2434.76 925.537 2425.8 923.359 2417.72 919.057 2409.64 914.755 2403.17 908.658 2398.32 900.764 2393.47 892.871 2390.99 883.51 2390.86 872.68 2390.99 861.917 2393.47 852.603 2398.32 844.738 2403.17 836.873 2409.64 830.793 2417.72 826.498 2425.8 822.202 2434.76 820.027 2444.58 819.971ZM2329.03 819.971C2342.14 819.878 2352.88 823.747 2361.26 831.578 2369.64 839.41 2373.98 851.759 2374.26 868.628L2374.26 931.248 2335.9 931.248 2335.9 874.89C2335.85 867.062 2334.24 861.356 2331.08 857.77 2327.91 854.185 2323.53 852.417 2317.91 852.468 2311.61 852.409 2306.43 854.445 2302.38 858.578 2298.32 862.711 2296.22 869.292 2296.08 878.324L2296.08 931.248 2257.73 931.248 2257.73 821.789 2294.27 821.789 2294.27 833.696C2298.66 829.151 2303.82 825.728 2309.75 823.427 2315.69 821.127 2322.11 819.975 2329.03 819.971ZM1939.04 819.971C1949.94 820.002 1959.79 822.227 1968.59 826.647 1977.39 831.067 1984.4 837.496 1989.61 845.934 1994.82 854.372 1997.49 864.634 1997.61 876.719 1997.6 878.161 1997.52 879.716 1997.38 881.385 1997.25 883.053 1997.12 884.659 1997.01 886.202L1917.43 886.202C1919.08 891.802 1922.2 896.126 1926.78 899.173 1931.35 902.22 1937.19 903.763 1944.29 903.801 1949.56 903.809 1954.17 903.034 1958.13 901.474 1962.08 899.915 1965.89 897.521 1969.54 894.293L1989.74 915.305C1984.5 921.166 1978.01 925.59 1970.27 928.575 1962.53 931.56 1953.47 933.057 1943.08 933.066 1923.35 932.747 1907.78 927.38 1896.36 916.965 1884.93 906.551 1879.1 893.001 1878.86 876.316 1878.96 865.252 1881.61 855.503 1886.79 847.07 1891.97 838.637 1899.07 832.034 1908.09 827.26 1917.11 822.486 1927.43 820.057 1939.04 819.971ZM2109.17 797.347 2147.53 797.347 2147.53 825.829 2172.58 825.829 2172.58 854.488 2147.53 854.488 2147.53 890.866C2147.58 894.925 2148.64 898.024 2150.71 900.163 2152.78 902.302 2155.56 903.38 2159.04 903.397 2161.18 903.393 2163.26 903.098 2165.28 902.513 2167.29 901.927 2169.12 901.077 2170.76 899.961L2180.25 926.809C2176.86 928.924 2172.84 930.496 2168.21 931.527 2163.57 932.557 2158.7 933.07 2153.59 933.066 2139.46 933.079 2128.55 929.622 2120.86 922.695 2113.16 915.768 2109.27 905.293 2109.17 891.271L2109.17 854.488 2093.21 854.488 2093.21 825.829 2109.17 825.829ZM2019.17 797.347 2057.53 797.347 2057.53 825.829 2082.58 825.829 2082.58 854.488 2057.53 854.488 2057.53 890.866C2057.58 894.925 2058.64 898.024 2060.71 900.163 2062.78 902.302 2065.56 903.38 2069.04 903.397 2071.18 903.393 2073.26 903.098 2075.28 902.513 2077.29 901.927 2079.12 901.077 2080.76 899.961L2090.25 926.809C2086.86 928.924 2082.84 930.496 2078.21 931.527 2073.57 932.557 2068.7 933.07 2063.59 933.066 2049.46 933.079 2038.55 929.622 2030.86 922.695 2023.16 915.768 2019.27 905.293 2019.17 891.271L2019.17 854.488 2003.21 854.488 2003.21 825.829 2019.17 825.829ZM1811.68 787.045C1821 787.053 1830.1 788.096 1839 790.173 1847.91 792.25 1855.9 795.312 1862.98 799.357L1850.67 829.077C1843.89 825.427 1837.21 822.69 1830.62 820.865 1824.04 819.04 1817.66 818.128 1811.48 818.128 1803.19 818.216 1797.28 819.458 1793.77 821.853 1790.25 824.249 1788.54 827.265 1788.64 830.902 1788.85 835.094 1791.63 838.197 1796.98 840.209 1802.33 842.222 1808.96 843.994 1816.87 845.526 1824.78 847.057 1832.69 849.198 1840.61 851.947 1848.52 854.697 1855.15 858.904 1860.49 864.57 1865.84 870.236 1868.62 878.21 1868.83 888.492 1868.84 896.797 1866.54 904.379 1861.94 911.24 1857.34 918.1 1850.4 923.595 1841.13 927.723 1831.86 931.851 1820.23 933.968 1806.22 934.076 1794.41 934.008 1783.24 932.579 1772.72 929.787 1762.2 926.994 1753.51 923.244 1746.65 918.534L1759.77 889.096C1766.17 893.288 1773.46 896.636 1781.65 899.141 1789.84 901.646 1798.1 902.93 1806.43 902.993 1814.64 902.942 1820.55 901.885 1824.16 899.821 1827.78 897.756 1829.54 894.987 1829.47 891.513 1829.25 887.181 1826.47 883.967 1821.11 881.871 1815.75 879.776 1809.1 877.937 1801.17 876.357 1793.24 874.776 1785.3 872.591 1777.37 869.804 1769.44 867.017 1762.79 862.765 1757.43 857.05 1752.07 851.334 1749.29 843.294 1749.07 832.929 1749.06 819.95 1754.24 809.14 1764.62 800.501 1775 791.861 1790.69 787.376 1811.68 787.045ZM2213.91 768.865C2221.07 768.97 2226.73 770.829 2230.92 774.442 2235.1 778.055 2237.23 782.79 2237.33 788.649 2237.23 794.823 2235.1 799.836 2230.92 803.688 2226.73 807.541 2221.07 809.526 2213.91 809.644 2206.75 809.513 2201.08 807.553 2196.9 803.764 2192.72 799.975 2190.58 795.138 2190.49 789.254 2190.58 783.371 2192.72 778.534 2196.9 774.745 2201.08 770.955 2206.75 768.995 2213.91 768.865Z"/><text x="1746.65" y="946.83" fill="#000" fill-opacity="0" font-family="Arial,Arial_MSFontService,sans-serif" font-size="203.389">Settings</text></g></svg>