<svg xmlns="http://www.w3.org/2000/svg" xmlns:xlink="http://www.w3.org/1999/xlink" width="1780" height="445" overflow="hidden" xml:space="preserve"><defs><filter id="fx0" width="120%" height="120%" x="-10%" y="-10%" filterUnits="userSpaceOnUse" primitiveUnits="userSpaceOnUse"><feComponentTransfer color-interpolation-filters="sRGB"><feFuncR tableValues="0 0" type="discrete"/><feFuncG tableValues="0 0" type="discrete"/><feFuncB tableValues="0 0" type="discrete"/><feFuncA intercept="0" slope=".431" type="linear"/></feComponentTransfer><feGaussianBlur stdDeviation="3.1792 3.1792"/></filter><clipPath id="clip1"><rect width="1780" height="445" x="1288" y="126"/></clipPath></defs><g clip-path="url(#clip1)" transform="translate(-1288 -126)"><path fill="#029357" d="M1780 370.833C1780 420.278 1755.28 445 1705.83 445L74.1666 445C24.7222 445 0 420.278 0 370.833L0 74.1666C0 24.7222 24.7222 0 74.1666 0L1705.83 0C1755.28 0 1780 24.7222 1780 74.1666L1780 370.833M1742.92 74.1666C1742.92 49.4445 1730.55 37.0833 1705.83 37.0833L74.1666 37.0833C49.4445 37.0833 37.0833 49.4445 37.0833 74.1666L37.0833 370.833C37.0833 395.555 49.4445 407.916 74.1666 407.916L1705.83 407.916C1730.55 407.916 1742.92 395.555 1742.92 370.833L1742.92 74.1666" transform="matrix(1 0 0 1 1288 126)"/><path fill="#2FD792" d="M1742.92 74.1666 1742.92 370.833C1742.92 395.555 1730.55 407.916 1705.83 407.916L74.1666 407.916C49.4445 407.916 37.0833 395.555 37.0833 370.833L37.0833 74.1666C37.0833 49.4445 49.4445 37.0833 74.1666 37.0833L1705.83 37.0833C1730.55 37.0833 1742.92 49.4445 1742.92 74.1666M1705.83 222.5 1705.83 74.1666 74.1666 74.1666 74.1666 222.5 74.1666 370.833 1705.83 370.833 1705.83 222.5" transform="matrix(1 0 0 1 1288 126)"/><path fill="#16BB77" d="M1705.83 222.5 1705.83 370.833 74.1666 370.833 74.1666 222.5 1705.83 222.5" transform="matrix(1 0 0 1 1288 126)"/><path fill="#23CD87" d="M1705.83 222.5 74.1666 222.5 74.1666 74.1666 1705.83 74.1666 1705.83 222.5" transform="matrix(1 0 0 1 1288 126)"/><g filter="url(#fx0)" transform="translate(1564 271)"><g><path fill="#215F9A" fill-rule="evenodd" stroke="#000" stroke-linejoin="round" stroke-miterlimit="10" stroke-width="3" d="M858.163 72.7776 845.035 106.512 871.088 106.512ZM235.829 48.3103C226.054 48.5924 217.819 52.1707 211.125 59.0452 204.432 65.9198 200.946 74.3983 200.668 84.4808 200.946 94.6601 204.432 103.198 211.125 110.093 217.819 116.989 226.054 120.576 235.829 120.854 245.604 120.576 253.839 116.989 260.532 110.093 267.226 103.198 270.712 94.6601 270.989 84.4808 270.712 74.3983 267.226 65.9198 260.532 59.0452 253.839 52.1707 245.604 48.5924 235.829 48.3103ZM1122.55 15.2076 1234.23 15.2076 1234.23 50.1283 1161.71 50.1283 1161.71 65.7076 1227.76 65.7076 1227.76 100.628 1161.71 100.628 1161.71 119.036 1234.23 119.036 1234.23 153.956 1122.55 153.956ZM945.545 15.2076 984.708 15.2076 1021.89 81.4516 1059.07 15.2076 1098.23 15.2076 1098.23 153.956 1059.07 153.956 1059.07 79.6339 1021.89 145.878 984.708 79.6339 984.708 153.956 945.545 153.956ZM835.946 15.2076 880.177 15.2076 933.496 153.956 889.265 153.956 882.197 135.372 833.927 135.372 826.858 153.956 782.627 153.956ZM452.071 15.2076 573.246 15.2076 573.246 50.1283 532.24 50.1283 532.24 153.956 493.077 153.956 493.077 50.1283 452.071 50.1283ZM12.5454 15.2076 51.7081 15.2076 51.7081 65.7076 102.435 65.7076 102.435 15.2076 141.598 15.2076 141.598 153.956 102.435 153.956 102.435 100.628 51.7081 100.628 51.7081 153.956 12.5454 153.956ZM716.843 12.7836C727.884 12.8425 738.379 14.9956 748.327 19.2431 758.276 23.4905 766.898 29.4789 774.194 37.2083L745.327 62.4649C741.832 57.9826 737.616 54.5113 732.679 52.0511 727.742 49.591 722.463 48.344 716.843 48.3103 706.759 48.593 698.28 52.1729 691.404 59.0498 684.529 65.9268 680.95 74.4046 680.668 84.4832 680.95 94.6544 684.529 103.189 691.404 110.088 698.28 116.986 706.759 120.575 716.843 120.854 720.291 120.845 723.651 120.356 726.922 119.387 730.193 118.418 733.3 117.019 736.243 115.19L736.243 101.638 709.163 101.638 709.163 72.7776 774.194 72.7776 774.194 131.754C766.898 139.58 758.276 145.627 748.327 149.896 738.379 154.164 727.884 156.326 716.843 156.38 702.793 156.215 690.011 152.89 678.496 146.406 666.982 139.922 657.779 131.271 650.889 120.454 644 109.637 640.468 97.647 640.293 84.4832 640.468 71.3206 644 59.3467 650.889 48.5616 657.779 37.7764 666.982 29.1579 678.496 22.706 690.011 16.254 702.793 12.9465 716.843 12.7836ZM380.434 12.7836C392.422 12.7962 403.205 14.3857 412.785 17.5521 422.364 20.7186 430.97 25.3862 438.603 31.555L419.021 59.2229C412.502 54.5754 405.854 51.0897 399.077 48.766 392.3 46.4422 385.749 45.2803 379.424 45.2803 374.678 45.3308 371.132 46.1896 368.786 47.8567 366.441 49.5237 365.27 51.6959 365.274 54.3733 365.064 57.7663 366.697 60.3763 370.176 62.2033 373.654 64.0303 380.241 65.9331 389.935 67.9116 406.261 71.0142 419.051 75.569 428.305 81.5763 437.559 87.5835 442.27 97.0384 442.438 109.941 442.228 124.687 437.046 136.087 426.891 144.142 416.736 152.196 402.868 156.275 385.286 156.38 372.66 156.376 360.683 154.417 349.354 150.502 338.025 146.587 327.921 140.742 319.041 132.967L340.848 106.91C347.917 112.48 355.279 116.698 362.933 119.564 370.587 122.431 378.51 123.871 386.7 123.884 392.07 123.858 396.138 123 398.904 121.307 401.671 119.615 403.061 117.241 403.073 114.184 403.271 111.04 401.663 108.741 398.247 107.289 394.832 105.837 388.423 104.094 379.019 102.061 368.886 99.894 359.82 97.2447 351.821 94.1127 343.822 90.9807 337.496 86.6251 332.841 81.0458 328.186 75.4666 325.808 67.9229 325.707 58.4146 325.93 44.409 330.935 33.3455 340.724 25.224 350.513 17.1025 363.749 12.9557 380.434 12.7836ZM235.829 12.7836C249.674 12.9466 262.277 16.254 273.641 22.7059 285.004 29.1577 294.089 37.7761 300.895 48.5609 307.701 59.3457 311.191 71.319 311.364 84.4808 311.191 97.6453 307.701 109.636 300.895 120.453 294.089 131.271 285.004 139.921 273.641 146.406 262.277 152.89 249.674 156.215 235.829 156.38 221.984 156.215 209.38 152.89 198.017 146.406 186.653 139.921 177.568 131.271 170.762 120.453 163.956 109.636 160.466 97.6453 160.293 84.4808 160.466 71.319 163.956 59.3457 170.762 48.5609 177.568 37.7761 186.653 29.1577 198.017 22.7059 209.38 16.254 221.984 12.9466 235.829 12.7836Z"/></g></g><path fill="#215F9A" fill-rule="evenodd" stroke="#000" stroke-linejoin="round" stroke-miterlimit="10" stroke-width="3" d="M2415.42 337.033 2402.29 370.767 2428.34 370.767ZM1793.08 312.566C1783.31 312.848 1775.08 316.427 1768.38 323.301 1761.69 330.176 1758.2 338.654 1757.92 348.737 1758.2 358.916 1761.69 367.453 1768.38 374.349 1775.08 381.245 1783.31 384.832 1793.08 385.109 1802.86 384.832 1811.09 381.245 1817.79 374.349 1824.48 367.453 1827.97 358.916 1828.25 348.737 1827.97 338.654 1824.48 330.176 1817.79 323.301 1811.09 316.427 1802.86 312.848 1793.08 312.566ZM2679.8 279.463 2791.48 279.463 2791.48 314.384 2718.96 314.384 2718.96 329.963 2785.02 329.963 2785.02 364.884 2718.96 364.884 2718.96 383.291 2791.48 383.291 2791.48 418.212 2679.8 418.212ZM2502.8 279.463 2541.96 279.463 2579.14 345.707 2616.33 279.463 2655.49 279.463 2655.49 418.212 2616.33 418.212 2616.33 343.89 2579.14 410.134 2541.96 343.89 2541.96 418.212 2502.8 418.212ZM2393.2 279.463 2437.43 279.463 2490.75 418.212 2446.52 418.212 2439.45 399.628 2391.18 399.628 2384.11 418.212 2339.88 418.212ZM2009.33 279.463 2130.5 279.463 2130.5 314.384 2089.5 314.384 2089.5 418.212 2050.33 418.212 2050.33 314.384 2009.33 314.384ZM1569.8 279.463 1608.96 279.463 1608.96 329.963 1659.69 329.963 1659.69 279.463 1698.85 279.463 1698.85 418.212 1659.69 418.212 1659.69 364.884 1608.96 364.884 1608.96 418.212 1569.8 418.212ZM2274.1 277.039C2285.14 277.098 2295.63 279.252 2305.58 283.499 2315.53 287.746 2324.15 293.735 2331.45 301.464L2302.58 326.721C2299.09 322.238 2294.87 318.767 2289.94 316.307 2285 313.847 2279.72 312.6 2274.1 312.566 2264.02 312.849 2255.54 316.429 2248.66 323.306 2241.78 330.183 2238.21 338.66 2237.92 348.739 2238.21 358.91 2241.78 367.445 2248.66 374.344 2255.54 381.242 2264.02 384.831 2274.1 385.109 2277.55 385.101 2280.91 384.612 2284.18 383.643 2287.45 382.674 2290.56 381.275 2293.5 379.446L2293.5 365.894 2266.42 365.894 2266.42 337.033 2331.45 337.033 2331.45 396.01C2324.15 403.836 2315.53 409.883 2305.58 414.152 2295.63 418.42 2285.14 420.582 2274.1 420.636 2260.05 420.471 2247.27 417.146 2235.75 410.662 2224.24 404.178 2215.04 395.527 2208.15 384.71 2201.26 373.893 2197.72 361.903 2197.55 348.739 2197.72 335.577 2201.26 323.603 2208.15 312.817 2215.04 302.032 2224.24 293.414 2235.75 286.962 2247.27 280.51 2260.05 277.202 2274.1 277.039ZM1937.69 277.039C1949.68 277.052 1960.46 278.642 1970.04 281.808 1979.62 284.974 1988.23 289.642 1995.86 295.811L1976.28 323.479C1969.76 318.831 1963.11 315.346 1956.33 313.022 1949.56 310.698 1943 309.536 1936.68 309.536 1931.93 309.587 1928.39 310.445 1926.04 312.113 1923.7 313.78 1922.53 315.952 1922.53 318.629 1922.32 322.022 1923.95 324.632 1927.43 326.459 1930.91 328.286 1937.5 330.189 1947.19 332.168 1963.52 335.27 1976.31 339.825 1985.56 345.832 1994.82 351.839 1999.53 361.294 1999.69 374.197 1999.48 388.943 1994.3 400.343 1984.15 408.398 1973.99 416.452 1960.12 420.531 1942.54 420.636 1929.92 420.632 1917.94 418.672 1906.61 414.758 1895.28 410.843 1885.18 404.998 1876.3 397.222L1898.1 371.166C1905.17 376.735 1912.54 380.954 1920.19 383.82 1927.84 386.687 1935.77 388.127 1943.96 388.139 1949.33 388.114 1953.39 387.255 1956.16 385.563 1958.93 383.871 1960.32 381.497 1960.33 378.44 1960.53 375.296 1958.92 372.997 1955.5 371.545 1952.09 370.093 1945.68 368.35 1936.28 366.316 1926.14 364.15 1917.08 361.501 1909.08 358.369 1901.08 355.237 1894.75 350.881 1890.1 345.302 1885.44 339.723 1883.06 332.179 1882.96 322.67 1883.19 308.665 1888.19 297.601 1897.98 289.48 1907.77 281.358 1921.01 277.212 1937.69 277.039ZM1793.08 277.039C1806.93 277.202 1819.53 280.51 1830.9 286.962 1842.26 293.414 1851.34 302.032 1858.15 312.817 1864.96 323.602 1868.45 335.575 1868.62 348.737 1868.45 361.901 1864.96 373.892 1858.15 384.709 1851.35 395.527 1842.26 404.177 1830.9 410.662 1819.53 417.146 1806.93 420.471 1793.08 420.636 1779.24 420.471 1766.64 417.146 1755.27 410.662 1743.91 404.177 1734.82 395.527 1728.02 384.709 1721.21 373.892 1717.72 361.901 1717.55 348.737 1717.72 335.575 1721.21 323.602 1728.02 312.817 1734.82 302.032 1743.91 293.414 1755.27 286.962 1766.64 280.51 1779.24 277.202 1793.08 277.039Z"/><text x="1569.8" y="402.687" fill="#000" fill-opacity="0" font-family="Arial,Arial_MSFontService,sans-serif" font-size="143.597">HOST GAME</text></g></svg>