<svg width="1780" height="445" xmlns="http://www.w3.org/2000/svg" xmlns:xlink="http://www.w3.org/1999/xlink" xml:space="preserve" overflow="hidden"><defs><filter id="fx0" x="-10%" y="-10%" width="120%" height="120%" filterUnits="userSpaceOnUse" primitiveUnits="userSpaceOnUse"><feComponentTransfer color-interpolation-filters="sRGB"><feFuncR type="discrete" tableValues="0 0"/><feFuncG type="discrete" tableValues="0 0"/><feFuncB type="discrete" tableValues="0 0"/><feFuncA type="linear" slope="0.431373" intercept="0"/></feComponentTransfer><feGaussianBlur stdDeviation="3.1792 3.1792"/></filter><clipPath id="clip1"><rect x="-526" y="120" width="1780" height="445"/></clipPath></defs><g clip-path="url(#clip1)" transform="translate(526 -120)"><path d="M1780 370.833C1780 420.278 1755.28 445 1705.83 445L74.1667 445C24.7222 445 0 420.278 0 370.833L0 74.1667C0 24.7222 24.7222 0 74.1667 0L1705.83 0C1755.28 0 1780 24.7222 1780 74.1667L1780 370.833M1742.92 74.1667C1742.92 49.4445 1730.55 37.0833 1705.83 37.0833L74.1667 37.0833C49.4445 37.0833 37.0833 49.4445 37.0833 74.1667L37.0833 370.833C37.0833 395.555 49.4445 407.917 74.1667 407.917L1705.83 407.917C1730.55 407.917 1742.92 395.555 1742.92 370.833L1742.92 74.1667" fill="#029357" transform="matrix(1 0 0 1 -526 120)"/><path d="M1742.92 74.1667 1742.92 370.833C1742.92 395.555 1730.55 407.917 1705.83 407.917L74.1667 407.917C49.4445 407.917 37.0833 395.555 37.0833 370.833L37.0833 74.1667C37.0833 49.4445 49.4445 37.0833 74.1667 37.0833L1705.83 37.0833C1730.55 37.0833 1742.92 49.4445 1742.92 74.1667M1705.83 222.5 1705.83 74.1667 74.1667 74.1667 74.1667 222.5 74.1667 370.833 1705.83 370.833 1705.83 222.5" fill="#2FD792" transform="matrix(1 0 0 1 -526 120)"/><path d="M1705.83 222.5 1705.83 370.833 74.1667 370.833 74.1667 222.5 1705.83 222.5" fill="#16BB77" transform="matrix(1 0 0 1 -526 120)"/><path d="M1705.83 222.5 74.1667 222.5 74.1667 74.1667 1705.83 74.1667 1705.83 222.5" fill="#23CD87" transform="matrix(1 0 0 1 -526 120)"/><g filter="url(#fx0)" transform="translate(-250 265)"><g><path d="M858.29 72.9863 845.163 106.72 871.216 106.72ZM235.957 48.5191C226.182 48.8011 217.947 52.3794 211.253 59.254 204.56 66.1285 201.074 74.6071 200.796 84.6895 201.074 94.8689 204.56 103.406 211.253 110.302 217.947 117.198 226.182 120.784 235.957 121.062 245.732 120.784 253.967 117.198 260.66 110.302 267.354 103.406 270.839 94.8689 271.117 84.6895 270.839 74.6071 267.354 66.1285 260.66 59.254 253.967 52.3794 245.732 48.8011 235.957 48.5191ZM1122.67 15.4163 1234.35 15.4163 1234.35 50.3371 1161.84 50.3371 1161.84 65.9163 1227.89 65.9163 1227.89 100.837 1161.84 100.837 1161.84 119.244 1234.35 119.244 1234.35 154.165 1122.67 154.165ZM945.673 15.4163 984.836 15.4163 1022.02 81.6603 1059.2 15.4163 1098.36 15.4163 1098.36 154.165 1059.2 154.165 1059.2 79.8427 1022.02 146.087 984.836 79.8427 984.836 154.165 945.673 154.165ZM836.074 15.4163 880.305 15.4163 933.624 154.165 889.393 154.165 882.325 135.581 834.055 135.581 826.986 154.165 782.755 154.165ZM452.199 15.4163 573.374 15.4163 573.374 50.3371 532.368 50.3371 532.368 154.165 493.205 154.165 493.205 50.3371 452.199 50.3371ZM12.6733 15.4163 51.8361 15.4163 51.8361 65.9163 102.563 65.9163 102.563 15.4163 141.726 15.4163 141.726 154.165 102.563 154.165 102.563 100.837 51.8361 100.837 51.8361 154.165 12.6733 154.165ZM716.971 12.9923C728.012 13.0512 738.507 15.2044 748.455 19.4518 758.403 23.6992 767.026 29.6876 774.322 37.417L745.455 62.6736C741.96 58.1913 737.744 54.7201 732.807 52.2599 727.87 49.7997 722.591 48.5527 716.971 48.5191 706.887 48.8018 698.407 52.3816 691.532 59.2586 684.657 66.1355 681.078 74.6133 680.796 84.692 681.078 94.8632 684.657 103.398 691.532 110.296 698.407 117.195 706.887 120.783 716.971 121.062 720.419 121.054 723.779 120.565 727.05 119.596 730.321 118.627 733.428 117.228 736.371 115.399L736.371 101.847 709.291 101.847 709.291 72.9863 774.322 72.9863 774.322 131.963C767.026 139.789 758.403 145.836 748.455 150.104 738.507 154.373 728.012 156.534 716.971 156.589 702.921 156.424 690.139 153.099 678.624 146.615 667.109 140.13 657.907 131.48 651.017 120.663 644.128 109.846 640.595 97.8557 640.421 84.692 640.595 71.5294 644.127 59.5555 651.017 48.7703 657.907 37.9852 667.109 29.3666 678.624 22.9147 690.139 16.4628 702.921 13.1553 716.971 12.9923ZM380.562 12.9923C392.55 13.0049 403.333 14.5945 412.913 17.7609 422.492 20.9273 431.098 25.5949 438.73 31.7637L419.149 59.4316C412.63 54.7841 405.982 51.2985 399.205 48.9747 392.428 46.6509 385.877 45.4891 379.552 45.4891 374.806 45.5396 371.26 46.3984 368.914 48.0654 366.568 49.7325 365.398 51.9047 365.402 54.582 365.191 57.975 366.825 60.585 370.304 62.412 373.782 64.2391 380.368 66.1418 390.063 68.1204 406.389 71.2229 419.179 75.7778 428.433 81.785 437.687 87.7922 442.398 97.2472 442.566 110.15 442.356 124.896 437.174 136.296 427.019 144.35 416.864 152.405 402.996 156.484 385.413 156.589 372.788 156.585 360.811 154.625 349.482 150.71 338.153 146.795 328.049 140.95 319.169 133.175L340.976 107.119C348.045 112.688 355.407 116.906 363.061 119.773 370.715 122.64 378.638 124.08 386.828 124.092 392.198 124.067 396.266 123.208 399.032 121.516 401.799 119.824 403.189 117.449 403.201 114.393 403.399 111.249 401.791 108.95 398.375 107.498 394.96 106.045 388.551 104.303 379.147 102.269 369.014 100.103 359.948 97.4534 351.949 94.3214 343.95 91.1894 337.624 86.8338 332.969 81.2546 328.314 75.6754 325.936 68.1316 325.835 58.6233 326.058 44.6177 331.063 33.5542 340.852 25.4327 350.641 17.3112 363.877 13.1644 380.562 12.9923ZM235.957 12.9923C249.801 13.1553 262.405 16.4627 273.769 22.9146 285.132 29.3665 294.217 37.9848 301.023 48.7696 307.829 59.5544 311.319 71.5277 311.492 84.6895 311.319 97.8541 307.829 109.845 301.023 120.662 294.217 131.479 285.132 140.13 273.769 146.614 262.405 153.099 249.801 156.424 235.957 156.589 222.112 156.424 209.508 153.099 198.145 146.614 186.781 140.13 177.696 131.479 170.89 120.662 164.084 109.845 160.594 97.8541 160.421 84.6895 160.594 71.5277 164.084 59.5544 170.89 48.7696 177.696 37.9848 186.781 29.3665 198.145 22.9146 209.508 16.4627 222.112 13.1553 235.957 12.9923Z" stroke="#000000" stroke-width="3" stroke-linejoin="round" stroke-miterlimit="10" fill="#FFFFFF" fill-rule="evenodd"/></g></g><path d="M601.546 331.242 588.419 364.976 614.472 364.976ZM-20.7872 306.775C-30.5625 307.057-38.797 310.635-45.4907 317.51-52.1844 324.384-55.6702 332.863-55.9481 342.945-55.6702 353.125-52.1844 361.662-45.4907 368.558-38.797 375.454-30.5625 379.04-20.7872 379.318-11.0119 379.04-2.77742 375.454 3.91611 368.558 10.6096 361.662 14.0954 353.125 14.3732 342.945 14.0954 332.863 10.6096 324.384 3.91611 317.51-2.77742 310.635-11.0119 307.057-20.7872 306.775ZM865.929 273.672 977.61 273.672 977.61 308.593 905.092 308.593 905.092 324.172 971.146 324.172 971.146 359.093 905.092 359.093 905.092 377.5 977.61 377.5 977.61 412.421 865.929 412.421ZM688.929 273.672 728.092 273.672 765.272 339.916 802.453 273.672 841.616 273.672 841.616 412.421 802.453 412.421 802.453 338.099 765.272 404.342 728.092 338.099 728.092 412.421 688.929 412.421ZM579.33 273.672 623.561 273.672 676.88 412.421 632.649 412.421 625.58 393.837 577.311 393.837 570.242 412.421 526.011 412.421ZM195.455 273.672 316.63 273.672 316.63 308.593 275.624 308.593 275.624 412.421 236.461 412.421 236.461 308.593 195.455 308.593ZM-244.071 273.672-204.908 273.672-204.908 324.172-154.181 324.172-154.181 273.672-115.018 273.672-115.018 412.421-154.181 412.421-154.181 359.093-204.908 359.093-204.908 412.421-244.071 412.421ZM460.226 271.248C471.268 271.307 481.763 273.46 491.711 277.708 501.659 281.955 510.282 287.944 517.578 295.673L488.711 320.93C485.216 316.447 481 312.976 476.063 310.516 471.126 308.056 465.847 306.809 460.226 306.775 450.143 307.058 441.663 310.638 434.788 317.514 427.913 324.391 424.334 332.869 424.052 342.948 424.334 353.119 427.913 361.654 434.788 368.552 441.663 375.451 450.143 379.039 460.226 379.318 463.675 379.31 467.034 378.821 470.306 377.852 473.577 376.883 476.684 375.484 479.627 373.655L479.627 360.103 452.547 360.103 452.547 331.242 517.578 331.242 517.578 390.219C510.282 398.045 501.659 404.092 491.711 408.36 481.763 412.629 471.268 414.79 460.226 414.845 446.177 414.679 433.395 411.355 421.88 404.87 410.365 398.386 401.163 389.736 394.273 378.919 387.383 368.102 383.851 356.112 383.677 342.948 383.851 329.785 387.383 317.811 394.273 307.026 401.163 296.241 410.365 287.623 421.88 281.171 433.395 274.719 446.177 271.411 460.226 271.248ZM123.818 271.248C135.806 271.261 146.589 272.85 156.168 276.017 165.748 279.183 174.354 283.851 181.986 290.02L162.405 317.688C155.886 313.04 149.238 309.554 142.461 307.231 135.684 304.907 129.133 303.745 122.807 303.745 118.061 303.795 114.516 304.654 112.17 306.321 109.824 307.988 108.654 310.161 108.658 312.838 108.447 316.231 110.081 318.841 113.56 320.668 117.038 322.495 123.624 324.398 133.318 326.376 149.645 329.479 162.435 334.034 171.689 340.041 180.943 346.048 185.654 355.503 185.822 368.406 185.612 383.152 180.43 394.552 170.275 402.606 160.12 410.661 146.252 414.74 128.669 414.845 116.044 414.841 104.067 412.881 92.738 408.966 81.409 405.051 71.3047 399.206 62.4251 391.431L84.2315 365.375C91.301 370.944 98.6629 375.162 106.317 378.029 113.971 380.896 121.894 382.336 130.084 382.348 135.454 382.323 139.521 381.464 142.288 379.772 145.055 378.08 146.445 375.705 146.457 372.649 146.655 369.504 145.046 367.206 141.631 365.754 138.216 364.301 131.807 362.558 122.403 360.525 112.27 358.359 103.204 355.709 95.2052 352.577 87.2062 349.445 80.8794 345.09 76.2246 339.51 71.5698 333.931 69.192 326.387 69.0912 316.879 69.3137 302.874 74.3192 291.81 84.1078 283.689 93.8964 275.567 107.133 271.42 123.818 271.248ZM-20.7872 271.248C-6.94261 271.411 5.66132 274.719 17.0247 281.17 28.3882 287.622 37.4729 296.241 44.2791 307.026 51.0853 317.81 54.5749 329.784 54.748 342.945 54.5749 356.11 51.0853 368.101 44.2791 378.918 37.473 389.735 28.3881 398.386 17.0247 404.87 5.66132 411.355-6.94261 414.679-20.7872 414.845-34.6319 414.679-47.236 411.355-58.5995 404.87-69.9629 398.386-79.0478 389.735-85.854 378.918-92.6602 368.101-96.1498 356.11-96.3228 342.945-96.1498 329.784-92.6602 317.81-85.854 307.026-79.0478 296.241-69.9629 287.622-58.5995 281.17-47.236 274.719-34.6319 271.411-20.7872 271.248Z" stroke="#000000" stroke-width="3" stroke-linejoin="round" stroke-miterlimit="10" fill="#FFFFFF" fill-rule="evenodd"/><text fill="#000000" fill-opacity="0" font-family="Arial,Arial_MSFontService,sans-serif" font-size="143.597" x="-244.071" y="396.895">HOST GAME</text></g></svg>