<svg xmlns="http://www.w3.org/2000/svg" xmlns:xlink="http://www.w3.org/1999/xlink" width="1780" height="445" overflow="hidden" xml:space="preserve"><defs><filter id="fx0" width="120%" height="120%" x="-10%" y="-10%" filterUnits="userSpaceOnUse" primitiveUnits="userSpaceOnUse"><feComponentTransfer color-interpolation-filters="sRGB"><feFuncR tableValues="0 0" type="discrete"/><feFuncG tableValues="0 0" type="discrete"/><feFuncB tableValues="0 0" type="discrete"/><feFuncA intercept="0" slope=".431" type="linear"/></feComponentTransfer><feGaussianBlur stdDeviation="3.1792 3.1792"/></filter><clipPath id="clip1"><rect width="1780" height="445" x="3111" y="107"/></clipPath></defs><g clip-path="url(#clip1)" transform="translate(-3111 -107)"><path fill="#029357" d="M1780 370.833C1780 420.278 1755.28 445 1705.83 445L74.1667 445C24.7222 445 0 420.278 0 370.833L0 74.1667C0 24.7222 24.7222 0 74.1667 0L1705.83 0C1755.28 0 1780 24.7222 1780 74.1667L1780 370.833M1742.92 74.1667C1742.92 49.4445 1730.55 37.0833 1705.83 37.0833L74.1667 37.0833C49.4445 37.0833 37.0833 49.4445 37.0833 74.1667L37.0833 370.833C37.0833 395.555 49.4445 407.917 74.1667 407.917L1705.83 407.917C1730.55 407.917 1742.92 395.555 1742.92 370.833L1742.92 74.1667" transform="matrix(1 0 0 1 3111 107)"/><path fill="#2FD792" d="M1742.92 74.1667 1742.92 370.833C1742.92 395.555 1730.55 407.917 1705.83 407.917L74.1667 407.917C49.4445 407.917 37.0833 395.555 37.0833 370.833L37.0833 74.1667C37.0833 49.4445 49.4445 37.0833 74.1667 37.0833L1705.83 37.0833C1730.55 37.0833 1742.92 49.4445 1742.92 74.1667M1705.83 222.5 1705.83 74.1667 74.1667 74.1667 74.1667 222.5 74.1667 370.833 1705.83 370.833 1705.83 222.5" transform="matrix(1 0 0 1 3111 107)"/><path fill="#16BB77" d="M1705.83 222.5 1705.83 370.833 74.1667 370.833 74.1667 222.5 1705.83 222.5" transform="matrix(1 0 0 1 3111 107)"/><path fill="#23CD87" d="M1705.83 222.5 74.1667 222.5 74.1667 74.1667 1705.83 74.1667 1705.83 222.5" transform="matrix(1 0 0 1 3111 107)"/><g filter="url(#fx0)" transform="translate(3387 252)"><g><path fill-rule="evenodd" stroke="#000" stroke-linejoin="round" stroke-miterlimit="10" stroke-width="3" d="M858.148 72.4904 845.02 106.224 871.073 106.224ZM235.814 48.0231C226.039 48.3052 217.804 51.8835 211.11 58.7581 204.417 65.6326 200.931 74.1111 200.653 84.1936 200.931 94.373 204.417 102.91 211.11 109.806 217.804 116.702 226.039 120.289 235.814 120.566 245.589 120.289 253.824 116.702 260.517 109.806 267.211 102.91 270.697 94.373 270.974 84.1936 270.697 74.1111 267.211 65.6326 260.517 58.7581 253.824 51.8835 245.589 48.3052 235.814 48.0231ZM1122.53 14.9204 1234.21 14.9204 1234.21 49.8411 1161.69 49.8411 1161.69 65.4204 1227.75 65.4204 1227.75 100.341 1161.69 100.341 1161.69 118.748 1234.21 118.748 1234.21 153.669 1122.53 153.669ZM945.53 14.9204 984.693 14.9204 1021.87 81.1644 1059.05 14.9204 1098.22 14.9204 1098.22 153.669 1059.05 153.669 1059.05 79.3468 1021.87 145.591 984.693 79.3468 984.693 153.669 945.53 153.669ZM835.931 14.9204 880.162 14.9204 933.481 153.669 889.25 153.669 882.182 135.085 833.912 135.085 826.843 153.669 782.612 153.669ZM452.056 14.9204 573.231 14.9204 573.231 49.8411 532.225 49.8411 532.225 153.669 493.062 153.669 493.062 49.8411 452.056 49.8411ZM12.5303 14.9204 51.6931 14.9204 51.6931 65.4204 102.42 65.4204 102.42 14.9204 141.583 14.9204 141.583 153.669 102.42 153.669 102.42 100.341 51.6931 100.341 51.6931 153.669 12.5303 153.669ZM716.828 12.4964C727.869 12.5553 738.364 14.7085 748.312 18.9559 758.26 23.2033 766.883 29.1917 774.179 36.9211L745.312 62.1777C741.817 57.6954 737.601 54.2242 732.664 51.764 727.727 49.3038 722.448 48.0568 716.828 48.0231 706.744 48.3059 698.265 51.8857 691.389 58.7627 684.514 65.6396 680.935 74.1174 680.653 84.1961 680.935 94.3673 684.514 102.902 691.389 109.8 698.265 116.699 706.744 120.287 716.828 120.566 720.276 120.558 723.636 120.069 726.907 119.1 730.178 118.131 733.285 116.732 736.228 114.903L736.228 101.351 709.148 101.351 709.148 72.4904 774.179 72.4904 774.179 131.467C766.883 139.293 758.26 145.34 748.312 149.609 738.364 153.877 727.869 156.038 716.828 156.093 702.778 155.928 689.996 152.603 678.481 146.119 666.967 139.634 657.764 130.984 650.874 120.167 643.985 109.35 640.453 97.3598 640.278 84.1961 640.453 71.0335 643.984 59.0596 650.874 48.2744 657.764 37.4893 666.967 28.8707 678.481 22.4188 689.996 15.9668 702.778 12.6594 716.828 12.4964ZM380.419 12.4964C392.407 12.509 403.19 14.0985 412.77 17.265 422.349 20.4314 430.955 25.099 438.588 31.2678L419.006 58.9357C412.487 54.2882 405.839 50.8026 399.062 48.4788 392.285 46.155 385.734 44.9931 379.409 44.9931 374.663 45.0437 371.117 45.9025 368.771 47.5695 366.426 49.2366 365.255 51.4088 365.259 54.0861 365.049 57.4791 366.682 60.0891 370.161 61.9161 373.639 63.7431 380.226 65.6459 389.92 67.6245 406.246 70.727 419.036 75.2819 428.29 81.2891 437.544 87.2963 442.255 96.7513 442.423 109.654 442.213 124.4 437.031 135.8 426.876 143.854 416.721 151.909 402.853 155.988 385.271 156.093 372.645 156.089 360.668 154.129 349.339 150.214 338.01 146.3 327.906 140.455 319.026 132.679L340.833 106.623C347.902 112.192 355.264 116.41 362.918 119.277 370.572 122.144 378.495 123.584 386.685 123.596 392.055 123.571 396.123 122.712 398.889 121.02 401.656 119.328 403.046 116.954 403.058 113.897 403.256 110.753 401.648 108.454 398.232 107.002 394.817 105.549 388.408 103.807 379.004 101.773 368.871 99.6068 359.805 96.9575 351.806 93.8255 343.807 90.6935 337.481 86.3379 332.826 80.7587 328.171 75.1794 325.793 67.6357 325.692 58.1274 325.915 44.1218 330.92 33.0583 340.709 24.9368 350.498 16.8153 363.734 12.6685 380.419 12.4964ZM235.814 12.4964C249.659 12.6594 262.262 15.9668 273.626 22.4187 284.989 28.8706 294.074 37.4889 300.88 48.2737 307.686 59.0585 311.176 71.0318 311.349 84.1936 311.176 97.3582 307.686 109.349 300.88 120.166 294.074 130.984 284.989 139.634 273.626 146.119 262.262 152.603 249.659 155.928 235.814 156.093 221.969 155.928 209.365 152.603 198.002 146.119 186.638 139.634 177.553 130.984 170.747 120.166 163.941 109.349 160.451 97.3582 160.278 84.1936 160.451 71.0318 163.941 59.0585 170.747 48.2737 177.553 37.4889 186.638 28.8706 198.002 22.4187 209.365 15.9668 221.969 12.6594 235.814 12.4964Z"/></g></g><path fill-rule="evenodd" stroke="#000" stroke-linejoin="round" stroke-miterlimit="10" stroke-width="3" d="M4238.4 317.746 4225.28 351.48 4251.33 351.48ZM3616.07 293.279C3606.29 293.561 3598.06 297.139 3591.37 304.014 3584.67 310.889 3581.19 319.367 3580.91 329.45 3581.19 339.629 3584.67 348.166 3591.37 355.062 3598.06 361.958 3606.29 365.544 3616.07 365.822 3625.85 365.544 3634.08 361.958 3640.77 355.062 3647.47 348.166 3650.95 339.629 3651.23 329.45 3650.95 319.367 3647.47 310.889 3640.77 304.014 3634.08 297.139 3625.85 293.561 3616.07 293.279ZM4502.79 260.176 4614.47 260.176 4614.47 295.097 4541.95 295.097 4541.95 310.676 4608 310.676 4608 345.597 4541.95 345.597 4541.95 364.004 4614.47 364.004 4614.47 398.925 4502.79 398.925ZM4325.79 260.176 4364.95 260.176 4402.13 326.42 4439.31 260.176 4478.47 260.176 4478.47 398.925 4439.31 398.925 4439.31 324.603 4402.13 390.846 4364.95 324.603 4364.95 398.925 4325.79 398.925ZM4216.19 260.176 4260.42 260.176 4313.74 398.925 4269.51 398.925 4262.44 380.341 4214.17 380.341 4207.1 398.925 4162.87 398.925ZM3832.31 260.176 3953.49 260.176 3953.49 295.097 3912.48 295.097 3912.48 398.925 3873.32 398.925 3873.32 295.097 3832.31 295.097ZM3392.79 260.176 3431.95 260.176 3431.95 310.676 3482.68 310.676 3482.68 260.176 3521.84 260.176 3521.84 398.925 3482.68 398.925 3482.68 345.597 3431.95 345.597 3431.95 398.925 3392.79 398.925ZM4097.08 257.752C4108.12 257.811 4118.62 259.964 4128.57 264.212 4138.52 268.459 4147.14 274.448 4154.44 282.177L4125.57 307.434C4122.07 302.951 4117.86 299.48 4112.92 297.02 4107.98 294.56 4102.7 293.313 4097.08 293.279 4087 293.562 4078.52 297.142 4071.65 304.019 4064.77 310.896 4061.19 319.373 4060.91 329.452 4061.19 339.623 4064.77 348.158 4071.65 355.056 4078.52 361.955 4087 365.543 4097.08 365.822 4100.53 365.814 4103.89 365.325 4107.16 364.356 4110.43 363.387 4113.54 361.988 4116.48 360.159L4116.48 346.607 4089.4 346.607 4089.4 317.746 4154.44 317.746 4154.44 376.723C4147.14 384.549 4138.52 390.596 4128.57 394.864 4118.62 399.133 4108.12 401.294 4097.08 401.349 4083.03 401.184 4070.25 397.859 4058.74 391.375 4047.22 384.89 4038.02 376.24 4031.13 365.423 4024.24 354.606 4020.71 342.616 4020.53 329.452 4020.71 316.289 4024.24 304.315 4031.13 293.53 4038.02 282.745 4047.22 274.127 4058.74 267.675 4070.25 261.223 4083.03 257.915 4097.08 257.752ZM3760.68 257.752C3772.66 257.765 3783.45 259.354 3793.03 262.521 3802.6 265.687 3811.21 270.355 3818.84 276.524L3799.26 304.192C3792.74 299.544 3786.09 296.058 3779.32 293.735 3772.54 291.411 3765.99 290.249 3759.66 290.249 3754.92 290.3 3751.37 291.158 3749.03 292.825 3746.68 294.492 3745.51 296.665 3745.51 299.342 3745.3 302.735 3746.94 305.345 3750.42 307.172 3753.9 308.999 3760.48 310.902 3770.18 312.88 3786.5 315.983 3799.29 320.538 3808.55 326.545 3817.8 332.552 3822.51 342.007 3822.68 354.91 3822.47 369.656 3817.29 381.056 3807.13 389.11 3796.98 397.165 3783.11 401.244 3765.53 401.349 3752.9 401.345 3740.92 399.385 3729.59 395.47 3718.27 391.555 3708.16 385.71 3699.28 377.935L3721.09 351.879C3728.16 357.448 3735.52 361.666 3743.17 364.533 3750.83 367.4 3758.75 368.84 3766.94 368.852 3772.31 368.827 3776.38 367.968 3779.15 366.276 3781.91 364.584 3783.3 362.209 3783.31 359.153 3783.51 356.009 3781.9 353.71 3778.49 352.258 3775.07 350.805 3768.66 349.063 3759.26 347.029 3749.13 344.863 3740.06 342.213 3732.06 339.081 3724.06 335.949 3717.74 331.594 3713.08 326.015 3708.43 320.435 3706.05 312.892 3705.95 303.383 3706.17 289.378 3711.18 278.314 3720.96 270.193 3730.75 262.071 3743.99 257.924 3760.68 257.752ZM3616.07 257.752C3629.91 257.915 3642.52 261.223 3653.88 267.675 3665.25 274.126 3674.33 282.745 3681.14 293.53 3687.94 304.314 3691.43 316.288 3691.6 329.45 3691.43 342.614 3687.94 354.605 3681.14 365.422 3674.33 376.239 3665.25 384.89 3653.88 391.374 3642.52 397.859 3629.91 401.184 3616.07 401.349 3602.23 401.184 3589.62 397.859 3578.26 391.374 3566.89 384.89 3557.81 376.239 3551 365.422 3544.2 354.605 3540.71 342.614 3540.53 329.45 3540.71 316.288 3544.2 304.314 3551 293.53 3557.81 282.745 3566.89 274.126 3578.26 267.675 3589.62 261.223 3602.23 257.915 3616.07 257.752Z"/><text x="3392.79" y="383.399" fill="#000" fill-opacity="0" font-family="Arial,Arial_MSFontService,sans-serif" font-size="143.597">HOST GAME</text></g></svg>