# Blender 5.0.1
# www.blender.org
mtllib axe.mtl
o axe
v 0.068478 0.046852 0.268894
v 0.064422 0.046852 0.015525
v 0.019060 0.046852 -0.219340
v 0.015003 0.062060 -0.218955
v 0.059442 0.065519 0.015997
v 0.063498 0.065519 0.269366
v 0.003920 0.073194 -0.217905
v 0.045838 0.079185 0.017286
v 0.049894 0.079185 0.270655
v -0.011221 0.077269 -0.216470
v 0.027254 0.084186 0.019047
v 0.031310 0.084186 0.272417
v -0.026362 0.073194 -0.215035
v 0.008670 0.079185 0.020808
v 0.012726 0.079185 0.274178
v -0.037445 0.062060 -0.213985
v -0.004934 0.065519 0.022098
v -0.000879 0.065519 0.275467
v -0.041502 0.046852 -0.213600
v -0.009914 0.046852 0.022570
v -0.005858 0.046852 0.275939
v -0.037445 0.031644 -0.213985
v -0.004934 0.028185 0.022098
v -0.000879 0.028185 0.275467
v -0.026362 0.020510 -0.215035
v 0.008670 0.014519 0.020808
v 0.012726 0.014519 0.274178
v -0.011221 0.016435 -0.216470
v 0.027254 0.009518 0.019047
v 0.031310 0.009517 0.272417
v 0.003919 0.020510 -0.217905
v 0.045838 0.014519 0.017286
v 0.049894 0.014519 0.270655
v 0.015003 0.031644 -0.218955
v 0.059442 0.028185 0.015997
v 0.063498 0.028185 0.269366
v 0.055628 0.046852 0.562502
v 0.059240 0.046852 0.542848
v -0.016404 0.046852 -0.392549
v -0.009390 0.046852 -0.376816
v 0.049808 0.068384 0.561511
v 0.053123 0.069514 0.541795
v -0.021409 0.065606 -0.392077
v -0.014662 0.066635 -0.376316
v 0.033923 0.084132 0.558807
v 0.036410 0.086100 0.539003
v -0.035072 0.079314 -0.390805
v -0.029125 0.081128 -0.375157
v 0.012243 0.089891 0.555116
v 0.013541 0.092184 0.535873
v -0.053669 0.084265 -0.389188
v -0.049116 0.086423 -0.374458
v -0.009436 0.084132 0.551426
v -0.009374 0.086132 0.533115
v -0.072220 0.079209 -0.387602
v -0.069056 0.081110 -0.373597
v -0.025322 0.068384 0.548722
v -0.026149 0.069537 0.530905
v -0.085792 0.065521 -0.386416
v -0.083585 0.066628 -0.372715
v -0.031142 0.046852 0.547731
v -0.032289 0.046852 0.530067
v -0.090759 0.046852 -0.385978
v -0.088894 0.046852 -0.372360
v -0.025322 0.025320 0.548722
v -0.026149 0.024167 0.530905
v -0.085792 0.028183 -0.386416
v -0.083585 0.027076 -0.372715
v -0.009436 0.009572 0.551426
v -0.009374 0.007572 0.533115
v -0.072220 0.014496 -0.387602
v -0.069056 0.012594 -0.373597
v 0.012243 0.003813 0.555116
v 0.013541 0.001520 0.535873
v -0.053669 0.009439 -0.389188
v -0.049116 0.007281 -0.374458
v 0.033923 0.009572 0.558807
v 0.036410 0.007604 0.539003
v -0.035072 0.014390 -0.390805
v -0.029125 0.012577 -0.375157
v 0.049808 0.025320 0.561511
v 0.053123 0.024189 0.541795
v -0.021409 0.028099 -0.392077
v -0.014662 0.027069 -0.376316
v -0.097282 0.025552 -0.172734
v -0.113466 0.025552 -0.329655
v 0.243281 0.046852 -0.120647
v 0.208316 0.046852 -0.468523
v -0.097282 0.068152 -0.172734
v -0.113466 0.068152 -0.329655
v 0.139706 -0.000738 -0.173094
v 0.117325 -0.000740 -0.395787
v 0.139706 0.094442 -0.173094
v 0.117325 0.094444 -0.395787
v 0.039780 0.007818 -0.184767
v 0.022521 0.085886 -0.355190
v 0.022521 0.007818 -0.355190
v 0.039780 0.085886 -0.184767
v -0.070054 0.000847 -0.175124
v -0.086451 0.092857 -0.334728
v -0.086451 0.000847 -0.334728
v -0.070054 0.092857 -0.175124
vn 0.8676 -0.4972 0.0058
vn 0.8641 -0.4949 -0.0914
vn 0.9947 -0.0000 -0.1031
vn 1.0000 -0.0000 0.0085
vn 0.8538 -0.4961 -0.1580
vn 0.9830 -0.0000 -0.1838
vn 0.5051 -0.8631 -0.0021
vn 0.5055 -0.8608 -0.0595
vn 0.4976 -0.8631 -0.0865
vn 0.0074 -0.9999 -0.0143
vn 0.0106 -0.9998 -0.0154
vn 0.0064 -0.9999 0.0123
vn -0.4936 -0.8692 -0.0285
vn -0.4903 -0.8711 0.0291
vn -0.4863 -0.8666 0.1119
vn -0.8631 -0.5035 -0.0403
vn -0.8608 -0.5052 0.0621
vn -0.8461 -0.4999 0.1848
vn -0.9990 -0.0000 -0.0449
vn -0.9972 -0.0000 0.0742
vn -0.9774 -0.0000 0.2115
vn -0.8631 0.5035 -0.0403
vn -0.8608 0.5052 0.0621
vn -0.8461 0.4999 0.1848
vn -0.4936 0.8692 -0.0285
vn -0.4903 0.8711 0.0291
vn -0.4863 0.8666 0.1119
vn 0.0074 0.9999 -0.0143
vn 0.0106 0.9998 -0.0154
vn 0.0064 0.9999 0.0123
vn 0.5051 0.8631 -0.0021
vn 0.5055 0.8608 -0.0595
vn 0.4976 0.8631 -0.0865
vn 0.8676 0.4972 0.0058
vn 0.8641 0.4949 -0.0914
vn 0.8538 0.4961 -0.1580
vn 0.9941 -0.0000 0.1084
vn 0.8573 0.5051 0.0992
vn 0.5282 0.3745 0.7620
vn 0.6329 -0.0000 0.7743
vn 0.8322 0.4908 -0.2580
vn 0.9567 -0.0000 -0.2910
vn 0.5676 -0.0000 -0.8233
vn 0.4867 0.3358 -0.8064
vn 0.4889 0.8692 0.0744
vn 0.2534 0.6346 0.7302
vn 0.4856 0.8581 -0.1668
vn 0.2556 0.5986 -0.7591
vn -0.0073 0.9991 0.0429
vn -0.1032 0.7168 0.6896
vn 0.0008 0.9990 -0.0439
vn -0.0847 0.7123 -0.6968
vn -0.5019 0.8649 0.0121
vn -0.4482 0.6128 0.6508
vn -0.4900 0.8678 0.0824
vn -0.4474 0.6329 -0.6318
vn -0.8658 0.5002 -0.0120
vn -0.6989 0.3525 0.6224
vn -0.8478 0.5003 0.1761
vn -0.7229 0.3713 -0.5827
vn -0.9998 -0.0000 -0.0211
vn -0.7910 -0.0000 0.6118
vn -0.9776 -0.0000 0.2103
vn -0.8254 -0.0000 -0.5645
vn -0.8658 -0.5002 -0.0120
vn -0.6989 -0.3525 0.6224
vn -0.8478 -0.5003 0.1761
vn -0.7229 -0.3713 -0.5827
vn -0.5019 -0.8649 0.0121
vn -0.4482 -0.6128 0.6508
vn -0.4900 -0.8678 0.0824
vn -0.4474 -0.6329 -0.6318
vn -0.0073 -0.9991 0.0429
vn -0.1032 -0.7168 0.6896
vn 0.0008 -0.9990 -0.0439
vn -0.0847 -0.7123 -0.6968
vn 0.4889 -0.8692 0.0744
vn 0.2534 -0.6346 0.7302
vn 0.4856 -0.8581 -0.1668
vn 0.2556 -0.5986 -0.7591
vn 0.8573 -0.5051 0.0992
vn 0.5282 -0.3745 0.7620
vn 0.8322 -0.4908 -0.2580
vn 0.4867 -0.3358 -0.8064
vn 0.0217 -0.7966 0.6041
vn -0.1309 -0.7918 -0.5966
vn 0.5200 -0.0000 -0.8541
vn 0.6820 -0.0000 0.7313
vn -0.1968 0.7333 0.6507
vn -0.3524 0.7312 -0.5841
vn -0.7971 0.3140 -0.5158
vn -0.6502 0.3161 0.6909
vn -0.7971 -0.3140 -0.5158
vn -0.6502 -0.3161 0.6909
vn -0.1968 -0.7333 0.6507
vn -0.3524 -0.7312 -0.5841
vn -0.1309 0.7918 -0.5966
vn 0.0217 0.7966 0.6041
vn -0.0226 -0.7130 0.7008
vn -0.2177 -0.7143 -0.6651
vn -0.2177 0.7143 -0.6651
vn -0.0226 0.7130 0.7008
vt 0.213000 0.891874
vt 0.212871 0.929901
vt 0.210021 0.929896
vt 0.210021 0.891952
vt 0.212521 0.966459
vt 0.210021 0.966403
vt 0.215972 0.891664
vt 0.215737 0.929919
vt 0.215015 0.966616
vt 0.218940 0.891384
vt 0.218624 0.929951
vt 0.217498 0.966826
vt 0.221913 0.891128
vt 0.221538 0.930004
vt 0.219972 0.967020
vt 0.224897 0.890990
vt 0.224478 0.930082
vt 0.222435 0.967132
vt 0.227894 0.891038
vt 0.227436 0.930187
vt 0.224889 0.967119
vt 0.195145 0.890990
vt 0.195564 0.930082
vt 0.192605 0.930187
vt 0.192147 0.891038
vt 0.197606 0.967132
vt 0.195152 0.967119
vt 0.198129 0.891128
vt 0.198504 0.930004
vt 0.200069 0.967020
vt 0.201102 0.891384
vt 0.201418 0.929951
vt 0.202543 0.966826
vt 0.204070 0.891664
vt 0.204305 0.929919
vt 0.205026 0.966616
vt 0.207042 0.891874
vt 0.207170 0.929901
vt 0.207520 0.966459
vt 0.210021 0.850386
vt 0.206488 0.850515
vt 0.206462 0.847409
vt 0.210021 0.847318
vt 0.206973 0.990934
vt 0.210021 0.990824
vt 0.210021 0.993559
vt 0.206837 0.993606
vt 0.202928 0.850831
vt 0.202862 0.847712
vt 0.203949 0.991202
vt 0.203705 0.993790
vt 0.199347 0.851179
vt 0.199250 0.848164
vt 0.200923 0.991664
vt 0.200629 0.994037
vt 0.195768 0.851511
vt 0.195661 0.848656
vt 0.197885 0.992037
vt 0.197593 0.994230
vt 0.192201 0.851842
vt 0.192113 0.849059
vt 0.194836 0.992168
vt 0.194591 0.994270
vt 0.188580 0.852057
vt 0.188582 0.849241
vt 0.191737 0.992036
vt 0.191623 0.994146
vt 0.231462 0.852057
vt 0.227841 0.851842
vt 0.227929 0.849060
vt 0.231460 0.849241
vt 0.225206 0.992168
vt 0.228305 0.992036
vt 0.228419 0.994146
vt 0.225450 0.994270
vt 0.224274 0.851511
vt 0.224381 0.848656
vt 0.222156 0.992037
vt 0.222449 0.994230
vt 0.220694 0.851180
vt 0.220792 0.848164
vt 0.219118 0.991664
vt 0.219413 0.994037
vt 0.217114 0.850831
vt 0.217179 0.847712
vt 0.216092 0.991202
vt 0.216336 0.993790
vt 0.213554 0.850515
vt 0.213579 0.847409
vt 0.213068 0.990934
vt 0.213205 0.993606
vt 0.207579 0.790945
vt 0.230632 0.790949
vt 0.214844 0.795083
vt 0.165713 0.958723
vt 0.171923 0.962284
vt 0.175519 0.968483
vt 0.203436 0.783771
vt 0.234936 0.783781
vt 0.203532 0.775487
vt 0.235031 0.775497
vt 0.207836 0.768319
vt 0.230888 0.768323
vt 0.215188 0.764185
vt 0.223623 0.764185
vt 0.223279 0.795083
vt 0.175519 0.975680
vt 0.171914 0.981917
vt 0.158547 0.958736
vt 0.152339 0.962323
vt 0.165673 0.985516
vt 0.148746 0.968528
vt 0.158476 0.985509
vt 0.148726 0.975694
vt 0.152281 0.981907
vt 0.645297 0.908586
vt 0.686471 0.909970
vt 0.697439 0.930372
vt 0.633118 0.928210
vt 0.613234 0.869703
vt 0.583703 0.869363
vt 0.584201 0.862579
vt 0.613237 0.862921
vt 0.679998 0.976752
vt 0.739987 0.976752
vt 0.739987 0.992952
vt 0.679998 0.992952
vt 0.532395 0.909171
vt 0.508949 0.909083
vt 0.515270 0.902142
vt 0.526126 0.902182
vt 0.533009 0.986428
vt 0.556455 0.986515
vt 0.550134 0.993496
vt 0.539278 0.993456
vt 0.545046 0.902253
vt 0.557063 0.931983
vt 0.532808 0.931892
vt 0.520361 0.992444
vt 0.508344 0.962815
vt 0.532599 0.962905
vt 0.628435 0.928357
vt 0.564081 0.927760
vt 0.575913 0.907847
vt 0.617109 0.908229
vt 0.649882 0.890575
vt 0.681395 0.891610
vt 0.650820 0.870261
vt 0.680339 0.871188
vt 0.554784 0.958255
vt 0.534890 0.958180
vt 0.510620 0.937186
vt 0.530514 0.937260
vt 0.581772 0.889721
vt 0.613301 0.890038
vt 0.651108 0.863485
vt 0.680132 0.864388
s 1
usemtl Material
f 36/1/1 35/2/2 2/3/3 1/4/4
f 35/2/2 34/5/5 3/6/6 2/3/3
f 33/7/7 32/8/8 35/2/2 36/1/1
f 32/8/8 31/9/9 34/5/5 35/2/2
f 30/10/10 29/11/11 32/8/8 33/7/7
f 29/11/11 28/12/12 31/9/9 32/8/8
f 27/13/13 26/14/14 29/11/11 30/10/10
f 26/14/14 25/15/15 28/12/12 29/11/11
f 24/16/16 23/17/17 26/14/14 27/13/13
f 23/17/17 22/18/18 25/15/15 26/14/14
f 21/19/19 20/20/20 23/17/17 24/16/16
f 20/20/20 19/21/21 22/18/18 23/17/17
f 18/22/22 17/23/23 20/24/20 21/25/19
f 17/23/23 16/26/24 19/27/21 20/24/20
f 15/28/25 14/29/26 17/23/23 18/22/22
f 14/29/26 13/30/27 16/26/24 17/23/23
f 12/31/28 11/32/29 14/29/26 15/28/25
f 11/32/29 10/33/30 13/30/27 14/29/26
f 9/34/31 8/35/32 11/32/29 12/31/28
f 8/35/32 7/36/33 10/33/30 11/32/29
f 6/37/34 5/38/35 8/35/32 9/34/31
f 5/38/35 4/39/36 7/36/33 8/35/32
f 1/4/4 2/3/3 5/38/35 6/37/34
f 2/3/3 3/6/6 4/39/36 5/38/35
f 38/40/37 42/41/38 41/42/39 37/43/40
f 44/44/41 40/45/42 39/46/43 43/47/44
f 42/41/38 46/48/45 45/49/46 41/42/39
f 48/50/47 44/44/41 43/47/44 47/51/48
f 46/48/45 50/52/49 49/53/50 45/49/46
f 52/54/51 48/50/47 47/51/48 51/55/52
f 50/52/49 54/56/53 53/57/54 49/53/50
f 56/58/55 52/54/51 51/55/52 55/59/56
f 54/56/53 58/60/57 57/61/58 53/57/54
f 60/62/59 56/58/55 55/59/56 59/63/60
f 58/60/57 62/64/61 61/65/62 57/61/58
f 64/66/63 60/62/59 59/63/60 63/67/64
f 62/68/61 66/69/65 65/70/66 61/71/62
f 68/72/67 64/73/63 63/74/64 67/75/68
f 66/69/65 70/76/69 69/77/70 65/70/66
f 72/78/71 68/72/67 67/75/68 71/79/72
f 70/76/69 74/80/73 73/81/74 69/77/70
f 76/82/75 72/78/71 71/79/72 75/83/76
f 74/80/73 78/84/77 77/85/78 73/81/74
f 80/86/79 76/82/75 75/83/76 79/87/80
f 78/84/77 82/88/81 81/89/82 77/85/78
f 84/90/83 80/86/79 79/87/80 83/91/84
f 82/88/81 38/40/37 37/43/40 81/89/82
f 40/45/42 84/90/83 83/91/84 39/46/43
f 38/40/37 1/4/4 6/37/34 42/41/38
f 81/92/82 69/93/70 77/94/78
f 82/88/81 36/1/1 1/4/4 38/40/37
f 55/95/56 51/96/52 47/97/48
f 3/6/6 40/45/42 44/44/41 4/39/36
f 34/5/5 84/90/83 40/45/42 3/6/6
f 42/41/38 6/37/34 9/34/31 46/48/45
f 4/39/36 44/44/41 48/50/47 7/36/33
f 46/48/45 9/34/31 12/31/28 50/52/49
f 7/36/33 48/50/47 52/54/51 10/33/30
f 50/52/49 12/31/28 15/28/25 54/56/53
f 10/33/30 52/54/51 56/58/55 13/30/27
f 54/56/53 15/28/25 18/22/22 58/60/57
f 13/30/27 56/58/55 60/62/59 16/26/24
f 58/60/57 18/22/22 21/25/19 62/64/61
f 16/26/24 60/62/59 64/66/63 19/27/21
f 62/68/61 21/19/19 24/16/16 66/69/65
f 19/21/21 64/73/63 68/72/67 22/18/18
f 66/69/65 24/16/16 27/13/13 70/76/69
f 22/18/18 68/72/67 72/78/71 25/15/15
f 70/76/69 27/13/13 30/10/10 74/80/73
f 25/15/15 72/78/71 76/82/75 28/12/12
f 74/80/73 30/10/10 33/7/7 78/84/77
f 28/12/12 76/82/75 80/86/79 31/9/9
f 78/84/77 33/7/7 36/1/1 82/88/81
f 31/9/9 80/86/79 84/90/83 34/5/5
f 81/92/82 37/98/40 65/99/66
f 37/98/40 41/100/39 61/101/62
f 65/99/66 37/98/40 61/101/62
f 41/100/39 45/102/46 57/103/58
f 45/102/46 49/104/50 53/105/54
f 57/103/58 45/102/46 53/105/54
f 57/103/58 61/101/62 41/100/39
f 65/99/66 69/93/70 81/92/82
f 69/93/70 73/106/74 77/94/78
f 47/97/48 43/107/44 55/95/56
f 43/107/44 39/108/43 59/109/60
f 59/109/60 39/108/43 63/110/64
f 39/108/43 83/111/84 67/112/68
f 83/111/84 79/113/80 71/114/72
f 39/108/43 67/112/68 63/110/64
f 79/113/80 75/115/76 71/114/72
f 71/114/72 67/112/68 83/111/84
f 59/109/60 55/95/56 43/107/44
f 91/116/85 92/117/86 88/118/87 87/119/88
f 102/120/89 100/121/90 90/122/91 89/123/92
f 89/124/92 90/125/91 86/126/93 85/127/94
f 99/128/95 102/129/89 89/130/92 85/131/94
f 100/132/90 101/133/96 86/134/93 90/135/91
f 88/136/87 92/137/86 94/138/97
f 87/139/88 93/140/98 91/141/85
f 87/142/88 88/143/87 94/144/97 93/145/98
f 95/146/99 97/147/100 92/117/86 91/116/85
f 99/148/95 101/149/96 97/147/100 95/146/99
f 94/138/97 92/137/86 97/150/100 96/151/101
f 91/141/85 93/140/98 98/152/102 95/153/99
f 93/145/98 94/144/97 96/154/101 98/155/102
f 85/156/94 86/157/93 101/149/96 99/148/95
f 96/151/101 97/150/100 101/133/96 100/132/90
f 95/153/99 98/152/102 102/129/89 99/128/95
f 98/155/102 96/154/101 100/121/90 102/120/89
