# Blender 5.0.1
# www.blender.org
mtllib bottle.mtl
o bottle
v 0.000886 0.013317 -0.006638
v 0.063437 0.076199 0.056083
v -0.023006 0.076199 0.094848
v -0.076431 0.076200 -0.006638
v -0.023006 0.076199 -0.108123
v 0.063437 0.076199 -0.069359
v 0.019107 0.219574 0.070761
v -0.046819 0.219574 0.041197
v -0.046819 0.219574 -0.054472
v 0.019107 0.219574 -0.084036
v 0.059852 0.219574 -0.006638
v 0.033521 0.304411 -0.006638
v -0.013157 0.018130 0.053014
v 0.037652 0.018130 0.030228
v 0.023609 0.064897 0.089881
v 0.074418 0.064898 -0.006638
v 0.037652 0.018130 -0.043504
v -0.044560 0.018130 -0.006638
v -0.058603 0.064898 0.053014
v -0.013157 0.018130 -0.066289
v -0.058603 0.064898 -0.066289
v 0.023609 0.064897 -0.103156
v 0.083098 0.140570 0.030229
v 0.083098 0.140570 -0.043504
v 0.000886 0.140570 0.112666
v 0.051696 0.140570 0.089881
v -0.081327 0.140570 0.030229
v -0.049924 0.140570 0.089881
v -0.049924 0.140570 -0.103156
v -0.081327 0.140570 -0.043504
v 0.051696 0.140570 -0.103156
v 0.000886 0.140570 -0.125942
v 0.048289 0.226472 0.040895
v -0.017221 0.226472 0.070272
v -0.057708 0.226472 -0.006638
v -0.017221 0.226472 -0.083547
v 0.048289 0.226472 -0.054170
v 0.006949 0.265046 0.019117
v 0.020507 0.265046 -0.006638
v -0.014988 0.265046 0.009279
v -0.014988 0.265046 -0.022555
v 0.006949 0.265046 -0.032392
v 0.021242 0.284427 -0.006638
v 0.007176 0.284427 0.020082
v -0.015583 0.284427 0.009876
v -0.015583 0.284427 -0.023152
v 0.007176 0.284427 -0.033358
v 0.000886 0.304615 -0.006638
v 0.010970 0.304412 0.023621
v -0.025516 0.304412 0.012063
v -0.025516 0.304412 -0.025339
v 0.010970 0.304412 -0.036897
v 0.009774 0.264084 0.031118
v 0.010002 0.283465 0.032084
v 0.030386 0.283465 -0.006638
v 0.029650 0.264084 -0.006638
v 0.009774 0.264084 -0.044394
v 0.010002 0.283465 -0.045359
v -0.022980 0.283465 -0.030569
v -0.022385 0.264084 -0.029972
v -0.022385 0.264084 0.016697
v -0.022980 0.283465 0.017293
v 0.000886 0.321183 -0.026393
v 0.000886 0.315731 -0.041297
v 0.017862 0.321183 -0.019361
v 0.025393 0.315732 -0.031145
v 0.023133 0.321183 -0.006638
v 0.035544 0.315733 -0.006638
v 0.017862 0.321183 0.006086
v 0.025393 0.315732 0.017870
v 0.000886 0.321183 0.013118
v 0.000886 0.315731 0.028022
v -0.016091 0.321183 0.006086
v -0.023622 0.315732 0.017870
v -0.021361 0.321183 -0.006638
v -0.033772 0.315733 -0.006638
v -0.016091 0.321183 -0.019361
v -0.023622 0.315732 -0.031145
v 0.000886 0.296086 -0.041651
v 0.000886 0.299862 -0.048530
v 0.030509 0.299861 -0.036260
v 0.027727 0.296086 -0.030533
v 0.042779 0.299860 -0.006638
v 0.037625 0.296086 -0.006638
v 0.030509 0.299861 0.022985
v 0.027727 0.296086 0.017258
v 0.000886 0.299862 0.035255
v 0.000886 0.296086 0.028376
v -0.028737 0.299861 0.022985
v -0.025955 0.296086 0.017258
v -0.041008 0.299860 -0.006638
v -0.035853 0.296086 -0.006638
v -0.028737 0.299861 -0.036260
v -0.025955 0.296086 -0.030533
vn 0.0007 -1.0000 -0.0000
vn 0.0757 -0.9956 0.0545
vn -0.0236 -0.9969 0.0749
vn 0.8231 -0.3323 0.4605
vn 0.6745 -0.6372 0.3730
vn 0.9257 -0.3782 -0.0000
vn -0.1053 -0.9944 -0.0000
vn -0.0236 -0.9969 -0.0749
vn 0.0757 -0.9956 -0.0545
vn 0.9682 0.0854 0.2351
vn -0.3534 -0.3813 0.8542
vn 0.3388 -0.4611 0.8201
vn 0.0105 0.1080 0.9941
vn -0.9515 -0.3075 -0.0000
vn -0.7970 -0.4061 0.4470
vn -0.9641 0.0851 0.2514
vn -0.3534 -0.3813 -0.8542
vn -0.7970 -0.4061 -0.4470
vn -0.6805 0.0993 -0.7260
vn 0.8231 -0.3323 -0.4605
vn 0.3388 -0.4611 -0.8201
vn 0.6664 0.0984 -0.7391
vn 0.6664 0.0984 0.7391
vn -0.6805 0.0993 0.7260
vn -0.9641 0.0851 -0.2514
vn 0.0105 0.1080 -0.9941
vn 0.9682 0.0854 -0.2351
vn 0.3274 0.5698 0.7537
vn 0.7139 0.5671 0.4107
vn 0.3189 -0.5713 0.7562
vn -0.7565 0.5109 0.4082
vn -0.2931 0.6245 0.7240
vn -0.7326 -0.5488 0.4026
vn -0.7565 0.5109 -0.4082
vn -0.8458 0.5334 -0.0000
vn -0.7326 -0.5488 -0.4026
vn 0.3274 0.5698 -0.7537
vn -0.2931 0.6245 -0.7240
vn 0.3189 -0.5713 -0.7562
vn 0.8766 0.4813 -0.0000
vn 0.7139 0.5671 -0.4107
vn 0.8386 -0.5448 -0.0000
vn -0.0234 -0.9970 -0.0744
vn 0.0752 -0.9957 -0.0541
vn -0.1046 -0.9945 -0.0000
vn -0.5632 0.7014 -0.4369
vn 0.1767 0.7815 -0.5984
vn 0.0234 0.9970 -0.0744
vn -0.0752 0.9957 -0.0541
vn 0.7644 0.6447 -0.0000
vn 0.1767 0.7815 0.5984
vn 0.0234 0.9970 0.0744
vn 0.1046 0.9945 -0.0000
vn 0.6745 -0.6372 -0.3730
vn -0.2666 -0.7178 -0.6432
vn -0.8052 -0.5930 -0.0000
vn -0.2666 -0.7178 0.6432
vn -0.5632 0.7014 0.4369
vn -0.7590 0.4432 0.4770
vn -0.7590 0.4432 -0.4770
vn 0.8999 0.4360 -0.0000
vn 0.3128 0.4533 0.8346
vn 0.3128 0.4533 -0.8346
vn -0.0000 1.0000 -0.0000
vn 0.3280 -0.0508 0.9433
vn 0.9993 -0.0379 -0.0000
vn 0.3238 -0.0509 0.9448
vn 0.3280 -0.0508 -0.9433
vn -0.8404 -0.0424 -0.5403
vn -0.8370 -0.0425 -0.5456
vn 0.3238 -0.0509 -0.9448
vn -0.8404 -0.0424 0.5403
vn -0.8370 -0.0425 0.5456
vn -0.0752 0.9957 0.0541
vn 0.0752 -0.9957 0.0541
vn -0.0234 -0.9970 0.0744
vn 0.5131 0.6815 -0.5219
vn -0.0000 0.6891 -0.7247
vn -0.0000 0.9764 -0.2160
vn 0.1797 0.9714 -0.1550
vn 0.7418 0.6707 -0.0000
vn 0.2534 0.9674 -0.0000
vn 0.5131 0.6815 0.5219
vn 0.1797 0.9714 0.1550
vn -0.0000 0.6891 0.7247
vn -0.0000 0.9764 0.2160
vn -0.5131 0.6815 0.5219
vn -0.1797 0.9714 0.1550
vn -0.7418 0.6707 -0.0000
vn -0.2534 0.9674 -0.0000
vn -0.5131 0.6815 -0.5219
vn -0.1797 0.9714 -0.1550
vn -0.0000 -0.8766 -0.4811
vn 0.3508 -0.8511 -0.3906
vn 0.2692 -0.9375 -0.2204
vn -0.0000 -0.9525 -0.3046
vn 0.5909 -0.8068 -0.0000
vn 0.3773 -0.9261 -0.0000
vn 0.3508 -0.8511 0.3906
vn 0.2692 -0.9375 0.2204
vn -0.0000 -0.8766 0.4811
vn -0.0000 -0.9525 0.3046
vn -0.3508 -0.8511 0.3906
vn -0.2692 -0.9375 0.2204
vn -0.5909 -0.8068 -0.0000
vn -0.3773 -0.9261 -0.0000
vn -0.3508 -0.8511 -0.3906
vn -0.2692 -0.9375 -0.2204
vn -0.0000 0.4148 -0.9099
vn 0.6434 0.4148 -0.6434
vn -0.6434 0.4148 -0.6434
vn 0.9099 0.4148 -0.0000
vn 0.6434 0.4148 0.6434
vn -0.0000 0.4148 0.9099
vn -0.6434 0.4148 0.6434
vn -0.9099 0.4148 -0.0000
vt 0.044731 0.013408
vt 0.039467 0.014095
vt 0.036214 0.014095
vt 0.035776 0.022385
vt 0.044731 0.020772
vt 0.044731 0.014095
vt 0.053248 0.014095
vt 0.049994 0.014095
vt 0.039467 0.031576
vt 0.030241 0.022385
vt 0.030951 0.020772
vt 0.027697 0.031576
vt 0.044731 0.022386
vt 0.036214 0.020772
vt 0.059220 0.022385
vt 0.053248 0.020772
vt 0.058511 0.031576
vt 0.053686 0.022385
vt 0.058511 0.020772
vt 0.030951 0.031576
vt 0.049994 0.031576
vt 0.061764 0.031576
vt 0.033680 0.042856
vt 0.037944 0.043841
vt 0.041054 0.049348
vt 0.037901 0.042856
vt 0.033750 0.043841
vt 0.042458 0.049348
vt 0.051560 0.042856
vt 0.044731 0.043840
vt 0.047003 0.049348
vt 0.055781 0.042856
vt 0.055711 0.043841
vt 0.048408 0.049348
vt 0.044731 0.042856
vt 0.051517 0.043841
vt 0.044731 0.049348
vt 0.039340 0.049211
vt 0.041399 0.049211
vt 0.044731 0.049210
vt 0.047089 0.052115
vt 0.048546 0.052115
vt 0.050259 0.051978
vt 0.048148 0.051978
vt 0.044731 0.052115
vt 0.040916 0.052115
vt 0.039202 0.051978
vt 0.044731 0.051978
vt 0.042373 0.052115
vt 0.042061 0.054968
vt 0.047401 0.054968
vt 0.044731 0.054968
vt 0.040411 0.054968
vt 0.049051 0.054968
vt 0.044731 0.054997
vt 0.050121 0.049211
vt 0.048062 0.049211
vt 0.041314 0.051978
vt 0.471076 0.327879
vt 0.448512 0.337226
vt 0.448512 0.323504
vt 0.464143 0.317029
vt 0.480422 0.305314
vt 0.468995 0.305314
vt 0.471076 0.282750
vt 0.464143 0.293599
vt 0.448512 0.273403
vt 0.448512 0.287125
vt 0.425947 0.282750
vt 0.432881 0.293599
vt 0.416601 0.305314
vt 0.428029 0.305314
vt 0.425947 0.327879
vt 0.432881 0.317029
vt 0.448512 0.343886
vt 0.475786 0.332589
vt 0.473225 0.327315
vt 0.448512 0.337552
vt 0.487084 0.305314
vt 0.482338 0.305314
vt 0.475786 0.278040
vt 0.473225 0.283313
vt 0.448512 0.266743
vt 0.448512 0.273077
vt 0.421238 0.278040
vt 0.423799 0.283313
vt 0.409940 0.305314
vt 0.414686 0.305314
vt 0.421238 0.332589
vt 0.423799 0.327315
s 1
usemtl Material
f 1/1/1 14/2/2 13/3/3
f 2/4/4 14/2/5 16/5/6
f 1/1/1 13/3/3 18/6/7
f 1/1/1 18/6/7 20/7/8
f 1/1/1 20/7/8 17/8/9
f 2/4/4 16/5/6 23/9/10
f 3/10/11 15/11/12 25/12/13
f 4/13/14 19/14/15 27/9/16
f 5/15/17 21/16/18 29/17/19
f 6/18/20 22/19/21 31/17/22
f 2/4/4 23/9/10 26/20/23
f 3/10/11 25/12/13 28/20/24
f 4/13/14 27/9/16 30/21/25
f 5/15/17 29/17/19 32/22/26
f 6/18/20 31/17/22 24/21/27
f 7/23/28 33/24/29 38/25/30
f 8/26/31 34/27/32 40/28/33
f 9/29/34 35/30/35 41/31/36
f 10/32/37 36/33/38 42/34/39
f 11/35/40 37/36/41 39/37/42
f 40/28/33 38/25/30 53/38/43 61/39/44
f 39/37/42 37/36/41 42/34/39
f 37/36/41 10/32/37 42/34/39
f 38/25/30 39/37/42 56/40/45 53/38/43
f 42/34/39 36/33/38 41/31/36
f 36/33/38 9/29/34 41/31/36
f 46/41/46 47/42/47 58/43/48 59/44/49
f 41/31/36 35/30/35 40/28/33
f 35/30/35 8/26/31 40/28/33
f 43/45/50 44/46/51 54/47/52 55/48/53
f 40/28/33 34/27/32 38/25/30
f 34/27/32 7/23/28 38/25/30
f 47/42/47 43/45/50 55/48/53 58/43/48
f 38/25/30 33/24/29 39/37/42
f 33/24/29 11/35/40 39/37/42
f 24/21/27 37/36/41 11/35/40
f 24/21/27 31/17/22 37/36/41
f 31/17/22 10/32/37 37/36/41
f 32/22/26 36/33/38 10/32/37
f 32/22/26 29/17/19 36/33/38
f 29/17/19 9/29/34 36/33/38
f 30/21/25 35/30/35 9/29/34
f 30/21/25 27/9/16 35/30/35
f 27/9/16 8/26/31 35/30/35
f 28/20/24 34/27/32 8/26/31
f 28/20/24 25/12/13 34/27/32
f 25/12/13 7/23/28 34/27/32
f 26/20/23 33/24/29 7/23/28
f 26/20/23 23/9/10 33/24/29
f 23/9/10 11/35/40 33/24/29
f 31/17/22 32/22/26 10/32/37
f 31/17/22 22/19/21 32/22/26
f 22/19/21 5/15/17 32/22/26
f 29/17/19 30/21/25 9/29/34
f 29/17/19 21/16/18 30/21/25
f 21/16/18 4/13/14 30/21/25
f 27/9/16 28/20/24 8/26/31
f 27/9/16 19/14/15 28/20/24
f 19/14/15 3/10/11 28/20/24
f 25/12/13 26/20/23 7/23/28
f 25/12/13 15/11/12 26/20/23
f 15/11/12 2/4/4 26/20/23
f 23/9/10 24/21/27 11/35/40
f 23/9/10 16/5/6 24/21/27
f 16/5/6 6/18/20 24/21/27
f 17/8/54 22/19/21 6/18/20
f 17/8/54 20/7/55 22/19/21
f 20/7/55 5/15/17 22/19/21
f 20/7/55 21/16/18 5/15/17
f 20/7/55 18/6/56 21/16/18
f 18/6/56 4/13/14 21/16/18
f 18/6/56 19/14/15 4/13/14
f 18/6/56 13/3/57 19/14/15
f 13/3/57 3/10/11 19/14/15
f 16/5/6 17/8/54 6/18/20
f 16/5/6 14/2/5 17/8/54
f 14/2/2 1/1/1 17/8/9
f 13/3/57 15/11/12 3/10/11
f 13/3/57 14/2/5 15/11/12
f 14/2/5 2/4/4 15/11/12
f 46/41/46 45/49/58 50/50/59 51/51/60
f 44/46/51 43/45/50 12/52/61 49/53/62
f 47/42/47 46/41/46 51/51/60 52/54/63
f 45/49/58 44/46/51 49/53/62 50/50/59
f 43/45/50 47/42/47 52/54/63 12/52/61
f 12/52/61 52/54/63 48/55/64
f 52/54/63 51/51/60 48/55/64
f 51/51/60 50/50/59 48/55/64
f 50/50/59 49/53/62 48/55/64
f 49/53/62 12/52/61 48/55/64
f 53/38/65 56/40/66 55/48/66 54/47/67
f 57/56/68 60/57/69 59/44/70 58/43/71
f 61/39/72 53/38/65 54/47/67 62/58/73
f 56/40/66 57/56/68 58/43/71 55/48/66
f 60/57/69 61/39/72 62/58/73 59/44/70
f 45/49/58 46/41/46 59/44/49 62/58/74
f 41/31/36 40/28/33 61/39/44 60/57/75
f 42/34/39 41/31/36 60/57/75 57/56/76
f 39/37/42 42/34/39 57/56/76 56/40/45
f 44/46/51 45/49/58 62/58/74 54/47/52
f 66/59/77 64/60/78 63/61/79 65/62/80
f 68/63/81 66/59/77 65/62/80 67/64/82
f 70/65/83 68/63/81 67/64/82 69/66/84
f 72/67/85 70/65/83 69/66/84 71/68/86
f 74/69/87 72/67/85 71/68/86 73/70/88
f 76/71/89 74/69/87 73/70/88 75/72/90
f 78/73/91 76/71/89 75/72/90 77/74/92
f 64/60/78 78/73/91 77/74/92 63/61/79
f 65/62/80 63/61/79 77/74/92 75/72/90 73/70/88 71/68/86 69/66/84 67/64/82
f 80/75/93 81/76/94 82/77/95 79/78/96
f 81/76/94 83/79/97 84/80/98 82/77/95
f 83/79/97 85/81/99 86/82/100 84/80/98
f 85/81/99 87/83/101 88/84/102 86/82/100
f 87/83/101 89/85/103 90/86/104 88/84/102
f 89/85/103 91/87/105 92/88/106 90/86/104
f 91/87/105 93/89/107 94/90/108 92/88/106
f 93/89/107 80/75/93 79/78/96 94/90/108
f 80/75/109 64/60/78 66/59/77 81/76/110
f 79/78/96 82/77/95 84/80/98 86/82/100 88/84/102 90/86/104 92/88/106 94/90/108
f 93/89/111 78/73/91 64/60/78 80/75/109
f 81/76/110 66/59/77 68/63/81 83/79/112
f 83/79/112 68/63/81 70/65/83 85/81/113
f 85/81/113 70/65/83 72/67/85 87/83/114
f 87/83/114 72/67/85 74/69/87 89/85/115
f 89/85/115 74/69/87 76/71/89 91/87/116
f 91/87/116 76/71/89 78/73/91 93/89/111
