# Blender 5.0.1
# www.blender.org
mtllib cooking_pot.mtl
o cooking_pot
v -0.063282 0.181397 0.250474
v -0.063282 0.226292 0.259008
v 0.062758 0.181397 0.250486
v 0.062758 0.226292 0.259019
v -0.076993 0.176477 0.197352
v -0.077092 0.203844 0.271623
v -0.077092 0.231211 0.205352
v 0.076468 0.176477 0.197364
v 0.076567 0.231211 0.205362
v 0.076567 0.203844 0.271636
v -0.000262 0.176477 0.256643
v -0.000262 0.231211 0.268266
v -0.114792 0.203844 0.197316
v 0.108924 0.203844 0.193971
v -0.000262 0.203844 0.294335
v -0.000262 0.166154 0.194145
v -0.000262 0.241534 0.207715
v 0.065657 0.181397 -0.248996
v 0.065657 0.226292 -0.257417
v -0.060383 0.181397 -0.247684
v -0.060383 0.226292 -0.256274
v 0.079319 0.176477 -0.196457
v 0.079466 0.203844 -0.270029
v 0.079465 0.231211 -0.204234
v -0.074097 0.176477 -0.195228
v -0.074193 0.231211 -0.203191
v -0.074193 0.203844 -0.268578
v 0.002637 0.176477 -0.254322
v 0.002637 0.231211 -0.265947
v 0.111782 0.203844 -0.196184
v -0.111823 0.203844 -0.192884
v 0.002637 0.203844 -0.291634
v -0.000063 0.166154 -0.193687
v -0.000063 0.241534 -0.207146
v -0.127046 0.051737 -0.200809
v -0.000289 0.262237 -0.206191
v -0.207422 0.051737 -0.127483
v 0.119882 0.262237 -0.192775
v -0.226012 0.051737 -0.000360
v 0.197571 0.262237 -0.120745
v -0.207423 0.051737 0.126762
v 0.217317 0.262237 -0.000360
v -0.127046 0.051737 0.200089
v 0.197571 0.262237 0.120025
v -0.000289 0.051737 0.210835
v 0.119882 0.262237 0.192055
v 0.126468 0.051737 0.200089
v -0.000289 0.262237 0.205471
v 0.206845 0.051737 0.126762
v -0.120460 0.262237 0.192055
v 0.225435 0.051737 -0.000360
v -0.198149 0.262237 0.120025
v 0.206845 0.051737 -0.127483
v -0.217895 0.262237 -0.000360
v 0.126468 0.051737 -0.200809
v -0.198149 0.262237 -0.120745
v -0.000289 0.051737 -0.211555
v -0.120460 0.262237 -0.192775
v -0.000289 0.032286 -0.177788
v -0.000289 0.071189 -0.214304
v 0.101482 0.032286 -0.163851
v 0.131034 0.071189 -0.206054
v 0.167765 0.032286 -0.102235
v 0.213093 0.071189 -0.132208
v 0.186249 0.032286 -0.000360
v 0.230462 0.071189 -0.000360
v 0.167765 0.032286 0.101515
v 0.213093 0.071189 0.131487
v 0.101482 0.032286 0.163131
v 0.131034 0.071189 0.205334
v -0.000289 0.032286 0.177068
v -0.000289 0.071189 0.213583
v -0.102060 0.032286 0.163131
v -0.131611 0.071189 0.205334
v -0.168342 0.032286 0.101515
v -0.213671 0.071189 0.131487
v -0.186826 0.032286 -0.000360
v -0.231040 0.071189 -0.000360
v -0.168342 0.032286 -0.102235
v -0.213671 0.071189 -0.132208
v -0.102060 0.032286 -0.163851
v -0.131611 0.071189 -0.206054
v 0.131762 0.276920 -0.214518
v -0.000289 0.276920 -0.229752
v 0.218759 0.276920 -0.132440
v 0.240740 0.276920 -0.000360
v 0.218759 0.276920 0.131719
v 0.131762 0.276920 0.213797
v -0.000289 0.276920 0.229032
v -0.132339 0.276920 0.213797
v -0.219337 0.276920 0.131719
v -0.241317 0.276920 -0.000360
v -0.219337 0.276920 -0.132440
v -0.132339 0.276920 -0.214518
v 0.096886 0.089112 -0.152346
v -0.000289 0.089112 -0.162667
v 0.157931 0.089112 -0.097631
v 0.173782 0.089112 -0.000360
v 0.157931 0.089112 0.096911
v 0.096886 0.089112 0.151625
v -0.000289 0.089112 0.161946
v -0.097464 0.089112 0.151625
v -0.158508 0.089112 0.096911
v -0.174360 0.089112 -0.000360
v -0.158508 0.089112 -0.097631
v -0.097464 0.089112 -0.152346
v -0.000289 0.146742 -0.204120
v 0.130223 0.146742 -0.200785
v -0.130801 0.146742 -0.200785
v 0.209508 0.146742 -0.131778
v 0.223687 0.146742 -0.000360
v 0.209508 0.146742 0.131058
v 0.130223 0.146742 0.200065
v -0.000289 0.146742 0.203400
v -0.130801 0.146742 0.200065
v -0.210086 0.146742 0.131058
v -0.224265 0.146742 -0.000360
v -0.210086 0.146742 -0.131778
vn -0.3194 -0.8751 0.3636
vn -0.6407 -0.0517 0.7660
vn -0.9002 0.0102 -0.4354
vn -0.3505 -0.7028 -0.6191
vn -0.3447 0.8331 0.4326
vn -0.3435 0.7989 -0.4937
vn 0.8470 0.0172 -0.5314
vn 0.3633 0.7980 -0.4809
vn 0.3658 0.8253 0.4302
vn 0.6628 -0.0539 0.7469
vn 0.3653 -0.7059 -0.6069
vn 0.3421 -0.8675 0.3612
vn -0.0001 -0.0867 0.9962
vn -0.0000 -0.9136 0.4066
vn -0.0000 0.8646 0.5025
vn -0.0000 -0.7220 -0.6919
vn -0.0000 0.8331 -0.5532
vn 0.3343 -0.8687 -0.3656
vn 0.6538 -0.0534 -0.7547
vn 0.8792 0.0141 0.4763
vn 0.3697 -0.6988 0.6124
vn 0.3581 0.8262 -0.4349
vn 0.3647 0.7916 0.4903
vn -0.8828 0.0112 0.4697
vn -0.3354 0.8032 0.4923
vn -0.3504 0.8286 -0.4368
vn -0.6452 -0.0526 -0.7622
vn -0.3384 -0.7093 0.6184
vn -0.3247 -0.8717 -0.3669
vn -0.0080 -0.0878 -0.9961
vn -0.0033 -0.9121 -0.4099
vn -0.0039 0.8623 -0.5064
vn 0.0001 -0.7271 0.6866
vn -0.0006 0.8363 0.5482
vn 0.8754 -0.1361 0.4639
vn 0.3873 -0.1082 0.9156
vn 0.3012 -0.6201 0.7244
vn 0.6790 -0.6443 0.3518
vn -0.0000 -0.0542 0.9985
vn -0.0000 -0.5929 0.8053
vn -0.3873 -0.1082 0.9156
vn -0.8754 -0.1361 0.4639
vn -0.6790 -0.6443 0.3518
vn -0.3012 -0.6201 0.7244
vn -0.9936 -0.1128 -0.0000
vn -0.8754 -0.1361 -0.4639
vn -0.6790 -0.6443 -0.3518
vn -0.7707 -0.6372 -0.0000
vn -0.3873 -0.1082 -0.9156
vn -0.0000 -0.0542 -0.9985
vn -0.0000 -0.5929 -0.8053
vn -0.3012 -0.6201 -0.7244
vn 0.3873 -0.1082 -0.9156
vn 0.3012 -0.6201 -0.7244
vn 0.8754 -0.1361 -0.4639
vn 0.6790 -0.6443 -0.3518
vn 0.9936 -0.1128 -0.0000
vn 0.7707 -0.6372 -0.0000
vn 0.8487 0.2584 -0.4614
vn 0.4019 0.2571 -0.8788
vn 0.3935 0.2570 -0.8827
vn 0.8503 0.2584 -0.4585
vn 0.0932 -0.9671 -0.2369
vn -0.0000 -0.9654 -0.2606
vn 0.2159 -0.9703 -0.1092
vn 0.2424 -0.9702 -0.0000
vn 0.2159 -0.9703 0.1092
vn 0.0932 -0.9671 0.2369
vn -0.0000 -0.9654 0.2606
vn -0.0932 -0.9671 0.2369
vn -0.2159 -0.9703 0.1092
vn -0.2424 -0.9702 -0.0000
vn -0.2159 -0.9703 -0.1092
vn -0.0932 -0.9671 -0.2369
vn -0.0000 -0.0241 -0.9997
vn -0.0000 -0.1499 -0.9887
vn 0.3854 -0.1163 -0.9154
vn 0.3891 -0.0185 -0.9210
vn -0.3891 -0.0185 -0.9210
vn -0.3854 -0.1163 -0.9154
vn 0.8839 -0.0899 -0.4589
vn 0.8827 -0.0142 -0.4697
vn 0.9949 -0.1009 -0.0000
vn 0.9999 -0.0161 -0.0000
vn 0.8839 -0.0899 0.4589
vn 0.8827 -0.0142 0.4697
vn 0.3854 -0.1163 0.9154
vn 0.3891 -0.0185 0.9210
vn -0.0000 -0.1499 0.9887
vn -0.0000 -0.0241 0.9997
vn -0.3854 -0.1163 0.9154
vn -0.3891 -0.0185 0.9210
vn -0.8839 -0.0899 0.4589
vn -0.8827 -0.0142 0.4697
vn -0.9949 -0.1009 -0.0000
vn -0.9999 -0.0161 -0.0000
vn -0.8839 -0.0899 -0.4589
vn -0.8827 -0.0142 -0.4697
vn -0.0000 0.8463 0.5327
vn -0.2092 0.8585 0.4682
vn -0.2207 0.8586 0.4628
vn -0.4540 0.8580 0.2401
vn -0.4527 0.8581 0.2424
vn -0.5336 0.8457 -0.0000
vn -0.4540 0.8580 -0.2402
vn -0.4527 0.8581 -0.2424
vn -0.2092 0.8585 -0.4683
vn -0.2207 0.8586 -0.4628
vn -0.0000 0.8463 -0.5327
vn 0.2092 0.8585 -0.4683
vn 0.2207 0.8586 -0.4628
vn 0.4540 0.8580 -0.2402
vn 0.4527 0.8581 -0.2424
vn 0.5336 0.8457 -0.0000
vn 0.4540 0.8580 0.2401
vn 0.4527 0.8581 0.2424
vn 0.2092 0.8585 0.4682
vn 0.2207 0.8586 0.4628
vn -0.0000 1.0000 -0.0000
vn -0.4019 0.2571 -0.8788
vn -0.8487 0.2584 -0.4614
vn -0.8503 0.2584 -0.4585
vn -0.3935 0.2570 -0.8827
vn -0.0000 0.2423 0.9702
vn 0.4019 0.2571 0.8788
vn 0.3935 0.2570 0.8827
vn -0.8487 0.2584 0.4614
vn -0.4019 0.2571 0.8788
vn -0.3935 0.2570 0.8827
vn -0.8503 0.2584 0.4585
vn 0.9699 0.2436 -0.0000
vn -0.0000 0.2423 -0.9702
vn -0.9699 0.2436 -0.0000
vn 0.8487 0.2584 0.4614
vn 0.8503 0.2584 0.4585
vt 0.297238 0.216897
vt 0.292182 0.222263
vt 0.309946 0.222263
vt 0.309937 0.215721
vt 0.295198 0.227630
vt 0.308024 0.228806
vt 0.310745 0.222263
vt 0.308022 0.228806
vt 0.295195 0.227630
vt 0.292179 0.222263
vt 0.309934 0.215721
vt 0.297235 0.216897
vt 0.286752 0.222263
vt 0.295763 0.215721
vt 0.292985 0.228806
vt 0.310704 0.213253
vt 0.307460 0.231274
vt 0.291639 0.189554
vt 0.296667 0.194920
vt 0.279014 0.194920
vt 0.279080 0.188378
vt 0.293652 0.200286
vt 0.280939 0.201462
vt 0.278225 0.194920
vt 0.280689 0.201462
vt 0.293379 0.200286
vt 0.296320 0.194920
vt 0.278786 0.188378
vt 0.291326 0.189554
vt 0.301832 0.194920
vt 0.292912 0.188378
vt 0.295692 0.201462
vt 0.278417 0.185910
vt 0.281635 0.203930
vt 0.180495 0.455061
vt 0.169411 0.455061
vt 0.170198 0.452141
vt 0.181204 0.452141
vt 0.168172 0.455061
vt 0.168585 0.452141
vt 0.200286 0.455061
vt 0.220077 0.455061
vt 0.219367 0.452141
vt 0.200286 0.452141
vt 0.231161 0.455061
vt 0.232399 0.455061
vt 0.231987 0.452141
vt 0.230374 0.452141
vt 0.182216 0.483738
vt 0.171404 0.483738
vt 0.177473 0.457751
vt 0.185685 0.457751
vt 0.224826 0.449222
vt 0.226918 0.449222
vt 0.215578 0.449222
vt 0.200286 0.449222
vt 0.184994 0.449222
vt 0.175746 0.449222
vt 0.173653 0.449222
vt 0.230871 0.466402
vt 0.234718 0.485942
vt 0.232431 0.485942
vt 0.230370 0.466402
vt 0.220111 0.485942
vt 0.220012 0.466402
vt 0.200286 0.485942
vt 0.200286 0.466402
vt 0.180460 0.485942
vt 0.180560 0.466402
vt 0.168140 0.485942
vt 0.170202 0.466402
vt 0.165854 0.485942
vt 0.169701 0.466402
vt 0.231182 0.483738
vt 0.229168 0.483738
vt 0.218356 0.483738
vt 0.200286 0.483738
vt 0.169390 0.483738
vt 0.223099 0.457751
vt 0.224649 0.457751
vt 0.214887 0.457751
vt 0.200286 0.457751
vt 0.175923 0.457751
s 1
usemtl Material
f 1/1/1 6/2/2 13/3/3 5/4/4
f 6/2/2 2/5/5 7/6/6 13/3/3
f 14/7/7 9/8/8 4/9/9 10/10/10
f 8/11/11 14/7/7 10/10/10 3/12/12
f 3/12/12 10/10/10 15/13/13 11/14/14
f 10/10/10 4/9/9 12/15/15 15/13/13
f 15/13/13 12/15/15 2/5/5 6/2/2
f 11/14/14 15/13/13 6/2/2 1/1/1
f 16/16/16 8/11/11 3/12/12 11/14/14
f 5/4/4 16/16/16 11/14/14 1/1/1
f 17/17/17 7/6/6 2/5/5 12/15/15
f 9/8/8 17/17/17 12/15/15 4/9/9
f 14/7/7 8/11/11 9/8/8
f 16/16/16 17/17/17 9/8/8 8/11/11
f 16/16/16 5/4/4 7/6/6 17/17/17
f 7/6/6 5/4/4 13/3/3
f 18/18/18 23/19/19 30/20/20 22/21/21
f 23/19/19 19/22/22 24/23/23 30/20/20
f 31/24/24 26/25/25 21/26/26 27/27/27
f 25/28/28 31/24/24 27/27/27 20/29/29
f 20/29/29 27/27/27 32/30/30 28/31/31
f 27/27/27 21/26/26 29/32/32 32/30/30
f 32/30/30 29/32/32 19/22/22 23/19/19
f 28/31/31 32/30/30 23/19/19 18/18/18
f 33/33/33 25/28/28 20/29/29 28/31/31
f 22/21/21 33/33/33 28/31/31 18/18/18
f 34/34/34 24/23/23 19/22/22 29/32/32
f 26/25/25 34/34/34 29/32/32 21/26/26
f 31/24/24 25/28/28 26/25/25
f 33/33/33 34/34/34 26/25/25 25/28/28
f 33/33/33 22/21/21 24/23/23 34/34/34
f 24/23/23 22/21/21 30/20/20
f 68/35/35 70/36/36 47/37/37 49/38/38
f 70/36/36 72/39/39 45/40/40 47/37/37
f 74/36/41 76/35/42 41/38/43 43/37/44
f 78/41/45 80/42/46 37/43/47 39/44/48
f 82/45/49 60/46/50 57/47/51 35/48/52
f 60/46/50 62/45/53 55/48/54 57/47/51
f 62/45/53 64/42/55 53/43/56 55/48/54
f 64/42/55 66/41/57 51/44/58 53/43/56
f 66/41/57 68/35/35 49/38/38 51/44/58
f 52/49/59 50/50/60 102/51/61 103/52/62
f 72/39/39 74/36/41 43/37/44 45/40/40
f 76/35/42 78/41/45 39/44/48 41/38/43
f 80/42/46 82/45/49 35/48/52 37/43/47
f 57/47/51 55/48/54 61/53/63 59/54/64
f 55/48/54 53/43/56 63/55/65 61/53/63
f 53/43/56 51/44/58 65/56/66 63/55/65
f 51/44/58 49/38/38 67/57/67 65/56/66
f 49/38/38 47/37/37 69/58/68 67/57/67
f 47/37/37 45/40/40 71/59/69 69/58/68
f 45/40/40 43/37/44 73/58/70 71/59/69
f 43/37/44 41/38/43 75/57/71 73/58/70
f 41/38/43 39/44/48 77/56/72 75/57/71
f 39/44/48 37/43/47 79/55/73 77/56/72
f 37/43/47 35/48/52 81/53/74 79/55/73
f 35/48/52 57/47/51 59/54/64 81/53/74
f 59/54/64 61/53/63 63/55/65 65/56/66 67/57/67 69/58/68 71/59/69 73/58/70 75/57/71 77/56/72 79/55/73 81/53/74
f 107/60/75 84/61/76 83/62/77 108/63/78
f 109/63/79 94/62/80 84/61/76 107/60/75
f 108/63/78 83/62/77 85/64/81 110/65/82
f 110/65/82 85/64/81 86/66/83 111/67/84
f 111/67/84 86/66/83 87/68/85 112/69/86
f 112/69/86 87/68/85 88/70/87 113/71/88
f 113/71/88 88/70/87 89/72/89 114/73/90
f 114/73/90 89/72/89 90/70/91 115/71/92
f 115/71/92 90/70/91 91/68/93 116/69/94
f 116/69/94 91/68/93 92/66/95 117/67/96
f 117/67/96 92/66/95 93/64/97 118/65/98
f 118/65/98 93/64/97 94/62/80 109/63/79
f 36/74/99 38/75/100 83/62/101 84/61/99
f 38/75/100 40/76/102 85/64/103 83/62/101
f 40/76/102 42/77/104 86/66/104 85/64/103
f 42/77/104 44/49/105 87/68/106 86/66/104
f 44/49/105 46/50/107 88/70/108 87/68/106
f 46/50/107 48/78/109 89/72/109 88/70/108
f 48/78/109 50/50/110 90/70/111 89/72/109
f 50/50/110 52/49/112 91/68/113 90/70/111
f 52/49/112 54/77/114 92/66/114 91/68/113
f 54/77/114 56/76/115 93/64/116 92/66/114
f 56/76/115 58/75/117 94/62/118 93/64/116
f 58/75/117 36/74/99 84/61/99 94/62/118
f 95/79/119 96/80/119 106/79/119 105/81/119 104/82/119 103/52/119 102/51/119 101/83/119 100/51/119 99/52/119 98/82/119 97/81/119
f 46/50/120 44/49/121 99/52/122 100/51/123
f 36/74/124 58/75/125 106/79/126 96/80/124
f 40/76/127 38/75/128 95/79/129 97/81/130
f 54/77/131 52/49/59 103/52/62 104/82/131
f 48/78/132 46/50/120 100/51/123 101/83/132
f 42/77/133 40/76/127 97/81/130 98/82/133
f 56/76/134 54/77/131 104/82/131 105/81/135
f 50/50/60 48/78/132 101/83/132 102/51/61
f 44/49/121 42/77/133 98/82/133 99/52/122
f 58/75/125 56/76/134 105/81/135 106/79/126
f 38/75/128 36/74/124 96/80/124 95/79/129
f 80/42/46 118/65/98 109/63/79 82/45/49
f 78/41/45 117/67/96 118/65/98 80/42/46
f 76/35/42 116/69/94 117/67/96 78/41/45
f 74/36/41 115/71/92 116/69/94 76/35/42
f 72/39/39 114/73/90 115/71/92 74/36/41
f 70/36/36 113/71/88 114/73/90 72/39/39
f 68/35/35 112/69/86 113/71/88 70/36/36
f 66/41/57 111/67/84 112/69/86 68/35/35
f 64/42/55 110/65/82 111/67/84 66/41/57
f 62/45/53 108/63/78 110/65/82 64/42/55
f 82/45/49 109/63/79 107/60/75 60/46/50
f 60/46/50 107/60/75 108/63/78 62/45/53
