# Blender 5.0.1
# www.blender.org
mtllib food_can.mtl
o food_can
v -0.000000 0.030467 -0.079756
v -0.000000 0.253183 -0.079756
v 0.039878 0.030467 -0.069071
v 0.039878 0.253183 -0.069071
v 0.069071 0.030467 -0.039878
v 0.069071 0.253183 -0.039878
v 0.079756 0.030467 0.000000
v 0.079756 0.253183 0.000000
v 0.069071 0.030467 0.039878
v 0.069071 0.253183 0.039878
v 0.039878 0.030467 0.069071
v 0.039878 0.253183 0.069071
v -0.000000 0.030467 0.079757
v -0.000000 0.253183 0.079757
v -0.039879 0.030467 0.069071
v -0.039879 0.253183 0.069071
v -0.069072 0.030467 0.039878
v -0.069072 0.253183 0.039878
v -0.079757 0.030467 0.000000
v -0.079757 0.253183 0.000000
v -0.069072 0.030467 -0.039878
v -0.069072 0.253183 -0.039878
v -0.039879 0.030467 -0.069071
v -0.039879 0.253183 -0.069071
v -0.000000 0.238234 -0.079756
v 0.039878 0.238234 -0.069071
v 0.069071 0.238234 -0.039878
v 0.079756 0.238234 0.000000
v 0.069071 0.238234 0.039878
v 0.039878 0.238234 0.069071
v -0.000000 0.238234 0.079757
v -0.039879 0.238234 0.069071
v -0.069072 0.238234 0.039878
v -0.079757 0.238234 0.000000
v -0.069072 0.238234 -0.039878
v -0.039879 0.238234 -0.069071
v 0.039878 0.040339 -0.069071
v 0.069071 0.040339 -0.039878
v 0.079756 0.040339 0.000000
v 0.069071 0.040339 0.039878
v 0.039878 0.040339 0.069071
v -0.000000 0.040339 0.079757
v -0.039879 0.040339 0.069071
v -0.069072 0.040339 0.039878
v -0.079757 0.040339 0.000000
v -0.069072 0.040339 -0.039878
v -0.039879 0.040339 -0.069071
v -0.000000 0.040339 -0.079756
v -0.000000 0.030467 -0.082225
v 0.041112 0.030467 -0.071209
v 0.041112 0.253183 -0.071209
v -0.000000 0.253183 -0.082225
v -0.000000 0.238234 -0.082225
v 0.041112 0.040339 -0.071209
v 0.071209 0.030467 -0.041112
v 0.071209 0.253183 -0.041112
v 0.071209 0.040339 -0.041112
v 0.082225 0.030467 0.000000
v 0.082225 0.253183 0.000000
v 0.082225 0.040339 0.000000
v 0.071209 0.030467 0.041113
v 0.071209 0.253183 0.041113
v 0.071209 0.040339 0.041113
v 0.041112 0.030467 0.071209
v 0.041112 0.253183 0.071209
v 0.041112 0.040339 0.071209
v -0.000000 0.030467 0.082226
v -0.000000 0.253183 0.082226
v -0.000000 0.040339 0.082226
v -0.041113 0.030467 0.071209
v -0.041113 0.253183 0.071209
v -0.041113 0.040339 0.071209
v -0.071210 0.030467 0.041113
v -0.071210 0.253183 0.041113
v -0.071210 0.040339 0.041113
v -0.082226 0.030467 0.000000
v -0.082226 0.253183 0.000000
v -0.082226 0.040339 0.000000
v -0.071210 0.030467 -0.041112
v -0.071210 0.253183 -0.041112
v -0.071210 0.040339 -0.041112
v -0.041113 0.030467 -0.071209
v -0.041113 0.253183 -0.071209
v -0.041113 0.040339 -0.071209
v 0.041112 0.238234 -0.071209
v 0.071209 0.238234 -0.041112
v 0.082225 0.238234 0.000000
v 0.071209 0.238234 0.041113
v 0.041112 0.238234 0.071209
v -0.000000 0.238234 0.082226
v -0.041113 0.238234 0.071209
v -0.071210 0.238234 0.041113
v -0.082226 0.238234 0.000000
v -0.071210 0.238234 -0.041112
v -0.041113 0.238234 -0.071209
v -0.000000 0.040339 -0.082225
vn -0.0000 -1.0000 -0.0000
vn -0.0000 1.0000 -0.0000
vn -0.0000 -0.7703 -0.6377
vn 0.3189 -0.7703 -0.5523
vn 0.5523 -0.7703 -0.3189
vn 0.6377 -0.7703 -0.0000
vn 0.5523 -0.7703 0.3189
vn 0.3189 -0.7703 0.5523
vn -0.0000 -0.7703 0.6377
vn -0.3189 -0.7703 0.5523
vn -0.5523 -0.7703 0.3189
vn -0.6377 -0.7703 -0.0000
vn -0.5523 -0.7703 -0.3189
vn -0.3189 -0.7703 -0.5523
vn 0.3189 0.7703 -0.5523
vn 0.5523 0.7703 -0.3189
vn 0.6377 0.7703 -0.0000
vn 0.5523 0.7703 0.3189
vn 0.3189 0.7703 0.5523
vn -0.0000 0.7703 0.6377
vn -0.3189 0.7703 0.5523
vn -0.5523 0.7703 0.3189
vn -0.6377 0.7703 -0.0000
vn -0.5523 0.7703 -0.3189
vn -0.3189 0.7703 -0.5523
vn -0.0000 0.7703 -0.6377
vn -0.0000 -0.6532 -0.7572
vn 0.3786 -0.6532 -0.6557
vn 0.3786 0.6532 -0.6557
vn -0.0000 0.6532 -0.7572
vn 0.6557 -0.6532 -0.3786
vn 0.6557 0.6532 -0.3786
vn 0.7572 -0.6532 -0.0000
vn 0.7572 0.6532 -0.0000
vn 0.6557 -0.6532 0.3786
vn 0.6557 0.6532 0.3786
vn 0.3786 -0.6532 0.6557
vn 0.3786 0.6532 0.6557
vn -0.0000 -0.6532 0.7572
vn -0.0000 0.6532 0.7572
vn -0.3786 -0.6532 0.6557
vn -0.3786 0.6532 0.6557
vn -0.6557 -0.6532 0.3786
vn -0.6557 0.6532 0.3786
vn -0.7572 -0.6532 -0.0000
vn -0.7572 0.6532 -0.0000
vn -0.6557 -0.6532 -0.3786
vn -0.6557 0.6532 -0.3786
vn -0.3786 -0.6532 -0.6557
vn -0.3786 0.6532 -0.6557
vt 0.139456 0.480589
vt 0.141007 0.480589
vt 0.140942 0.480589
vt 0.139342 0.480589
vt 0.149396 0.469914
vt 0.147277 0.469914
vt 0.149461 0.469914
vt 0.147364 0.481383
vt 0.146797 0.481383
vt 0.146910 0.481383
vt 0.147496 0.481383
vt 0.141007 0.481383
vt 0.139456 0.481383
vt 0.139342 0.481383
vt 0.140942 0.481383
vt 0.147277 0.470439
vt 0.149396 0.470439
vt 0.149461 0.470439
vt 0.138888 0.480589
vt 0.138757 0.480589
vt 0.150947 0.469914
vt 0.151515 0.469914
vt 0.151646 0.469914
vt 0.151061 0.469914
vt 0.143606 0.469914
vt 0.145157 0.469914
vt 0.145092 0.469914
vt 0.143493 0.469914
vt 0.145157 0.470439
vt 0.145092 0.470439
vt 0.145245 0.481383
vt 0.143126 0.481383
vt 0.138888 0.481383
vt 0.143606 0.470439
vt 0.143493 0.470439
vt 0.143038 0.469914
vt 0.330930 0.094627
vt 0.330930 0.125267
vt 0.332585 0.125267
vt 0.332585 0.094627
vt 0.326410 0.094627
vt 0.326410 0.125267
vt 0.320236 0.094627
vt 0.320236 0.125267
vt 0.314062 0.094627
vt 0.314062 0.125267
vt 0.309542 0.094627
vt 0.309542 0.125267
vt 0.307887 0.094627
vt 0.307887 0.125267
vt 0.143038 0.470439
vt 0.142907 0.470439
vt 0.143126 0.480589
vt 0.145245 0.480589
vt 0.145311 0.480589
vt 0.146797 0.480589
vt 0.146910 0.480589
vt 0.147496 0.480589
vt 0.145311 0.481383
vt 0.138757 0.481383
vt 0.151646 0.470439
vt 0.151061 0.470439
vt 0.142907 0.469914
vt 0.150947 0.470439
vt 0.151515 0.470439
vt 0.147364 0.480589
s 1
usemtl Material
f 30/1/8 29/2/7 88/3/35 89/4/37
f 21/5/1 19/6/1 76/6/45 79/7/47
f 2/8/2 4/9/2 51/10/29 52/11/30
f 10/12/2 12/13/2 65/14/38 62/15/36
f 45/16/23 46/17/24 81/18/48 78/16/46
f 31/19/9 30/1/8 89/4/37 90/20/39
f 3/21/1 1/22/1 49/23/27 50/24/28
f 11/25/1 9/26/1 61/27/35 64/28/37
f 44/29/22 45/16/23 78/16/46 75/30/44
f 32/1/10 31/19/9 90/20/39 91/4/41
f 4/9/2 2/8/2 24/9/2 22/31/2 20/32/2 18/12/2 16/13/2 14/33/2 12/13/2 10/12/2 8/32/2 6/31/2
f 18/12/2 20/32/2 77/32/46 74/15/44
f 43/34/21 44/29/22 75/30/44 72/35/42
f 1/22/1 3/21/1 5/5/1 7/6/1 9/26/1 11/25/1 13/36/1 15/25/1 17/26/1 19/6/1 21/5/1 23/21/1
f 47/37/25 36/38/14 25/39/3 48/40/26
f 46/41/24 35/42/13 36/38/14 47/37/25
f 45/43/23 34/44/12 35/42/13 46/41/24
f 44/45/22 33/46/11 34/44/12 45/43/23
f 43/47/21 32/48/10 33/46/11 44/45/22
f 42/49/20 31/50/9 32/48/10 43/47/21
f 41/47/19 30/48/8 31/50/9 42/49/20
f 40/45/18 29/46/7 30/48/8 41/47/19
f 39/43/17 28/44/6 29/46/7 40/45/18
f 38/41/16 27/42/5 28/44/6 39/43/17
f 37/37/15 26/38/4 27/42/5 38/41/16
f 48/40/26 25/39/3 26/38/4 37/37/15
f 33/2/11 32/1/10 91/4/41 92/3/43
f 19/6/1 17/26/1 73/27/43 76/6/45
f 8/32/2 10/12/2 62/15/36 59/32/34
f 42/51/20 43/34/21 72/35/42 69/52/40
f 34/53/12 33/2/11 92/3/43 93/53/45
f 9/26/1 7/6/1 58/6/33 61/27/35
f 41/34/19 42/51/20 69/52/40 66/35/38
f 35/54/13 34/53/12 93/53/45 94/55/47
f 16/13/2 18/12/2 74/15/44 71/14/42
f 40/29/18 41/34/19 66/35/38 63/30/36
f 36/56/14 35/54/13 94/55/47 95/57/49
f 17/26/1 15/25/1 70/28/41 73/27/43
f 53/58/27 52/11/30 51/10/29 85/57/28
f 85/57/28 51/10/29 56/59/32 86/55/31
f 86/55/31 56/59/32 59/32/34 87/53/33
f 87/53/33 59/32/34 62/15/36 88/3/35
f 88/3/35 62/15/36 65/14/38 89/4/37
f 89/4/37 65/14/38 68/60/40 90/20/39
f 90/20/39 68/60/40 71/14/42 91/4/41
f 91/4/41 71/14/42 74/15/44 92/3/43
f 92/3/43 74/15/44 77/32/46 93/53/45
f 93/53/45 77/32/46 80/59/48 94/55/47
f 94/55/47 80/59/48 83/10/50 95/57/49
f 95/57/49 83/10/50 52/11/30 53/58/27
f 49/23/27 96/61/30 54/62/29 50/24/28
f 50/24/28 54/62/29 57/18/32 55/7/31
f 55/7/31 57/18/32 60/16/34 58/6/33
f 58/6/33 60/16/34 63/30/36 61/27/35
f 61/27/35 63/30/36 66/35/38 64/28/37
f 64/28/37 66/35/38 69/52/40 67/63/39
f 67/63/39 69/52/40 72/35/42 70/28/41
f 70/28/41 72/35/42 75/30/44 73/27/43
f 73/27/43 75/30/44 78/16/46 76/6/45
f 76/6/45 78/16/46 81/18/48 79/7/47
f 79/7/47 81/18/48 84/62/50 82/24/49
f 82/24/49 84/62/50 96/61/30 49/23/27
f 46/17/24 47/64/25 84/62/50 81/18/48
f 20/32/2 22/31/2 80/59/48 77/32/46
f 29/2/7 28/53/6 87/53/33 88/3/35
f 47/64/25 48/65/26 96/61/30 84/62/50
f 13/36/1 11/25/1 64/28/37 67/63/39
f 28/53/6 27/54/5 86/55/31 87/53/33
f 12/13/2 14/33/2 68/60/40 65/14/38
f 5/5/1 3/21/1 50/24/28 55/7/31
f 23/21/1 21/5/1 79/7/47 82/24/49
f 27/54/5 26/56/4 85/57/28 86/55/31
f 48/65/26 37/64/15 54/62/29 96/61/30
f 4/9/2 6/31/2 56/59/32 51/10/29
f 22/31/2 24/9/2 83/10/50 80/59/48
f 26/56/4 25/66/3 53/58/27 85/57/28
f 15/25/1 13/36/1 67/63/39 70/28/41
f 37/64/15 38/17/16 57/18/32 54/62/29
f 14/33/2 16/13/2 71/14/42 68/60/40
f 38/17/16 39/16/17 60/16/34 57/18/32
f 7/6/1 5/5/1 55/7/31 58/6/33
f 1/22/1 23/21/1 82/24/49 49/23/27
f 25/66/3 36/56/14 95/57/49 53/58/27
f 39/16/17 40/29/18 63/30/36 60/16/34
f 6/31/2 8/32/2 59/32/34 56/59/32
f 24/9/2 2/8/2 52/11/30 83/10/50
