# Blender 5.0.1
# www.blender.org
mtllib map.mtl
o map
v -0.030861 0.054623 -0.170709
v -0.033912 0.056118 0.152996
v -0.025670 0.077913 -0.170642
v -0.028716 0.079405 0.152904
v -0.011926 0.094433 -0.170402
v -0.014970 0.095919 0.152837
v 0.006069 0.100230 -0.170173
v 0.003023 0.101713 0.152917
v 0.024064 0.094433 -0.170062
v 0.021014 0.095919 0.153176
v 0.037810 0.077913 -0.170044
v 0.034756 0.079405 0.153502
v 0.043001 0.054623 -0.170013
v 0.039950 0.056118 0.153692
v 0.037805 0.031336 -0.169921
v 0.034759 0.032828 0.153625
v 0.024059 0.014822 -0.169854
v 0.021015 0.016308 0.153385
v 0.006066 0.009028 -0.169934
v 0.003020 0.010512 0.153156
v -0.011925 0.014822 -0.170193
v -0.014975 0.016308 0.153046
v -0.025667 0.031336 -0.170519
v -0.028721 0.032828 0.153027
v -0.026955 0.055061 -0.103670
v -0.023461 0.055235 -0.050355
v -0.024245 0.055506 0.032802
v -0.028743 0.055680 0.086043
v -0.024403 0.072067 0.086030
v -0.020440 0.069871 0.032791
v -0.019656 0.069600 -0.050366
v -0.022614 0.071447 -0.103683
v -0.012545 0.084062 0.086102
v -0.010046 0.080387 0.032855
v -0.009262 0.080116 -0.050302
v -0.010757 0.083442 -0.103610
v 0.003651 0.088453 0.086241
v 0.004153 0.084237 0.032976
v 0.004937 0.083965 -0.050181
v 0.005440 0.087833 -0.103472
v 0.019848 0.084062 0.086408
v 0.018352 0.080387 0.033123
v 0.019136 0.080116 -0.050034
v 0.021636 0.083442 -0.103305
v 0.031704 0.072067 0.086559
v 0.028746 0.069871 0.033255
v 0.029530 0.069600 -0.049902
v 0.033493 0.071447 -0.103154
v 0.036044 0.055680 0.086653
v 0.032550 0.055506 0.033338
v 0.033334 0.055235 -0.049819
v 0.037832 0.055061 -0.103059
v 0.031703 0.039294 0.086666
v 0.028745 0.041141 0.033349
v 0.029529 0.040870 -0.049808
v 0.033492 0.038674 -0.103047
v 0.019846 0.027299 0.086593
v 0.018351 0.030625 0.033285
v 0.019135 0.030354 -0.049872
v 0.021634 0.026679 -0.103119
v 0.003649 0.022908 0.086455
v 0.004152 0.026776 0.033164
v 0.004936 0.026505 -0.049993
v 0.005438 0.022288 -0.103257
v -0.012547 0.027299 0.086288
v -0.010047 0.030625 0.033017
v -0.009263 0.030354 -0.050139
v -0.010759 0.026679 -0.103425
v -0.024404 0.039294 0.086137
v -0.020441 0.041141 0.032885
v -0.019657 0.040870 -0.050272
v -0.022615 0.038674 -0.103576
v -0.022822 0.055438 0.012025
v -0.019181 0.069183 0.012014
v -0.009236 0.079244 0.012075
v 0.004349 0.082927 0.012191
v 0.017935 0.079244 0.012331
v 0.027879 0.069183 0.012458
v 0.031519 0.055438 0.012537
v 0.027879 0.041694 0.012547
v 0.017933 0.031633 0.012487
v 0.004348 0.027950 0.012371
v -0.009237 0.031633 0.012230
v -0.019182 0.041694 0.012104
v -0.022430 0.055303 -0.029554
v -0.018790 0.069047 -0.029564
v -0.008844 0.079108 -0.029503
v 0.004741 0.082791 -0.029387
v 0.018327 0.079108 -0.029247
v 0.028271 0.069047 -0.029121
v 0.031911 0.055303 -0.029041
v 0.028271 0.041558 -0.029031
v 0.018325 0.031497 -0.029092
v 0.004740 0.027814 -0.029208
v -0.008846 0.031497 -0.029348
v -0.018790 0.041558 -0.029475
v -0.028742 0.055326 -0.022501
v -0.027850 0.055371 -0.008814
v -0.024522 0.072318 0.004841
v -0.023509 0.071757 -0.008826
v -0.012291 0.084692 0.004916
v -0.011652 0.083753 -0.008754
v 0.004417 0.089221 0.005058
v 0.004546 0.088144 -0.008616
v 0.021124 0.084692 0.005231
v 0.020743 0.083753 -0.008448
v 0.033354 0.072318 0.005386
v 0.032599 0.071757 -0.008298
v 0.037831 0.055415 0.005484
v 0.036939 0.055371 -0.008203
v 0.033353 0.038512 0.005497
v 0.032598 0.038984 -0.008190
v 0.021122 0.026138 0.005422
v 0.020741 0.026988 -0.008263
v 0.004415 0.021609 0.005279
v 0.004543 0.022597 -0.008401
v -0.012293 0.026138 0.005107
v -0.011654 0.026988 -0.008568
v -0.024523 0.038512 0.004951
v -0.023510 0.038984 -0.008719
v -0.028999 0.055415 0.004854
v -0.024264 0.072229 -0.022514
v -0.012033 0.084603 -0.022439
v 0.004674 0.089132 -0.022296
v 0.021382 0.084603 -0.022124
v 0.033612 0.072229 -0.021968
v 0.038088 0.055326 -0.021870
v 0.033611 0.038423 -0.021858
v 0.021380 0.026049 -0.021932
v 0.004672 0.021520 -0.022075
v -0.012035 0.026049 -0.022247
v -0.024265 0.038423 -0.022403
v -0.037679 0.054622 -0.170773
v -0.031801 0.080992 -0.170708
v -0.034847 0.082485 0.152838
v -0.040731 0.056119 0.152932
v -0.015776 0.100255 -0.170453
v -0.018819 0.101742 0.152785
v 0.006069 0.107291 -0.170191
v 0.003023 0.108775 0.152899
v 0.027915 0.100255 -0.170041
v 0.024863 0.101742 0.153197
v 0.043942 0.080992 -0.169994
v 0.040888 0.082485 0.153552
v 0.049820 0.054622 -0.169948
v 0.046768 0.056119 0.153756
v 0.043937 0.028256 -0.169855
v 0.040890 0.029749 0.153691
v 0.027908 0.008999 -0.169802
v 0.024865 0.010486 0.153436
v 0.006066 0.001966 -0.169916
v 0.003020 0.003450 0.153174
v -0.015774 0.008999 -0.170214
v -0.018825 0.010486 0.153024
v -0.031799 0.028256 -0.170569
v -0.034853 0.029749 0.152977
v -0.030899 0.054623 -0.166686
v -0.025708 0.077913 -0.166619
v -0.028678 0.079405 0.148884
v -0.033875 0.056118 0.148973
v -0.011964 0.094433 -0.166382
v -0.014932 0.095919 0.148822
v 0.006031 0.100230 -0.166154
v 0.003061 0.101713 0.148905
v 0.024026 0.094433 -0.166042
v 0.021052 0.095919 0.149161
v 0.037772 0.077913 -0.166021
v 0.034794 0.079405 0.149483
v 0.042964 0.054623 -0.165990
v 0.039988 0.056118 0.149669
v 0.037767 0.031336 -0.165901
v 0.034797 0.032828 0.149603
v 0.024021 0.014822 -0.165839
v 0.021053 0.016308 0.149365
v 0.006028 0.009028 -0.165922
v 0.003058 0.010512 0.149137
v -0.011962 0.014822 -0.166178
v -0.014937 0.016308 0.149026
v -0.025705 0.031336 -0.166499
v -0.028683 0.032828 0.149004
vn 0.6571 -0.0022 -0.7538
vn 0.6428 0.0022 0.7660
vn 0.5874 -0.2827 -0.7584
vn 0.5739 -0.2788 0.7700
vn 0.3639 -0.5222 -0.7713
vn 0.3504 -0.5194 0.7794
vn 0.0074 -0.6235 -0.7818
vn -0.0074 -0.6214 0.7835
vn -0.3493 -0.5222 -0.7780
vn -0.3651 -0.5194 0.7726
vn -0.5729 -0.2827 -0.7693
vn -0.5883 -0.2788 0.7591
vn -0.6428 -0.0022 -0.7660
vn -0.6571 0.0022 0.7538
vn -0.5739 0.2788 -0.7700
vn -0.5874 0.2827 0.7584
vn -0.3504 0.5194 -0.7794
vn -0.3639 0.5222 0.7713
vn 0.0074 0.6214 -0.7835
vn -0.0074 0.6235 0.7818
vn 0.3651 0.5194 -0.7727
vn 0.3493 0.5222 0.7780
vn 0.5883 0.2788 -0.7591
vn 0.5730 0.2827 0.7693
vn -0.9933 0.0006 0.1159
vn -0.9983 0.0002 0.0575
vn -0.9971 -0.0002 -0.0763
vn -0.9909 -0.0006 -0.1346
vn -0.8702 0.4699 -0.1485
vn -0.8655 0.4949 -0.0769
vn -0.8668 0.4953 0.0574
vn -0.8728 0.4712 0.1277
vn -0.5168 0.8380 -0.1749
vn -0.5019 0.8616 -0.0751
vn -0.5032 0.8621 0.0600
vn -0.5200 0.8396 0.1572
vn 0.0018 0.9826 -0.1859
vn 0.0007 0.9975 -0.0710
vn -0.0006 0.9979 0.0645
vn -0.0017 0.9843 0.1766
vn 0.5200 0.8380 -0.1651
vn 0.5033 0.8616 -0.0656
vn 0.5020 0.8621 0.0694
vn 0.5169 0.8396 0.1669
vn 0.8728 0.4699 -0.1321
vn 0.8668 0.4949 -0.0606
vn 0.8656 0.4953 0.0737
vn 0.8702 0.4711 0.1441
vn 0.9933 -0.0006 -0.1159
vn 0.9983 -0.0002 -0.0575
vn 0.9971 0.0002 0.0763
vn 0.9909 0.0006 0.1346
vn 0.8728 -0.4712 -0.1277
vn 0.8668 -0.4953 -0.0574
vn 0.8655 -0.4949 0.0769
vn 0.8702 -0.4699 0.1485
vn 0.5200 -0.8396 -0.1572
vn 0.5032 -0.8621 -0.0600
vn 0.5019 -0.8616 0.0751
vn 0.5168 -0.8380 0.1749
vn 0.0017 -0.9843 -0.1766
vn 0.0006 -0.9979 -0.0645
vn -0.0007 -0.9975 0.0710
vn -0.0018 -0.9826 0.1859
vn -0.5169 -0.8396 -0.1669
vn -0.5020 -0.8621 -0.0694
vn -0.5033 -0.8616 0.0656
vn -0.5200 -0.8380 0.1651
vn -0.8702 -0.4711 -0.1441
vn -0.8656 -0.4953 -0.0737
vn -0.8668 -0.4949 0.0606
vn -0.8728 -0.4699 0.1321
vn -0.9416 0.0011 0.3367
vn -0.8180 0.4662 0.3371
vn -0.4760 0.8107 0.3408
vn -0.0033 0.9383 0.3457
vn 0.4695 0.8107 0.3497
vn 0.8115 0.4662 0.3525
vn 0.9351 0.0011 0.3544
vn 0.8114 -0.4639 0.3555
vn 0.4695 -0.8084 0.3550
vn -0.0033 -0.9361 0.3518
vn -0.4761 -0.8084 0.3461
vn -0.8180 -0.4639 0.3402
vn -0.9351 -0.0011 -0.3544
vn -0.8114 0.4639 -0.3555
vn -0.4695 0.8084 -0.3550
vn 0.0033 0.9361 -0.3518
vn 0.4761 0.8084 -0.3461
vn 0.8180 0.4639 -0.3402
vn 0.9416 -0.0011 -0.3367
vn 0.8180 -0.4662 -0.3371
vn 0.4760 -0.8107 -0.3408
vn 0.0033 -0.9383 -0.3457
vn -0.4695 -0.8107 -0.3497
vn -0.8115 -0.4662 -0.3525
vn -0.9511 -0.0010 -0.3089
vn -1.0000 -0.0000 -0.0094
vn -0.8307 0.4747 0.2910
vn -0.8682 0.4961 -0.0098
vn -0.4828 0.8249 0.2940
vn -0.5038 0.8638 -0.0076
vn -0.0028 0.9544 0.2985
vn -0.0000 1.0000 -0.0033
vn 0.4772 0.8249 0.3030
vn 0.5039 0.8638 0.0019
vn 0.8251 0.4747 0.3066
vn 0.8682 0.4961 0.0066
vn 0.9511 0.0010 0.3089
vn 1.0000 -0.0000 0.0094
vn 0.8250 -0.4727 0.3097
vn 0.8682 -0.4961 0.0098
vn 0.4771 -0.8229 0.3084
vn 0.5038 -0.8638 0.0076
vn -0.0029 -0.9524 0.3047
vn -0.0000 -1.0000 0.0033
vn -0.4829 -0.8229 0.2993
vn -0.5039 -0.8638 -0.0019
vn -0.8307 -0.4727 0.2941
vn -0.8682 -0.4961 -0.0066
vn -0.9568 0.0010 0.2909
vn -0.8250 0.4727 -0.3097
vn -0.4771 0.8229 -0.3084
vn 0.0029 0.9524 -0.3047
vn 0.4829 0.8229 -0.2993
vn 0.8307 0.4727 -0.2941
vn 0.9568 -0.0010 -0.2909
vn 0.8307 -0.4747 -0.2910
vn 0.4828 -0.8249 -0.2940
vn 0.0028 -0.9544 -0.2985
vn -0.4772 -0.8249 -0.3030
vn -0.8251 -0.4747 -0.3066
vn -0.7963 -0.0020 -0.6049
vn -0.7097 0.3835 -0.5910
vn -0.7212 0.3877 0.5741
vn -0.8075 0.0020 0.5898
vn -0.4333 0.7086 -0.5568
vn -0.4441 0.7131 0.5425
vn 0.0050 0.8450 -0.5347
vn -0.0050 0.8495 0.5275
vn 0.4437 0.7086 -0.5486
vn 0.4338 0.7131 0.5507
vn 0.7207 0.3835 -0.5775
vn 0.7102 0.3877 0.5876
vn 0.8075 -0.0020 -0.5898
vn 0.7963 0.0020 0.6049
vn 0.7212 -0.3877 -0.5741
vn 0.7097 -0.3835 0.5910
vn 0.4441 -0.7131 -0.5424
vn 0.4333 -0.7086 0.5568
vn 0.0050 -0.8495 -0.5275
vn -0.0050 -0.8450 0.5347
vn -0.4338 -0.7131 -0.5507
vn -0.4437 -0.7086 0.5486
vn -0.7102 -0.3877 -0.5876
vn -0.7207 -0.3835 0.5775
vn 0.7570 -0.0014 -0.6534
vn 0.6820 -0.3341 -0.6505
vn 0.6700 -0.3316 0.6642
vn 0.7446 0.0014 0.6675
vn 0.4308 -0.6313 -0.6449
vn 0.4189 -0.6293 0.6546
vn 0.0061 -0.7650 -0.6441
vn -0.0061 -0.7633 0.6461
vn -0.4186 -0.6313 -0.6529
vn -0.4312 -0.6293 0.6466
vn -0.6697 -0.3341 -0.6633
vn -0.6824 -0.3316 0.6514
vn -0.7446 -0.0014 -0.6675
vn -0.7570 0.0014 0.6534
vn -0.6700 0.3316 -0.6642
vn -0.6820 0.3341 0.6505
vn -0.4189 0.6293 -0.6546
vn -0.4308 0.6313 0.6449
vn 0.0061 0.7633 -0.6461
vn -0.0061 0.7650 0.6441
vn 0.4312 0.6293 -0.6466
vn 0.4186 0.6313 0.6529
vn 0.6824 0.3316 -0.6514
vn 0.6697 0.3341 0.6633
vt 0.946777 0.642567
vt 0.935654 0.642640
vt 0.935679 0.647017
vt 0.946786 0.645287
vt 0.935713 0.650213
vt 0.946792 0.647278
vt 0.935728 0.651381
vt 0.946795 0.648007
vt 0.935656 0.638262
vt 0.946768 0.639847
vt 0.935673 0.635064
vt 0.946761 0.637855
vt 0.935682 0.633896
vt 0.946759 0.637126
vt 0.989339 0.635784
vt 0.989372 0.638525
vt 0.988704 0.638525
vt 0.988672 0.635784
vt 0.935725 0.650209
vt 0.935710 0.649247
vt 0.936377 0.649247
vt 0.936391 0.650209
vt 0.989370 0.638014
vt 0.978263 0.639744
vt 0.978272 0.642464
vt 0.989395 0.642391
vt 0.969420 0.640108
vt 0.969427 0.642493
vt 0.475756 0.988864
vt 0.475755 0.988253
vt 0.474577 0.989165
vt 0.474579 0.989917
vt 0.959066 0.640245
vt 0.955614 0.640153
vt 0.955622 0.642538
vt 0.959073 0.642527
vt 0.989336 0.634817
vt 0.978257 0.637752
vt 0.969414 0.638362
vt 0.468831 0.982042
vt 0.468839 0.984324
vt 0.470020 0.984320
vt 0.470010 0.981514
vt 0.959060 0.638575
vt 0.955608 0.638407
vt 0.989321 0.633650
vt 0.978255 0.637023
vt 0.969412 0.637723
vt 0.475729 0.980349
vt 0.475727 0.979738
vt 0.474543 0.978693
vt 0.474545 0.979445
vt 0.959058 0.637963
vt 0.955606 0.637768
vt 0.468854 0.988887
vt 0.468852 0.988276
vt 0.470036 0.989180
vt 0.470038 0.989932
vt 0.475749 0.986583
vt 0.474570 0.987111
vt 0.468826 0.980371
vt 0.470004 0.979459
vt 0.989393 0.646769
vt 0.978281 0.645184
vt 0.969435 0.644878
vt 0.959081 0.644808
vt 0.955630 0.644923
vt 0.989376 0.649967
vt 0.978288 0.647176
vt 0.969441 0.646623
vt 0.959086 0.646479
vt 0.955635 0.646668
vt 0.989367 0.651135
vt 0.978290 0.647905
vt 0.969443 0.647262
vt 0.475742 0.984301
vt 0.474561 0.984305
vt 0.959088 0.647090
vt 0.955637 0.647307
vt 0.468824 0.979760
vt 0.470001 0.978708
vt 0.475734 0.982019
vt 0.474552 0.981499
vt 0.468846 0.986605
vt 0.470029 0.987126
vt 0.965976 0.642504
vt 0.965983 0.644786
vt 0.965989 0.646456
vt 0.965991 0.647068
vt 0.965968 0.640222
vt 0.965963 0.638552
vt 0.965961 0.637941
vt 0.472281 0.981592
vt 0.472290 0.984312
vt 0.472275 0.979600
vt 0.472272 0.978871
vt 0.472299 0.987033
vt 0.472306 0.989024
vt 0.472308 0.989753
vt 0.989392 0.646258
vt 0.989395 0.642391
vt 0.935654 0.642640
vt 0.935678 0.646505
vt 0.989374 0.649000
vt 0.989364 0.649962
vt 0.935657 0.638773
vt 0.935676 0.636030
vt 0.989324 0.634822
vt 0.935685 0.635068
vt 0.958043 0.521342
vt 0.958032 0.519527
vt 0.958033 0.517711
vt 0.958042 0.516423
vt 0.958046 0.515971
vt 0.958058 0.522630
vt 0.958064 0.523081
vt 0.982642 0.519410
vt 0.982641 0.521226
vt 0.982632 0.522514
vt 0.982628 0.522966
vt 0.982632 0.517595
vt 0.982617 0.516307
vt 0.982610 0.515856
vt 0.936322 0.642640
vt 0.936325 0.638773
vt 0.988706 0.649000
vt 0.988697 0.649962
vt 0.936343 0.636030
vt 0.988727 0.642391
vt 0.988724 0.646258
vt 0.936345 0.646505
vt 0.988658 0.634822
vt 0.936352 0.635068
s 1
usemtl Material
f 28/1/28 136/2/136 135/3/135 29/4/29
f 29/4/29 135/3/135 138/5/138 33/6/33
f 33/6/33 138/5/138 140/7/140 37/8/37
f 37/8/37 140/7/140 142/5/142 41/6/41
f 41/6/41 142/5/142 144/3/144 45/4/45
f 45/4/45 144/3/144 146/2/146 49/1/49
f 49/1/49 146/2/146 148/9/148 53/10/53
f 53/10/53 148/9/148 150/11/150 57/12/57
f 57/12/57 150/11/150 152/13/152 61/14/61
f 61/14/61 152/13/152 154/11/154 65/12/65
f 21/15/21 23/16/23 179/17/179 177/18/177
f 65/12/65 154/11/154 156/9/156 69/10/69
f 69/10/69 156/9/156 136/2/136 28/1/28
f 8/19/8 6/20/6 162/21/162 164/22/164
f 155/23/155 72/24/72 25/25/25 133/26/133
f 72/24/72 71/27/71 26/28/26 25/25/25
f 88/29/88 87/30/87 123/31/123 124/32/124
f 84/33/84 70/34/70 27/35/27 73/36/73
f 70/34/70 69/10/69 28/1/28 27/35/27
f 153/37/153 68/38/68 72/24/72 155/23/155
f 68/38/68 67/39/67 71/27/71 72/24/72
f 84/40/84 73/41/73 121/42/121 119/43/119
f 83/44/83 66/45/66 70/34/70 84/33/84
f 66/45/66 65/12/65 69/10/69 70/34/70
f 151/46/151 64/47/64 68/38/68 153/37/153
f 64/47/64 63/48/63 67/39/67 68/38/68
f 95/49/95 94/50/94 130/51/130 131/52/131
f 82/53/82 62/54/62 66/45/66 83/44/83
f 62/54/62 61/14/61 65/12/65 66/45/66
f 149/37/149 60/38/60 64/47/64 151/46/151
f 60/38/60 59/39/59 63/48/63 64/47/64
f 76/55/76 77/56/77 105/57/105 103/58/103
f 81/44/81 58/45/58 62/54/62 82/53/82
f 58/45/58 57/12/57 61/14/61 62/54/62
f 147/23/147 56/24/56 60/38/60 149/37/149
f 56/24/56 55/27/55 59/39/59 60/38/60
f 87/30/87 86/59/86 122/60/122 123/31/123
f 80/33/80 54/34/54 58/45/58 81/44/81
f 54/34/54 53/10/53 57/12/57 58/45/58
f 145/26/145 52/25/52 56/24/56 147/23/147
f 52/25/52 51/28/51 55/27/55 56/24/56
f 83/61/83 84/40/84 119/43/119 117/62/117
f 79/36/79 50/35/50 54/34/54 80/33/80
f 50/35/50 49/1/49 53/10/53 54/34/54
f 143/63/143 48/64/48 52/25/52 145/26/145
f 48/64/48 47/65/47 51/28/51 52/25/52
f 94/50/94 93/49/93 129/52/129 130/51/130
f 78/66/78 46/67/46 50/35/50 79/36/79
f 46/67/46 45/4/45 49/1/49 50/35/50
f 141/68/141 44/69/44 48/64/48 143/63/143
f 44/69/44 43/70/43 47/65/47 48/64/48
f 75/56/75 76/55/76 103/58/103 101/57/101
f 77/71/77 42/72/42 46/67/46 78/66/78
f 42/72/42 41/6/41 45/4/45 46/67/46
f 139/73/139 40/74/40 44/69/44 141/68/141
f 40/74/40 39/75/39 43/70/43 44/69/44
f 86/59/86 85/76/85 97/77/97 122/60/122
f 76/78/76 38/79/38 42/72/42 77/71/77
f 38/79/38 37/8/37 41/6/41 42/72/42
f 137/68/137 36/69/36 40/74/40 139/73/139
f 36/69/36 35/70/35 39/75/39 40/74/40
f 82/80/82 83/61/83 117/62/117 115/81/115
f 75/71/75 34/72/34 38/79/38 76/78/76
f 34/72/34 33/6/33 37/8/37 38/79/38
f 134/63/134 32/64/32 36/69/36 137/68/137
f 32/64/32 31/65/31 35/70/35 36/69/36
f 93/49/93 92/82/92 128/83/128 129/52/129
f 74/66/74 30/67/30 34/72/34 75/71/75
f 30/67/30 29/4/29 33/6/33 34/72/34
f 133/26/133 25/25/25 32/64/32 134/63/134
f 25/25/25 26/28/26 31/65/31 32/64/32
f 74/84/74 75/56/75 101/57/101 99/85/99
f 73/36/73 27/35/27 30/67/30 74/66/74
f 27/35/27 28/1/28 29/4/29 30/67/30
f 81/61/81 82/80/82 115/81/115 113/62/113
f 92/82/92 91/76/91 127/77/127 128/83/128
f 73/41/73 74/84/74 99/85/99 121/42/121
f 80/40/80 81/61/81 113/62/113 111/43/111
f 91/76/91 90/59/90 126/60/126 127/77/127
f 79/41/79 80/40/80 111/43/111 109/42/109
f 90/59/90 89/30/89 125/31/125 126/60/126
f 85/76/85 96/82/96 132/83/132 97/77/97
f 78/84/78 79/41/79 109/42/109 107/85/107
f 89/30/89 88/29/88 124/32/124 125/31/125
f 96/82/96 95/49/95 131/52/131 132/83/132
f 77/56/77 78/84/78 107/85/107 105/57/105
f 26/28/26 85/86/85 86/87/86 31/65/31
f 31/65/31 86/87/86 87/88/87 35/70/35
f 35/70/35 87/88/87 88/89/88 39/75/39
f 39/75/39 88/89/88 89/88/89 43/70/43
f 43/70/43 89/88/89 90/87/90 47/65/47
f 47/65/47 90/87/90 91/86/91 51/28/51
f 51/28/51 91/86/91 92/90/92 55/27/55
f 55/27/55 92/90/92 93/91/93 59/39/59
f 59/39/59 93/91/93 94/92/94 63/48/63
f 63/48/63 94/92/94 95/91/95 67/39/67
f 67/39/67 95/91/95 96/90/96 71/27/71
f 71/27/71 96/90/96 85/86/85 26/28/26
f 132/83/132 120/93/120 98/94/98 97/77/97
f 131/52/131 118/95/118 120/93/120 132/83/132
f 130/51/130 116/96/116 118/95/118 131/52/131
f 129/52/129 114/95/114 116/96/116 130/51/130
f 128/83/128 112/93/112 114/95/114 129/52/129
f 127/77/127 110/94/110 112/93/112 128/83/128
f 126/60/126 108/97/108 110/94/110 127/77/127
f 125/31/125 106/98/106 108/97/108 126/60/126
f 124/32/124 104/99/104 106/98/106 125/31/125
f 123/31/123 102/98/102 104/99/104 124/32/124
f 122/60/122 100/97/100 102/98/102 123/31/123
f 97/77/97 98/94/98 100/97/100 122/60/122
f 98/94/98 121/42/121 99/85/99 100/97/100
f 100/97/100 99/85/99 101/57/101 102/98/102
f 102/98/102 101/57/101 103/58/103 104/99/104
f 104/99/104 103/58/103 105/57/105 106/98/106
f 106/98/106 105/57/105 107/85/107 108/97/108
f 108/97/108 107/85/107 109/42/109 110/94/110
f 110/94/110 109/42/109 111/43/111 112/93/112
f 112/93/112 111/43/111 113/62/113 114/95/114
f 114/95/114 113/62/113 115/81/115 116/96/116
f 116/96/116 115/81/115 117/62/117 118/95/118
f 118/95/118 117/62/117 119/43/119 120/93/120
f 120/93/120 119/43/119 121/42/121 98/94/98
f 3/100/3 1/101/1 133/26/133 134/63/134
f 2/102/2 4/103/4 135/3/135 136/2/136
f 5/104/5 3/100/3 134/63/134 137/68/137
f 4/103/4 6/20/6 138/5/138 135/3/135
f 7/105/7 5/104/5 137/68/137 139/73/139
f 6/20/6 8/19/8 140/7/140 138/5/138
f 9/104/9 7/105/7 139/73/139 141/68/141
f 8/19/8 10/20/10 142/5/142 140/7/140
f 11/100/11 9/104/9 141/68/141 143/63/143
f 10/20/10 12/103/12 144/3/144 142/5/142
f 13/101/13 11/100/11 143/63/143 145/26/145
f 12/103/12 14/102/14 146/2/146 144/3/144
f 15/16/15 13/101/13 145/26/145 147/23/147
f 14/102/14 16/106/16 148/9/148 146/2/146
f 17/15/17 15/16/15 147/23/147 149/37/149
f 16/106/16 18/107/18 150/11/150 148/9/148
f 19/108/19 17/15/17 149/37/149 151/46/151
f 18/107/18 20/109/20 152/13/152 150/11/150
f 21/15/21 19/108/19 151/46/151 153/37/153
f 20/109/20 22/107/22 154/11/154 152/13/152
f 23/16/23 21/15/21 153/37/153 155/23/155
f 22/107/22 24/106/24 156/9/156 154/11/154
f 1/101/1 23/16/23 155/23/155 133/26/133
f 24/106/24 2/102/2 136/2/136 156/9/156
f 159/110/159 160/111/160 180/112/180 178/113/178 176/114/176 174/113/174 172/112/172 170/111/170 168/110/168 166/115/166 164/116/164 162/115/162
f 157/117/157 158/118/158 161/119/161 163/120/163 165/119/165 167/118/167 169/117/169 171/121/171 173/122/173 175/123/175 177/122/177 179/121/179
f 16/106/16 14/102/14 170/124/170 172/125/172
f 7/105/7 9/104/9 165/126/165 163/127/163
f 24/106/24 22/107/22 178/128/178 180/125/180
f 15/16/15 17/15/17 173/18/173 171/17/171
f 10/20/10 8/19/8 164/22/164 166/21/166
f 23/16/23 1/101/1 157/129/157 179/17/179
f 1/101/1 3/100/3 158/130/158 157/129/157
f 18/107/18 16/106/16 172/125/172 174/128/174
f 9/104/9 11/100/11 167/130/167 165/126/165
f 2/102/2 24/106/24 180/125/180 160/124/160
f 4/103/4 2/102/2 160/124/160 159/131/159
f 17/15/17 19/108/19 175/132/175 173/18/173
f 12/103/12 10/20/10 166/21/166 168/131/168
f 3/100/3 5/104/5 161/126/161 158/130/158
f 20/109/20 18/107/18 174/128/174 176/133/176
f 11/100/11 13/101/13 169/129/169 167/130/167
f 6/20/6 4/103/4 159/131/159 162/21/162
f 19/108/19 21/15/21 177/18/177 175/132/175
f 14/102/14 12/103/12 168/131/168 170/124/170
f 5/104/5 7/105/7 163/127/163 161/126/161
f 22/107/22 20/109/20 176/133/176 178/128/178
f 13/101/13 15/16/15 171/17/171 169/129/169
