<svg width="1158" height="386" xmlns="http://www.w3.org/2000/svg" xmlns:xlink="http://www.w3.org/1999/xlink" xml:space="preserve" overflow="hidden"><defs><filter id="fx0" x="-10%" y="-10%" width="120%" height="120%" filterUnits="userSpaceOnUse" primitiveUnits="userSpaceOnUse"><feComponentTransfer color-interpolation-filters="sRGB"><feFuncR type="discrete" tableValues="0 0"/><feFuncG type="discrete" tableValues="0 0"/><feFuncB type="discrete" tableValues="0 0"/><feFuncA type="linear" slope="0.431373" intercept="0"/></feComponentTransfer><feGaussianBlur stdDeviation="2.80252 2.80252"/></filter><clipPath id="clip1"><rect x="1470" y="1233" width="1158" height="386"/></clipPath><clipPath id="clip2"><rect x="2435" y="1233" width="193" height="386"/></clipPath><clipPath id="clip3"><rect x="2435" y="1233" width="193" height="387"/></clipPath><clipPath id="clip4"><rect x="2435" y="1233" width="193" height="387"/></clipPath><clipPath id="clip5"><rect x="2311" y="1350" width="148" height="151"/></clipPath><clipPath id="clip6"><rect x="2311" y="1350" width="148" height="151"/></clipPath><clipPath id="clip7"><rect x="2311" y="1350" width="148" height="151"/></clipPath></defs><g clip-path="url(#clip1)" transform="translate(-1470 -1233)"><g clip-path="url(#clip2)"><g clip-path="url(#clip3)"><g clip-path="url(#clip4)"><path d="M0 32.1666C43.961 32.1666 81.7568 47.7139 113.387 78.8083L114.192 79.6124C145.286 111.243 160.833 149.039 160.833 193 160.833 236.96 145.018 274.756 113.387 306.387 81.7568 338.018 43.961 353.833 0 353.833L0 321.666C35.3833 321.666 65.6735 309.068 90.8708 283.871L90.8708 283.066C116.068 258.406 128.667 228.383 128.667 193 128.667 157.617 116.068 127.326 90.8708 102.129 65.6735 76.9318 35.3833 64.3333 0 64.3333L0 32.1666" fill="#FFFFFF" transform="matrix(1 0 0 1 2435 1233)"/><path d="M0 32.1666 0 0C53.075 0 98.6443 18.7639 136.708 56.2916 174.235 94.3555 193 139.925 193 193 193 246.075 174.235 291.377 136.708 328.904 98.6443 366.968 53.075 386 0 386L0 353.833C43.961 353.833 81.7568 338.018 113.387 306.387 145.018 274.756 160.833 236.96 160.833 193 160.833 149.039 145.286 111.243 114.192 79.6124L113.387 78.8083C81.7568 47.7139 43.961 32.1666 0 32.1666" fill="#989AAF" transform="matrix(1 0 0 1 2435 1233)"/><path d="M0 64.3333C35.3833 64.3333 65.6735 76.9318 90.8708 102.129 116.068 127.326 128.667 157.617 128.667 193L0 193 0 64.3333" fill="#EAEBF3" transform="matrix(1 0 0 1 2435 1233)"/><path d="M128.667 193C128.667 228.383 116.068 258.406 90.8708 283.066L90.8708 283.871C65.6735 309.068 35.3833 321.666 0 321.666L0 193 128.667 193" fill="#DADCE7" transform="matrix(1 0 0 1 2435 1233)"/></g></g></g><g><g><g><path d="M193 353.833 193 386C139.925 386 94.3556 366.969 56.2917 328.904 18.7639 291.377 0 246.075 0 193 0 139.925 18.7639 94.3556 56.2917 56.2917 94.3556 18.7639 139.925 0 193 0L193 32.1667C149.039 32.1667 111.243 47.7139 79.6125 78.8083L78.8083 79.6125C47.7139 111.243 32.1667 149.039 32.1667 193 32.1667 236.961 47.9819 274.756 79.6125 306.388 111.243 338.019 149.039 353.833 193 353.833" fill="#989AAF" transform="matrix(1 0 0 1 1470 1233)"/><path d="M193 353.833C149.039 353.833 111.243 338.019 79.6125 306.388 47.9819 274.756 32.1667 236.961 32.1667 193 32.1667 149.039 47.7139 111.243 78.8083 79.6125L79.6125 78.8083C111.243 47.7139 149.039 32.1667 193 32.1667L193 64.3333C157.617 64.3333 127.326 76.9319 102.129 102.129 76.9319 127.326 64.3333 157.617 64.3333 193 64.3333 228.383 76.9319 258.406 102.129 283.067L102.129 283.871C127.326 309.069 157.617 321.667 193 321.667L193 353.833" fill="#FFFFFF" transform="matrix(1 0 0 1 1470 1233)"/><path d="M193 64.3333 193 193 64.3333 193C64.3333 157.617 76.9319 127.326 102.129 102.129 127.326 76.9319 157.617 64.3333 193 64.3333" fill="#EAEBF3" transform="matrix(1 0 0 1 1470 1233)"/><path d="M193 193 193 321.667C157.617 321.667 127.326 309.069 102.129 283.871L102.129 283.067C76.9319 258.406 64.3333 228.383 64.3333 193L193 193" fill="#DADCE7" transform="matrix(1 0 0 1 1470 1233)"/></g></g></g><g><g><g><path d="M1663 1265.17 1663 1233 2049 1233 2049 1265.17 1663 1265.17M2049 1586.83 2049 1619 1663 1619 1663 1586.83 2049 1586.83" fill="#989AAF"/><path d="M2049 1586.83 1663 1586.83 1663 1554.67 2049 1554.67 2049 1586.83M2049 1265.17 2049 1297.33 1663 1297.33 1663 1265.17 2049 1265.17" fill="#FFFFFF"/><path d="M2049 1426 2049 1554.67 1663 1554.67 1663 1426 2049 1426" fill="#DADCE7"/><path d="M2049 1426 1663 1426 1663 1297.33 2049 1297.33 2049 1426" fill="#EAEBF3"/></g></g></g><g><g><g><path d="M2049 1265.17 2049 1233 2435 1233 2435 1265.17 2049 1265.17M2435 1586.83 2435 1619 2049 1619 2049 1586.83 2435 1586.83" fill="#989AAF"/><path d="M2435 1586.83 2049 1586.83 2049 1554.67 2435 1554.67 2435 1586.83M2435 1265.17 2435 1297.33 2049 1297.33 2049 1265.17 2435 1265.17" fill="#FFFFFF"/><path d="M2435 1426 2435 1554.67 2049 1554.67 2049 1426 2435 1426" fill="#DADCE7"/><path d="M2435 1426 2049 1426 2049 1297.33 2435 1297.33 2435 1426" fill="#EAEBF3"/></g></g></g><g filter="url(#fx0)" transform="translate(1755 1351)"><g><path d="M186.809 58.3043C181.902 58.3559 177.86 59.7397 174.685 62.4555 171.509 65.1713 169.447 68.9095 168.498 73.6699L205.121 73.6699C204.244 68.9095 202.203 65.1713 198.996 62.4555 195.79 59.7397 191.727 58.3559 186.809 58.3043ZM239.69 37.5349 274.993 37.5349 290.83 60.1346 307.326 37.5349 340.485 37.5349 307.491 81.0848 341.639 126.944 305.842 126.944 289.84 103.52 272.683 126.944 238.7 126.944 272.683 82.2395ZM186.644 36.0499C195.544 36.0751 203.589 37.8929 210.778 41.5033 217.967 45.1136 223.69 50.365 227.947 57.2575 232.203 64.15 234.383 72.5322 234.484 82.404 234.474 83.5816 234.412 84.8519 234.299 86.2148 234.185 87.5778 234.082 88.8893 233.989 90.1493L168.993 90.1493C170.34 94.7243 172.884 98.2562 176.623 100.745 180.362 103.234 185.132 104.494 190.934 104.525 195.236 104.532 199.003 103.898 202.234 102.625 205.464 101.351 208.571 99.3957 211.554 96.7588L228.051 113.922C223.772 118.709 218.472 122.323 212.152 124.761 205.832 127.2 198.429 128.422 189.944 128.429 173.829 128.169 161.106 123.785 151.775 115.278 142.444 106.771 137.681 95.7031 137.485 82.0744 137.569 73.037 139.728 65.074 143.961 58.1856 148.194 51.2971 153.995 45.9032 161.362 42.0039 168.729 38.1046 177.157 36.1199 186.644 36.0499ZM354.725 17.5699 386.054 17.5699 386.054 40.8349 406.514 40.8349 406.514 64.2443 386.054 64.2443 386.054 93.9596C386.096 97.2751 386.962 99.8064 388.653 101.554 390.344 103.301 392.613 104.181 395.459 104.195 397.209 104.191 398.907 103.951 400.554 103.473 402.2 102.995 403.692 102.3 405.029 101.388L412.784 123.319C410.01 125.046 406.731 126.331 402.946 127.172 399.161 128.014 395.181 128.433 391.004 128.429 379.464 128.44 370.552 125.616 364.268 119.958 357.985 114.3 354.804 105.744 354.725 94.2898L354.725 64.2443 341.69 64.2443 341.69 40.8349 354.725 40.8349ZM11.58 11.4649 38.4577 11.4649 89.46 72.9992 89.46 11.4649 121.449 11.4649 121.449 126.944 94.5717 126.944 43.5693 65.4106 43.5693 126.944 11.58 126.944Z" stroke="#FFFFFF" stroke-width="3" stroke-linejoin="round" stroke-miterlimit="10" fill="#0B76A0" fill-rule="evenodd"/></g></g><path d="M1935.86 1403.36C1930.96 1403.41 1926.92 1404.79 1923.74 1407.51 1920.56 1410.23 1918.5 1413.96 1917.55 1418.72L1954.18 1418.72C1953.3 1413.96 1951.26 1410.23 1948.05 1407.51 1944.84 1404.79 1940.78 1403.41 1935.86 1403.36ZM1988.74 1382.59 2024.05 1382.59 2039.88 1405.19 2056.38 1382.59 2089.54 1382.59 2056.55 1426.14 2090.69 1472 2054.9 1472 2038.89 1448.57 2021.74 1472 1987.75 1472 2021.74 1427.29ZM1935.7 1381.1C1944.6 1381.13 1952.64 1382.95 1959.83 1386.56 1967.02 1390.17 1972.75 1395.42 1977 1402.31 1981.26 1409.21 1983.44 1417.59 1983.54 1427.46 1983.53 1428.64 1983.47 1429.91 1983.35 1431.27 1983.24 1432.63 1983.14 1433.94 1983.04 1435.2L1918.05 1435.2C1919.4 1439.78 1921.94 1443.31 1925.68 1445.8 1929.42 1448.29 1934.19 1449.55 1939.99 1449.58 1944.29 1449.59 1948.06 1448.95 1951.29 1447.68 1954.52 1446.41 1957.63 1444.45 1960.61 1441.81L1977.11 1458.98C1972.83 1463.76 1967.53 1467.38 1961.21 1469.82 1954.89 1472.25 1947.48 1473.48 1939 1473.48 1922.88 1473.22 1910.16 1468.84 1900.83 1460.33 1891.5 1451.83 1886.74 1440.76 1886.54 1427.13 1886.62 1418.09 1888.78 1410.13 1893.02 1403.24 1897.25 1396.35 1903.05 1390.96 1910.42 1387.06 1917.78 1383.16 1926.21 1381.17 1935.7 1381.1ZM2103.78 1362.62 2135.11 1362.62 2135.11 1385.89 2155.57 1385.89 2155.57 1409.3 2135.11 1409.3 2135.11 1439.01C2135.15 1442.33 2136.02 1444.86 2137.71 1446.61 2139.4 1448.36 2141.67 1449.24 2144.51 1449.25 2146.26 1449.25 2147.96 1449.01 2149.61 1448.53 2151.26 1448.05 2152.75 1447.35 2154.08 1446.44L2161.84 1468.37C2159.07 1470.1 2155.79 1471.39 2152 1472.23 2148.22 1473.07 2144.24 1473.49 2140.06 1473.48 2128.52 1473.49 2119.61 1470.67 2113.32 1465.01 2107.04 1459.35 2103.86 1450.8 2103.78 1439.34L2103.78 1409.3 2090.74 1409.3 2090.74 1385.89 2103.78 1385.89ZM1760.63 1356.52 1787.51 1356.52 1838.51 1418.05 1838.51 1356.52 1870.5 1356.52 1870.5 1472 1843.63 1472 1792.62 1410.47 1792.62 1472 1760.63 1472Z" stroke="#FFFFFF" stroke-width="3" stroke-linejoin="round" stroke-miterlimit="10" fill="#0B76A0" fill-rule="evenodd"/><text fill="#000000" fill-opacity="0" font-family="Arial,Arial_MSFontService,sans-serif" font-size="116.964" x="1760.63" y="1458.86">Next</text><g clip-path="url(#clip5)"><g clip-path="url(#clip6)"><g clip-path="url(#clip7)"><path d="M1.3875 119.094 19.6562 73.9999 1.3875 28.9062C0.462499 26.7479 0 24.4354 0 21.9687 0 16.2646 1.54166 11.8708 4.62499 8.78749L6.47499 6.70624C8.32499 4.70209 10.175 3.31458 12.025 2.54375L15.9562 1.15625 17.8062 0.693749 22.2 0 22.6625 0C26.3625 0 29.7541 1.00208 32.8375 3.00625L135.975 54.8062 136.9 55.2687 141.756 58.7374 144.994 62.6687C146.227 64.6727 147.152 66.9084 147.769 69.3749 148.385 72.6124 148.308 75.8499 147.537 79.0874L144.069 86.7186 136.9 93.1936 133.662 94.8124 33.0687 144.994C29.9854 146.998 26.5166 148 22.6625 148L21.5062 148 18.0375 147.769C13.2583 146.69 9.48124 144.685 6.70624 141.756L5.31874 140.137C2.54375 136.746 0.847914 133.046 0.23125 129.037-0.385416 125.646 0 122.331 1.3875 119.094M16.1875 10.8687 15.9562 10.8687 12.95 13.1812 12.025 14.1062 11.1 15.2625C9.86664 16.8041 9.24999 19.0396 9.24999 21.9687L9.94374 25.4375 28.2125 70.5312C29.1375 72.8437 29.1375 75.1562 28.2125 77.4686L9.94374 122.562C9.32709 124.104 9.17289 125.8 9.48124 127.65 9.78959 130.116 10.7916 132.352 12.4875 134.356L13.1812 135.281 13.4125 135.512C14.9541 137.054 17.1125 138.133 19.8875 138.75L19.6562 138.519 21.5062 138.75 22.6625 138.75 27.75 137.362 28.9062 136.669 129.5 86.4874 130.194 86.2561 132.275 85.0999 136.669 81.3999 136.669 81.1686 138.287 77.4686 138.519 76.5436 138.75 71.2249 137.131 67.7562 137.362 67.7562 135.281 65.4437 135.05 65.2124 132.737 63.3624 132.737 63.5937 131.812 63.1312 28.675 11.3312 27.75 10.6375 22.6625 9.24999 22.2 9.24999 20.1187 9.71249 19.8875 9.71249 18.0375 10.175 16.1875 10.8687" fill="#167DA8" transform="matrix(1 0 0 1.00676 2311 1351)"/><path d="M16.1875 10.8687 18.0375 10.175 19.8875 9.71249 20.1187 9.71249 22.2 9.24999 22.6625 9.24999 27.75 10.6375 28.675 11.3312 131.812 63.1312 132.737 63.5937 132.737 63.3624 135.05 65.2124 135.281 65.4437 137.362 67.7562 137.131 67.7562 138.75 71.2249 138.519 76.5436 138.287 77.4686 136.669 81.1686 136.669 81.3999 132.275 85.0999 130.194 86.2561 129.5 86.4874 28.9062 136.669 27.75 137.362 22.6625 138.75 21.5062 138.75 19.6562 138.519 19.8875 138.75C17.1125 138.133 14.9541 137.054 13.4125 135.512L13.1812 135.281 12.4875 134.356C10.7916 132.352 9.78959 130.116 9.48124 127.65 9.17289 125.8 9.32709 124.104 9.94374 122.562L28.2125 77.4686C29.1375 75.1562 29.1375 72.8437 28.2125 70.5312L9.94374 25.4375 9.24999 21.9687C9.24999 19.0396 9.86664 16.8041 11.1 15.2625L12.025 14.1062 12.95 13.1812 15.9562 10.8687 16.1875 10.8687M129.731 73.0749 129.269 72.6124 129.037 72.1499 129.962 72.8437 130.194 72.3811 129.5 72.1499 129.037 71.9187 128.575 71.9187 128.344 71.6874 127.65 71.4562 24.5125 19.6562 24.05 19.1937 22.8937 18.5 22.4312 18.5 22.2 18.7312 21.9687 18.7312 20.8125 18.9625 20.35 19.1937 20.35 18.9625 20.1187 19.1937 19.6562 19.425 19.1937 20.1187 18.9625 20.35 18.5 21.0437 18.5 21.9687 36.7687 67.0624C38.6187 71.6874 38.6187 76.3124 36.7687 80.9374L18.5 126.031 19.6562 128.575 19.1937 128.112 17.575 129.5 20.35 129.269 20.8125 129.269 21.7375 129.5 21.9687 129.5 22.6625 129.5 24.5125 128.344 24.7437 128.344 125.337 78.1624 126.494 77.6999 126.956 77.4686 127.419 77.2374 129.269 75.8499 129.269 75.6187 129.731 73.9999 129.731 73.3062 129.731 73.0749" fill="#36BDF7" transform="matrix(1 0 0 1.00676 2311 1351)"/><path d="M129.731 73.0749 129.731 73.3062 129.731 73.9999 129.269 75.6187 129.269 75.8499 127.419 77.2374 126.956 77.4686 126.494 77.6999 125.337 78.1624 24.7437 128.344 24.5125 128.344 22.6625 129.5 21.9687 129.5 21.7375 129.5 20.8125 129.269 20.35 129.269 17.575 129.5 19.1937 128.112 19.6562 128.575 18.5 126.031 36.7687 80.9374C38.6187 76.3124 38.6187 71.6874 36.7687 67.0624L18.5 21.9687 18.5 21.0437 18.9625 20.35 19.1937 20.1187 19.6562 19.425 20.1187 19.1937 20.35 18.9625 20.35 19.1937 20.8125 18.9625 21.9687 18.7312 22.2 18.7312 22.4312 18.5 22.8937 18.5 24.05 19.1937 24.5125 19.6562 127.65 71.4562 128.344 71.6874 128.575 71.9187 129.037 71.9187 129.5 72.1499 130.194 72.3811 129.962 72.8437 129.037 72.1499 129.269 72.6124 129.731 73.0749" fill="#1C9FD7" transform="matrix(1 0 0 1.00676 2311 1351)"/></g></g></g></g></svg>