<svg width="1158" height="386" xmlns="http://www.w3.org/2000/svg" xmlns:xlink="http://www.w3.org/1999/xlink" xml:space="preserve" overflow="hidden"><defs><filter id="fx0" x="-10%" y="-10%" width="120%" height="120%" filterUnits="userSpaceOnUse" primitiveUnits="userSpaceOnUse"><feComponentTransfer color-interpolation-filters="sRGB"><feFuncR type="discrete" tableValues="0 0"/><feFuncG type="discrete" tableValues="0 0"/><feFuncB type="discrete" tableValues="0 0"/><feFuncA type="linear" slope="0.431373" intercept="0"/></feComponentTransfer><feGaussianBlur stdDeviation="2.80252 2.80252"/></filter><clipPath id="clip1"><rect x="1472" y="237" width="1158" height="386"/></clipPath><clipPath id="clip2"><rect x="2312" y="356" width="149" height="148"/></clipPath><clipPath id="clip3"><rect x="2312" y="356" width="149" height="148"/></clipPath><clipPath id="clip4"><rect x="2312" y="356" width="149" height="148"/></clipPath></defs><g clip-path="url(#clip1)" transform="translate(-1472 -237)"><g><g><g><path d="M0 32.1667C43.9611 32.1667 81.7569 47.7139 113.388 78.8083L114.192 79.6125C145.286 111.243 160.833 149.039 160.833 193 160.833 236.961 145.018 274.756 113.388 306.388 81.7569 338.019 43.9611 353.833 0 353.833L0 321.667C35.3833 321.667 65.6736 309.069 90.8708 283.871L90.8708 283.067C116.068 258.406 128.667 228.383 128.667 193 128.667 157.617 116.068 127.326 90.8708 102.129 65.6736 76.9319 35.3833 64.3333 0 64.3333L0 32.1667" fill="#FFFFFF" transform="matrix(1 0 0 1 2437 237)"/><path d="M0 32.1667 0 0C53.075 0 98.6444 18.7639 136.708 56.2917 174.236 94.3556 193 139.925 193 193 193 246.075 174.236 291.377 136.708 328.904 98.6444 366.969 53.075 386 0 386L0 353.833C43.9611 353.833 81.7569 338.019 113.388 306.388 145.018 274.756 160.833 236.961 160.833 193 160.833 149.039 145.286 111.243 114.192 79.6125L113.388 78.8083C81.7569 47.7139 43.9611 32.1667 0 32.1667" fill="#989AAF" transform="matrix(1 0 0 1 2437 237)"/><path d="M0 64.3333C35.3833 64.3333 65.6736 76.9319 90.8708 102.129 116.068 127.326 128.667 157.617 128.667 193L0 193 0 64.3333" fill="#EAEBF3" transform="matrix(1 0 0 1 2437 237)"/><path d="M128.667 193C128.667 228.383 116.068 258.406 90.8708 283.067L90.8708 283.871C65.6736 309.069 35.3833 321.667 0 321.667L0 193 128.667 193" fill="#DADCE7" transform="matrix(1 0 0 1 2437 237)"/></g></g></g><g><g><g><path d="M193 353.833 193 386C139.925 386 94.3556 366.969 56.2917 328.904 18.7639 291.377 0 246.075 0 193 0 139.925 18.7639 94.3556 56.2917 56.2917 94.3556 18.7639 139.925 0 193 0L193 32.1667C149.039 32.1667 111.243 47.7139 79.6125 78.8083L78.8083 79.6125C47.7139 111.243 32.1667 149.039 32.1667 193 32.1667 236.961 47.9819 274.756 79.6125 306.388 111.243 338.019 149.039 353.833 193 353.833" fill="#989AAF" transform="matrix(1 0 0 1 1472 237)"/><path d="M193 353.833C149.039 353.833 111.243 338.019 79.6125 306.388 47.9819 274.756 32.1667 236.961 32.1667 193 32.1667 149.039 47.7139 111.243 78.8083 79.6125L79.6125 78.8083C111.243 47.7139 149.039 32.1667 193 32.1667L193 64.3333C157.617 64.3333 127.326 76.9319 102.129 102.129 76.9319 127.326 64.3333 157.617 64.3333 193 64.3333 228.383 76.9319 258.406 102.129 283.067L102.129 283.871C127.326 309.069 157.617 321.667 193 321.667L193 353.833" fill="#FFFFFF" transform="matrix(1 0 0 1 1472 237)"/><path d="M193 64.3333 193 193 64.3333 193C64.3333 157.617 76.9319 127.326 102.129 102.129 127.326 76.9319 157.617 64.3333 193 64.3333" fill="#EAEBF3" transform="matrix(1 0 0 1 1472 237)"/><path d="M193 193 193 321.667C157.617 321.667 127.326 309.069 102.129 283.871L102.129 283.067C76.9319 258.406 64.3333 228.383 64.3333 193L193 193" fill="#DADCE7" transform="matrix(1 0 0 1 1472 237)"/></g></g></g><g><g><g><path d="M1665 269.167 1665 237 2051 237 2051 269.167 1665 269.167M2051 590.833 2051 623 1665 623 1665 590.833 2051 590.833" fill="#989AAF"/><path d="M2051 590.833 1665 590.833 1665 558.667 2051 558.667 2051 590.833M2051 269.167 2051 301.333 1665 301.333 1665 269.167 2051 269.167" fill="#FFFFFF"/><path d="M2051 430 2051 558.667 1665 558.667 1665 430 2051 430" fill="#DADCE7"/><path d="M2051 430 1665 430 1665 301.333 2051 301.333 2051 430" fill="#EAEBF3"/></g></g></g><g><g><g><path d="M0 32.1666 0 0 386 0 386 32.1666 0 32.1666M386 353.833 386 386 0 386 0 353.833 386 353.833" fill="#989AAF" transform="matrix(1 0 0 1 2051 237)"/><path d="M386 353.833 0 353.833 0 321.666 386 321.666 386 353.833M386 32.1666 386 64.3333 0 64.3333 0 32.1666 386 32.1666" fill="#FFFFFF" transform="matrix(1 0 0 1 2051 237)"/><path d="M386 193 386 321.666 0 321.666 0 193 386 193" fill="#DADCE7" transform="matrix(1 0 0 1 2051 237)"/><path d="M386 193 0 193 0 64.3333 386 64.3333 386 193" fill="#EAEBF3" transform="matrix(1 0 0 1 2051 237)"/></g></g></g><g filter="url(#fx0)" transform="translate(1757 355)"><g><path d="M186.74 58.8188C181.832 58.8704 177.791 60.2542 174.615 62.97 171.44 65.6858 169.378 69.424 168.429 74.1844L205.051 74.1844C204.175 69.424 202.133 65.6858 198.927 62.97 195.72 60.2542 191.658 58.8704 186.74 58.8188ZM239.621 38.0494 274.924 38.0494 290.76 60.6491 307.257 38.0494 340.416 38.0494 307.422 81.5993 341.57 127.459 305.772 127.459 289.771 104.034 272.614 127.459 238.631 127.459 272.614 82.754ZM186.575 36.5644C195.475 36.5897 203.52 38.4075 210.709 42.0178 217.898 45.6281 223.621 50.8796 227.878 57.7721 232.134 64.6646 234.313 73.0467 234.415 82.9185 234.405 84.0961 234.343 85.3664 234.229 86.7294 234.116 88.0923 234.013 89.4038 233.92 90.6638L168.924 90.6638C170.271 95.2388 172.814 98.7708 176.554 101.26 180.293 103.749 185.063 105.008 190.864 105.039 195.167 105.046 198.934 104.413 202.164 103.139 205.395 101.866 208.502 99.9102 211.485 97.2733L227.981 114.436C223.703 119.224 218.403 122.837 212.083 125.276 205.763 127.714 198.36 128.937 189.875 128.944 173.76 128.683 161.037 124.3 151.706 115.793 142.375 107.286 137.612 96.2177 137.416 82.5889 137.5 73.5515 139.659 65.5886 143.892 58.7001 148.125 51.8117 153.925 46.4178 161.293 42.5184 168.66 38.6191 177.088 36.6344 186.575 36.5644ZM354.656 18.0844 385.985 18.0844 385.985 41.3494 406.445 41.3494 406.445 64.7588 385.985 64.7588 385.985 94.4741C386.026 97.7896 386.893 100.321 388.584 102.068 390.275 103.815 392.544 104.696 395.39 104.709 397.14 104.706 398.838 104.465 400.484 103.987 402.131 103.509 403.623 102.814 404.96 101.903L412.715 123.833C409.941 125.561 406.662 126.845 402.877 127.687 399.092 128.528 395.112 128.947 390.935 128.944 379.395 128.954 370.483 126.131 364.199 120.472 357.916 114.814 354.735 106.258 354.656 94.8043L354.656 64.7588 341.621 64.7588 341.621 41.3494 354.656 41.3494ZM11.5108 11.9794 38.3885 11.9794 89.3908 73.5137 89.3908 11.9794 121.38 11.9794 121.38 127.459 94.5025 127.459 43.5001 65.9251 43.5001 127.459 11.5108 127.459Z" stroke="#FFFFFF" stroke-width="3" stroke-linejoin="round" stroke-miterlimit="10" fill-rule="evenodd"/></g></g><path d="M1937.8 407.874C1932.89 407.925 1928.85 409.309 1925.67 412.025 1922.49 414.741 1920.43 418.479 1919.48 423.239L1956.11 423.239C1955.23 418.479 1953.19 414.741 1949.98 412.025 1946.78 409.309 1942.71 407.925 1937.8 407.874ZM1990.68 387.104 2025.98 387.104 2041.82 409.704 2058.31 387.104 2091.47 387.104 2058.48 430.654 2092.62 476.514 2056.83 476.514 2040.83 453.089 2023.67 476.514 1989.69 476.514 2023.67 431.809ZM1937.63 385.619C1946.53 385.645 1954.57 387.462 1961.76 391.073 1968.95 394.683 1974.68 399.935 1978.93 406.827 1983.19 413.72 1985.37 422.102 1985.47 431.973 1985.46 433.151 1985.4 434.421 1985.28 435.784 1985.17 437.147 1985.07 438.459 1984.98 439.719L1919.98 439.719C1921.33 444.294 1923.87 447.826 1927.61 450.315 1931.35 452.803 1936.12 454.063 1941.92 454.094 1946.22 454.101 1949.99 453.468 1953.22 452.194 1956.45 450.92 1959.56 448.965 1962.54 446.328L1979.04 463.491C1974.76 468.279 1969.46 471.892 1963.14 474.331 1956.82 476.769 1949.41 477.992 1940.93 477.999 1924.81 477.738 1912.09 473.355 1902.76 464.848 1893.43 456.341 1888.67 445.273 1888.47 431.644 1888.56 422.606 1890.71 414.644 1894.95 407.755 1899.18 400.867 1904.98 395.473 1912.35 391.573 1919.72 387.674 1928.14 385.689 1937.63 385.619ZM2105.71 367.139 2137.04 367.139 2137.04 390.404 2157.5 390.404 2157.5 413.814 2137.04 413.814 2137.04 443.529C2137.08 446.845 2137.95 449.376 2139.64 451.123 2141.33 452.87 2143.6 453.751 2146.45 453.764 2148.19 453.761 2149.89 453.52 2151.54 453.042 2153.19 452.564 2154.68 451.869 2156.02 450.958L2163.77 472.888C2161 474.616 2157.72 475.9 2153.93 476.742 2150.15 477.583 2146.17 478.002 2141.99 477.999 2130.45 478.009 2121.54 475.186 2115.25 469.527 2108.97 463.869 2105.79 455.313 2105.71 443.859L2105.71 413.814 2092.68 413.814 2092.68 390.404 2105.71 390.404ZM1762.57 361.034 1789.44 361.034 1840.45 422.569 1840.45 361.034 1872.44 361.034 1872.44 476.514 1845.56 476.514 1794.56 414.98 1794.56 476.514 1762.57 476.514Z" stroke="#FFFFFF" stroke-width="3" stroke-linejoin="round" stroke-miterlimit="10" fill-rule="evenodd"/><text fill="#000000" fill-opacity="0" font-family="Arial,Arial_MSFontService,sans-serif" font-size="116.964" x="1762.57" y="463.378">Next</text><g clip-path="url(#clip2)"><g clip-path="url(#clip3)"><g clip-path="url(#clip4)"><path d="M1.3875 119.094 19.6562 73.9999 1.3875 28.9062C0.462499 26.7479 0 24.4354 0 21.9687 0 16.2646 1.54166 11.8708 4.62499 8.78749L6.47499 6.70624C8.32499 4.70209 10.175 3.31458 12.025 2.54375L15.9562 1.15625 17.8062 0.693749 22.2 0 22.6625 0C26.3625 0 29.7541 1.00208 32.8375 3.00625L135.975 54.8062 136.9 55.2687 141.756 58.7374 144.994 62.6687C146.227 64.6727 147.152 66.9084 147.769 69.3749 148.385 72.6124 148.308 75.8499 147.537 79.0874L144.069 86.7186 136.9 93.1936 133.662 94.8124 33.0687 144.994C29.9854 146.998 26.5166 148 22.6625 148L21.5062 148 18.0375 147.769C13.2583 146.69 9.48124 144.685 6.70624 141.756L5.31874 140.137C2.54375 136.746 0.847914 133.046 0.23125 129.037-0.385416 125.646 0 122.331 1.3875 119.094M16.1875 10.8687 15.9562 10.8687 12.95 13.1812 12.025 14.1062 11.1 15.2625C9.86664 16.8041 9.24999 19.0396 9.24999 21.9687L9.94374 25.4375 28.2125 70.5312C29.1375 72.8437 29.1375 75.1562 28.2125 77.4686L9.94374 122.562C9.32709 124.104 9.17289 125.8 9.48124 127.65 9.78959 130.116 10.7916 132.352 12.4875 134.356L13.1812 135.281 13.4125 135.512C14.9541 137.054 17.1125 138.133 19.8875 138.75L19.6562 138.519 21.5062 138.75 22.6625 138.75 27.75 137.362 28.9062 136.669 129.5 86.4874 130.194 86.2561 132.275 85.0999 136.669 81.3999 136.669 81.1686 138.287 77.4686 138.519 76.5436 138.75 71.2249 137.131 67.7562 137.362 67.7562 135.281 65.4437 135.05 65.2124 132.737 63.3624 132.737 63.5937 131.812 63.1312 28.675 11.3312 27.75 10.6375 22.6625 9.24999 22.2 9.24999 20.1187 9.71249 19.8875 9.71249 18.0375 10.175 16.1875 10.8687" fill="#167DA8" transform="matrix(1.00676 0 0 1 2312 356)"/><path d="M16.1875 10.8687 18.0375 10.175 19.8875 9.71249 20.1187 9.71249 22.2 9.24999 22.6625 9.24999 27.75 10.6375 28.675 11.3312 131.812 63.1312 132.737 63.5937 132.737 63.3624 135.05 65.2124 135.281 65.4437 137.362 67.7562 137.131 67.7562 138.75 71.2249 138.519 76.5436 138.287 77.4686 136.669 81.1686 136.669 81.3999 132.275 85.0999 130.194 86.2561 129.5 86.4874 28.9062 136.669 27.75 137.362 22.6625 138.75 21.5062 138.75 19.6562 138.519 19.8875 138.75C17.1125 138.133 14.9541 137.054 13.4125 135.512L13.1812 135.281 12.4875 134.356C10.7916 132.352 9.78959 130.116 9.48124 127.65 9.17289 125.8 9.32709 124.104 9.94374 122.562L28.2125 77.4686C29.1375 75.1562 29.1375 72.8437 28.2125 70.5312L9.94374 25.4375 9.24999 21.9687C9.24999 19.0396 9.86664 16.8041 11.1 15.2625L12.025 14.1062 12.95 13.1812 15.9562 10.8687 16.1875 10.8687M129.731 73.0749 129.269 72.6124 129.037 72.1499 129.962 72.8437 130.194 72.3811 129.5 72.1499 129.037 71.9187 128.575 71.9187 128.344 71.6874 127.65 71.4562 24.5125 19.6562 24.05 19.1937 22.8937 18.5 22.4312 18.5 22.2 18.7312 21.9687 18.7312 20.8125 18.9625 20.35 19.1937 20.35 18.9625 20.1187 19.1937 19.6562 19.425 19.1937 20.1187 18.9625 20.35 18.5 21.0437 18.5 21.9687 36.7687 67.0624C38.6187 71.6874 38.6187 76.3124 36.7687 80.9374L18.5 126.031 19.6562 128.575 19.1937 128.112 17.575 129.5 20.35 129.269 20.8125 129.269 21.7375 129.5 21.9687 129.5 22.6625 129.5 24.5125 128.344 24.7437 128.344 125.337 78.1624 126.494 77.6999 126.956 77.4686 127.419 77.2374 129.269 75.8499 129.269 75.6187 129.731 73.9999 129.731 73.3062 129.731 73.0749" fill="#36BDF7" transform="matrix(1.00676 0 0 1 2312 356)"/><path d="M129.731 73.0749 129.731 73.3062 129.731 73.9999 129.269 75.6187 129.269 75.8499 127.419 77.2374 126.956 77.4686 126.494 77.6999 125.337 78.1624 24.7437 128.344 24.5125 128.344 22.6625 129.5 21.9687 129.5 21.7375 129.5 20.8125 129.269 20.35 129.269 17.575 129.5 19.1937 128.112 19.6562 128.575 18.5 126.031 36.7687 80.9374C38.6187 76.3124 38.6187 71.6874 36.7687 67.0624L18.5 21.9687 18.5 21.0437 18.9625 20.35 19.1937 20.1187 19.6562 19.425 20.1187 19.1937 20.35 18.9625 20.35 19.1937 20.8125 18.9625 21.9687 18.7312 22.2 18.7312 22.4312 18.5 22.8937 18.5 24.05 19.1937 24.5125 19.6562 127.65 71.4562 128.344 71.6874 128.575 71.9187 129.037 71.9187 129.5 72.1499 130.194 72.3811 129.962 72.8437 129.037 72.1499 129.269 72.6124 129.731 73.0749" fill="#1C9FD7" transform="matrix(1.00676 0 0 1 2312 356)"/></g></g></g></g></svg>