<svg width="1158" height="386" xmlns="http://www.w3.org/2000/svg" xmlns:xlink="http://www.w3.org/1999/xlink" xml:space="preserve" overflow="hidden"><defs><filter id="fx0" x="-10%" y="-10%" width="120%" height="120%" filterUnits="userSpaceOnUse" primitiveUnits="userSpaceOnUse"><feComponentTransfer color-interpolation-filters="sRGB"><feFuncR type="discrete" tableValues="0 0"/><feFuncG type="discrete" tableValues="0 0"/><feFuncB type="discrete" tableValues="0 0"/><feFuncA type="linear" slope="0.431373" intercept="0"/></feComponentTransfer><feGaussianBlur stdDeviation="2.80252 2.80252"/></filter><clipPath id="clip1"><rect x="1472" y="742" width="1158" height="386"/></clipPath><clipPath id="clip2"><rect x="2312" y="860" width="149" height="149"/></clipPath><clipPath id="clip3"><rect x="2312" y="860" width="149" height="149"/></clipPath><clipPath id="clip4"><rect x="2312" y="860" width="149" height="149"/></clipPath></defs><g clip-path="url(#clip1)" transform="translate(-1472 -742)"><g><g><g><path d="M0 32.1666C43.961 32.1666 81.7568 47.7139 113.387 78.8083L114.192 79.6124C145.286 111.243 160.833 149.039 160.833 193 160.833 236.96 145.018 274.756 113.387 306.387 81.7568 338.018 43.961 353.833 0 353.833L0 321.666C35.3833 321.666 65.6735 309.068 90.8708 283.871L90.8708 283.066C116.068 258.406 128.667 228.383 128.667 193 128.667 157.617 116.068 127.326 90.8708 102.129 65.6735 76.9318 35.3833 64.3333 0 64.3333L0 32.1666" fill="#FFFFFF" transform="matrix(1 0 0 1 2437 742)"/><path d="M0 32.1666 0 0C53.075 0 98.6443 18.7639 136.708 56.2916 174.235 94.3555 193 139.925 193 193 193 246.075 174.235 291.377 136.708 328.904 98.6443 366.968 53.075 386 0 386L0 353.833C43.961 353.833 81.7568 338.018 113.387 306.387 145.018 274.756 160.833 236.96 160.833 193 160.833 149.039 145.286 111.243 114.192 79.6124L113.387 78.8083C81.7568 47.7139 43.961 32.1666 0 32.1666" fill="#989AAF" transform="matrix(1 0 0 1 2437 742)"/><path d="M0 64.3333C35.3833 64.3333 65.6735 76.9318 90.8708 102.129 116.068 127.326 128.667 157.617 128.667 193L0 193 0 64.3333" fill="#EAEBF3" transform="matrix(1 0 0 1 2437 742)"/><path d="M128.667 193C128.667 228.383 116.068 258.406 90.8708 283.066L90.8708 283.871C65.6735 309.068 35.3833 321.666 0 321.666L0 193 128.667 193" fill="#DADCE7" transform="matrix(1 0 0 1 2437 742)"/></g></g></g><g><g><g><path d="M193 353.833 193 386C139.925 386 94.3555 366.968 56.2916 328.904 18.7639 291.377 0 246.075 0 193 0 139.925 18.7639 94.3555 56.2916 56.2916 94.3555 18.7639 139.925 0 193 0L193 32.1666C149.039 32.1666 111.243 47.7139 79.6124 78.8083L78.8083 79.6124C47.7139 111.243 32.1666 149.039 32.1666 193 32.1666 236.96 47.9818 274.756 79.6124 306.387 111.243 338.018 149.039 353.833 193 353.833" fill="#989AAF" transform="matrix(1 0 0 1 1472 742)"/><path d="M193 353.833C149.039 353.833 111.243 338.018 79.6124 306.387 47.9818 274.756 32.1666 236.96 32.1666 193 32.1666 149.039 47.7139 111.243 78.8083 79.6124L79.6124 78.8083C111.243 47.7139 149.039 32.1666 193 32.1666L193 64.3333C157.617 64.3333 127.326 76.9318 102.129 102.129 76.9318 127.326 64.3333 157.617 64.3333 193 64.3333 228.383 76.9318 258.406 102.129 283.066L102.129 283.871C127.326 309.068 157.617 321.666 193 321.666L193 353.833" fill="#FFFFFF" transform="matrix(1 0 0 1 1472 742)"/><path d="M193 64.3333 193 193 64.3333 193C64.3333 157.617 76.9318 127.326 102.129 102.129 127.326 76.9318 157.617 64.3333 193 64.3333" fill="#EAEBF3" transform="matrix(1 0 0 1 1472 742)"/><path d="M193 193 193 321.666C157.617 321.666 127.326 309.068 102.129 283.871L102.129 283.066C76.9318 258.406 64.3333 228.383 64.3333 193L193 193" fill="#DADCE7" transform="matrix(1 0 0 1 1472 742)"/></g></g></g><g><g><g><path d="M0 32.1666 0 0 386 0 386 32.1666 0 32.1666M386 353.833 386 386 0 386 0 353.833 386 353.833" fill="#989AAF" transform="matrix(1 0 0 1 1665 742)"/><path d="M386 353.833 0 353.833 0 321.666 386 321.666 386 353.833M386 32.1666 386 64.3333 0 64.3333 0 32.1666 386 32.1666" fill="#FFFFFF" transform="matrix(1 0 0 1 1665 742)"/><path d="M386 193 386 321.666 0 321.666 0 193 386 193" fill="#DADCE7" transform="matrix(1 0 0 1 1665 742)"/><path d="M386 193 0 193 0 64.3333 386 64.3333 386 193" fill="#EAEBF3" transform="matrix(1 0 0 1 1665 742)"/></g></g></g><g><g><g><path d="M2051 774.167 2051 742 2437 742 2437 774.167 2051 774.167M2437 1095.83 2437 1128 2051 1128 2051 1095.83 2437 1095.83" fill="#989AAF"/><path d="M2437 1095.83 2051 1095.83 2051 1063.67 2437 1063.67 2437 1095.83M2437 774.167 2437 806.333 2051 806.333 2051 774.167 2437 774.167" fill="#FFFFFF"/><path d="M2437 935 2437 1063.67 2051 1063.67 2051 935 2437 935" fill="#DADCE7"/><path d="M2437 935 2051 935 2051 806.333 2437 806.333 2437 935" fill="#EAEBF3"/></g></g></g><g filter="url(#fx0)" transform="translate(1757 860)"><g><path d="M186.74 58.242C181.832 58.2937 177.791 59.6774 174.615 62.3932 171.44 65.1091 169.378 68.8472 168.429 73.6077L205.051 73.6077C204.175 68.8472 202.133 65.1091 198.927 62.3932 195.72 59.6774 191.658 58.2937 186.74 58.242ZM239.621 37.4727 274.924 37.4727 290.76 60.0723 307.257 37.4727 340.416 37.4727 307.422 81.0225 341.57 126.882 305.772 126.882 289.771 103.457 272.614 126.882 238.631 126.882 272.614 82.1773ZM186.575 35.9877C195.475 36.0129 203.52 37.8307 210.709 41.441 217.898 45.0513 223.621 50.3028 227.878 57.1953 232.134 64.0878 234.313 72.4699 234.415 82.3417 234.405 83.5193 234.343 84.7896 234.229 86.1526 234.116 87.5156 234.013 88.827 233.92 90.087L168.924 90.087C170.271 94.662 172.814 98.194 176.554 100.683 180.293 103.172 185.063 104.432 190.864 104.463 195.167 104.47 198.934 103.836 202.164 102.562 205.395 101.289 208.502 99.3334 211.485 96.6965L227.981 113.859C223.703 118.647 218.403 122.26 212.083 124.699 205.763 127.137 198.36 128.36 189.875 128.367 173.76 128.107 161.037 123.723 151.706 115.216 142.375 106.709 137.612 95.6409 137.416 82.0121 137.5 72.9747 139.659 65.0118 143.892 58.1233 148.125 51.2349 153.925 45.841 161.293 41.9417 168.66 38.0423 177.088 36.0577 186.575 35.9877ZM354.656 17.5077 385.985 17.5077 385.985 40.7727 406.445 40.7727 406.445 64.182 385.985 64.182 385.985 93.8973C386.026 97.2128 386.893 99.7441 388.584 101.491 390.275 103.238 392.544 104.119 395.39 104.133 397.14 104.129 398.838 103.888 400.484 103.41 402.131 102.932 403.623 102.238 404.96 101.326L412.715 123.256C409.941 124.984 406.662 126.269 402.877 127.11 399.092 127.951 395.112 128.37 390.935 128.367 379.395 128.378 370.483 125.554 364.199 119.896 357.916 114.238 354.735 105.681 354.656 94.2275L354.656 64.182 341.621 64.182 341.621 40.7727 354.656 40.7727ZM11.5108 11.4027 38.3885 11.4027 89.3908 72.9369 89.3908 11.4027 121.38 11.4027 121.38 126.882 94.5025 126.882 43.5001 65.3483 43.5001 126.882 11.5108 126.882Z" stroke="#FFFFFF" stroke-width="3" stroke-linejoin="round" stroke-miterlimit="10" fill="#FFFFFF" fill-rule="evenodd"/></g></g><path d="M1937.8 912.297C1932.89 912.349 1928.85 913.732 1925.67 916.448 1922.49 919.164 1920.43 922.902 1919.48 927.663L1956.11 927.663C1955.23 922.902 1953.19 919.164 1949.98 916.448 1946.78 913.732 1942.71 912.349 1937.8 912.297ZM1990.68 891.528 2025.98 891.528 2041.82 914.127 2058.31 891.528 2091.47 891.528 2058.48 935.078 2092.62 980.937 2056.83 980.937 2040.83 957.512 2023.67 980.937 1989.69 980.937 2023.67 936.232ZM1937.63 890.043C1946.53 890.068 1954.57 891.886 1961.76 895.496 1968.95 899.106 1974.68 904.358 1978.93 911.25 1983.19 918.143 1985.37 926.525 1985.47 936.397 1985.46 937.574 1985.4 938.845 1985.28 940.208 1985.17 941.571 1985.07 942.882 1984.98 944.142L1919.98 944.142C1921.33 948.717 1923.87 952.249 1927.61 954.738 1931.35 957.227 1936.12 958.487 1941.92 958.518 1946.22 958.525 1949.99 957.891 1953.22 956.617 1956.45 955.344 1959.56 953.388 1962.54 950.752L1979.04 967.914C1974.76 972.702 1969.46 976.315 1963.14 978.754 1956.82 981.192 1949.41 982.415 1940.93 982.422 1924.81 982.162 1912.09 977.778 1902.76 969.271 1893.43 960.764 1888.67 949.696 1888.47 936.067 1888.56 927.03 1890.71 919.067 1894.95 912.178 1899.18 905.29 1904.98 899.896 1912.35 895.997 1919.72 892.097 1928.14 890.113 1937.63 890.043ZM2105.71 871.563 2137.04 871.563 2137.04 894.828 2157.5 894.828 2157.5 918.237 2137.04 918.237 2137.04 947.952C2137.08 951.268 2137.95 953.799 2139.64 955.546 2141.33 957.293 2143.6 958.174 2146.45 958.188 2148.19 958.184 2149.89 957.943 2151.54 957.465 2153.19 956.987 2154.68 956.293 2156.02 955.381L2163.77 977.311C2161 979.039 2157.72 980.323 2153.93 981.165 2150.15 982.006 2146.17 982.425 2141.99 982.422 2130.45 982.433 2121.54 979.609 2115.25 973.951 2108.97 968.293 2105.79 959.736 2105.71 948.283L2105.71 918.237 2092.68 918.237 2092.68 894.828 2105.71 894.828ZM1762.57 865.458 1789.44 865.458 1840.45 926.992 1840.45 865.458 1872.44 865.458 1872.44 980.937 1845.56 980.937 1794.56 919.403 1794.56 980.937 1762.57 980.937Z" stroke="#FFFFFF" stroke-width="3" stroke-linejoin="round" stroke-miterlimit="10" fill="#FFFFFF" fill-rule="evenodd"/><text fill="#000000" fill-opacity="0" font-family="Arial,Arial_MSFontService,sans-serif" font-size="116.964" x="1762.57" y="967.801">Next</text><g clip-path="url(#clip2)"><g clip-path="url(#clip3)"><g clip-path="url(#clip4)"><path d="M2313.4 979.898 2331.79 934.5 2313.4 889.102C2312.47 886.929 2312 884.601 2312 882.117 2312 876.375 2313.55 871.951 2316.66 868.847L2318.52 866.752C2320.38 864.734 2322.24 863.337 2324.11 862.561L2328.06 861.164 2329.93 860.698 2334.35 860 2334.82 860C2338.54 860 2341.96 861.009 2345.06 863.027L2448.89 915.177 2449.82 915.642 2454.71 919.134 2457.97 923.092C2459.22 925.11 2460.15 927.361 2460.77 929.844 2461.39 933.103 2461.31 936.362 2460.53 939.622L2457.04 947.305 2449.82 953.823 2446.57 955.453 2345.29 1005.97C2342.19 1007.99 2338.7 1009 2334.82 1009L2333.65 1009 2330.16 1008.77C2325.35 1007.68 2321.55 1005.66 2318.75 1002.71L2317.35 1001.08C2314.56 997.67 2312.85 993.945 2312.23 989.909 2311.61 986.495 2312 983.158 2313.4 979.898M2328.3 870.942 2328.06 870.942 2325.04 873.27 2324.11 874.202 2323.18 875.366C2321.93 876.918 2321.31 879.168 2321.31 882.117L2322.01 885.609 2340.4 931.008C2341.33 933.336 2341.33 935.664 2340.4 937.992L2322.01 983.391C2321.39 984.943 2321.23 986.65 2321.55 988.512 2321.86 990.996 2322.86 993.246 2324.57 995.264L2325.27 996.195 2325.5 996.428C2327.06 997.98 2329.23 999.067 2332.02 999.687L2331.79 999.455 2333.65 999.687 2334.82 999.687 2339.94 998.291 2341.1 997.592 2442.37 947.072 2443.07 946.839 2445.17 945.675 2449.59 941.95 2449.59 941.717 2451.22 937.992 2451.45 937.061 2451.69 931.706 2450.06 928.214 2450.29 928.214 2448.2 925.886 2447.96 925.653 2445.63 923.791 2445.63 924.023 2444.7 923.558 2340.87 871.408 2339.94 870.709 2334.82 869.313 2334.35 869.313 2332.25 869.778 2332.02 869.778 2330.16 870.244 2328.3 870.942" fill="#167DA8"/><path d="M2328.3 870.942 2330.16 870.244 2332.02 869.778 2332.25 869.778 2334.35 869.313 2334.82 869.313 2339.94 870.709 2340.87 871.408 2444.7 923.558 2445.63 924.023 2445.63 923.791 2447.96 925.653 2448.2 925.886 2450.29 928.214 2450.06 928.214 2451.69 931.706 2451.45 937.061 2451.22 937.992 2449.59 941.717 2449.59 941.95 2445.17 945.675 2443.07 946.839 2442.37 947.072 2341.1 997.592 2339.94 998.291 2334.82 999.687 2333.65 999.687 2331.79 999.455 2332.02 999.687C2329.23 999.067 2327.06 997.98 2325.5 996.428L2325.27 996.195 2324.57 995.264C2322.86 993.246 2321.86 990.996 2321.55 988.512 2321.23 986.65 2321.39 984.943 2322.01 983.391L2340.4 937.992C2341.33 935.664 2341.33 933.336 2340.4 931.008L2322.01 885.609 2321.31 882.117C2321.31 879.168 2321.93 876.918 2323.18 875.366L2324.11 874.202 2325.04 873.27 2328.06 870.942 2328.3 870.942M2442.61 933.569 2442.14 933.103 2441.91 932.637 2442.84 933.336 2443.07 932.87 2442.37 932.637 2441.91 932.405 2441.44 932.405 2441.21 932.172 2440.51 931.939 2336.68 879.789 2336.21 879.323 2335.05 878.625 2334.58 878.625 2334.35 878.858 2334.12 878.858 2332.95 879.091 2332.49 879.323 2332.49 879.091 2332.25 879.323 2331.79 879.556 2331.32 880.255 2331.09 880.488 2330.62 881.186 2330.62 882.117 2349.02 927.516C2350.88 932.172 2350.88 936.828 2349.02 941.484L2330.62 986.883 2331.79 989.444 2331.32 988.978 2329.69 990.375 2332.49 990.142 2332.95 990.142 2333.88 990.375 2334.12 990.375 2334.82 990.375 2336.68 989.211 2336.91 989.211 2438.18 938.691 2439.35 938.225 2439.81 937.992 2440.28 937.759 2442.14 936.362 2442.14 936.13 2442.61 934.5 2442.61 933.802 2442.61 933.569" fill="#36BDF7"/><path d="M2442.61 933.569 2442.61 933.802 2442.61 934.5 2442.14 936.13 2442.14 936.362 2440.28 937.759 2439.81 937.992 2439.35 938.225 2438.18 938.691 2336.91 989.211 2336.68 989.211 2334.82 990.375 2334.12 990.375 2333.88 990.375 2332.95 990.142 2332.49 990.142 2329.69 990.375 2331.32 988.978 2331.79 989.444 2330.62 986.883 2349.02 941.484C2350.88 936.828 2350.88 932.172 2349.02 927.516L2330.62 882.117 2330.62 881.186 2331.09 880.488 2331.32 880.255 2331.79 879.556 2332.25 879.323 2332.49 879.091 2332.49 879.323 2332.95 879.091 2334.12 878.858 2334.35 878.858 2334.58 878.625 2335.05 878.625 2336.21 879.323 2336.68 879.789 2440.51 931.939 2441.21 932.172 2441.44 932.405 2441.91 932.405 2442.37 932.637 2443.07 932.87 2442.84 933.336 2441.91 932.637 2442.14 933.103 2442.61 933.569" fill="#1C9FD7"/></g></g></g></g></svg>