<svg width="1344" height="386" xmlns="http://www.w3.org/2000/svg" xmlns:xlink="http://www.w3.org/1999/xlink" xml:space="preserve" overflow="hidden"><defs><filter id="fx0" x="-10%" y="-10%" width="120%" height="120%" filterUnits="userSpaceOnUse" primitiveUnits="userSpaceOnUse"><feComponentTransfer color-interpolation-filters="sRGB"><feFuncR type="discrete" tableValues="0 0"/><feFuncG type="discrete" tableValues="0 0"/><feFuncB type="discrete" tableValues="0 0"/><feFuncA type="linear" slope="0.431373" intercept="0"/></feComponentTransfer><feGaussianBlur stdDeviation="2.80252 2.80252"/></filter><clipPath id="clip1"><rect x="2851" y="1251" width="1344" height="386"/></clipPath><clipPath id="clip2"><rect x="4002" y="1250" width="193" height="387"/></clipPath><clipPath id="clip3"><rect x="3044" y="1251" width="386" height="386"/></clipPath><clipPath id="clip4"><rect x="3043" y="1251" width="387" height="386"/></clipPath><clipPath id="clip5"><rect x="3043" y="1251" width="387" height="386"/></clipPath><clipPath id="clip6"><rect x="3430" y="1251" width="572" height="386"/></clipPath><clipPath id="clip7"><rect x="3429" y="1251" width="573" height="386"/></clipPath><clipPath id="clip8"><rect x="3429" y="1251" width="573" height="386"/></clipPath><clipPath id="clip9"><rect x="3019" y="1367" width="150" height="148"/></clipPath></defs><g clip-path="url(#clip1)" transform="translate(-2851 -1251)"><g clip-path="url(#clip2)"><g><g><path d="M0 32.1667C43.9611 32.1667 81.7569 47.7139 113.388 78.8083L114.192 79.6125C145.286 111.243 160.833 149.039 160.833 193 160.833 236.961 145.018 274.756 113.388 306.388 81.7569 338.019 43.9611 353.833 0 353.833L0 321.667C35.3833 321.667 65.6736 309.069 90.8708 283.871L90.8708 283.067C116.068 258.406 128.667 228.383 128.667 193 128.667 157.617 116.068 127.326 90.8708 102.129 65.6736 76.9319 35.3833 64.3333 0 64.3333L0 32.1667" fill="#FFFFFF" transform="matrix(1 0 0 1 4002 1251)"/><path d="M0 32.1667 0 0C53.075 0 98.6444 18.7639 136.708 56.2917 174.236 94.3556 193 139.925 193 193 193 246.075 174.236 291.377 136.708 328.904 98.6444 366.969 53.075 386 0 386L0 353.833C43.9611 353.833 81.7569 338.019 113.388 306.388 145.018 274.756 160.833 236.961 160.833 193 160.833 149.039 145.286 111.243 114.192 79.6125L113.388 78.8083C81.7569 47.7139 43.9611 32.1667 0 32.1667" fill="#989AAF" transform="matrix(1 0 0 1 4002 1251)"/><path d="M0 64.3333C35.3833 64.3333 65.6736 76.9319 90.8708 102.129 116.068 127.326 128.667 157.617 128.667 193L0 193 0 64.3333" fill="#EAEBF3" transform="matrix(1 0 0 1 4002 1251)"/><path d="M128.667 193C128.667 228.383 116.068 258.406 90.8708 283.067L90.8708 283.871C65.6736 309.069 35.3833 321.667 0 321.667L0 193 128.667 193" fill="#DADCE7" transform="matrix(1 0 0 1 4002 1251)"/></g></g></g><g><g><g><path d="M192.5 352.917 192.5 385C139.562 385 94.1112 366.018 56.1458 328.052 18.7153 290.622 0 245.438 0 192.5 0 139.562 18.7153 94.1112 56.1458 56.1458 94.1112 18.7153 139.562 0 192.5 0L192.5 32.0833C148.653 32.0833 110.955 47.5903 79.4062 78.6042L78.6042 79.4062C47.5903 110.955 32.0833 148.653 32.0833 192.5 32.0833 236.347 47.8576 274.045 79.4062 305.594 110.955 337.143 148.653 352.917 192.5 352.917" fill="#989AAF" transform="matrix(1.0026 0 0 1 2851 1252)"/><path d="M192.5 352.917C148.653 352.917 110.955 337.143 79.4062 305.594 47.8576 274.045 32.0833 236.347 32.0833 192.5 32.0833 148.653 47.5903 110.955 78.6042 79.4062L79.4062 78.6042C110.955 47.5903 148.653 32.0833 192.5 32.0833L192.5 64.1667C157.208 64.1667 126.997 76.7326 101.865 101.865 76.7326 126.997 64.1667 157.208 64.1667 192.5 64.1667 227.792 76.7326 257.737 101.865 282.333L101.865 283.135C126.997 308.268 157.208 320.833 192.5 320.833L192.5 352.917" fill="#FFFFFF" transform="matrix(1.0026 0 0 1 2851 1252)"/><path d="M192.5 64.1667 192.5 192.5 64.1667 192.5C64.1667 157.208 76.7326 126.997 101.865 101.865 126.997 76.7326 157.208 64.1667 192.5 64.1667" fill="#EAEBF3" transform="matrix(1.0026 0 0 1 2851 1252)"/><path d="M192.5 192.5 192.5 320.833C157.208 320.833 126.997 308.268 101.865 283.135L101.865 282.333C76.7326 257.737 64.1667 227.792 64.1667 192.5L192.5 192.5" fill="#DADCE7" transform="matrix(1.0026 0 0 1 2851 1252)"/></g></g></g><g clip-path="url(#clip3)"><g clip-path="url(#clip4)"><g clip-path="url(#clip5)"><path d="M0 32.0833 0 0 385 0 385 32.0833 0 32.0833M385 352.917 385 385 0 385 0 352.917 385 352.917" fill="#989AAF" transform="matrix(1.0026 0 0 1 3044 1252)"/><path d="M385 352.917 0 352.917 0 320.833 385 320.833 385 352.917M385 32.0833 385 64.1667 0 64.1667 0 32.0833 385 32.0833" fill="#FFFFFF" transform="matrix(1.0026 0 0 1 3044 1252)"/><path d="M385 192.5 385 320.833 0 320.833 0 192.5 385 192.5" fill="#DADCE7" transform="matrix(1.0026 0 0 1 3044 1252)"/><path d="M385 192.5 0 192.5 0 64.1667 385 64.1667 385 192.5" fill="#EAEBF3" transform="matrix(1.0026 0 0 1 3044 1252)"/></g></g></g><g clip-path="url(#clip6)"><g clip-path="url(#clip7)"><g clip-path="url(#clip8)"><path d="M0 32.0833 0 0 385 0 385 32.0833 0 32.0833M385 352.917 385 385 0 385 0 352.917 385 352.917" fill="#989AAF" transform="matrix(1.48571 0 0 1 3430 1252)"/><path d="M385 352.917 0 352.917 0 320.833 385 320.833 385 352.917M385 32.0833 385 64.1667 0 64.1667 0 32.0833 385 32.0833" fill="#FFFFFF" transform="matrix(1.48571 0 0 1 3430 1252)"/><path d="M385 192.5 385 320.833 0 320.833 0 192.5 385 192.5" fill="#DADCE7" transform="matrix(1.48571 0 0 1 3430 1252)"/><path d="M385 192.5 0 192.5 0 64.1667 385 64.1667 385 192.5" fill="#EAEBF3" transform="matrix(1.48571 0 0 1 3430 1252)"/></g></g></g><g filter="url(#fx0)" transform="translate(3265 1362)"><g><path d="M509.409 77.7586C504.002 77.793 499.544 79.6226 496.036 83.2475 492.528 86.8723 490.712 92.0861 490.588 98.8888 490.712 105.777 492.528 111.067 496.036 114.757 499.544 118.447 504.002 120.311 509.409 120.349 514.888 120.311 519.366 118.447 522.843 114.757 526.32 111.067 528.115 105.777 528.229 98.8888 528.115 92.0861 526.32 86.8723 522.843 83.2475 519.366 79.6226 514.888 77.793 509.409 77.7586ZM248.253 75.1186C243.346 75.1702 239.304 76.554 236.128 79.2698 232.953 81.9856 230.891 85.7238 229.942 90.4842L266.564 90.4842C265.688 85.7238 263.647 81.9856 260.44 79.2698 257.234 76.554 253.171 75.1702 248.253 75.1186ZM574.209 54.3492 605.538 54.3492 605.538 99.2292C605.569 106.097 606.869 111.047 609.439 114.079 612.008 117.111 615.661 118.596 620.398 118.534 625.145 118.593 629.107 116.95 632.286 113.605 635.464 110.26 637.115 104.863 637.239 97.4142L637.239 54.3492 668.568 54.3492 668.568 143.759 638.723 143.759 638.723 134.197C635.294 137.903 631.298 140.672 626.734 142.503 622.169 144.333 617.306 145.247 612.143 145.244 600.964 145.313 591.899 142.042 584.949 135.432 577.998 128.823 574.418 118.46 574.209 104.344ZM412.539 54.3492 443.868 54.3492 443.868 143.759 412.539 143.759ZM298.659 54.3492 330.828 54.3492 352.273 108.952 374.874 54.3492 404.733 54.3492 367.78 143.759 335.447 143.759ZM43.6733 53.9986 43.6733 87.8442 61.833 87.8442C68.6016 87.803 73.6781 86.3171 77.0624 83.3865 80.4468 80.456 82.1389 76.3285 82.1389 71.004 82.1389 65.6004 80.4468 61.4247 77.0624 58.477 73.6781 55.5292 68.6016 54.0365 61.833 53.9986ZM726.811 52.8642C733.214 52.8711 739.552 53.5168 745.826 54.8012 752.1 56.0857 757.528 57.9677 762.111 60.4473L752.712 81.6974C748.24 79.2646 743.828 77.5514 739.478 76.5577 735.127 75.564 730.96 75.0844 726.976 75.1186 721.753 75.1734 718.037 75.8039 715.829 77.01 713.62 78.2161 712.546 79.6689 712.608 81.3684 712.882 84.2631 715.624 86.134 720.832 86.9811 726.041 87.8281 732.072 88.8159 738.926 89.9443 745.779 91.0727 751.81 93.5064 757.019 97.2452 762.228 100.984 764.969 107.192 765.243 115.871 765.216 124.32 761.478 131.28 754.028 136.75 746.578 142.221 735.579 145.052 721.031 145.244 713.285 145.199 705.882 144.34 698.821 142.668 691.761 140.995 685.968 138.777 681.444 136.012L690.844 114.546C695.068 117.137 699.933 119.158 705.438 120.61 710.942 122.062 716.47 122.8 722.022 122.824 727.231 122.807 730.891 122.262 733.004 121.189 735.116 120.117 736.135 118.62 736.059 116.698 735.784 113.876 733.034 112.078 727.809 111.304 722.584 110.529 716.534 109.601 709.659 108.519 702.784 107.437 696.734 105.024 691.509 101.28 686.284 97.5354 683.534 91.2821 683.259 82.5197 683.32 73.9352 687.072 66.893 694.515 61.393 701.958 55.893 712.723 53.05 726.811 52.8642ZM509.409 52.8642C524.435 53.1007 536.54 57.4089 545.725 65.7889 554.91 74.1689 559.631 85.2021 559.888 98.8888 559.631 112.661 554.91 123.771 545.725 132.216 536.54 140.661 524.435 145.004 509.409 145.244 499.59 145.173 490.9 143.171 483.34 139.24 475.779 135.309 469.841 129.874 465.525 122.936 461.21 115.997 459.011 107.982 458.929 98.8888 459.011 89.8519 461.21 81.8893 465.525 75.0008 469.841 68.1123 475.779 62.7182 483.34 58.8187 490.9 54.9191 499.59 52.9343 509.409 52.8642ZM248.088 52.8642C256.988 52.8895 265.033 54.7073 272.222 58.3176 279.411 61.9279 285.134 67.1794 289.391 74.0719 293.647 80.9644 295.826 89.3465 295.928 99.2183 295.918 100.396 295.856 101.666 295.743 103.029 295.629 104.392 295.526 105.704 295.433 106.964L230.437 106.964C231.784 111.539 234.328 115.071 238.067 117.559 241.806 120.048 246.576 121.308 252.378 121.339 256.68 121.346 260.447 120.713 263.678 119.439 266.908 118.165 270.015 116.21 272.998 113.573L289.495 130.736C285.216 135.524 279.916 139.137 273.596 141.576 267.276 144.014 259.873 145.237 251.388 145.244 235.273 144.983 222.55 140.599 213.219 132.092 203.888 123.585 199.125 112.517 198.929 98.8887 199.013 89.8513 201.172 81.8884 205.405 74.9999 209.638 68.1115 215.439 62.7176 222.806 58.8183 230.173 54.9189 238.601 52.9342 248.088 52.8642ZM190.413 52.8642 190.413 81.0586C189.035 80.8936 187.79 80.7699 186.68 80.6874 185.57 80.6049 184.449 80.5636 183.318 80.5636 176.866 80.505 171.703 82.231 167.829 85.7417 163.955 89.2523 161.968 94.8994 161.868 102.683L161.868 143.759 130.539 143.759 130.539 54.3492 160.384 54.3492 160.384 65.0716C163.625 61.0266 167.784 57.9817 172.862 55.9368 177.939 53.8919 183.789 52.8677 190.413 52.8642ZM11.0239 28.2792 63.8141 28.2792C79.7403 28.4093 92.2305 32.2297 101.285 39.7406 110.339 47.2514 114.95 57.6726 115.118 71.004 114.95 84.2563 110.339 94.6293 101.285 102.123 92.2305 109.617 79.7403 113.43 63.8141 113.564L43.6733 113.564 43.6733 143.759 11.0239 143.759ZM428.204 11.1192C434.051 11.2051 438.682 12.7236 442.097 15.6746 445.512 18.6257 447.258 22.4939 447.333 27.2794 447.258 32.3224 445.512 36.4174 442.097 39.5642 438.682 42.7109 434.051 44.3324 428.204 44.4286 422.356 44.3221 417.725 42.7212 414.31 39.626 410.895 36.5307 409.149 32.5801 409.074 27.774 409.149 22.968 410.895 19.0173 414.31 15.922 417.725 12.8267 422.356 11.2258 428.204 11.1192Z" stroke="#FFFFFF" stroke-width="3" stroke-linejoin="round" stroke-miterlimit="10" fill="#0B76A0" fill-rule="evenodd"/></g></g><path d="M3768.46 1433.81C3763.06 1433.85 3758.6 1435.68 3755.09 1439.3 3751.58 1442.93 3749.77 1448.14 3749.64 1454.94 3749.77 1461.83 3751.58 1467.12 3755.09 1470.81 3758.6 1474.5 3763.06 1476.37 3768.46 1476.4 3773.94 1476.37 3778.42 1474.5 3781.9 1470.81 3785.38 1467.12 3787.17 1461.83 3787.28 1454.94 3787.17 1448.14 3785.38 1442.93 3781.9 1439.3 3778.42 1435.68 3773.94 1433.85 3768.46 1433.81ZM3507.31 1431.17C3502.4 1431.23 3498.36 1432.61 3495.18 1435.32 3492.01 1438.04 3489.95 1441.78 3489 1446.54L3525.62 1446.54C3524.74 1441.78 3522.7 1438.04 3519.5 1435.32 3516.29 1432.61 3512.23 1431.23 3507.31 1431.17ZM3833.26 1410.4 3864.59 1410.4 3864.59 1455.28C3864.62 1462.15 3865.92 1467.1 3868.49 1470.13 3871.06 1473.17 3874.72 1474.65 3879.45 1474.59 3884.2 1474.65 3888.16 1473 3891.34 1469.66 3894.52 1466.32 3896.17 1460.92 3896.29 1453.47L3896.29 1410.4 3927.62 1410.4 3927.62 1499.81 3897.78 1499.81 3897.78 1490.25C3894.35 1493.96 3890.35 1496.73 3885.79 1498.56 3881.22 1500.39 3876.36 1501.3 3871.2 1501.3 3860.02 1501.37 3850.95 1498.1 3844 1491.49 3837.05 1484.88 3833.47 1474.51 3833.26 1460.4ZM3671.59 1410.4 3702.92 1410.4 3702.92 1499.81 3671.59 1499.81ZM3557.71 1410.4 3589.88 1410.4 3611.33 1465.01 3633.93 1410.4 3663.79 1410.4 3626.84 1499.81 3594.5 1499.81ZM3302.73 1410.05 3302.73 1443.9 3320.89 1443.9C3327.66 1443.86 3332.73 1442.37 3336.12 1439.44 3339.5 1436.51 3341.19 1432.38 3341.19 1427.06 3341.19 1421.66 3339.5 1417.48 3336.12 1414.53 3332.73 1411.58 3327.66 1410.09 3320.89 1410.05ZM3985.87 1408.92C3992.27 1408.93 3998.61 1409.57 4004.88 1410.86 4011.16 1412.14 4016.58 1414.02 4021.17 1416.5L4011.77 1437.75C4007.29 1435.32 4002.88 1433.61 3998.53 1432.61 3994.18 1431.62 3990.01 1431.14 3986.03 1431.17 3980.81 1431.23 3977.09 1431.86 3974.88 1433.07 3972.67 1434.27 3971.6 1435.72 3971.66 1437.42 3971.94 1440.32 3974.68 1442.19 3979.89 1443.04 3985.1 1443.88 3991.13 1444.87 3997.98 1446 4004.83 1447.13 4010.87 1449.56 4016.07 1453.3 4021.28 1457.04 4024.02 1463.25 4024.3 1471.93 4024.27 1480.37 4020.53 1487.33 4013.08 1492.81 4005.63 1498.28 3994.63 1501.11 3980.09 1501.3 3972.34 1501.25 3964.94 1500.4 3957.88 1498.72 3950.82 1497.05 3945.02 1494.83 3940.5 1492.07L3949.9 1470.6C3954.12 1473.19 3958.99 1475.21 3964.49 1476.66 3970 1478.12 3975.53 1478.86 3981.08 1478.88 3986.29 1478.86 3989.95 1478.32 3992.06 1477.24 3994.17 1476.17 3995.19 1474.67 3995.11 1472.75 3994.84 1469.93 3992.09 1468.13 3986.86 1467.36 3981.64 1466.58 3975.59 1465.66 3968.71 1464.57 3961.84 1463.49 3955.79 1461.08 3950.56 1457.33 3945.34 1453.59 3942.59 1447.34 3942.31 1438.57 3942.38 1429.99 3946.13 1422.95 3953.57 1417.45 3961.01 1411.95 3971.78 1409.11 3985.87 1408.92ZM3768.46 1408.92C3783.49 1409.16 3795.6 1413.46 3804.78 1421.84 3813.97 1430.22 3818.69 1441.26 3818.94 1454.94 3818.69 1468.72 3813.97 1479.83 3804.78 1488.27 3795.6 1496.72 3783.49 1501.06 3768.46 1501.3 3758.65 1501.23 3749.96 1499.23 3742.39 1495.3 3734.83 1491.36 3728.9 1485.93 3724.58 1478.99 3720.26 1472.05 3718.07 1464.04 3717.98 1454.94 3718.07 1445.91 3720.26 1437.94 3724.58 1431.06 3728.9 1424.17 3734.83 1418.77 3742.39 1414.87 3749.96 1410.97 3758.65 1408.99 3768.46 1408.92ZM3507.14 1408.92C3516.04 1408.94 3524.09 1410.76 3531.28 1414.37 3538.47 1417.98 3544.19 1423.23 3548.45 1430.13 3552.7 1437.02 3554.88 1445.4 3554.98 1455.27 3554.97 1456.45 3554.91 1457.72 3554.8 1459.08 3554.68 1460.45 3554.58 1461.76 3554.49 1463.02L3489.49 1463.02C3490.84 1467.59 3493.38 1471.13 3497.12 1473.61 3500.86 1476.1 3505.63 1477.36 3511.43 1477.39 3515.74 1477.4 3519.5 1476.77 3522.73 1475.49 3525.96 1474.22 3529.07 1472.27 3532.05 1469.63L3548.55 1486.79C3544.27 1491.58 3538.97 1495.19 3532.65 1497.63 3526.33 1500.07 3518.93 1501.29 3510.44 1501.3 3494.33 1501.04 3481.6 1496.65 3472.27 1488.15 3462.94 1479.64 3458.18 1468.57 3457.98 1454.94 3458.07 1445.91 3460.23 1437.94 3464.46 1431.05 3468.69 1424.17 3474.49 1418.77 3481.86 1414.87 3489.23 1410.97 3497.66 1408.99 3507.14 1408.92ZM3449.47 1408.92 3449.47 1437.11C3448.09 1436.95 3446.85 1436.82 3445.74 1436.74 3444.62 1436.66 3443.5 1436.62 3442.37 1436.62 3435.92 1436.56 3430.76 1438.29 3426.88 1441.8 3423.01 1445.31 3421.02 1450.95 3420.92 1458.74L3420.92 1499.81 3389.59 1499.81 3389.59 1410.4 3419.44 1410.4 3419.44 1421.13C3422.68 1417.08 3426.84 1414.04 3431.92 1411.99 3436.99 1409.95 3442.84 1408.92 3449.47 1408.92ZM3270.08 1384.33 3322.87 1384.33C3338.8 1384.46 3351.29 1388.28 3360.34 1395.8 3369.39 1403.31 3374.01 1413.73 3374.17 1427.06 3374.01 1440.31 3369.39 1450.68 3360.34 1458.18 3351.29 1465.67 3338.8 1469.49 3322.87 1469.62L3302.73 1469.62 3302.73 1499.81 3270.08 1499.81ZM3687.26 1367.17C3693.11 1367.26 3697.74 1368.78 3701.15 1371.73 3704.57 1374.68 3706.31 1378.55 3706.39 1383.33 3706.31 1388.38 3704.57 1392.47 3701.15 1395.62 3697.74 1398.77 3693.11 1400.39 3687.26 1400.48 3681.41 1400.38 3676.78 1398.78 3673.36 1395.68 3669.95 1392.59 3668.2 1388.64 3668.13 1383.83 3668.2 1379.02 3669.95 1375.07 3673.36 1371.98 3676.78 1368.88 3681.41 1367.28 3687.26 1367.17Z" stroke="#FFFFFF" stroke-width="3" stroke-linejoin="round" stroke-miterlimit="10" fill="#0B76A0" fill-rule="evenodd"/><text fill="#000000" fill-opacity="0" font-family="Arial,Arial_MSFontService,sans-serif" font-size="134.125" x="3270.08" y="1484.53">Previous</text><g clip-path="url(#clip9)"><g><g><path d="M146.612 119.094C148 122.331 148.385 125.646 147.769 129.037 147.152 133.046 145.456 136.746 142.681 140.137L141.294 141.756C138.519 144.685 134.741 146.689 129.962 147.769L126.494 148 125.337 148C121.483 148 118.014 146.998 114.931 144.994L14.5687 94.8124 11.3312 93.1936 4.16249 86.7186C2.46666 84.4061 1.31041 81.8624 0.693749 79.0874-0.0770832 75.8499-0.154166 72.6124 0.462499 69.3749L3.2375 62.6687 6.47499 58.7374C8.01666 57.1958 9.6354 56.0395 11.3312 55.2687L12.2562 54.8062 115.162 3.00625C118.246 1.00208 121.637 0 125.337 0L125.8 0 130.194 0.693749 132.044 1.15625 135.975 2.54375 141.525 6.70624 143.375 8.78749C146.458 11.8708 148 16.2646 148 21.9687L146.612 28.9062 128.344 73.9999 146.612 119.094M131.812 10.8687 129.962 10.175 128.112 9.71249 127.881 9.71249 125.8 9.24999 125.337 9.24999C123.487 9.24999 121.792 9.71249 120.25 10.6375L119.325 11.3312 16.4187 63.1312 15.4937 63.5937 15.4937 63.3624 13.1812 65.2124 12.95 65.4437 10.8687 67.7562 11.1 67.7562 9.48124 71.2249 9.71249 76.5436 9.94374 77.4686 11.5625 81.1686 11.5625 81.3999 15.9562 85.0999 18.0375 86.2561 18.7312 86.4874 119.094 136.669 120.25 137.362 125.337 138.75 126.494 138.75 128.344 138.519 128.112 138.75C130.887 138.133 133.046 137.054 134.587 135.512L134.819 135.281 135.512 134.356C137.208 132.352 138.21 130.116 138.519 127.65L138.056 122.562 119.787 77.4686C118.862 75.1562 118.862 72.8437 119.787 70.5312L138.056 25.4375 138.75 21.9687C138.75 19.0396 138.133 16.8041 136.9 15.2625L135.975 14.1062 135.05 13.1812 132.044 10.8687 131.812 10.8687" fill="#167DA8" transform="matrix(1.00676 0 0 1 3020 1367)"/><path d="M131.812 10.8687 132.044 10.8687 135.05 13.1812 135.975 14.1062 136.9 15.2625C138.133 16.8041 138.75 19.0396 138.75 21.9687L138.056 25.4375 119.787 70.5312C118.862 72.8437 118.862 75.1562 119.787 77.4686L138.056 122.562 138.519 127.65C138.21 130.116 137.208 132.352 135.512 134.356L134.819 135.281 134.587 135.512C133.046 137.054 130.887 138.133 128.112 138.75L128.344 138.519 126.494 138.75 125.337 138.75 120.25 137.362 119.094 136.669 18.7312 86.4874 18.0375 86.2561 15.9562 85.0999 11.5625 81.3999 11.5625 81.1686 9.94374 77.4686 9.71249 76.5436 9.48124 71.2249 11.1 67.7562 10.8687 67.7562 12.95 65.4437 13.1812 65.2124 15.4937 63.3624 15.4937 63.5937 16.4187 63.1312 119.325 11.3312 120.25 10.6375C121.792 9.71249 123.487 9.24999 125.337 9.24999L125.8 9.24999 127.881 9.71249 128.112 9.71249 129.962 10.175 131.812 10.8687M18.5 73.3062 18.5 73.9999 18.9625 75.6187 18.9625 75.8499 20.8125 77.2374 21.275 77.4686 21.7375 77.6999 22.8937 78.1624 123.256 128.344 123.487 128.344 125.337 129.5 126.031 129.5 126.262 129.5 127.187 129.269 127.65 129.269 130.425 129.5 128.806 128.112 128.344 128.575 129.5 126.031 111.462 80.9374C109.612 76.3124 109.612 71.6874 111.462 67.0624L129.5 21.9687 129.5 21.0437 129.037 20.35 128.806 20.1187 128.344 19.425 127.881 19.1937 127.65 18.9625 127.65 19.1937 127.187 18.9625 126.031 18.7312 125.8 18.7312 125.569 18.5 125.106 18.5 123.95 19.1937 123.487 19.6562 20.5812 71.4562 19.8875 71.6874 19.6562 71.9187 19.1937 71.9187 18.7312 72.1499 18.0375 72.3811 18.2687 72.8437 19.1937 72.1499 18.9625 72.6124 18.7312 72.8437 18.5 72.8437 18.5 73.3062" fill="#36BDF7" transform="matrix(1.00676 0 0 1 3020 1367)"/><path d="M18.5 73.3062 18.5 72.8437 18.7312 72.8437 18.9625 72.6124 19.1937 72.1499 18.2687 72.8437 18.0375 72.3811 18.7312 72.1499 19.1937 71.9187 19.6562 71.9187 19.8875 71.6874 20.5812 71.4562 123.487 19.6562 123.95 19.1937 125.106 18.5 125.569 18.5 125.8 18.7312 126.031 18.7312 127.187 18.9625 127.65 19.1937 127.65 18.9625 127.881 19.1937 128.344 19.425 128.806 20.1187 129.037 20.35 129.5 21.0437 129.5 21.9687 111.462 67.0624C109.612 71.6874 109.612 76.3124 111.462 80.9374L129.5 126.031 128.344 128.575 128.806 128.112 130.425 129.5 127.65 129.269 127.187 129.269 126.262 129.5 126.031 129.5 125.337 129.5 123.487 128.344 123.256 128.344 22.8937 78.1624 21.7375 77.6999 21.275 77.4686 20.8125 77.2374 18.9625 75.8499 18.9625 75.6187 18.5 73.9999 18.5 73.3062" fill="#1C9FD7" transform="matrix(1.00676 0 0 1 3020 1367)"/></g></g></g></g></svg>