<svg width="1344" height="386" xmlns="http://www.w3.org/2000/svg" xmlns:xlink="http://www.w3.org/1999/xlink" xml:space="preserve" overflow="hidden"><defs><filter id="fx0" x="-10%" y="-10%" width="120%" height="120%" filterUnits="userSpaceOnUse" primitiveUnits="userSpaceOnUse"><feComponentTransfer color-interpolation-filters="sRGB"><feFuncR type="discrete" tableValues="0 0"/><feFuncG type="discrete" tableValues="0 0"/><feFuncB type="discrete" tableValues="0 0"/><feFuncA type="linear" slope="0.431373" intercept="0"/></feComponentTransfer><feGaussianBlur stdDeviation="2.80252 2.80252"/></filter><clipPath id="clip1"><rect x="3038" y="341" width="148" height="149"/></clipPath><clipPath id="clip2"><rect x="3038" y="341" width="148" height="149"/></clipPath><clipPath id="clip3"><rect x="3038" y="341" width="148" height="149"/></clipPath></defs><g transform="translate(-2868 -225)"><g><g><g><path d="M4019 257.167C4062.96 257.167 4100.76 272.714 4132.39 303.808L4133.19 304.613C4164.29 336.243 4179.83 374.039 4179.83 418 4179.83 461.961 4164.02 499.756 4132.39 531.387 4100.76 563.018 4062.96 578.833 4019 578.833L4019 546.667C4054.38 546.667 4084.67 534.068 4109.87 508.871L4109.87 508.067C4135.07 483.406 4147.67 453.383 4147.67 418 4147.67 382.617 4135.07 352.326 4109.87 327.129 4084.67 301.932 4054.38 289.333 4019 289.333L4019 257.167" fill="#FFFFFF"/><path d="M4019 257.167 4019 225C4072.08 225 4117.64 243.764 4155.71 281.292 4193.24 319.356 4212 364.925 4212 418 4212 471.075 4193.24 516.377 4155.71 553.904 4117.64 591.968 4072.08 611 4019 611L4019 578.833C4062.96 578.833 4100.76 563.018 4132.39 531.387 4164.02 499.756 4179.83 461.961 4179.83 418 4179.83 374.039 4164.29 336.243 4133.19 304.613L4132.39 303.808C4100.76 272.714 4062.96 257.167 4019 257.167" fill="#989AAF"/><path d="M4019 289.333C4054.38 289.333 4084.67 301.932 4109.87 327.129 4135.07 352.326 4147.67 382.617 4147.67 418L4019 418 4019 289.333" fill="#EAEBF3"/><path d="M4147.67 418C4147.67 453.383 4135.07 483.406 4109.87 508.067L4109.87 508.871C4084.67 534.068 4054.38 546.667 4019 546.667L4019 418 4147.67 418" fill="#DADCE7"/></g></g></g><g><g><g><path d="M193 353.833 193 386C139.925 386 94.3555 366.968 56.2916 328.904 18.7639 291.377 0 246.075 0 193 0 139.925 18.7639 94.3555 56.2916 56.2916 94.3555 18.7639 139.925 0 193 0L193 32.1666C149.039 32.1666 111.243 47.7139 79.6124 78.8083L78.8083 79.6124C47.7139 111.243 32.1666 149.039 32.1666 193 32.1666 236.96 47.9818 274.756 79.6124 306.387 111.243 338.018 149.039 353.833 193 353.833" fill="#989AAF" transform="matrix(1 0 0 1 2868 225)"/><path d="M193 353.833C149.039 353.833 111.243 338.018 79.6124 306.387 47.9818 274.756 32.1666 236.96 32.1666 193 32.1666 149.039 47.7139 111.243 78.8083 79.6124L79.6124 78.8083C111.243 47.7139 149.039 32.1666 193 32.1666L193 64.3333C157.617 64.3333 127.326 76.9318 102.129 102.129 76.9318 127.326 64.3333 157.617 64.3333 193 64.3333 228.383 76.9318 258.406 102.129 283.066L102.129 283.871C127.326 309.068 157.617 321.666 193 321.666L193 353.833" fill="#FFFFFF" transform="matrix(1 0 0 1 2868 225)"/><path d="M193 64.3333 193 193 64.3333 193C64.3333 157.617 76.9318 127.326 102.129 102.129 127.326 76.9318 157.617 64.3333 193 64.3333" fill="#EAEBF3" transform="matrix(1 0 0 1 2868 225)"/><path d="M193 193 193 321.666C157.617 321.666 127.326 309.068 102.129 283.871L102.129 283.066C76.9318 258.406 64.3333 228.383 64.3333 193L193 193" fill="#DADCE7" transform="matrix(1 0 0 1 2868 225)"/></g></g></g><g><g><g><path d="M0 32.1666 0 0 386 0 386 32.1666 0 32.1666M386 353.833 386 386 0 386 0 353.833 386 353.833" fill="#989AAF" transform="matrix(1 0 0 1 3061 225)"/><path d="M386 353.833 0 353.833 0 321.666 386 321.666 386 353.833M386 32.1666 386 64.3333 0 64.3333 0 32.1666 386 32.1666" fill="#FFFFFF" transform="matrix(1 0 0 1 3061 225)"/><path d="M386 193 386 321.666 0 321.666 0 193 386 193" fill="#DADCE7" transform="matrix(1 0 0 1 3061 225)"/><path d="M386 193 0 193 0 64.3333 386 64.3333 386 193" fill="#EAEBF3" transform="matrix(1 0 0 1 3061 225)"/></g></g></g><g><g><g><path d="M0 32.1666 0 0 386 0 386 32.1666 0 32.1666M386 353.833 386 386 0 386 0 353.833 386 353.833" fill="#989AAF" transform="matrix(1.48187 0 0 1 3447 225)"/><path d="M386 353.833 0 353.833 0 321.666 386 321.666 386 353.833M386 32.1666 386 64.3333 0 64.3333 0 32.1666 386 32.1666" fill="#FFFFFF" transform="matrix(1.48187 0 0 1 3447 225)"/><path d="M386 193 386 321.666 0 321.666 0 193 386 193" fill="#DADCE7" transform="matrix(1.48187 0 0 1 3447 225)"/><path d="M386 193 0 193 0 64.3333 386 64.3333 386 193" fill="#EAEBF3" transform="matrix(1.48187 0 0 1 3447 225)"/></g></g></g><g filter="url(#fx0)" transform="translate(3282 336)"><g><path d="M509.46 77.7095C504.053 77.7439 499.596 79.5735 496.088 83.1984 492.579 86.8232 490.763 92.037 490.64 98.8397 490.763 105.728 492.579 111.018 496.088 114.708 499.596 118.398 504.053 120.262 509.46 120.3 514.939 120.262 519.417 118.398 522.894 114.708 526.371 111.018 528.167 105.728 528.28 98.8397 528.167 92.037 526.371 86.8232 522.894 83.1984 519.417 79.5735 514.939 77.7439 509.46 77.7095ZM248.305 75.0695C243.397 75.1212 239.355 76.5049 236.18 79.2207 233.004 81.9366 230.942 85.6747 229.994 90.4352L266.616 90.4352C265.739 85.6747 263.698 81.9366 260.491 79.2207 257.285 76.5049 253.223 75.1212 248.305 75.0695ZM574.26 54.3002 605.59 54.3002 605.59 99.1802C605.62 106.048 606.921 110.998 609.49 114.03 612.06 117.062 615.713 118.547 620.449 118.485 625.196 118.544 629.159 116.9 632.337 113.556 635.515 110.211 637.166 104.814 637.29 97.3652L637.29 54.3002 668.62 54.3002 668.62 143.71 638.774 143.71 638.774 134.148C635.346 137.854 631.349 140.623 626.785 142.454 622.221 144.284 617.357 145.198 612.194 145.195 601.015 145.263 591.95 141.993 585 135.383 578.049 128.773 574.469 118.411 574.26 104.295ZM412.59 54.3002 443.92 54.3002 443.92 143.71 412.59 143.71ZM298.71 54.3002 330.879 54.3002 352.325 108.903 374.925 54.3002 404.785 54.3002 367.831 143.71 335.498 143.71ZM43.7246 53.9495 43.7246 87.7952 61.8843 87.7952C68.6529 87.7539 73.7294 86.268 77.1137 83.3374 80.498 80.4069 82.1902 76.2794 82.1902 70.9549 82.1902 65.5513 80.498 61.3756 77.1137 58.4279 73.7294 55.4802 68.6529 53.9874 61.8843 53.9495ZM726.862 52.8152C733.265 52.822 739.604 53.4677 745.878 54.7522 752.152 56.0366 757.58 57.9186 762.162 60.3982L752.763 81.6483C748.291 79.2155 743.88 77.5023 739.529 76.5086 735.178 75.515 731.011 75.0353 727.027 75.0695 721.805 75.1244 718.089 75.7548 715.88 76.9609 713.671 78.167 712.598 79.6198 712.659 81.3194 712.934 84.2141 715.675 86.0849 720.884 86.932 726.092 87.779 732.124 88.7668 738.977 89.8952 745.831 91.0237 751.862 93.4573 757.07 97.1961 762.279 100.935 765.02 107.143 765.294 115.822 765.268 124.271 761.529 131.23 754.079 136.701 746.63 142.172 735.631 145.003 721.082 145.195 713.336 145.15 705.933 144.291 698.873 142.619 691.812 140.946 686.019 138.728 681.495 135.963L690.895 114.497C695.12 117.087 699.984 119.109 705.489 120.561 710.993 122.013 716.521 122.751 722.073 122.775 727.282 122.758 730.943 122.213 733.055 121.14 735.167 120.068 736.186 118.571 736.11 116.649 735.835 113.827 733.085 112.029 727.86 111.255 722.635 110.48 716.585 109.552 709.71 108.47 702.835 107.388 696.785 104.975 691.56 101.231 686.335 97.4864 683.585 91.233 683.31 82.4707 683.372 73.8862 687.124 66.8439 694.566 61.3439 702.009 55.8439 712.774 53.001 726.862 52.8152ZM509.46 52.8152C524.486 53.0516 536.592 57.3598 545.777 65.7398 554.961 74.1198 559.682 85.1531 559.94 98.8397 559.682 112.612 554.961 123.721 545.777 132.167 536.592 140.612 524.486 144.955 509.46 145.195 499.641 145.123 490.952 143.122 483.391 139.191 475.83 135.26 469.892 129.825 465.577 122.887 461.261 115.948 459.062 107.933 458.98 98.8397 459.062 89.8028 461.261 81.8402 465.577 74.9517 469.892 68.0632 475.83 62.6692 483.391 58.7696 490.952 54.87 499.641 52.8852 509.46 52.8152ZM248.14 52.8152C257.04 52.8404 265.084 54.6582 272.273 58.2685 279.463 61.8789 285.186 67.1303 289.442 74.0228 293.699 80.9153 295.878 89.2975 295.98 99.1692 295.969 100.347 295.907 101.617 295.794 102.98 295.68 104.343 295.577 105.655 295.485 106.915L230.488 106.915C231.836 111.49 234.379 115.021 238.118 117.51 241.857 119.999 246.628 121.259 252.429 121.29 256.732 121.297 260.498 120.664 263.729 119.39 266.959 118.116 270.066 116.161 273.049 113.524L289.546 130.687C285.267 135.475 279.968 139.088 273.647 141.526 267.327 143.965 259.924 145.188 251.439 145.195 235.324 144.934 222.601 140.55 213.27 132.043 203.939 123.536 199.176 112.468 198.98 98.8397 199.065 89.8022 201.224 81.8393 205.457 74.9509 209.69 68.0624 215.49 62.6685 222.857 58.7692 230.225 54.8699 238.652 52.8852 248.14 52.8152ZM190.465 52.8152 190.465 81.0095C189.086 80.8445 187.842 80.7208 186.731 80.6383 185.621 80.5558 184.501 80.5145 183.37 80.5145 176.917 80.4559 171.754 82.1819 167.88 85.6926 164.006 89.2033 162.019 94.8504 161.92 102.634L161.92 143.71 130.59 143.71 130.59 54.3002 160.436 54.3002 160.436 65.0226C163.677 60.9775 167.836 57.9326 172.913 55.8877 177.99 53.8428 183.84 52.8186 190.465 52.8152ZM11.0752 28.2302 63.8653 28.2302C79.7915 28.3602 92.2818 32.1806 101.336 39.6915 110.391 47.2024 115.002 57.6235 115.17 70.9549 115.002 84.2073 110.391 94.5803 101.336 102.074 92.2818 109.568 79.7915 113.381 63.8653 113.515L43.7246 113.515 43.7246 143.71 11.0752 143.71ZM428.255 11.0702C434.102 11.1561 438.734 12.6745 442.149 15.6256 445.564 18.5766 447.309 22.4448 447.385 27.2303 447.309 32.2734 445.564 36.3683 442.149 39.5151 438.734 42.6619 434.102 44.2834 428.255 44.3795 422.407 44.273 417.776 42.6722 414.361 39.5769 410.946 36.4817 409.201 32.531 409.125 27.725 409.201 22.9189 410.946 18.9682 414.361 15.8729 417.776 12.7776 422.407 11.1767 428.255 11.0702Z" stroke="#FFFFFF" stroke-width="3" stroke-linejoin="round" stroke-miterlimit="10" fill-rule="evenodd"/></g></g><path d="M3785.51 407.764C3780.11 407.799 3775.65 409.629 3772.14 413.253 3768.63 416.878 3766.82 422.092 3766.69 428.895 3766.82 435.783 3768.63 441.073 3772.14 444.763 3775.65 448.453 3780.11 450.317 3785.51 450.355 3790.99 450.317 3795.47 448.453 3798.95 444.763 3802.43 441.073 3804.22 435.783 3804.33 428.895 3804.22 422.092 3802.43 416.878 3798.95 413.253 3795.47 409.629 3790.99 407.799 3785.51 407.764ZM3524.36 405.125C3519.45 405.176 3515.41 406.56 3512.23 409.276 3509.06 411.992 3507 415.73 3506.05 420.49L3542.67 420.49C3541.79 415.73 3539.75 411.992 3536.55 409.276 3533.34 406.56 3529.28 405.176 3524.36 405.125ZM3850.31 384.355 3881.64 384.355 3881.64 429.235C3881.68 436.103 3882.98 441.053 3885.55 444.085 3888.11 447.117 3891.77 448.602 3896.5 448.54 3901.25 448.599 3905.21 446.955 3908.39 443.611 3911.57 440.266 3913.22 434.869 3913.35 427.42L3913.35 384.355 3944.67 384.355 3944.67 473.764 3914.83 473.764 3914.83 464.203C3911.4 467.909 3907.4 470.678 3902.84 472.509 3898.28 474.339 3893.41 475.253 3888.25 475.25 3877.07 475.318 3868.01 472.048 3861.05 465.438 3854.1 458.828 3850.52 448.466 3850.31 434.35ZM3688.65 384.355 3719.97 384.355 3719.97 473.764 3688.65 473.764ZM3574.77 384.355 3606.93 384.355 3628.38 438.957 3650.98 384.355 3680.84 384.355 3643.89 473.764 3611.55 473.764ZM3319.78 384.005 3319.78 417.85 3337.94 417.85C3344.71 417.809 3349.78 416.323 3353.17 413.392 3356.55 410.462 3358.25 406.334 3358.25 401.01 3358.25 395.606 3356.55 391.431 3353.17 388.483 3349.78 385.535 3344.71 384.042 3337.94 384.005ZM4002.92 382.87C4009.32 382.877 4015.66 383.523 4021.93 384.807 4028.21 386.092 4033.63 387.974 4038.22 390.453L4028.82 411.703C4024.35 409.27 4019.93 407.557 4015.58 406.564 4011.23 405.57 4007.07 405.09 4003.08 405.125 3997.86 405.179 3994.14 405.81 3991.93 407.016 3989.73 408.222 3988.65 409.675 3988.71 411.374 3988.99 414.269 3991.73 416.14 3996.94 416.987 4002.15 417.834 4008.18 418.822 4015.03 419.95 4021.89 421.079 4027.92 423.512 4033.13 427.251 4038.33 430.99 4041.08 437.198 4041.35 445.877 4041.32 454.326 4037.58 461.285 4030.13 466.756 4022.68 472.227 4011.69 475.058 3997.14 475.25 3989.39 475.205 3981.99 474.346 3974.93 472.674 3967.87 471.001 3962.07 468.783 3957.55 466.018L3966.95 444.552C3971.17 447.142 3976.04 449.164 3981.54 450.616 3987.05 452.068 3992.58 452.806 3998.13 452.83 4003.34 452.813 4007 452.268 4009.11 451.195 4011.22 450.122 4012.24 448.626 4012.17 446.704 4011.89 443.882 4009.14 442.084 4003.92 441.31 3998.69 440.535 3992.64 439.607 3985.77 438.525 3978.89 437.443 3972.84 435.03 3967.61 431.286 3962.39 427.541 3959.64 421.288 3959.36 412.526 3959.43 403.941 3963.18 396.899 3970.62 391.399 3978.06 385.899 3988.83 383.056 4002.92 382.87ZM3785.51 382.87C3800.54 383.107 3812.65 387.415 3821.83 395.795 3831.02 404.175 3835.74 415.208 3835.99 428.895 3835.74 442.667 3831.02 453.776 3821.83 462.222 3812.65 470.667 3800.54 475.01 3785.51 475.25 3775.7 475.178 3767.01 473.177 3759.45 469.246 3751.89 465.315 3745.95 459.88 3741.63 452.942 3737.32 446.003 3735.12 437.988 3735.04 428.895 3735.12 419.858 3737.32 411.895 3741.63 405.007 3745.95 398.118 3751.89 392.724 3759.45 388.825 3767.01 384.925 3775.7 382.94 3785.51 382.87ZM3524.19 382.87C3533.09 382.895 3541.14 384.713 3548.33 388.323 3555.52 391.934 3561.24 397.185 3565.5 404.078 3569.75 410.97 3571.93 419.352 3572.03 429.224 3572.02 430.402 3571.96 431.672 3571.85 433.035 3571.74 434.398 3571.63 435.71 3571.54 436.97L3506.54 436.97C3507.89 441.544 3510.43 445.076 3514.17 447.565 3517.91 450.054 3522.68 451.314 3528.48 451.345 3532.79 451.352 3536.55 450.719 3539.78 449.445 3543.01 448.171 3546.12 446.216 3549.1 443.579L3565.6 460.742C3561.32 465.53 3556.02 469.143 3549.7 471.581 3543.38 474.02 3535.98 475.243 3527.49 475.25 3511.38 474.989 3498.66 470.605 3489.33 462.098 3479.99 453.591 3475.23 442.523 3475.04 428.895 3475.12 419.857 3477.28 411.894 3481.51 405.006 3485.74 398.117 3491.54 392.723 3498.91 388.824 3506.28 384.925 3514.71 382.94 3524.19 382.87ZM3466.52 382.87 3466.52 411.065C3465.14 410.9 3463.9 410.776 3462.79 410.693 3461.68 410.611 3460.56 410.57 3459.42 410.57 3452.97 410.511 3447.81 412.237 3443.94 415.748 3440.06 419.258 3438.07 424.905 3437.97 432.689L3437.97 473.764 3406.65 473.764 3406.65 384.355 3436.49 384.355 3436.49 395.078C3439.73 391.033 3443.89 387.988 3448.97 385.943 3454.04 383.898 3459.9 382.874 3466.52 382.87ZM3287.13 358.285 3339.92 358.285C3355.85 358.415 3368.34 362.236 3377.39 369.746 3386.45 377.257 3391.06 387.678 3391.22 401.01 3391.06 414.262 3386.45 424.635 3377.39 432.129 3368.34 439.622 3355.85 443.436 3339.92 443.569L3319.78 443.569 3319.78 473.764 3287.13 473.764ZM3704.31 341.125C3710.16 341.211 3714.79 342.729 3718.2 345.681 3721.62 348.632 3723.36 352.5 3723.44 357.285 3723.36 362.328 3721.62 366.423 3718.2 369.57 3714.79 372.717 3710.16 374.338 3704.31 374.435 3698.46 374.328 3693.83 372.727 3690.42 369.632 3687 366.537 3685.26 362.586 3685.18 357.78 3685.26 352.974 3687 349.023 3690.42 345.928 3693.83 342.833 3698.46 341.232 3704.31 341.125Z" stroke="#FFFFFF" stroke-width="3" stroke-linejoin="round" stroke-miterlimit="10" fill-rule="evenodd"/><text fill="#000000" fill-opacity="0" font-family="Arial,Arial_MSFontService,sans-serif" font-size="134.125" x="3287.13" y="458.485">Previous</text><g clip-path="url(#clip1)"><g clip-path="url(#clip2)"><g clip-path="url(#clip3)"><path d="M146.612 119.094C148 122.331 148.385 125.646 147.769 129.037 147.152 133.046 145.456 136.746 142.681 140.137L141.294 141.756C138.519 144.685 134.741 146.689 129.962 147.769L126.494 148 125.337 148C121.483 148 118.014 146.998 114.931 144.994L14.5687 94.8124 11.3312 93.1936 4.16249 86.7186C2.46666 84.4061 1.31041 81.8624 0.693749 79.0874-0.0770832 75.8499-0.154166 72.6124 0.462499 69.3749L3.2375 62.6687 6.47499 58.7374C8.01666 57.1958 9.6354 56.0395 11.3312 55.2687L12.2562 54.8062 115.162 3.00625C118.246 1.00208 121.637 0 125.337 0L125.8 0 130.194 0.693749 132.044 1.15625 135.975 2.54375 141.525 6.70624 143.375 8.78749C146.458 11.8708 148 16.2646 148 21.9687L146.612 28.9062 128.344 73.9999 146.612 119.094M131.812 10.8687 129.962 10.175 128.112 9.71249 127.881 9.71249 125.8 9.24999 125.337 9.24999C123.487 9.24999 121.792 9.71249 120.25 10.6375L119.325 11.3312 16.4187 63.1312 15.4937 63.5937 15.4937 63.3624 13.1812 65.2124 12.95 65.4437 10.8687 67.7562 11.1 67.7562 9.48124 71.2249 9.71249 76.5436 9.94374 77.4686 11.5625 81.1686 11.5625 81.3999 15.9562 85.0999 18.0375 86.2561 18.7312 86.4874 119.094 136.669 120.25 137.362 125.337 138.75 126.494 138.75 128.344 138.519 128.112 138.75C130.887 138.133 133.046 137.054 134.587 135.512L134.819 135.281 135.512 134.356C137.208 132.352 138.21 130.116 138.519 127.65L138.056 122.562 119.787 77.4686C118.862 75.1562 118.862 72.8437 119.787 70.5312L138.056 25.4375 138.75 21.9687C138.75 19.0396 138.133 16.8041 136.9 15.2625L135.975 14.1062 135.05 13.1812 132.044 10.8687 131.812 10.8687" fill="#167DA8" transform="matrix(1 0 0 1 3038 341)"/><path d="M131.812 10.8687 132.044 10.8687 135.05 13.1812 135.975 14.1062 136.9 15.2625C138.133 16.8041 138.75 19.0396 138.75 21.9687L138.056 25.4375 119.787 70.5312C118.862 72.8437 118.862 75.1562 119.787 77.4686L138.056 122.562 138.519 127.65C138.21 130.116 137.208 132.352 135.512 134.356L134.819 135.281 134.587 135.512C133.046 137.054 130.887 138.133 128.112 138.75L128.344 138.519 126.494 138.75 125.337 138.75 120.25 137.362 119.094 136.669 18.7312 86.4874 18.0375 86.2561 15.9562 85.0999 11.5625 81.3999 11.5625 81.1686 9.94374 77.4686 9.71249 76.5436 9.48124 71.2249 11.1 67.7562 10.8687 67.7562 12.95 65.4437 13.1812 65.2124 15.4937 63.3624 15.4937 63.5937 16.4187 63.1312 119.325 11.3312 120.25 10.6375C121.792 9.71249 123.487 9.24999 125.337 9.24999L125.8 9.24999 127.881 9.71249 128.112 9.71249 129.962 10.175 131.812 10.8687M18.5 73.3062 18.5 73.9999 18.9625 75.6187 18.9625 75.8499 20.8125 77.2374 21.275 77.4686 21.7375 77.6999 22.8937 78.1624 123.256 128.344 123.487 128.344 125.337 129.5 126.031 129.5 126.262 129.5 127.187 129.269 127.65 129.269 130.425 129.5 128.806 128.112 128.344 128.575 129.5 126.031 111.462 80.9374C109.612 76.3124 109.612 71.6874 111.462 67.0624L129.5 21.9687 129.5 21.0437 129.037 20.35 128.806 20.1187 128.344 19.425 127.881 19.1937 127.65 18.9625 127.65 19.1937 127.187 18.9625 126.031 18.7312 125.8 18.7312 125.569 18.5 125.106 18.5 123.95 19.1937 123.487 19.6562 20.5812 71.4562 19.8875 71.6874 19.6562 71.9187 19.1937 71.9187 18.7312 72.1499 18.0375 72.3811 18.2687 72.8437 19.1937 72.1499 18.9625 72.6124 18.7312 72.8437 18.5 72.8437 18.5 73.3062" fill="#36BDF7" transform="matrix(1 0 0 1 3038 341)"/><path d="M18.5 73.3062 18.5 72.8437 18.7312 72.8437 18.9625 72.6124 19.1937 72.1499 18.2687 72.8437 18.0375 72.3811 18.7312 72.1499 19.1937 71.9187 19.6562 71.9187 19.8875 71.6874 20.5812 71.4562 123.487 19.6562 123.95 19.1937 125.106 18.5 125.569 18.5 125.8 18.7312 126.031 18.7312 127.187 18.9625 127.65 19.1937 127.65 18.9625 127.881 19.1937 128.344 19.425 128.806 20.1187 129.037 20.35 129.5 21.0437 129.5 21.9687 111.462 67.0624C109.612 71.6874 109.612 76.3124 111.462 80.9374L129.5 126.031 128.344 128.575 128.806 128.112 130.425 129.5 127.65 129.269 127.187 129.269 126.262 129.5 126.031 129.5 125.337 129.5 123.487 128.344 123.256 128.344 22.8937 78.1624 21.7375 77.6999 21.275 77.4686 20.8125 77.2374 18.9625 75.8499 18.9625 75.6187 18.5 73.9999 18.5 73.3062" fill="#1C9FD7" transform="matrix(1 0 0 1 3038 341)"/></g></g></g></g></svg>