<svg width="1344" height="387" xmlns="http://www.w3.org/2000/svg" xmlns:xlink="http://www.w3.org/1999/xlink" xml:space="preserve" overflow="hidden"><defs><filter id="fx0" x="-10%" y="-10%" width="120%" height="120%" filterUnits="userSpaceOnUse" primitiveUnits="userSpaceOnUse"><feComponentTransfer color-interpolation-filters="sRGB"><feFuncR type="discrete" tableValues="0 0"/><feFuncG type="discrete" tableValues="0 0"/><feFuncB type="discrete" tableValues="0 0"/><feFuncA type="linear" slope="0.431373" intercept="0"/></feComponentTransfer><feGaussianBlur stdDeviation="2.80252 2.80252"/></filter><clipPath id="clip1"><rect x="2862" y="750" width="1344" height="387"/></clipPath><clipPath id="clip2"><rect x="4013" y="750" width="193" height="387"/></clipPath><clipPath id="clip3"><rect x="3030" y="866" width="149" height="150"/></clipPath><clipPath id="clip4"><rect x="3030" y="866" width="149" height="150"/></clipPath><clipPath id="clip5"><rect x="3030" y="866" width="149" height="150"/></clipPath></defs><g clip-path="url(#clip1)" transform="translate(-2862 -750)"><g clip-path="url(#clip2)"><g><g><path d="M0 32.1667C43.9611 32.1667 81.7569 47.7139 113.388 78.8083L114.192 79.6125C145.286 111.243 160.833 149.039 160.833 193 160.833 236.961 145.018 274.756 113.388 306.388 81.7569 338.019 43.9611 353.833 0 353.833L0 321.667C35.3833 321.667 65.6736 309.069 90.8708 283.871L90.8708 283.067C116.068 258.406 128.667 228.383 128.667 193 128.667 157.617 116.068 127.326 90.8708 102.129 65.6736 76.9319 35.3833 64.3333 0 64.3333L0 32.1667" fill="#FFFFFF" transform="matrix(1 0 0 1 4013 750)"/><path d="M0 32.1667 0 0C53.075 0 98.6444 18.7639 136.708 56.2917 174.236 94.3556 193 139.925 193 193 193 246.075 174.236 291.377 136.708 328.904 98.6444 366.969 53.075 386 0 386L0 353.833C43.9611 353.833 81.7569 338.019 113.388 306.388 145.018 274.756 160.833 236.961 160.833 193 160.833 149.039 145.286 111.243 114.192 79.6125L113.388 78.8083C81.7569 47.7139 43.9611 32.1667 0 32.1667" fill="#989AAF" transform="matrix(1 0 0 1 4013 750)"/><path d="M0 64.3333C35.3833 64.3333 65.6736 76.9319 90.8708 102.129 116.068 127.326 128.667 157.617 128.667 193L0 193 0 64.3333" fill="#EAEBF3" transform="matrix(1 0 0 1 4013 750)"/><path d="M128.667 193C128.667 228.383 116.068 258.406 90.8708 283.067L90.8708 283.871C65.6736 309.069 35.3833 321.667 0 321.667L0 193 128.667 193" fill="#DADCE7" transform="matrix(1 0 0 1 4013 750)"/></g></g></g><g><g><g><path d="M193 353.833 193 386C139.925 386 94.3555 366.968 56.2916 328.904 18.7639 291.377 0 246.075 0 193 0 139.925 18.7639 94.3555 56.2916 56.2916 94.3555 18.7639 139.925 0 193 0L193 32.1666C149.039 32.1666 111.243 47.7139 79.6124 78.8083L78.8083 79.6124C47.7139 111.243 32.1666 149.039 32.1666 193 32.1666 236.96 47.9818 274.756 79.6124 306.387 111.243 338.018 149.039 353.833 193 353.833" fill="#989AAF" transform="matrix(1 0 0 1 2862 751)"/><path d="M193 353.833C149.039 353.833 111.243 338.018 79.6124 306.387 47.9818 274.756 32.1666 236.96 32.1666 193 32.1666 149.039 47.7139 111.243 78.8083 79.6124L79.6124 78.8083C111.243 47.7139 149.039 32.1666 193 32.1666L193 64.3333C157.617 64.3333 127.326 76.9318 102.129 102.129 76.9318 127.326 64.3333 157.617 64.3333 193 64.3333 228.383 76.9318 258.406 102.129 283.066L102.129 283.871C127.326 309.068 157.617 321.666 193 321.666L193 353.833" fill="#FFFFFF" transform="matrix(1 0 0 1 2862 751)"/><path d="M193 64.3333 193 193 64.3333 193C64.3333 157.617 76.9318 127.326 102.129 102.129 127.326 76.9318 157.617 64.3333 193 64.3333" fill="#EAEBF3" transform="matrix(1 0 0 1 2862 751)"/><path d="M193 193 193 321.666C157.617 321.666 127.326 309.068 102.129 283.871L102.129 283.066C76.9318 258.406 64.3333 228.383 64.3333 193L193 193" fill="#DADCE7" transform="matrix(1 0 0 1 2862 751)"/></g></g></g><g><g><g><path d="M3055 783.167 3055 751 3441 751 3441 783.167 3055 783.167M3441 1104.83 3441 1137 3055 1137 3055 1104.83 3441 1104.83" fill="#989AAF"/><path d="M3441 1104.83 3055 1104.83 3055 1072.67 3441 1072.67 3441 1104.83M3441 783.167 3441 815.333 3055 815.333 3055 783.167 3441 783.167" fill="#FFFFFF"/><path d="M3441 944 3441 1072.67 3055 1072.67 3055 944 3441 944" fill="#DADCE7"/><path d="M3441 944 3055 944 3055 815.333 3441 815.333 3441 944" fill="#EAEBF3"/></g></g></g><g><g><g><path d="M0 32.1667 0 0 386 0 386 32.1667 0 32.1667M386 353.833 386 386 0 386 0 353.833 386 353.833" fill="#989AAF" transform="matrix(1.48187 0 0 1 3441 751)"/><path d="M386 353.833 0 353.833 0 321.667 386 321.667 386 353.833M386 32.1667 386 64.3333 0 64.3333 0 32.1667 386 32.1667" fill="#FFFFFF" transform="matrix(1.48187 0 0 1 3441 751)"/><path d="M386 193 386 321.667 0 321.667 0 193 386 193" fill="#DADCE7" transform="matrix(1.48187 0 0 1 3441 751)"/><path d="M386 193 0 193 0 64.3333 386 64.3333 386 193" fill="#EAEBF3" transform="matrix(1.48187 0 0 1 3441 751)"/></g></g></g><g filter="url(#fx0)" transform="translate(3275 861)"><g><path d="M510.275 78.4486C504.868 78.4829 500.41 80.3126 496.902 83.9374 493.394 87.5623 491.578 92.776 491.454 99.5787 491.578 106.467 493.394 111.757 496.902 115.447 500.41 119.137 504.868 121.001 510.275 121.039 515.753 121.001 520.232 119.137 523.709 115.447 527.186 111.757 528.981 106.467 529.095 99.5787 528.981 92.776 527.186 87.5623 523.709 83.9374 520.232 80.3126 515.753 78.4829 510.275 78.4486ZM249.119 75.8086C244.212 75.8602 240.17 77.2439 236.994 79.9598 233.819 82.6756 231.757 86.4137 230.808 91.1742L267.43 91.1742C266.554 86.4137 264.513 82.6756 261.306 79.9598 258.1 77.2439 254.037 75.8602 249.119 75.8086ZM575.075 55.0392 606.404 55.0392 606.404 99.9192C606.435 106.787 607.735 111.737 610.305 114.769 612.874 117.801 616.527 119.286 621.264 119.224 626.011 119.283 629.973 117.639 633.152 114.295 636.33 110.95 637.981 105.553 638.105 98.1042L638.105 55.0392 669.434 55.0392 669.434 144.449 639.589 144.449 639.589 134.887C636.16 138.593 632.164 141.362 627.6 143.193 623.035 145.023 618.172 145.937 613.009 145.934 601.83 146.002 592.765 142.732 585.815 136.122 578.864 129.513 575.284 119.15 575.075 105.034ZM413.405 55.0392 444.734 55.0392 444.734 144.449 413.405 144.449ZM299.525 55.0392 331.693 55.0392 353.139 109.642 375.74 55.0392 405.599 55.0392 368.646 144.449 336.313 144.449ZM44.5393 54.6886 44.5393 88.5342 62.699 88.5342C69.4676 88.4929 74.5441 87.007 77.9284 84.0765 81.3127 81.1459 83.0049 77.0184 83.0049 71.6939 83.0049 66.2903 81.3127 62.1146 77.9284 59.1669 74.5441 56.2192 69.4676 54.7264 62.699 54.6886ZM727.677 53.5542C734.08 53.5611 740.418 54.2067 746.692 55.4912 752.966 56.7756 758.394 58.6577 762.977 61.1372L753.578 82.3873C749.106 79.9545 744.694 78.2413 740.344 77.2476 735.993 76.254 731.826 75.7743 727.842 75.8086 722.619 75.8634 718.903 76.4938 716.695 77.6999 714.486 78.906 713.412 80.3588 713.474 82.0584 713.748 84.9531 716.49 86.8239 721.698 87.671 726.907 88.5181 732.938 89.5058 739.792 90.6342 746.645 91.7627 752.676 94.1963 757.885 97.9351 763.094 101.674 765.835 107.882 766.109 116.561 766.082 125.01 762.344 131.969 754.894 137.44 747.444 142.911 736.445 145.742 721.897 145.934 714.151 145.889 706.748 145.03 699.687 143.358 692.627 141.685 686.834 139.467 682.31 136.702L691.709 115.236C695.934 117.826 700.799 119.848 706.304 121.3 711.808 122.752 717.336 123.49 722.888 123.514 728.096 123.497 731.757 122.952 733.87 121.879 735.982 120.807 737.001 119.31 736.925 117.388 736.65 114.566 733.9 112.768 728.675 111.994 723.45 111.219 717.4 110.291 710.525 109.209 703.65 108.127 697.6 105.714 692.375 101.97 687.15 98.2254 684.4 91.972 684.125 83.2097 684.186 74.6252 687.938 67.5829 695.381 62.0829 702.824 56.5829 713.589 53.74 727.677 53.5542ZM510.275 53.5542C525.301 53.7906 537.406 58.0988 546.591 66.4788 555.776 74.8588 560.497 85.8921 560.754 99.5787 560.497 113.351 555.776 124.46 546.591 132.906 537.406 141.351 525.301 145.694 510.275 145.934 500.456 145.862 491.766 143.861 484.206 139.93 476.645 135.999 470.707 130.564 466.391 123.626 462.076 116.687 459.877 108.672 459.795 99.5787 459.877 90.5419 462.076 82.5792 466.391 75.6907 470.707 68.8022 476.645 63.4082 484.206 59.5086 491.766 55.609 500.456 53.6242 510.275 53.5542ZM248.954 53.5542C257.854 53.5794 265.899 55.3972 273.088 59.0075 280.277 62.6179 286 67.8693 290.257 74.7618 294.513 81.6543 296.692 90.0365 296.794 99.9083 296.784 101.086 296.722 102.356 296.609 103.719 296.495 105.082 296.392 106.394 296.299 107.654L231.303 107.654C232.65 112.229 235.194 115.761 238.933 118.249 242.672 120.738 247.442 121.998 253.243 122.029 257.546 122.036 261.313 121.403 264.544 120.129 267.774 118.855 270.881 116.9 273.864 114.263L290.361 131.426C286.082 136.214 280.782 139.827 274.462 142.265 268.142 144.704 260.739 145.927 252.254 145.934 236.139 145.673 223.416 141.289 214.085 132.782 204.754 124.275 199.991 113.207 199.795 99.5787 199.879 90.5413 202.038 82.5783 206.271 75.6899 210.504 68.8014 216.305 63.4075 223.672 59.5082 231.039 55.6089 239.467 53.6242 248.954 53.5542ZM191.279 53.5542 191.279 81.7486C189.901 81.5836 188.656 81.4598 187.546 81.3773 186.436 81.2948 185.315 81.2536 184.184 81.2536 177.732 81.1949 172.569 82.9209 168.695 86.4316 164.821 89.9423 162.834 95.5894 162.734 103.373L162.734 144.449 131.405 144.449 131.405 55.0392 161.25 55.0392 161.25 65.7616C164.491 61.7166 168.65 58.6716 173.728 56.6267 178.805 54.5818 184.655 53.5576 191.279 53.5542ZM11.8899 28.9692 64.68 28.9692C80.6062 29.0992 93.0965 32.9197 102.151 40.4305 111.205 47.9414 115.816 58.3625 115.984 71.6939 115.816 84.9463 111.205 95.3193 102.151 102.813 93.0965 110.307 80.6062 114.12 64.68 114.254L44.5393 114.254 44.5393 144.449 11.8899 144.449ZM429.07 11.8092C434.917 11.8951 439.548 13.4135 442.963 16.3646 446.378 19.3156 448.124 23.1838 448.199 27.9693 448.124 33.0124 446.378 37.1073 442.963 40.2541 439.548 43.4009 434.917 45.0224 429.07 45.1186 423.222 45.0121 418.591 43.4112 415.176 40.3159 411.761 37.2207 410.015 33.27 409.94 28.464 410.015 23.6579 411.761 19.7072 415.176 16.6119 418.591 13.5166 423.222 11.9157 429.07 11.8092Z" stroke="#FFFFFF" stroke-width="3" stroke-linejoin="round" stroke-miterlimit="10" fill="#FFFFFF" fill-rule="evenodd"/></g></g><path d="M3779.33 933.503C3773.92 933.538 3769.47 935.367 3765.96 938.992 3762.45 942.617 3760.63 947.831 3760.51 954.634 3760.63 961.522 3762.45 966.812 3765.96 970.502 3769.47 974.192 3773.92 976.056 3779.33 976.094 3784.81 976.056 3789.29 974.192 3792.76 970.502 3796.24 966.812 3798.04 961.522 3798.15 954.634 3798.04 947.831 3796.24 942.617 3792.76 938.992 3789.29 935.367 3784.81 933.538 3779.33 933.503ZM3518.17 930.863C3513.27 930.915 3509.22 932.299 3506.05 935.015 3502.87 937.731 3500.81 941.469 3499.86 946.229L3536.49 946.229C3535.61 941.469 3533.57 937.731 3530.36 935.015 3527.15 932.299 3523.09 930.915 3518.17 930.863ZM3844.13 910.094 3875.46 910.094 3875.46 954.974C3875.49 961.842 3876.79 966.792 3879.36 969.824 3881.93 972.856 3885.58 974.341 3890.32 974.279 3895.07 974.338 3899.03 972.694 3902.21 969.35 3905.38 966.005 3907.04 960.608 3907.16 953.159L3907.16 910.094 3938.49 910.094 3938.49 999.503 3908.64 999.503 3908.64 989.942C3905.22 993.648 3901.22 996.417 3896.65 998.247 3892.09 1000.08 3887.23 1000.99 3882.06 1000.99 3870.88 1001.06 3861.82 997.787 3854.87 991.177 3847.92 984.567 3844.34 974.205 3844.13 960.089ZM3682.46 910.094 3713.79 910.094 3713.79 999.503 3682.46 999.503ZM3568.58 910.094 3600.75 910.094 3622.19 964.696 3644.79 910.094 3674.65 910.094 3637.7 999.503 3605.37 999.503ZM3313.59 909.743 3313.59 943.589 3331.75 943.589C3338.52 943.548 3343.6 942.062 3346.98 939.131 3350.37 936.201 3352.06 932.073 3352.06 926.749 3352.06 921.345 3350.37 917.17 3346.98 914.222 3343.6 911.274 3338.52 909.781 3331.75 909.743ZM3996.73 908.609C4003.13 908.616 4009.47 909.262 4015.75 910.546 4022.02 911.831 4027.45 913.713 4032.03 916.192L4022.63 937.442C4018.16 935.009 4013.75 933.296 4009.4 932.303 4005.05 931.309 4000.88 930.829 3996.9 930.863 3991.67 930.918 3987.96 931.549 3985.75 932.755 3983.54 933.961 3982.47 935.414 3982.53 937.113 3982.8 940.008 3985.54 941.879 3990.75 942.726 3995.96 943.573 4001.99 944.561 4008.85 945.689 4015.7 946.818 4021.73 949.251 4026.94 952.99 4032.15 956.729 4034.89 962.937 4035.16 971.616 4035.14 980.065 4031.4 987.024 4023.95 992.495 4016.5 997.966 4005.5 1000.8 3990.95 1000.99 3983.21 1000.94 3975.8 1000.09 3968.74 998.413 3961.68 996.74 3955.89 994.522 3951.36 991.757L3960.76 970.291C3964.99 972.881 3969.85 974.903 3975.36 976.355 3980.86 977.807 3986.39 978.545 3991.94 978.569 3997.15 978.552 4000.81 978.007 4002.92 976.934 4005.04 975.862 4006.06 974.365 4005.98 972.443 4005.7 969.621 4002.95 967.823 3997.73 967.048 3992.5 966.274 3986.45 965.346 3979.58 964.264 3972.7 963.182 3966.65 960.769 3961.43 957.025 3956.2 953.28 3953.45 947.027 3953.18 938.265 3953.24 929.68 3956.99 922.638 3964.44 917.138 3971.88 911.638 3982.64 908.795 3996.73 908.609ZM3779.33 908.609C3794.36 908.846 3806.46 913.154 3815.65 921.534 3824.83 929.914 3829.55 940.947 3829.81 954.634 3829.55 968.406 3824.83 979.515 3815.65 987.961 3806.46 996.406 3794.36 1000.75 3779.33 1000.99 3769.51 1000.92 3760.82 998.916 3753.26 994.985 3745.7 991.054 3739.76 985.619 3735.45 978.681 3731.13 971.742 3728.93 963.727 3728.85 954.634 3728.93 945.597 3731.13 937.634 3735.45 930.746 3739.76 923.857 3745.7 918.463 3753.26 914.564 3760.82 910.664 3769.51 908.679 3779.33 908.609ZM3518.01 908.609C3526.91 908.634 3534.95 910.452 3542.14 914.062 3549.33 917.673 3555.06 922.924 3559.31 929.817 3563.57 936.709 3565.75 945.091 3565.85 954.963 3565.84 956.141 3565.78 957.411 3565.66 958.774 3565.55 960.137 3565.45 961.448 3565.35 962.708L3500.36 962.708C3501.71 967.284 3504.25 970.815 3507.99 973.304 3511.73 975.793 3516.5 977.053 3522.3 977.084 3526.6 977.091 3530.37 976.458 3533.6 975.184 3536.83 973.91 3539.94 971.955 3542.92 969.318L3559.42 986.481C3555.14 991.269 3549.84 994.882 3543.52 997.32 3537.2 999.759 3529.79 1000.98 3521.31 1000.99 3505.19 1000.73 3492.47 996.344 3483.14 987.837 3473.81 979.33 3469.05 968.262 3468.85 954.634 3468.93 945.596 3471.09 937.633 3475.33 930.745 3479.56 923.856 3485.36 918.462 3492.73 914.563 3500.09 910.664 3508.52 908.679 3518.01 908.609ZM3460.33 908.609 3460.33 936.803C3458.96 936.638 3457.71 936.515 3456.6 936.432 3455.49 936.35 3454.37 936.308 3453.24 936.308 3446.79 936.25 3441.62 937.976 3437.75 941.487 3433.88 944.997 3431.89 950.644 3431.79 958.428L3431.79 999.503 3400.46 999.503 3400.46 910.094 3430.31 910.094 3430.31 920.817C3433.55 916.771 3437.71 913.727 3442.78 911.682 3447.86 909.637 3453.71 908.613 3460.33 908.609ZM3280.94 884.024 3333.73 884.024C3349.66 884.154 3362.15 887.975 3371.21 895.485 3380.26 902.996 3384.87 913.417 3385.04 926.749 3384.87 940.001 3380.26 950.374 3371.21 957.868 3362.15 965.362 3349.66 969.175 3333.73 969.308L3313.59 969.308 3313.59 999.503 3280.94 999.503ZM3698.12 866.864C3703.97 866.95 3708.6 868.469 3712.02 871.419 3715.43 874.371 3717.18 878.239 3717.25 883.024 3717.18 888.067 3715.43 892.162 3712.02 895.309 3708.6 898.456 3703.97 900.077 3698.12 900.173 3692.28 900.067 3687.65 898.466 3684.23 895.371 3680.82 892.276 3679.07 888.325 3678.99 883.519 3679.07 878.713 3680.82 874.762 3684.23 871.667 3687.65 868.572 3692.28 866.971 3698.12 866.864Z" stroke="#FFFFFF" stroke-width="3" stroke-linejoin="round" stroke-miterlimit="10" fill="#FFFFFF" fill-rule="evenodd"/><text fill="#000000" fill-opacity="0" font-family="Arial,Arial_MSFontService,sans-serif" font-size="134.125" x="3280.94" y="984.224">Previous</text><g clip-path="url(#clip3)"><g clip-path="url(#clip4)"><g clip-path="url(#clip5)"><path d="M3177.61 986.094C3179 989.331 3179.39 992.646 3178.77 996.038 3178.15 1000.05 3176.46 1003.75 3173.68 1007.14L3172.29 1008.76C3169.52 1011.69 3165.74 1013.69 3160.96 1014.77L3157.49 1015 3156.34 1015C3152.48 1015 3149.01 1014 3145.93 1011.99L3045.57 961.813 3042.33 960.194 3035.16 953.719C3033.47 951.406 3032.31 948.863 3031.69 946.088 3030.92 942.85 3030.85 939.613 3031.46 936.375L3034.24 929.669 3037.47 925.737C3039.02 924.196 3040.64 923.04 3042.33 922.269L3043.26 921.806 3146.16 870.006C3149.25 868.002 3152.64 867 3156.34 867L3156.8 867 3161.19 867.694 3163.04 868.156 3166.97 869.544 3172.52 873.706 3174.38 875.787C3177.46 878.871 3179 883.265 3179 888.969L3177.61 895.906 3159.34 941 3177.61 986.094M3162.81 877.869 3160.96 877.175 3159.11 876.712 3158.88 876.712 3156.8 876.25 3156.34 876.25C3154.49 876.25 3152.79 876.712 3151.25 877.637L3150.32 878.331 3047.42 930.131 3046.49 930.594 3046.49 930.362 3044.18 932.213 3043.95 932.444 3041.87 934.756 3042.1 934.756 3040.48 938.225 3040.71 943.544 3040.94 944.469 3042.56 948.169 3042.56 948.4 3046.96 952.1 3049.04 953.256 3049.73 953.488 3150.09 1003.67 3151.25 1004.36 3156.34 1005.75 3157.49 1005.75 3159.34 1005.52 3159.11 1005.75C3161.89 1005.13 3164.05 1004.05 3165.59 1002.51L3165.82 1002.28 3166.51 1001.36C3168.21 999.352 3169.21 997.117 3169.52 994.65L3169.06 989.563 3150.79 944.469C3149.86 942.156 3149.86 939.844 3150.79 937.531L3169.06 892.437 3169.75 888.969C3169.75 886.04 3169.13 883.804 3167.9 882.262L3166.97 881.106 3166.05 880.181 3163.04 877.869 3162.81 877.869" fill="#167DA8"/><path d="M3162.81 877.869 3163.04 877.869 3166.05 880.181 3166.97 881.106 3167.9 882.262C3169.13 883.804 3169.75 886.04 3169.75 888.969L3169.06 892.437 3150.79 937.531C3149.86 939.844 3149.86 942.156 3150.79 944.469L3169.06 989.563 3169.52 994.65C3169.21 997.117 3168.21 999.352 3166.51 1001.36L3165.82 1002.28 3165.59 1002.51C3164.05 1004.05 3161.89 1005.13 3159.11 1005.75L3159.34 1005.52 3157.49 1005.75 3156.34 1005.75 3151.25 1004.36 3150.09 1003.67 3049.73 953.488 3049.04 953.256 3046.96 952.1 3042.56 948.4 3042.56 948.169 3040.94 944.469 3040.71 943.544 3040.48 938.225 3042.1 934.756 3041.87 934.756 3043.95 932.444 3044.18 932.213 3046.49 930.362 3046.49 930.594 3047.42 930.131 3150.32 878.331 3151.25 877.637C3152.79 876.712 3154.49 876.25 3156.34 876.25L3156.8 876.25 3158.88 876.712 3159.11 876.712 3160.96 877.175 3162.81 877.869M3049.5 940.306 3049.5 941 3049.96 942.619 3049.96 942.85 3051.81 944.238 3052.27 944.469 3052.74 944.7 3053.89 945.163 3154.26 995.344 3154.49 995.344 3156.34 996.5 3157.03 996.5 3157.26 996.5 3158.19 996.269 3158.65 996.269 3161.42 996.5 3159.81 995.113 3159.34 995.575 3160.5 993.031 3142.46 947.938C3140.61 943.312 3140.61 938.688 3142.46 934.062L3160.5 888.969 3160.5 888.044 3160.04 887.35 3159.81 887.119 3159.34 886.425 3158.88 886.194 3158.65 885.962 3158.65 886.194 3158.19 885.962 3157.03 885.731 3156.8 885.731 3156.57 885.5 3156.11 885.5 3154.95 886.194 3154.49 886.656 3051.58 938.456 3050.89 938.688 3050.66 938.919 3050.19 938.919 3049.73 939.15 3049.04 939.381 3049.27 939.844 3050.19 939.15 3049.96 939.613 3049.73 939.844 3049.5 939.844 3049.5 940.306" fill="#36BDF7"/><path d="M3049.5 940.306 3049.5 939.844 3049.73 939.844 3049.96 939.613 3050.19 939.15 3049.27 939.844 3049.04 939.381 3049.73 939.15 3050.19 938.919 3050.66 938.919 3050.89 938.688 3051.58 938.456 3154.49 886.656 3154.95 886.194 3156.11 885.5 3156.57 885.5 3156.8 885.731 3157.03 885.731 3158.19 885.962 3158.65 886.194 3158.65 885.962 3158.88 886.194 3159.34 886.425 3159.81 887.119 3160.04 887.35 3160.5 888.044 3160.5 888.969 3142.46 934.062C3140.61 938.688 3140.61 943.312 3142.46 947.938L3160.5 993.031 3159.34 995.575 3159.81 995.113 3161.42 996.5 3158.65 996.269 3158.19 996.269 3157.26 996.5 3157.03 996.5 3156.34 996.5 3154.49 995.344 3154.26 995.344 3053.89 945.163 3052.74 944.7 3052.27 944.469 3051.81 944.238 3049.96 942.85 3049.96 942.619 3049.5 941 3049.5 940.306" fill="#1C9FD7"/></g></g></g></g></svg>