<svg xmlns="http://www.w3.org/2000/svg" xmlns:xlink="http://www.w3.org/1999/xlink" width="12" height="24"><g><path fill="#FF627B" stroke="none" d="M12 2 L12 4 4 4 4 12 4 20 12 20 12 22 4 22 Q2 22 2 20 L2 4 Q2 2 4 2 L12 2"/><path fill="#CD0B2A" stroke="none" d="M12 2 L4 2 Q2 2 2 4 L2 20 Q2 22 4 22 L12 22 12 24 4 24 Q0 24 0 20 L0 4 Q0 0 4 0 L12 0 12 2"/><path fill="#EE2747" stroke="none" d="M12 12 L12 20 4 20 4 12 12 12"/><path fill="#F73F5D" stroke="none" d="M12 12 L4 12 4 4 12 4 12 12"/></g></svg>