# Blender 5.0.1
# www.blender.org
mtllib Bookshelf_1.mtl
g Shelf_5_Mesh
v 0.476469 0.295280 -0.028725
v 0.480801 0.265594 -0.028725
v -0.458284 0.158864 -0.028725
v -0.453952 0.129179 -0.028725
v 0.476469 0.295280 -0.332678
v 0.480801 0.265594 -0.332678
v -0.458284 0.158864 -0.332678
v -0.453952 0.129179 -0.332678
vn -0.0000 -0.0000 1.0000
vn -0.9895 -0.1444 -0.0000
vn -0.0000 -0.0000 -1.0000
vn 0.9895 0.1444 -0.0000
vn -0.1444 0.9895 -0.0000
vn 0.1444 -0.9895 -0.0000
vt 0.316680 0.528821
vt 0.331349 0.990710
vt 0.316680 0.990710
vt 0.354028 0.529797
vt 0.368697 0.678416
vt 0.354028 0.678416
vt 0.332913 0.528821
vt 0.347582 0.990710
vt 0.332913 0.990710
vt 0.354028 0.679980
vt 0.368697 0.828598
vt 0.354028 0.828598
vt 0.011433 0.528821
vt 0.160051 0.990710
vt 0.011433 0.990710
vt 0.161615 0.528821
vt 0.310234 0.990710
vt 0.161615 0.990710
vt 0.331349 0.528821
vt 0.368697 0.529797
vt 0.347582 0.528821
vt 0.368697 0.679980
vt 0.160051 0.528821
vt 0.310234 0.528821
s 0
g off
g Shelf_5_Bookshelf_1_Material_1
usemtl Bookshelf_1_Material_1
f 3/1/1 2/2/1 1/3/1
f 7/4/2 4/5/2 3/6/2
f 5/7/3 8/8/3 7/9/3
f 1/10/4 6/11/4 5/12/4
f 1/13/5 7/14/5 3/15/5
f 6/16/6 4/17/6 8/18/6
f 3/1/1 4/19/1 2/2/1
f 7/4/2 8/20/2 4/5/2
f 5/7/3 6/21/3 8/8/3
f 1/10/4 2/22/4 6/11/4
f 1/13/5 5/23/5 7/14/5
f 6/16/6 2/24/6 4/17/6
g Shelf_4_Mesh
v 0.485752 0.567169 -0.334140
v 0.485752 0.596995 -0.330910
v -0.458903 0.567168 -0.334140
v -0.458903 0.596994 -0.330910
v 0.485752 0.534446 -0.031953
v 0.485752 0.564271 -0.028723
v -0.458902 0.534444 -0.031953
v -0.458902 0.564270 -0.028723
vn -0.0000 0.1077 -0.9942
vn -1.0000 -0.0000 -0.0000
vn -0.0000 -0.1077 0.9942
vn 1.0000 -0.0000 -0.0000
vn -0.0000 -0.9942 -0.1077
vn -0.0000 0.9942 0.1077
vt 0.316680 0.990710
vt 0.331349 0.528821
vt 0.331349 0.990710
vt 0.354028 0.529797
vt 0.368697 0.678416
vt 0.354028 0.678416
vt 0.332913 0.528821
vt 0.347582 0.990710
vt 0.332913 0.990710
vt 0.354028 0.679980
vt 0.368697 0.828598
vt 0.354028 0.828598
vt 0.011433 0.528821
vt 0.160051 0.990710
vt 0.011433 0.990710
vt 0.161615 0.528821
vt 0.310234 0.990710
vt 0.161615 0.990710
vt 0.316680 0.528821
vt 0.368697 0.529797
vt 0.347582 0.528821
vt 0.368697 0.679980
vt 0.160051 0.528821
vt 0.310234 0.528821
s 0
g off
g Shelf_4_Bookshelf_1_Material_1
usemtl Bookshelf_1_Material_1
f 9/25/7 12/26/7 10/27/7
f 15/28/8 12/29/8 11/30/8
f 13/31/9 16/32/9 15/33/9
f 9/34/10 14/35/10 13/36/10
f 9/37/11 15/38/11 11/39/11
f 14/40/12 12/41/12 16/42/12
f 9/25/7 11/43/7 12/26/7
f 15/28/8 16/44/8 12/29/8
f 13/31/9 14/45/9 16/32/9
f 9/34/10 10/46/10 14/35/10
f 9/37/11 13/47/11 15/38/11
f 14/40/12 10/48/12 12/41/12
g Shelf_3_Mesh
v -0.458903 0.909528 -0.028725
v -0.458903 0.939528 -0.028725
v 0.485752 0.909527 -0.028725
v 0.485752 0.939527 -0.028725
v -0.458903 0.909528 -0.332678
v -0.458903 0.939528 -0.332678
v 0.485752 0.909527 -0.332678
v 0.485752 0.939527 -0.332678
vn -0.0000 -0.0000 1.0000
vn 1.0000 -0.0000 -0.0000
vn -0.0000 -0.0000 -1.0000
vn -1.0000 -0.0000 -0.0000
vn -0.0000 -1.0000 -0.0000
vn -0.0000 1.0000 -0.0000
vt 0.316680 0.528821
vt 0.331349 0.990710
vt 0.316680 0.990710
vt 0.354028 0.529797
vt 0.368697 0.678416
vt 0.354028 0.678416
vt 0.332913 0.528821
vt 0.347582 0.990710
vt 0.332913 0.990710
vt 0.354028 0.679980
vt 0.368697 0.828598
vt 0.354028 0.828598
vt 0.011433 0.528821
vt 0.160051 0.990710
vt 0.011433 0.990710
vt 0.161615 0.528821
vt 0.310234 0.990710
vt 0.161615 0.990710
vt 0.331349 0.528821
vt 0.368697 0.529797
vt 0.347582 0.528821
vt 0.368697 0.679980
vt 0.160051 0.528821
vt 0.310234 0.528821
s 0
g off
g Shelf_3_Bookshelf_1_Material_1
usemtl Bookshelf_1_Material_1
f 19/49/13 18/50/13 17/51/13
f 23/52/14 20/53/14 19/54/14
f 21/55/15 24/56/15 23/57/15
f 17/58/16 22/59/16 21/60/16
f 17/61/17 23/62/17 19/63/17
f 22/64/18 20/65/18 24/66/18
f 19/49/13 20/67/13 18/50/13
f 23/52/14 24/68/14 20/53/14
f 21/55/15 22/69/15 24/56/15
f 17/58/16 18/70/16 22/59/16
f 17/61/17 21/71/17 23/62/17
f 22/64/18 18/72/18 20/65/18
g Shelf_2_Mesh
v 0.485752 1.309655 -0.028725
v 0.485752 1.279655 -0.028725
v -0.458903 1.309655 -0.028725
v -0.458903 1.279655 -0.028725
v 0.485752 1.309655 -0.332678
v 0.485752 1.279655 -0.332678
v -0.458903 1.309655 -0.332678
v -0.458903 1.279655 -0.332678
vn -0.0000 -0.0000 1.0000
vn -1.0000 -0.0000 -0.0000
vn -0.0000 -0.0000 -1.0000
vn 1.0000 -0.0000 -0.0000
vn -0.0000 1.0000 -0.0000
vn -0.0000 -1.0000 -0.0000
vt 0.316680 0.528821
vt 0.331349 0.990710
vt 0.316680 0.990710
vt 0.354028 0.529797
vt 0.368697 0.678416
vt 0.354028 0.678416
vt 0.332913 0.528821
vt 0.347582 0.990710
vt 0.332913 0.990710
vt 0.354028 0.679980
vt 0.368697 0.828598
vt 0.354028 0.828598
vt 0.011433 0.528821
vt 0.160051 0.990710
vt 0.011433 0.990710
vt 0.161615 0.528821
vt 0.310234 0.990710
vt 0.161615 0.990710
vt 0.331349 0.528821
vt 0.368697 0.529797
vt 0.347582 0.528821
vt 0.368697 0.679980
vt 0.160051 0.528821
vt 0.310234 0.528821
s 0
g off
g Shelf_2_Bookshelf_1_Material_1
usemtl Bookshelf_1_Material_1
f 27/73/19 26/74/19 25/75/19
f 31/76/20 28/77/20 27/78/20
f 29/79/21 32/80/21 31/81/21
f 25/82/22 30/83/22 29/84/22
f 25/85/23 31/86/23 27/87/23
f 30/88/24 28/89/24 32/90/24
f 27/73/19 28/91/19 26/74/19
f 31/76/20 32/92/20 28/77/20
f 29/79/21 30/93/21 32/80/21
f 25/82/22 26/94/22 30/83/22
f 25/85/23 29/95/23 31/86/23
f 30/88/24 26/96/24 28/89/24
g Shelf_1_Mesh
v 0.357409 1.323615 -0.028725
v 0.342469 1.297599 -0.028725
v -0.461776 1.794048 -0.028725
v -0.476716 1.768033 -0.028725
v 0.357409 1.323615 -0.332678
v 0.342469 1.297599 -0.332678
v -0.461776 1.794048 -0.332678
v -0.476716 1.768033 -0.332678
vn -0.0000 -0.0000 1.0000
vn -0.8672 0.4980 -0.0000
vn -0.0000 -0.0000 -1.0000
vn 0.8672 -0.4980 -0.0000
vn 0.4980 0.8672 -0.0000
vn -0.4980 -0.8672 -0.0000
vt 0.316680 0.528821
vt 0.331349 0.990710
vt 0.316680 0.990710
vt 0.354028 0.529797
vt 0.368697 0.678416
vt 0.354028 0.678416
vt 0.332913 0.528821
vt 0.347582 0.990710
vt 0.332913 0.990710
vt 0.354028 0.679980
vt 0.368697 0.828598
vt 0.354028 0.828598
vt 0.011433 0.528821
vt 0.160051 0.990710
vt 0.011433 0.990710
vt 0.161615 0.528821
vt 0.310234 0.990710
vt 0.161615 0.990710
vt 0.331349 0.528821
vt 0.368697 0.529797
vt 0.347582 0.528821
vt 0.368697 0.679980
vt 0.160051 0.528821
vt 0.310234 0.528821
s 0
g off
g Shelf_1_Bookshelf_1_Material_1
usemtl Bookshelf_1_Material_1
f 35/97/25 34/98/25 33/99/25
f 39/100/26 36/101/26 35/102/26
f 37/103/27 40/104/27 39/105/27
f 33/106/28 38/107/28 37/108/28
f 33/109/29 39/110/29 35/111/29
f 38/112/30 36/113/30 40/114/30
f 35/97/25 36/115/25 34/98/25
f 39/100/26 40/116/26 36/101/26
f 37/103/27 38/117/27 40/104/27
f 33/106/28 34/118/28 38/107/28
f 33/109/29 37/119/29 39/110/29
f 38/112/30 34/120/30 36/113/30
g Bookshelf_1_Mesh
v 0.477544 0.035881 -0.400000
v 0.477544 1.964119 -0.400000
v -0.450694 0.035881 -0.400000
v -0.450694 1.964119 -0.400000
v 0.513425 0.000000 0.000000
v 0.513425 2.000000 0.000000
v -0.486575 0.000000 0.000000
v -0.486575 2.000000 0.000000
v -0.486575 0.000000 -0.400000
v 0.513425 0.000000 -0.400000
v 0.513425 2.000000 -0.400000
v -0.486575 2.000000 -0.400000
v -0.450694 0.035881 -0.028702
v 0.477544 0.035881 -0.028702
v 0.477544 1.964119 -0.028702
v -0.450694 1.964119 -0.028702
v 0.490341 1.486687 -0.334873
v -0.486575 1.486687 -0.400000
v -0.486575 1.486687 0.000000
v 0.513425 1.486687 0.000000
v 0.454460 1.486687 -0.334873
v -0.450694 1.486687 -0.400000
v 0.477544 1.486687 -0.028702
v -0.450694 1.486687 -0.028702
v -0.486575 0.586453 -0.301250
v -0.486575 0.586453 0.000000
v 0.513425 0.586453 0.000000
v -0.450694 0.586453 -0.301250
v -0.450694 0.586453 -0.028702
v 0.513425 0.586453 -0.400000
v 0.477544 0.586453 -0.400000
v 0.477544 0.586453 -0.028702
vn -0.0000 -1.0000 -0.0000
vn -1.0000 -0.0000 -0.0000
vn -0.0000 -0.0000 1.0000
vn 0.9989 -0.0062 -0.0455
vn 0.9993 -0.0284 -0.0253
vn 0.9976 -0.0000 -0.0688
vn -0.0000 1.0000 -0.0000
vn -0.0000 -0.0000 -1.0000
vn -0.0800 0.0824 -0.9934
vn -0.0000 0.0358 -0.9994
vn -0.0000 0.0364 -0.9993
vn 0.0640 -0.0662 -0.9958
vn -0.0000 -0.0546 -0.9985
vn 1.0000 -0.0000 -0.0000
vn -0.9987 0.0071 0.0504
vn -0.9992 0.0308 0.0273
vn -0.9988 0.0483 -0.0000
vn -0.9999 -0.0101 0.0079
vn -0.9999 -0.0125 -0.0000
vn -0.0034 0.0339 -0.9994
vn -0.0000 0.0341 -0.9994
vn 0.0029 -0.0322 -0.9995
vn -0.0000 -0.0309 -0.9995
vn 0.9999 0.0099 -0.0078
vn 0.9990 -0.0449 -0.0000
vn -0.0832 0.0832 -0.9931
vn 0.0640 -0.0640 -0.9959
vn -0.9972 -0.0000 0.0752
vn 0.9999 0.0125 -0.0000
vt 0.567101 0.506713
vt 0.662383 0.744917
vt 0.662383 0.506713
vt 0.872210 0.134314
vt 0.769569 0.002588
vt 0.769569 0.134314
vt 0.521012 0.134314
vt 0.264392 0.002588
vt 0.264392 0.134314
vt 0.963385 0.134314
vt 0.877387 0.002588
vt 0.877387 0.134314
vt 0.688344 0.753722
vt 0.592178 0.994136
vt 0.688344 0.994136
vt 0.789359 0.753722
vt 0.693193 0.994136
vt 0.789359 0.994136
vt 0.002588 0.515827
vt 0.250000 0.506619
vt 0.011796 0.506619
vt 0.002588 0.365332
vt 0.011796 0.365332
vt 0.259208 0.002588
vt 0.011796 0.011796
vt 0.250000 0.011796
vt 0.259208 0.134314
vt 0.250000 0.134314
vt 0.764392 0.125107
vt 0.526188 0.002588
vt 0.526188 0.125107
vt 0.762842 0.744917
vt 0.667560 0.506713
vt 0.667560 0.744917
vt 0.963999 0.859773
vt 0.897788 0.993535
vt 0.987989 0.993535
vt 0.818443 0.641060
vt 0.892887 0.525068
vt 0.802685 0.525068
vt 0.892887 0.859773
vt 0.802685 0.859773
vt 0.897788 0.525068
vt 0.987989 0.641060
vt 0.987989 0.525068
vt 0.764392 0.356124
vt 0.526188 0.356124
vt 0.259215 0.365332
vt 0.250008 0.365332
vt 0.008517 0.134314
vt 0.017725 0.134314
vt 0.877387 0.365332
vt 0.521012 0.365332
vt 0.264392 0.365332
vt 0.794908 0.365332
vt 0.872210 0.515827
vt 0.769569 0.515827
vt 0.521012 0.515827
vt 0.264392 0.515827
vt 0.980027 0.515827
vt 0.877387 0.515827
vt 0.764392 0.497412
vt 0.526188 0.497412
vt 0.892887 0.993535
vt 0.802685 0.993535
vt 0.897788 0.641060
vt 0.567101 0.744917
vt 0.872210 0.002588
vt 0.521012 0.002588
vt 0.980027 0.002588
vt 0.592178 0.753722
vt 0.693193 0.753722
vt 0.259208 0.515827
vt 0.002588 0.002588
vt 0.764392 0.002588
vt 0.762842 0.506713
vt 0.897788 0.859773
vt 0.892887 0.641060
vt 0.980027 0.365332
vt 0.872210 0.365332
s 1
g off
g Bookshelf_1_Bookshelf_1_Material_1
usemtl Bookshelf_1_Material_1
f 55/121/31 44/122/31 42/123/31
s 2
f 59/124/32 52/125/32 58/126/32
s 3
f 60/127/33 48/128/33 59/129/33
s 4
f 57/130/34 46/131/35 60/132/36
s 5
f 50/133/31 47/134/31 49/135/31
s 6
f 46/136/37 52/137/37 48/138/37
s 7
f 50/139/38 43/140/39 41/141/38
f 70/142/40 41/141/38 71/143/41
f 52/144/38 42/145/42 44/146/38
f 58/147/43 44/146/38 62/148/43
s 8
f 64/149/38 55/150/38 63/151/38
s 9
f 53/152/37 41/153/37 43/154/37
s 10
f 68/155/44 53/156/44 43/157/44
s 11
f 61/158/45 55/159/46 42/160/47
f 72/161/48 61/158/45 71/162/49
s 10
f 56/163/44 62/164/44 44/165/44
s 8
f 69/166/38 63/151/38 72/167/38
s 7
f 65/168/50 62/148/43 68/169/51
f 42/145/42 57/170/52 61/171/53
s 4
f 67/172/54 57/130/34 60/132/36
s 3
f 67/173/33 59/129/33 66/174/33
s 2
f 65/175/32 59/124/32 58/126/32
f 47/176/32 65/175/32 49/177/32
s 3
f 45/178/33 66/174/33 47/179/33
s 4
f 50/180/44 67/172/54 45/181/44
s 7
f 43/140/39 65/168/50 68/169/51
s 8
f 53/182/38 72/167/38 54/183/38
s 11
f 54/184/32 71/162/49 41/185/32
s 10
f 64/186/44 68/155/44 62/164/44
s 7
f 57/170/52 71/143/41 61/171/53
s 1
f 55/121/31 56/187/31 44/122/31
s 2
f 59/124/32 48/188/32 52/125/32
s 3
f 60/127/33 46/189/33 48/128/33
s 4
f 57/130/34 51/190/55 46/131/35
s 5
f 50/133/31 45/191/31 47/134/31
s 6
f 46/136/37 51/192/37 52/137/37
s 7
f 50/139/38 49/193/56 43/140/39
f 70/142/40 50/139/38 41/141/38
f 52/144/38 51/194/57 42/145/42
f 58/147/43 52/144/38 44/146/38
s 8
f 64/149/38 56/195/38 55/150/38
s 9
f 53/152/37 54/196/37 41/153/37
s 10
f 68/155/44 69/197/44 53/156/44
s 11
f 61/158/45 63/198/58 55/159/46
f 72/161/48 63/198/58 61/158/45
s 10
f 56/163/44 64/186/44 62/164/44
s 8
f 69/166/38 64/149/38 63/151/38
s 7
f 65/168/50 58/147/43 62/148/43
f 42/145/42 51/194/57 57/170/52
s 4
f 67/172/54 70/199/59 57/130/34
s 3
f 67/173/33 60/127/33 59/129/33
s 2
f 65/175/32 66/200/32 59/124/32
f 47/176/32 66/200/32 65/175/32
s 3
f 45/178/33 67/173/33 66/174/33
s 4
f 50/180/44 70/199/59 67/172/54
s 7
f 43/140/39 49/193/56 65/168/50
s 8
f 53/182/38 69/166/38 72/167/38
s 11
f 54/184/32 72/161/48 71/162/49
s 10
f 64/186/44 69/197/44 68/155/44
s 7
f 57/170/52 70/142/40 71/143/41
